<svg width="527" height="587" viewBox="0 0 527 587" fill="none" xmlns="http://www.w3.org/2000/svg">
<path d="M442.511 0.285156H84.1108C69.9723 0.285156 58.5107 11.7723 58.5107 25.9424V561.056C58.5107 575.227 69.9723 586.714 84.1108 586.714H442.511C456.649 586.714 468.111 575.227 468.111 561.056V25.9424C468.111 11.7723 456.649 0.285156 442.511 0.285156Z" fill="white"/>
<path d="M109.71 36.9375H416.91C431.048 36.9375 442.51 48.4246 442.51 62.5947V524.405C442.51 538.575 431.048 550.063 416.91 550.063H109.71C95.5712 550.063 84.1099 538.575 84.1099 524.405V62.5947C84.1099 48.4246 95.5712 36.9375 109.71 36.9375Z" fill="#68E89B"/>
<path d="M100.57 456.604C156.113 512.272 274.001 484.375 363.88 394.295C453.758 304.215 481.593 186.064 426.05 130.397C370.506 74.729 252.618 102.626 162.74 192.705C72.8609 282.785 45.0265 400.937 100.57 456.604Z" fill="white"/>
<path d="M223.408 268.467C220.534 268.467 217.6 270.786 216.83 273.666L187.84 382.101C187.07 384.981 188.765 387.3 191.639 387.3H264.264C267.138 387.3 270.072 384.981 270.842 382.101L299.83 273.666C300.6 270.786 298.907 268.467 296.033 268.467H223.408V268.467Z" fill="black"/>
<path d="M269.066 206.381C266.192 206.381 263.26 208.7 262.49 211.58L233.499 320.013C232.729 322.894 234.422 325.212 237.296 325.212H309.921C312.795 325.212 315.729 322.894 316.499 320.013L345.49 211.58C346.26 208.7 344.564 206.381 341.691 206.381H269.066Z" fill="black"/>
<path d="M290.032 262.454H217.407C214.542 262.454 211.597 264.782 210.83 267.653L181.84 376.087C181.072 378.959 182.772 381.286 185.637 381.286H258.262C261.127 381.286 264.072 378.959 264.84 376.087L293.83 267.653C294.598 264.782 292.897 262.454 290.032 262.454Z" fill="white" stroke="black" stroke-width="1.37669"/>
<path d="M220.608 269.881H282.858C285.723 269.881 287.424 272.209 286.656 275.08L261.637 368.66C260.869 371.531 257.925 373.859 255.06 373.859H192.809C189.944 373.859 188.244 371.531 189.012 368.66L214.031 275.08C214.798 272.209 217.743 269.881 220.608 269.881Z" fill="#68E89B"/>
<path d="M335.691 200.367H263.065C260.2 200.367 257.256 202.694 256.488 205.566L227.498 314C226.73 316.871 228.43 319.199 231.295 319.199H303.921C306.786 319.199 309.731 316.871 310.498 314L339.488 205.566C340.256 202.694 338.556 200.367 335.691 200.367Z" fill="white" stroke="black" stroke-width="1.37669"/>
<path d="M266.267 207.794H328.518C331.383 207.794 333.083 210.122 332.315 212.993L307.296 306.573C306.529 309.445 303.584 311.772 300.719 311.772H238.469C235.604 311.772 233.903 309.445 234.671 306.573L259.69 212.993C260.458 210.122 263.402 207.794 266.267 207.794Z" fill="#68E89B"/>
<path d="M106.505 85.1409V54.5696H111.693V85.1409H106.505ZM93.8133 72.4492V67.2613H124.385V72.4492H93.8133ZM133.278 93.4785V89.3097L148.934 72.1713C150.772 70.164 152.285 68.4193 153.474 66.9371C154.663 65.4394 155.543 64.0343 156.114 62.7219C156.701 61.3941 156.994 60.0045 156.994 58.5531C156.994 56.8856 156.593 55.442 155.79 54.2222C155.002 53.0024 153.921 52.0606 152.547 51.3967C151.173 50.7328 149.629 50.4008 147.915 50.4008C146.093 50.4008 144.503 50.7791 143.144 51.5356C141.801 52.2768 140.759 53.319 140.018 54.6622C139.292 56.0055 138.929 57.5804 138.929 59.3869H133.463C133.463 56.6077 134.104 54.1682 135.386 52.0683C136.667 49.9685 138.412 48.3318 140.62 47.1584C142.843 45.9849 145.337 45.3982 148.101 45.3982C150.88 45.3982 153.342 45.9849 155.489 47.1584C157.635 48.3318 159.318 49.9144 160.537 51.9062C161.757 53.898 162.367 56.1136 162.367 58.5531C162.367 60.2979 162.051 62.004 161.418 63.6715C160.8 65.3236 159.719 67.1687 158.175 69.2068C156.647 71.2294 154.524 73.6998 151.806 76.618L141.153 88.0127V88.3833H163.201V93.4785H133.278Z" fill="black"/>
<path d="M106.505 85.1409H106.114V85.5322H106.505V85.1409ZM106.505 54.5696V54.1783H106.114V54.5696H106.505ZM111.693 54.5696H112.084V54.1783H111.693V54.5696ZM111.693 85.1409V85.5322H112.084V85.1409H111.693ZM93.8133 72.4492H93.422V72.8405H93.8133V72.4492ZM93.8133 67.2613V66.87H93.422V67.2613H93.8133ZM124.385 67.2613H124.776V66.87H124.385V67.2613ZM124.385 72.4492V72.8405H124.776V72.4492H124.385ZM106.896 85.1409V54.5696H106.114V85.1409H106.896ZM106.505 54.9609H111.693V54.1783H106.505V54.9609ZM111.302 54.5696V85.1409H112.084V54.5696H111.302ZM111.693 84.7496H106.505V85.5322H111.693V84.7496ZM94.2047 72.4492V67.2613H93.422V72.4492H94.2047ZM93.8133 67.6526H124.385V66.87H93.8133V67.6526ZM123.993 67.2613V72.4492H124.776V67.2613H123.993ZM124.385 72.0579H93.8133V72.8405H124.385V72.0579ZM133.278 93.4785H132.887V93.8698H133.278V93.4785ZM133.278 89.3097L132.989 89.0458L132.887 89.1579V89.3097H133.278ZM148.934 72.1713L148.646 71.907L148.645 71.9073L148.934 72.1713ZM153.474 66.9371L153.779 67.1819L153.78 67.1804L153.474 66.9371ZM156.114 62.7219L155.756 62.5638L155.755 62.5658L156.114 62.7219ZM155.79 54.2222L155.461 54.4344L155.463 54.4373L155.79 54.2222ZM152.547 51.3967L152.718 51.0443L152.718 51.0443L152.547 51.3967ZM143.144 51.5356L143.333 51.8783L143.335 51.8775L143.144 51.5356ZM140.018 54.6622L139.675 54.4732L139.673 54.4762L140.018 54.6622ZM138.929 59.3869V59.7782H139.32V59.3869H138.929ZM133.463 59.3869H133.072V59.7782H133.463V59.3869ZM135.386 52.0683L135.72 52.2722L135.72 52.2722L135.386 52.0683ZM140.62 47.1584L140.437 46.8123L140.436 46.8128L140.62 47.1584ZM155.489 47.1584L155.676 46.815L155.676 46.815L155.489 47.1584ZM160.537 51.9062L160.204 52.1106L160.537 51.9062ZM161.418 63.6715L161.052 63.5326L161.051 63.5345L161.418 63.6715ZM158.175 69.2068L157.863 68.9705L157.863 68.9708L158.175 69.2068ZM151.806 76.618L152.092 76.8852L152.093 76.8847L151.806 76.618ZM141.153 88.0127L140.867 87.7455L140.761 87.8583V88.0127H141.153ZM141.153 88.3833H140.761V88.7746H141.153V88.3833ZM163.201 88.3833H163.592V87.992H163.201V88.3833ZM163.201 93.4785V93.8698H163.592V93.4785H163.201ZM133.669 93.4785V89.3097H132.887V93.4785H133.669ZM133.567 89.5736L149.223 72.4352L148.645 71.9073L132.989 89.0458L133.567 89.5736ZM149.223 72.4355C151.064 70.4244 152.583 68.6729 153.779 67.1819L153.168 66.6922C151.987 68.1657 150.48 69.9037 148.646 71.907L149.223 72.4355ZM153.78 67.1804C154.984 65.6644 155.884 64.2301 156.473 62.8781L155.755 62.5658C155.201 63.8386 154.342 65.2144 153.167 66.6938L153.78 67.1804ZM156.472 62.8801C157.081 61.5024 157.385 60.059 157.385 58.5531H156.603C156.603 59.95 156.321 61.2858 155.756 62.5638L156.472 62.8801ZM157.385 58.5531C157.385 56.8203 156.967 55.2994 156.117 54.0071L155.463 54.4373C156.218 55.5845 156.603 56.9509 156.603 58.5531H157.385ZM156.118 54.01C155.29 52.7267 154.153 51.7378 152.718 51.0443L152.377 51.749C153.69 52.3833 154.714 53.2782 155.461 54.4344L156.118 54.01ZM152.718 51.0443C151.284 50.3518 149.681 50.0095 147.915 50.0095V50.7921C149.577 50.7921 151.062 51.1137 152.377 51.749L152.718 51.0443ZM147.915 50.0095C146.038 50.0095 144.38 50.3996 142.954 51.1937L143.335 51.8775C144.626 51.1585 146.148 50.7921 147.915 50.7921V50.0095ZM142.955 51.193C141.547 51.9698 140.452 53.0653 139.675 54.4732L140.36 54.8513C141.066 53.5727 142.055 52.5837 143.333 51.8783L142.955 51.193ZM139.673 54.4762C138.912 55.8863 138.538 57.5274 138.538 59.3869H139.32C139.32 57.6335 139.672 56.1248 140.362 54.8482L139.673 54.4762ZM138.929 58.9956H133.463V59.7782H138.929V58.9956ZM133.855 59.3869C133.855 56.67 134.48 54.3029 135.72 52.2722L135.052 51.8645C133.728 54.0334 133.072 56.5453 133.072 59.3869H133.855ZM135.72 52.2722C136.964 50.2332 138.656 48.645 140.803 47.5039L140.436 46.8128C138.167 48.0186 136.37 49.7037 135.052 51.8645L135.72 52.2722ZM140.802 47.5044C142.964 46.3636 145.394 45.7895 148.101 45.7895V45.0069C145.28 45.0069 142.722 45.6063 140.437 46.8123L140.802 47.5044ZM148.101 45.7895C150.823 45.7895 153.22 46.3638 155.301 47.5017L155.676 46.815C153.465 45.606 150.936 45.0069 148.101 45.0069V45.7895ZM155.301 47.5017C157.39 48.644 159.021 50.1799 160.204 52.1106L160.871 51.7018C159.614 49.649 157.88 48.0197 155.676 46.815L155.301 47.5017ZM160.204 52.1106C161.384 54.038 161.976 56.1824 161.976 58.5531H162.758C162.758 56.0448 162.13 53.7579 160.871 51.7018L160.204 52.1106ZM161.976 58.5531C161.976 60.2493 161.668 61.9085 161.052 63.5326L161.783 63.8104C162.433 62.0995 162.758 60.3464 162.758 58.5531H161.976ZM161.051 63.5345C160.451 65.139 159.394 66.9503 157.863 68.9705L158.487 69.4431C160.045 67.387 161.149 65.5082 161.784 63.8085L161.051 63.5345ZM157.863 68.9708C156.346 70.9786 154.233 73.4381 151.52 76.3513L152.093 76.8847C154.815 73.9616 156.948 71.4803 158.487 69.4427L157.863 68.9708ZM151.52 76.3507L140.867 87.7455L141.438 88.28L152.092 76.8852L151.52 76.3507ZM140.761 88.0127V88.3833H141.544V88.0127H140.761ZM141.153 88.7746H163.201V87.992H141.153V88.7746ZM162.81 88.3833V93.4785H163.592V88.3833H162.81ZM163.201 93.0872H133.278V93.8698H163.201V93.0872Z" fill="black"/>
<path d="M420.116 501.859V532.43H414.928V501.859H420.116ZM432.808 514.551V519.739H402.236V514.551H432.808ZM393.343 493.521V497.69L377.687 514.829C375.849 516.836 374.336 518.581 373.147 520.063C371.959 521.561 371.078 522.966 370.507 524.278C369.92 525.606 369.627 526.996 369.627 528.447C369.627 530.114 370.029 531.558 370.831 532.778C371.619 533.998 372.7 534.939 374.074 535.603C375.448 536.267 376.992 536.599 378.706 536.599C380.528 536.599 382.118 536.221 383.477 535.464C384.82 534.723 385.862 533.681 386.603 532.338C387.329 530.994 387.692 529.42 387.692 527.613H393.158C393.158 530.392 392.517 532.832 391.235 534.932C389.954 537.032 388.209 538.668 386.001 539.842C383.778 541.015 381.284 541.602 378.521 541.602C375.741 541.602 373.279 541.015 371.132 539.842C368.986 538.668 367.303 537.086 366.084 535.094C364.864 533.102 364.254 530.886 364.254 528.447C364.254 526.702 364.57 524.996 365.204 523.328C365.821 521.676 366.902 519.831 368.446 517.793C369.974 515.771 372.097 513.3 374.815 510.382L385.469 498.987V498.617H363.42V493.521H393.343Z" fill="black"/>
<path d="M420.116 501.859H420.507V501.468H420.116V501.859ZM420.116 532.43V532.822H420.507V532.43H420.116ZM414.928 532.43H414.537V532.822H414.928V532.43ZM414.928 501.859V501.468H414.537V501.859H414.928ZM432.808 514.551H433.199V514.16H432.808V514.551ZM432.808 519.739V520.13H433.199V519.739H432.808ZM402.236 519.739H401.845V520.13H402.236V519.739ZM402.236 514.551V514.16H401.845V514.551H402.236ZM419.725 501.859V532.43H420.507V501.859H419.725ZM420.116 532.039H414.928V532.822H420.116V532.039ZM415.319 532.43V501.859H414.537V532.43H415.319ZM414.928 502.25H420.116V501.468H414.928V502.25ZM432.416 514.551V519.739H433.199V514.551H432.416ZM432.808 519.347H402.236V520.13H432.808V519.347ZM402.628 519.739V514.551H401.845V519.739H402.628ZM402.236 514.942H432.808V514.16H402.236V514.942ZM393.343 493.521H393.734V493.13H393.343V493.521ZM393.343 497.69L393.632 497.954L393.734 497.842V497.69H393.343ZM377.687 514.829L377.975 515.093L377.976 515.093L377.687 514.829ZM373.147 520.063L372.842 519.818L372.841 519.82L373.147 520.063ZM370.507 524.278L370.865 524.436L370.866 524.434L370.507 524.278ZM370.831 532.778L371.16 532.566L371.158 532.563L370.831 532.778ZM374.074 535.603L373.904 535.956L373.904 535.956L374.074 535.603ZM383.477 535.464L383.288 535.122L383.286 535.122L383.477 535.464ZM386.603 532.338L386.946 532.527L386.948 532.524L386.603 532.338ZM387.692 527.613V527.222H387.301V527.613H387.692ZM393.158 527.613H393.549V527.222H393.158V527.613ZM391.235 534.932L390.901 534.728L390.901 534.728L391.235 534.932ZM386.001 539.842L386.184 540.188L386.185 540.187L386.001 539.842ZM371.132 539.842L370.945 540.185L370.945 540.185L371.132 539.842ZM366.084 535.094L366.417 534.889L366.084 535.094ZM365.204 523.328L365.569 523.467L365.57 523.466L365.204 523.328ZM368.446 517.793L368.758 518.03L368.758 518.029L368.446 517.793ZM374.815 510.382L374.529 510.115L374.529 510.115L374.815 510.382ZM385.469 498.987L385.754 499.255L385.86 499.142V498.987H385.469ZM385.469 498.617H385.86V498.225H385.469V498.617ZM363.42 498.617H363.029V499.008H363.42V498.617ZM363.42 493.521V493.13H363.029V493.521H363.42ZM392.952 493.521V497.69H393.734V493.521H392.952ZM393.054 497.426L377.398 514.565L377.976 515.093L393.632 497.954L393.054 497.426ZM377.398 514.565C375.557 516.576 374.038 518.327 372.842 519.818L373.453 520.308C374.635 518.834 376.142 517.096 377.975 515.093L377.398 514.565ZM372.841 519.82C371.638 521.336 370.737 522.77 370.148 524.122L370.866 524.434C371.42 523.161 372.28 521.786 373.454 520.306L372.841 519.82ZM370.149 524.12C369.541 525.498 369.236 526.941 369.236 528.447H370.018C370.018 527.05 370.3 525.714 370.865 524.436L370.149 524.12ZM369.236 528.447C369.236 530.18 369.654 531.701 370.505 532.993L371.158 532.563C370.403 531.415 370.018 530.049 370.018 528.447H369.236ZM370.503 532.99C371.331 534.273 372.468 535.262 373.904 535.956L374.244 535.251C372.931 534.617 371.907 533.722 371.16 532.566L370.503 532.99ZM373.904 535.956C375.337 536.648 376.94 536.991 378.706 536.991V536.208C377.044 536.208 375.559 535.886 374.244 535.251L373.904 535.956ZM378.706 536.991C380.583 536.991 382.241 536.6 383.667 535.806L383.286 535.122C381.995 535.841 380.473 536.208 378.706 536.208V536.991ZM383.666 535.807C385.074 535.03 386.169 533.935 386.946 532.527L386.261 532.149C385.555 533.427 384.566 534.416 383.288 535.122L383.666 535.807ZM386.948 532.524C387.709 531.114 388.083 529.473 388.083 527.613H387.301C387.301 529.367 386.949 530.875 386.259 532.152L386.948 532.524ZM387.692 528.004H393.158V527.222H387.692V528.004ZM392.766 527.613C392.766 530.33 392.141 532.697 390.901 534.728L391.569 535.136C392.893 532.967 393.549 530.455 393.549 527.613H392.766ZM390.901 534.728C389.657 536.767 387.965 538.355 385.818 539.496L386.185 540.187C388.454 538.981 390.251 537.296 391.569 535.136L390.901 534.728ZM385.819 539.496C383.657 540.636 381.227 541.21 378.521 541.21V541.993C381.342 541.993 383.899 541.394 386.184 540.188L385.819 539.496ZM378.521 541.21C375.798 541.21 373.401 540.636 371.32 539.498L370.945 540.185C373.156 541.394 375.685 541.993 378.521 541.993V541.21ZM371.32 539.498C369.231 538.356 367.6 536.82 366.417 534.889L365.75 535.298C367.007 537.351 368.742 538.98 370.945 540.185L371.32 539.498ZM366.417 534.889C365.237 532.962 364.645 530.818 364.645 528.447H363.863C363.863 530.955 364.491 533.242 365.75 535.298L366.417 534.889ZM364.645 528.447C364.645 526.751 364.953 525.092 365.569 523.467L364.838 523.19C364.188 524.9 363.863 526.654 363.863 528.447H364.645ZM365.57 523.466C366.17 521.861 367.227 520.05 368.758 518.03L368.134 517.557C366.576 519.613 365.472 521.492 364.837 523.191L365.57 523.466ZM368.758 518.029C370.275 516.021 372.388 513.562 375.101 510.649L374.529 510.115C371.807 513.038 369.674 515.52 368.134 517.557L368.758 518.029ZM375.101 510.649L385.754 499.255L385.183 498.72L374.529 510.115L375.101 510.649ZM385.86 498.987V498.617H385.077V498.987H385.86ZM385.469 498.225H363.42V499.008H385.469V498.225ZM363.811 498.617V493.521H363.029V498.617H363.811ZM363.42 493.913H393.343V493.13H363.42V493.913Z" fill="black"/>
</svg>
