<svg width="527" height="586" viewBox="0 0 527 586" fill="none" xmlns="http://www.w3.org/2000/svg">
<path d="M442.51 0H84.1099C69.9714 0 58.5099 11.4616 58.5099 25.6001V559.52C58.5099 573.659 69.9714 585.12 84.1099 585.12H442.51C456.648 585.12 468.11 573.659 468.11 559.52V25.6001C468.11 11.4616 456.648 0 442.51 0Z" fill="white"/>
<path d="M416.91 36.5701H109.71C95.5714 36.5701 84.1099 48.0314 84.1099 62.1699V522.95C84.1099 537.088 95.5714 548.55 109.71 548.55H416.91C431.048 548.55 442.51 537.088 442.51 522.95V62.1699C442.51 48.0314 431.048 36.5701 416.91 36.5701Z" fill="#68E89B"/>
<path d="M100.57 455.3C156.113 510.843 274.001 483.009 363.88 393.13C453.759 303.251 481.593 185.364 426.05 129.82C370.507 74.277 252.619 102.111 162.74 191.99C72.8612 281.869 45.0268 399.757 100.57 455.3Z" fill="white"/>
<path d="M284.172 189.479V371.297H262.155V212.562H261.089L216.7 242.036V219.664L262.155 189.479H284.172Z" fill="black"/>
<path d="M281.354 186.055V367.873H259.337V209.137H258.272L213.883 238.612V216.24L259.337 186.055H281.354Z" fill="#68E89B"/>
<path d="M281.354 186.055H282.854V184.555H281.354V186.055ZM281.354 367.873V369.373H282.854V367.873H281.354ZM259.337 367.873H257.837V369.373H259.337V367.873ZM259.337 209.137H260.837V207.637H259.337V209.137ZM258.272 209.137V207.637H257.819L257.442 207.888L258.272 209.137ZM213.883 238.612H212.383V241.408L214.712 239.861L213.883 238.612ZM213.883 216.24L213.053 214.99L212.383 215.435V216.24H213.883ZM259.337 186.055V184.555H258.884L258.507 184.805L259.337 186.055ZM279.854 186.055V367.873H282.854V186.055H279.854ZM281.354 366.373H259.337V369.373H281.354V366.373ZM260.837 367.873V209.137H257.837V367.873H260.837ZM259.337 207.637H258.272V210.637H259.337V207.637ZM257.442 207.888L213.053 237.362L214.712 239.861L259.102 210.387L257.442 207.888ZM215.383 238.612V216.24H212.383V238.612H215.383ZM214.712 217.489L260.167 187.304L258.507 184.805L213.053 214.99L214.712 217.489ZM259.337 187.555H281.354V184.555H259.337V187.555Z" fill="black"/>
<path d="M124.431 46.5874V94.019H118.688V52.609H118.41L106.83 60.2981V54.4618L118.688 46.5874H124.431Z" fill="black"/>
<path d="M123.696 45.6941V93.1257H117.953V51.7157H117.675L106.095 59.4048V53.5685L117.953 45.6941H123.696Z" fill="black"/>
<path d="M123.696 45.6941H124.087V45.3028H123.696V45.6941ZM123.696 93.1257V93.517H124.087V93.1257H123.696ZM117.953 93.1257H117.561V93.517H117.953V93.1257ZM117.953 51.7157H118.344V51.3244H117.953V51.7157ZM117.675 51.7157V51.3244H117.557L117.458 51.3897L117.675 51.7157ZM106.095 59.4048H105.703V60.1344L106.311 59.7308L106.095 59.4048ZM106.095 53.5685L105.878 53.2425L105.703 53.3586V53.5685H106.095ZM117.953 45.6941V45.3028H117.834L117.736 45.3681L117.953 45.6941ZM123.305 45.6941V93.1257H124.087V45.6941H123.305ZM123.696 92.7344H117.953V93.517H123.696V92.7344ZM118.344 93.1257V51.7157H117.561V93.1257H118.344ZM117.953 51.3244H117.675V52.107H117.953V51.3244ZM117.458 51.3897L105.878 59.0788L106.311 59.7308L117.891 52.0417L117.458 51.3897ZM106.486 59.4048V53.5685H105.703V59.4048H106.486ZM106.311 53.8945L118.169 46.0201L117.736 45.3681L105.878 53.2425L106.311 53.8945ZM117.953 46.0854H123.696V45.3028H117.953V46.0854Z" fill="black"/>
<path d="M402.189 538.533V491.101H407.932V532.511H408.21L419.79 524.822V530.659L407.932 538.533H402.189Z" fill="black"/>
<path d="M402.923 539.426V491.995H408.667V533.405H408.945L420.525 525.716V531.552L408.667 539.426H402.923Z" fill="black"/>
<path d="M402.923 539.426H402.532V539.818H402.923V539.426ZM402.923 491.995V491.603H402.532V491.995H402.923ZM408.667 491.995H409.058V491.603H408.667V491.995ZM408.667 533.405H408.276V533.796H408.667V533.405ZM408.945 533.405V533.796H409.063L409.161 533.731L408.945 533.405ZM420.525 525.716H420.916V524.986L420.309 525.39L420.525 525.716ZM420.525 531.552L420.742 531.878L420.916 531.762V531.552H420.525ZM408.667 539.426V539.818H408.785L408.884 539.752L408.667 539.426ZM403.315 539.426V491.995H402.532V539.426H403.315ZM402.923 492.386H408.667V491.603H402.923V492.386ZM408.276 491.995V533.405H409.058V491.995H408.276ZM408.667 533.796H408.945V533.013H408.667V533.796ZM409.161 533.731L420.741 526.042L420.309 525.39L408.729 533.079L409.161 533.731ZM420.134 525.716V531.552H420.916V525.716H420.134ZM420.309 531.226L408.451 539.1L408.884 539.752L420.742 531.878L420.309 531.226ZM408.667 539.035H402.923V539.818H408.667V539.035Z" fill="black"/>
</svg>
