<svg width="527" height="587" viewBox="0 0 527 587" fill="none" xmlns="http://www.w3.org/2000/svg">
<path d="M442.51 0H84.1098C69.9713 0 58.5098 11.4872 58.5098 25.6573V560.771C58.5098 574.941 69.9713 586.429 84.1098 586.429H442.51C456.648 586.429 468.11 574.941 468.11 560.771V25.6573C468.11 11.4872 456.648 0 442.51 0Z" fill="white"/>
<path d="M109.71 36.6519H416.91C431.048 36.6519 442.51 48.1389 442.51 62.309V524.119C442.51 538.29 431.048 549.777 416.91 549.777H109.71C95.571 549.777 84.1095 538.29 84.1095 524.119V62.309C84.1095 48.1389 95.571 36.6519 109.71 36.6519Z" fill="#68E89B"/>
<path d="M100.57 456.318C156.113 511.986 274.001 484.089 363.88 394.009C453.759 303.929 481.593 185.778 426.05 130.11C370.506 74.4429 252.619 102.339 162.74 192.419C72.8611 282.499 45.0268 400.651 100.57 456.318Z" fill="white"/>
<path d="M220.251 371.586V355.606L280.265 289.91C287.308 282.216 293.108 275.528 297.666 269.846C302.223 264.105 305.597 258.719 307.786 253.689C310.036 248.599 311.16 243.272 311.16 237.709C311.16 231.317 309.621 225.783 306.544 221.107C303.525 216.431 299.382 212.821 294.115 210.276C288.847 207.731 282.929 206.459 276.359 206.459C269.375 206.459 263.279 207.909 258.071 210.809C252.921 213.65 248.926 217.645 246.085 222.794C243.304 227.943 241.913 233.98 241.913 240.905H220.961C220.961 230.251 223.417 220.9 228.33 212.851C233.242 204.801 239.93 198.528 248.394 194.03C256.916 189.531 266.475 187.282 277.069 187.282C287.723 187.282 297.163 189.531 305.389 194.03C313.616 198.528 320.067 204.594 324.743 212.229C329.419 219.864 331.757 228.357 331.757 237.709C331.757 244.397 330.543 250.937 328.117 257.329C325.749 263.661 321.606 270.734 315.688 278.547C309.828 286.3 301.69 295.77 291.274 306.956L250.436 350.635V352.055H334.953V371.586H220.251Z" fill="black"/>
<path d="M217.434 368.155V352.174L277.448 286.478C284.491 278.784 290.291 272.096 294.848 266.414C299.406 260.673 302.779 255.288 304.969 250.257C307.218 245.167 308.343 239.84 308.343 234.277C308.343 227.885 306.804 222.351 303.726 217.675C300.708 212.999 296.565 209.389 291.297 206.844C286.03 204.299 280.111 203.027 273.542 203.027C266.558 203.027 260.462 204.477 255.253 207.377C250.104 210.218 246.109 214.213 243.268 219.362C240.486 224.511 239.096 230.548 239.096 237.473H218.144C218.144 226.819 220.6 217.468 225.512 209.419C230.425 201.369 237.113 195.096 245.576 190.598C254.099 186.1 263.658 183.851 274.252 183.851C284.905 183.851 294.345 186.1 302.572 190.598C310.799 195.096 317.25 201.162 321.926 208.797C326.601 216.432 328.939 224.925 328.939 234.277C328.939 240.965 327.726 247.505 325.299 253.897C322.932 260.23 318.789 267.302 312.87 275.115C307.011 282.868 298.873 292.338 288.456 303.524L247.618 347.203V348.623H332.135V368.155H217.434Z" fill="#68E89B"/>
<path d="M217.434 368.155H215.934V369.655H217.434V368.155ZM217.434 352.174L216.326 351.163L215.934 351.592V352.174H217.434ZM277.448 286.478L276.341 285.466L276.34 285.467L277.448 286.478ZM294.848 266.414L296.018 267.353L296.023 267.347L294.848 266.414ZM304.969 250.257L303.597 249.651L303.594 249.658L304.969 250.257ZM303.726 217.675L302.466 218.489L302.473 218.5L303.726 217.675ZM291.297 206.844L291.95 205.494L291.297 206.844ZM255.253 207.377L255.978 208.69L255.983 208.687L255.253 207.377ZM243.268 219.362L241.955 218.637L241.948 218.649L243.268 219.362ZM239.096 237.473V238.973H240.596V237.473H239.096ZM218.144 237.473H216.644V238.973H218.144V237.473ZM225.512 209.419L226.793 210.2H226.793L225.512 209.419ZM245.576 190.598L244.876 189.271L244.872 189.273L245.576 190.598ZM302.572 190.598L303.292 189.282L302.572 190.598ZM321.926 208.797L320.647 209.581L321.926 208.797ZM325.299 253.897L323.897 253.364L323.894 253.371L325.299 253.897ZM312.87 275.115L311.675 274.209L311.674 274.21L312.87 275.115ZM288.456 303.524L289.552 304.548L289.554 304.546L288.456 303.524ZM247.618 347.203L246.523 346.178L246.118 346.611V347.203H247.618ZM247.618 348.623H246.118V350.123H247.618V348.623ZM332.135 348.623H333.635V347.123H332.135V348.623ZM332.135 368.155V369.655H333.635V368.155H332.135ZM218.934 368.155V352.174H215.934V368.155H218.934ZM218.541 353.186L278.555 287.49L276.34 285.467L216.326 351.163L218.541 353.186ZM278.554 287.491C285.611 279.782 291.434 273.069 296.018 267.353L293.678 265.476C289.148 271.124 283.371 277.786 276.341 285.466L278.554 287.491ZM296.023 267.347C300.636 261.536 304.088 256.038 306.344 250.855L303.594 249.658C301.47 254.537 298.175 259.811 293.674 265.482L296.023 267.347ZM306.341 250.863C308.675 245.582 309.843 240.049 309.843 234.277H306.843C306.843 239.631 305.762 244.752 303.597 249.651L306.341 250.863ZM309.843 234.277C309.843 227.634 308.24 221.804 304.979 216.85L302.473 218.5C305.368 222.897 306.843 228.135 306.843 234.277H309.843ZM304.986 216.862C301.811 211.942 297.452 208.152 291.95 205.494L290.645 208.195C295.677 210.626 299.605 214.057 302.466 218.489L304.986 216.862ZM291.95 205.494C286.455 202.839 280.309 201.527 273.542 201.527V204.527C279.913 204.527 285.604 205.76 290.645 208.195L291.95 205.494ZM273.542 201.527C266.346 201.527 259.99 203.022 254.523 206.066L255.983 208.687C260.933 205.931 266.769 204.527 273.542 204.527V201.527ZM254.529 206.063C249.132 209.041 244.932 213.24 241.955 218.637L244.581 220.087C247.286 215.185 251.077 211.394 255.978 208.69L254.529 206.063ZM241.948 218.649C239.028 224.054 237.596 230.345 237.596 237.473H240.596C240.596 230.751 241.944 224.968 244.588 220.075L241.948 218.649ZM239.096 235.973H218.144V238.973H239.096V235.973ZM219.644 237.473C219.644 227.058 222.042 217.985 226.793 210.2L224.232 208.637C219.158 216.951 216.644 226.58 216.644 237.473H219.644ZM226.793 210.2C231.563 202.384 238.05 196.296 246.28 191.922L244.872 189.273C236.176 193.895 229.287 200.355 224.232 208.637L226.793 210.2ZM246.276 191.924C254.563 187.551 263.877 185.351 274.252 185.351V182.351C263.438 182.351 253.636 184.648 244.876 189.271L246.276 191.924ZM274.252 185.351C284.688 185.351 293.875 187.552 301.852 191.914L303.292 189.282C294.816 184.647 285.122 182.351 274.252 182.351V185.351ZM301.852 191.914C309.861 196.292 316.114 202.18 320.647 209.581L323.205 208.014C318.386 200.145 311.737 193.899 303.292 189.282L301.852 191.914ZM320.647 209.581C325.171 216.969 327.439 225.189 327.439 234.277H330.439C330.439 224.662 328.032 215.895 323.205 208.014L320.647 209.581ZM327.439 234.277C327.439 240.779 326.261 247.139 323.897 253.364L326.702 254.429C329.191 247.871 330.439 241.151 330.439 234.277H327.439ZM323.894 253.371C321.595 259.522 317.541 266.465 311.675 274.209L314.066 276.021C320.037 268.139 324.269 260.937 326.704 254.422L323.894 253.371ZM311.674 274.21C305.858 281.907 297.758 291.334 287.359 302.502L289.554 304.546C299.988 293.341 308.164 283.83 314.067 276.019L311.674 274.21ZM287.361 302.499L246.523 346.178L248.714 348.227L289.552 304.548L287.361 302.499ZM246.118 347.203V348.623H249.118V347.203H246.118ZM247.618 350.123H332.135V347.123H247.618V350.123ZM330.635 348.623V368.155H333.635V348.623H330.635ZM332.135 366.655H217.434V369.655H332.135V366.655Z" fill="black"/>
<path d="M107.756 94.0884V89.9196L123.412 72.7811C125.249 70.7739 126.763 69.0292 127.951 67.5469C129.14 66.0493 130.02 64.6442 130.592 63.3318C131.178 62.004 131.472 60.6144 131.472 59.163C131.472 57.4955 131.07 56.0518 130.267 54.8321C129.48 53.6123 128.399 52.6705 127.025 52.0065C125.651 51.3426 124.107 51.0107 122.393 51.0107C120.571 51.0107 118.981 51.3889 117.622 52.1455C116.279 52.8866 115.237 53.9288 114.495 55.2721C113.77 56.6154 113.407 58.1903 113.407 59.9968H107.941C107.941 57.2175 108.582 54.778 109.863 52.6782C111.145 50.5783 112.89 48.9417 115.098 47.7682C117.321 46.5948 119.815 46.0081 122.578 46.0081C125.358 46.0081 127.82 46.5948 129.966 47.7682C132.113 48.9417 133.796 50.5243 135.015 52.5161C136.235 54.5078 136.845 56.7235 136.845 59.163C136.845 60.9077 136.528 62.6138 135.895 64.2814C135.278 65.9335 134.197 67.7785 132.653 69.8166C131.124 71.8393 129.001 74.3097 126.284 77.2278L115.63 88.6226V88.9932H137.679V94.0884H107.756Z" fill="black"/>
<path d="M107.021 93.1929V89.0241L122.677 71.8856C124.514 69.8784 126.027 68.1337 127.216 66.6514C128.405 65.1537 129.285 63.7487 129.857 62.4363C130.443 61.1085 130.737 59.7189 130.737 58.2675C130.737 56.6 130.335 55.1563 129.532 53.9366C128.745 52.7168 127.664 51.7749 126.29 51.111C124.916 50.4471 123.372 50.1151 121.658 50.1151C119.836 50.1151 118.246 50.4934 116.887 51.25C115.544 51.9911 114.501 53.0333 113.76 54.3766C113.035 55.7199 112.672 57.2948 112.672 59.1012H107.206C107.206 56.322 107.847 53.8825 109.128 51.7827C110.41 49.6828 112.155 48.0462 114.363 46.8727C116.586 45.6993 119.079 45.1126 121.843 45.1126C124.622 45.1126 127.085 45.6993 129.231 46.8727C131.377 48.0462 133.06 49.6288 134.28 51.6205C135.5 53.6123 136.11 55.828 136.11 58.2675C136.11 60.0122 135.793 61.7183 135.16 63.3859C134.543 65.0379 133.462 66.883 131.918 68.9211C130.389 70.9438 128.266 73.4142 125.549 76.3323L114.895 87.7271V88.0977H136.944V93.1929H107.021Z" fill="black"/>
<path d="M107.021 93.1929H106.629V93.5842H107.021V93.1929ZM107.021 89.0241L106.732 88.7601L106.629 88.8722V89.0241H107.021ZM122.677 71.8856L122.388 71.6214L122.388 71.6217L122.677 71.8856ZM127.216 66.6514L127.522 66.8963L127.523 66.8947L127.216 66.6514ZM129.857 62.4363L129.499 62.2781L129.498 62.2801L129.857 62.4363ZM129.532 53.9366L129.204 54.1488L129.206 54.1517L129.532 53.9366ZM126.29 51.111L126.46 50.7587L126.29 51.111ZM116.887 51.25L117.076 51.5926L117.077 51.5919L116.887 51.25ZM113.76 54.3766L113.418 54.1876L113.416 54.1906L113.76 54.3766ZM112.672 59.1012V59.4926H113.063V59.1012H112.672ZM107.206 59.1012H106.815V59.4926H107.206V59.1012ZM109.128 51.7827L109.462 51.9865L109.128 51.7827ZM114.363 46.8727L114.18 46.5267L114.179 46.5272L114.363 46.8727ZM129.231 46.8727L129.419 46.5294L129.231 46.8727ZM134.28 51.6205L133.946 51.8249L134.28 51.6205ZM135.16 63.3859L134.794 63.247L134.794 63.2488L135.16 63.3859ZM131.918 68.9211L131.606 68.6848L131.606 68.6852L131.918 68.9211ZM125.549 76.3323L125.835 76.5996L125.835 76.599L125.549 76.3323ZM114.895 87.7271L114.609 87.4598L114.504 87.5727V87.7271H114.895ZM114.895 88.0977H114.504V88.489H114.895V88.0977ZM136.944 88.0977H137.335V87.7063H136.944V88.0977ZM136.944 93.1929V93.5842H137.335V93.1929H136.944ZM107.412 93.1929V89.0241H106.629V93.1929H107.412ZM107.31 89.288L122.966 72.1495L122.388 71.6217L106.732 88.7601L107.31 89.288ZM122.966 72.1498C124.807 70.1388 126.326 68.3873 127.522 66.8963L126.911 66.4066C125.729 67.8801 124.222 69.618 122.388 71.6214L122.966 72.1498ZM127.523 66.8947C128.726 65.3787 129.627 63.9445 130.215 62.5925L129.498 62.2801C128.944 63.5529 128.084 64.9288 126.91 66.4081L127.523 66.8947ZM130.215 62.5945C130.823 61.2168 131.128 59.7733 131.128 58.2675H130.345C130.345 59.6644 130.063 61.0001 129.499 62.2781L130.215 62.5945ZM131.128 58.2675C131.128 56.5347 130.71 55.0138 129.859 53.7214L129.206 54.1517C129.961 55.2989 130.345 56.6653 130.345 58.2675H131.128ZM129.861 53.7243C129.033 52.441 127.896 51.4522 126.46 50.7587L126.12 51.4634C127.433 52.0977 128.457 52.9925 129.204 54.1488L129.861 53.7243ZM126.46 50.7587C125.027 50.0661 123.423 49.7238 121.658 49.7238V50.5065C123.32 50.5065 124.805 50.8281 126.12 51.4634L126.46 50.7587ZM121.658 49.7238C119.781 49.7238 118.123 50.114 116.697 50.9081L117.077 51.5919C118.369 50.8729 119.891 50.5065 121.658 50.5065V49.7238ZM116.698 50.9074C115.29 51.6842 114.195 52.7796 113.418 54.1876L114.103 54.5656C114.808 53.287 115.797 52.2981 117.076 51.5926L116.698 50.9074ZM113.416 54.1906C112.654 55.6006 112.281 57.2417 112.281 59.1012H113.063C113.063 57.3478 113.415 55.8391 114.105 54.5626L113.416 54.1906ZM112.672 58.7099H107.206V59.4926H112.672V58.7099ZM107.597 59.1012C107.597 56.3844 108.223 54.0173 109.462 51.9865L108.794 51.5788C107.471 53.7477 106.815 56.2597 106.815 59.1012H107.597ZM109.462 51.9865C110.707 49.9475 112.399 48.3594 114.546 47.2183L114.179 46.5272C111.91 47.733 110.113 49.4181 108.794 51.5788L109.462 51.9865ZM114.545 47.2188C116.707 46.0779 119.137 45.5039 121.843 45.5039V44.7213C119.022 44.7213 116.465 45.3206 114.18 46.5267L114.545 47.2188ZM121.843 45.5039C124.566 45.5039 126.962 46.0782 129.044 47.2161L129.419 46.5294C127.208 45.3204 124.679 44.7213 121.843 44.7213V45.5039ZM129.044 47.2161C131.133 48.3583 132.764 49.8942 133.946 51.8249L134.614 51.4162C133.357 49.3633 131.622 47.734 129.419 46.5294L129.044 47.2161ZM133.946 51.8249C135.127 53.7524 135.719 55.8967 135.719 58.2675H136.501C136.501 55.7592 135.873 53.4723 134.614 51.4162L133.946 51.8249ZM135.719 58.2675C135.719 59.9637 135.411 61.6228 134.794 63.247L135.526 63.5247C136.176 61.8139 136.501 60.0607 136.501 58.2675H135.719ZM134.794 63.2488C134.194 64.8533 133.136 66.6647 131.606 68.6848L132.23 69.1574C133.787 67.1014 134.891 65.2226 135.527 63.5229L134.794 63.2488ZM131.606 68.6852C130.088 70.6929 127.975 73.1524 125.262 76.0657L125.835 76.599C128.557 73.6759 130.69 71.1946 132.23 69.157L131.606 68.6852ZM125.263 76.0651L114.609 87.4598L115.181 87.9943L125.835 76.5996L125.263 76.0651ZM114.504 87.7271V88.0977H115.287V87.7271H114.504ZM114.895 88.489H136.944V87.7063H114.895V88.489ZM136.552 88.0977V93.1929H137.335V88.0977H136.552ZM136.944 92.8016H107.021V93.5842H136.944V92.8016Z" fill="black"/>
<path d="M424.246 491.67V495.839L408.589 512.978C406.752 514.985 405.239 516.73 404.05 518.212C402.861 519.71 401.981 521.115 401.41 522.427C400.823 523.755 400.53 525.144 400.53 526.596C400.53 528.263 400.931 529.707 401.734 530.927C402.521 532.146 403.602 533.088 404.976 533.752C406.351 534.416 407.895 534.748 409.608 534.748C411.43 534.748 413.021 534.37 414.379 533.613C415.723 532.872 416.765 531.83 417.506 530.487C418.232 529.143 418.595 527.569 418.595 525.762H424.06C424.06 528.541 423.42 530.981 422.138 533.081C420.856 535.18 419.112 536.817 416.904 537.991C414.68 539.164 412.187 539.751 409.423 539.751C406.644 539.751 404.181 539.164 402.035 537.991C399.889 536.817 398.206 535.234 396.986 533.243C395.766 531.251 395.157 529.035 395.157 526.596C395.157 524.851 395.473 523.145 396.106 521.477C396.724 519.825 397.805 517.98 399.349 515.942C400.877 513.92 403 511.449 405.718 508.531L416.371 497.136V496.766H394.323V491.67H424.246Z" fill="black"/>
<path d="M424.98 492.566V496.734L409.324 513.873C407.487 515.88 405.974 517.625 404.785 519.107C403.596 520.605 402.716 522.01 402.145 523.322C401.558 524.65 401.265 526.04 401.265 527.491C401.265 529.159 401.666 530.602 402.469 531.822C403.256 533.042 404.337 533.984 405.711 534.648C407.085 535.311 408.629 535.643 410.343 535.643C412.165 535.643 413.756 535.265 415.114 534.509C416.458 533.767 417.5 532.725 418.241 531.382C418.967 530.039 419.329 528.464 419.329 526.657H424.795C424.795 529.437 424.154 531.876 422.873 533.976C421.591 536.076 419.847 537.712 417.639 538.886C415.415 540.059 412.922 540.646 410.158 540.646C407.379 540.646 404.916 540.059 402.77 538.886C400.624 537.712 398.941 536.13 397.721 534.138C396.501 532.146 395.891 529.931 395.891 527.491C395.891 525.746 396.208 524.04 396.841 522.373C397.459 520.721 398.539 518.876 400.083 516.837C401.612 514.815 403.735 512.344 406.452 509.426L417.106 498.031V497.661H395.058V492.566H424.98Z" fill="black"/>
<path d="M424.98 492.566H425.372V492.174H424.98V492.566ZM424.98 496.734L425.269 496.998L425.372 496.886V496.734H424.98ZM409.324 513.873L409.613 514.137L409.613 514.137L409.324 513.873ZM404.785 519.107L404.48 518.862L404.478 518.864L404.785 519.107ZM402.145 523.322L402.503 523.48L402.503 523.478L402.145 523.322ZM402.469 531.822L402.798 531.61L402.796 531.607L402.469 531.822ZM405.711 534.648L405.541 535L405.711 534.648ZM415.114 534.509L414.925 534.166L414.924 534.167L415.114 534.509ZM418.241 531.382L418.584 531.571L418.585 531.568L418.241 531.382ZM419.329 526.657V526.266H418.938V526.657H419.329ZM424.795 526.657H425.186V526.266H424.795V526.657ZM422.873 533.976L422.539 533.772L422.873 533.976ZM417.639 538.886L417.821 539.232L417.822 539.231L417.639 538.886ZM402.77 538.886L402.582 539.229L402.77 538.886ZM397.721 534.138L398.055 533.934L397.721 534.138ZM396.841 522.373L397.207 522.512L397.208 522.51L396.841 522.373ZM400.083 516.837L400.395 517.074L400.396 517.073L400.083 516.837ZM406.452 509.426L406.167 509.159L406.166 509.16L406.452 509.426ZM417.106 498.031L417.392 498.299L417.497 498.186V498.031H417.106ZM417.106 497.661H417.497V497.27H417.106V497.661ZM395.058 497.661H394.666V498.052H395.058V497.661ZM395.058 492.566V492.174H394.666V492.566H395.058ZM424.589 492.566V496.734H425.372V492.566H424.589ZM424.692 496.471L409.035 513.609L409.613 514.137L425.269 496.998L424.692 496.471ZM409.036 513.609C407.195 515.62 405.676 517.371 404.48 518.862L405.09 519.352C406.272 517.878 407.779 516.141 409.613 514.137L409.036 513.609ZM404.478 518.864C403.275 520.38 402.374 521.814 401.786 523.166L402.503 523.478C403.057 522.206 403.917 520.83 405.091 519.35L404.478 518.864ZM401.787 523.164C401.178 524.542 400.873 525.985 400.873 527.491H401.656C401.656 526.094 401.938 524.758 402.503 523.48L401.787 523.164ZM400.873 527.491C400.873 529.224 401.291 530.745 402.142 532.037L402.796 531.607C402.041 530.46 401.656 529.093 401.656 527.491H400.873ZM402.14 532.034C402.969 533.318 404.106 534.306 405.541 535L405.882 534.295C404.569 533.661 403.544 532.766 402.798 531.61L402.14 532.034ZM405.541 535C406.974 535.692 408.578 536.035 410.343 536.035V535.252C408.681 535.252 407.196 534.93 405.882 534.295L405.541 535ZM410.343 536.035C412.22 536.035 413.878 535.645 415.305 534.85L414.924 534.167C413.633 534.886 412.11 535.252 410.343 535.252V536.035ZM415.303 534.851C416.711 534.074 417.807 532.979 418.583 531.571L417.898 531.193C417.193 532.472 416.204 533.46 414.925 534.166L415.303 534.851ZM418.585 531.568C419.347 530.158 419.721 528.517 419.721 526.657H418.938C418.938 528.411 418.586 529.919 417.897 531.196L418.585 531.568ZM419.329 527.049H424.795V526.266H419.329V527.049ZM424.404 526.657C424.404 529.374 423.778 531.741 422.539 533.772L423.207 534.18C424.531 532.011 425.186 529.499 425.186 526.657H424.404ZM422.539 533.772C421.294 535.811 419.602 537.399 417.455 538.54L417.822 539.231C420.091 538.026 421.888 536.34 423.207 534.18L422.539 533.772ZM417.456 538.54C415.294 539.681 412.865 540.255 410.158 540.255V541.037C412.979 541.037 415.536 540.438 417.821 539.232L417.456 538.54ZM410.158 540.255C407.435 540.255 405.039 539.68 402.958 538.542L402.582 539.229C404.793 540.438 407.322 541.037 410.158 541.037V540.255ZM402.958 538.542C400.869 537.4 399.237 535.864 398.055 533.934L397.387 534.342C398.645 536.395 400.379 538.025 402.582 539.229L402.958 538.542ZM398.055 533.934C396.874 532.006 396.283 529.862 396.283 527.491H395.5C395.5 529.999 396.128 532.286 397.387 534.342L398.055 533.934ZM396.283 527.491C396.283 525.795 396.59 524.136 397.207 522.512L396.475 522.234C395.826 523.945 395.5 525.698 395.5 527.491H396.283ZM397.208 522.51C397.807 520.905 398.865 519.094 400.395 517.074L399.771 516.601C398.214 518.657 397.11 520.536 396.474 522.236L397.208 522.51ZM400.396 517.073C401.913 515.066 404.026 512.606 406.739 509.693L406.166 509.16C403.444 512.083 401.311 514.564 399.771 516.601L400.396 517.073ZM406.738 509.693L417.392 498.299L416.82 497.764L406.167 509.159L406.738 509.693ZM417.497 498.031V497.661H416.715V498.031H417.497ZM417.106 497.27H395.058V498.052H417.106V497.27ZM395.449 497.661V492.566H394.666V497.661H395.449ZM395.058 492.957H424.98V492.174H395.058V492.957Z" fill="black"/>
</svg>
