<svg width="527" height="587" viewBox="0 0 527 587" fill="none" xmlns="http://www.w3.org/2000/svg">
<path d="M442.51 0H84.1095C69.971 0 58.5095 11.4872 58.5095 25.6573V560.771C58.5095 574.941 69.971 586.429 84.1095 586.429H442.51C456.648 586.429 468.11 574.941 468.11 560.771V25.6573C468.11 11.4872 456.648 0 442.51 0Z" fill="white"/>
<path d="M109.71 36.6519H416.91C431.048 36.6519 442.51 48.1389 442.51 62.309V524.119C442.51 538.29 431.048 549.777 416.91 549.777H109.71C95.5711 549.777 84.1096 538.29 84.1096 524.119V62.309C84.1096 48.1389 95.5711 36.6519 109.71 36.6519Z" fill="#68E89B"/>
<path d="M100.57 456.318C156.113 511.985 274.001 484.089 363.88 394.009C453.759 303.929 481.593 185.778 426.05 130.11C370.506 74.4428 252.619 102.339 162.74 192.419C72.8611 282.499 45.0267 400.65 100.57 456.318Z" fill="white"/>
<path d="M281.686 374.072C269.967 374.072 259.521 372.06 250.347 368.035C241.232 364.011 233.982 358.418 228.596 351.256C223.269 344.036 220.369 335.661 219.896 326.132H242.268C242.741 331.991 244.754 337.052 248.305 341.313C251.856 345.515 256.502 348.77 262.243 351.079C267.984 353.387 274.347 354.541 281.331 354.541C289.143 354.541 296.068 353.18 302.105 350.457C308.142 347.735 312.876 343.947 316.309 339.094C319.742 334.24 321.458 328.618 321.458 322.226C321.458 315.538 319.801 309.649 316.487 304.559C313.172 299.41 308.319 295.385 301.927 292.485C295.535 289.585 287.723 288.135 278.49 288.135H263.93V268.603H278.49C285.71 268.603 292.043 267.301 297.488 264.697C302.992 262.093 307.283 258.424 310.361 253.689C313.498 248.954 315.066 243.39 315.066 236.998C315.066 230.843 313.705 225.487 310.982 220.929C308.26 216.372 304.413 212.821 299.441 210.276C294.529 207.731 288.729 206.459 282.041 206.459C275.767 206.459 269.848 207.613 264.285 209.921C258.781 212.17 254.283 215.455 250.791 219.775C247.299 224.037 245.405 229.186 245.109 235.223H223.802C224.157 225.694 227.028 217.349 232.414 210.187C237.799 202.967 244.843 197.344 253.543 193.319C262.302 189.295 271.92 187.282 282.396 187.282C293.641 187.282 303.288 189.561 311.338 194.118C319.387 198.616 325.572 204.565 329.892 211.963C334.213 219.361 336.373 227.351 336.373 235.933C336.373 246.172 333.68 254.902 328.294 262.123C322.968 269.343 315.717 274.344 306.544 277.126V278.547C318.026 280.441 326.992 285.323 333.443 293.195C339.895 301.008 343.12 310.684 343.12 322.226C343.12 332.11 340.427 340.987 335.041 348.859C329.715 356.672 322.435 362.827 313.202 367.325C303.969 371.823 293.464 374.072 281.686 374.072Z" fill="black"/>
<path d="M278.868 370.641C267.149 370.641 256.703 368.628 247.529 364.604C238.415 360.579 231.164 354.986 225.778 347.825C220.452 340.604 217.552 332.229 217.078 322.7H239.45C239.924 328.56 241.936 333.62 245.487 337.881C249.038 342.084 253.685 345.339 259.426 347.647C265.167 349.955 271.529 351.109 278.513 351.109C286.325 351.109 293.25 349.748 299.287 347.026C305.324 344.303 310.059 340.515 313.492 335.662C316.924 330.809 318.641 325.186 318.641 318.794C318.641 312.106 316.984 306.217 313.669 301.127C310.355 295.978 305.502 291.953 299.109 289.053C292.717 286.153 284.905 284.703 275.672 284.703H261.112V265.172H275.672C282.893 265.172 289.225 263.87 294.671 261.266C300.175 258.661 304.466 254.992 307.543 250.257C310.68 245.522 312.249 239.959 312.249 233.567C312.249 227.411 310.887 222.055 308.165 217.498C305.442 212.941 301.595 209.389 296.624 206.844C291.711 204.299 285.911 203.027 279.223 203.027C272.949 203.027 267.031 204.181 261.467 206.489C255.963 208.738 251.465 212.023 247.973 216.344C244.481 220.605 242.587 225.754 242.291 231.791H220.984C221.34 222.262 224.21 213.917 229.596 206.756C234.982 199.535 242.025 193.912 250.725 189.888C259.485 185.863 269.102 183.851 279.578 183.851C290.823 183.851 300.471 186.129 308.52 190.687C316.569 195.185 322.754 201.133 327.075 208.531C331.395 215.929 333.555 223.919 333.555 232.501C333.555 242.74 330.863 251.47 325.477 258.691C320.15 265.912 312.9 270.913 303.726 273.695V275.115C315.208 277.009 324.175 281.892 330.626 289.763C337.077 297.576 340.303 307.253 340.303 318.794C340.303 328.678 337.61 337.556 332.224 345.428C326.897 353.24 319.617 359.395 310.384 363.893C301.151 368.392 290.646 370.641 278.868 370.641Z" fill="#68E89B"/>
<path d="M247.529 364.604L246.923 365.976L246.927 365.977L247.529 364.604ZM225.778 347.825L224.571 348.715L224.58 348.726L225.778 347.825ZM217.078 322.7V321.2H215.502L215.58 322.775L217.078 322.7ZM239.45 322.7L240.945 322.579L240.834 321.2H239.45V322.7ZM245.487 337.881L244.335 338.842L244.342 338.85L245.487 337.881ZM259.426 347.647L258.866 349.039L259.426 347.647ZM313.492 335.662L312.267 334.796L313.492 335.662ZM313.669 301.127L312.408 301.939L312.412 301.946L313.669 301.127ZM299.109 289.053L298.49 290.419L299.109 289.053ZM261.112 284.703H259.612V286.203H261.112V284.703ZM261.112 265.172V263.672H259.612V265.172H261.112ZM294.671 261.266L294.029 259.91L294.023 259.912L294.671 261.266ZM307.543 250.257L306.293 249.429L306.286 249.44L307.543 250.257ZM308.165 217.498L309.453 216.729H309.453L308.165 217.498ZM296.624 206.844L295.934 208.176L295.94 208.18L296.624 206.844ZM261.467 206.489L262.035 207.878L262.042 207.875L261.467 206.489ZM247.973 216.344L249.133 217.294L249.14 217.287L247.973 216.344ZM242.291 231.791V233.291H243.72L243.789 231.865L242.291 231.791ZM220.984 231.791L219.486 231.735L219.428 233.291H220.984V231.791ZM229.596 206.756L230.795 207.657L230.798 207.652L229.596 206.756ZM250.725 189.888L250.099 188.525L250.095 188.526L250.725 189.888ZM308.52 190.687L307.781 191.992L307.788 191.996L308.52 190.687ZM327.075 208.531L325.779 209.288L327.075 208.531ZM325.477 258.691L324.274 257.794L324.27 257.801L325.477 258.691ZM303.726 273.695L303.291 272.259L302.226 272.582V273.695H303.726ZM303.726 275.115H302.226V276.388L303.482 276.595L303.726 275.115ZM330.626 289.763L329.466 290.714L329.469 290.719L330.626 289.763ZM332.224 345.428L330.986 344.58L330.984 344.583L332.224 345.428ZM310.384 363.893L311.041 365.242L310.384 363.893ZM278.868 369.141C267.322 369.141 257.086 367.158 248.132 363.23L246.927 365.977C256.32 370.098 266.977 372.141 278.868 372.141V369.141ZM248.135 363.231C239.228 359.299 232.192 353.857 226.977 346.923L224.58 348.726C230.136 356.115 237.601 361.859 246.923 365.976L248.135 363.231ZM226.986 346.934C221.845 339.966 219.036 331.88 218.576 322.626L215.58 322.775C216.067 332.579 219.058 341.242 224.571 348.715L226.986 346.934ZM217.078 324.2H239.45V321.2H217.078V324.2ZM237.955 322.821C238.452 328.969 240.574 334.328 244.335 338.842L246.64 336.921C243.299 332.912 241.396 328.15 240.945 322.579L237.955 322.821ZM244.342 338.85C248.069 343.261 252.927 346.651 258.866 349.039L259.985 346.255C254.442 344.027 250.007 340.906 246.633 336.913L244.342 338.85ZM258.866 349.039C264.806 351.427 271.362 352.609 278.513 352.609V349.609C271.696 349.609 265.527 348.483 259.985 346.255L258.866 349.039ZM278.513 352.609C286.5 352.609 293.641 351.217 299.904 348.393L298.67 345.658C292.859 348.279 286.151 349.609 278.513 349.609V352.609ZM299.904 348.393C306.156 345.573 311.112 341.624 314.716 336.528L312.267 334.796C309.006 339.406 304.492 343.033 298.67 345.658L299.904 348.393ZM314.716 336.528C318.342 331.402 320.141 325.472 320.141 318.794H317.141C317.141 324.9 315.507 330.215 312.267 334.796L314.716 336.528ZM320.141 318.794C320.141 311.846 318.415 305.666 314.926 300.309L312.412 301.946C315.552 306.768 317.141 312.366 317.141 318.794H320.141ZM314.93 300.315C311.438 294.89 306.345 290.689 299.729 287.687L298.49 290.419C304.658 293.218 309.271 297.066 312.408 301.939L314.93 300.315ZM299.729 287.687C293.091 284.676 285.054 283.203 275.672 283.203V286.203C284.756 286.203 292.343 287.631 298.49 290.419L299.729 287.687ZM275.672 283.203H261.112V286.203H275.672V283.203ZM262.612 284.703V265.172H259.612V284.703H262.612ZM261.112 266.672H275.672V263.672H261.112V266.672ZM275.672 266.672C283.073 266.672 289.635 265.337 295.318 262.619L294.023 259.912C288.816 262.403 282.712 263.672 275.672 263.672V266.672ZM295.312 262.621C301.047 259.908 305.56 256.061 308.801 251.075L306.286 249.44C303.371 253.923 299.302 257.415 294.029 259.91L295.312 262.621ZM308.794 251.085C312.113 246.075 313.749 240.215 313.749 233.567H310.749C310.749 239.702 309.247 244.969 306.293 249.429L308.794 251.085ZM313.749 233.567C313.749 227.184 312.335 221.553 309.453 216.729L306.877 218.267C309.44 222.557 310.749 227.638 310.749 233.567H313.749ZM309.453 216.729C306.578 211.917 302.516 208.175 297.307 205.509L295.94 208.18C300.675 210.603 304.307 213.964 306.877 218.267L309.453 216.729ZM297.314 205.513C292.148 202.836 286.102 201.527 279.223 201.527V204.527C285.721 204.527 291.275 205.763 295.934 208.176L297.314 205.513ZM279.223 201.527C272.761 201.527 266.646 202.717 260.893 205.104L262.042 207.875C267.416 205.645 273.138 204.527 279.223 204.527V201.527ZM260.9 205.101C255.179 207.439 250.469 210.87 246.806 215.401L249.14 217.287C252.462 213.177 256.748 210.038 262.035 207.878L260.9 205.101ZM246.813 215.393C243.097 219.927 241.103 225.393 240.793 231.718L243.789 231.865C244.071 226.116 245.865 221.283 249.133 217.294L246.813 215.393ZM242.291 230.291H220.984V233.291H242.291V230.291ZM222.483 231.847C222.828 222.603 225.605 214.558 230.795 207.657L228.397 205.854C222.815 213.276 219.851 221.921 219.486 231.735L222.483 231.847ZM230.798 207.652C236.025 200.645 242.866 195.176 251.355 191.249L250.095 188.526C241.184 192.649 233.938 198.425 228.394 205.859L230.798 207.652ZM251.351 191.251C259.898 187.324 269.3 185.351 279.578 185.351V182.351C268.905 182.351 259.071 184.402 250.099 188.525L251.351 191.251ZM279.578 185.351C290.62 185.351 300.001 187.587 307.781 191.992L309.259 189.381C300.94 184.672 291.027 182.351 279.578 182.351V185.351ZM307.788 191.996C315.622 196.374 321.604 202.138 325.779 209.288L328.37 207.775C323.904 200.128 317.516 193.996 309.252 189.377L307.788 191.996ZM325.779 209.288C329.966 216.456 332.055 224.185 332.055 232.501H335.055C335.055 223.654 332.825 215.403 328.37 207.775L325.779 209.288ZM332.055 232.501C332.055 242.463 329.441 250.867 324.274 257.794L326.679 259.588C332.284 252.073 335.055 243.018 335.055 232.501H332.055ZM324.27 257.801C319.148 264.743 312.178 269.564 303.291 272.259L304.161 275.13C313.622 272.261 321.152 267.08 326.684 259.581L324.27 257.801ZM302.226 273.695V275.115H305.226V273.695H302.226ZM303.482 276.595C314.659 278.439 323.278 283.165 329.466 290.714L331.786 288.813C325.071 280.619 315.757 275.579 303.97 273.635L303.482 276.595ZM329.469 290.719C335.668 298.225 338.803 307.55 338.803 318.794H341.803C341.803 306.955 338.486 296.927 331.782 288.808L329.469 290.719ZM338.803 318.794C338.803 328.387 336.195 336.968 330.986 344.58L333.462 346.275C339.025 338.144 341.803 328.969 341.803 318.794H338.803ZM330.984 344.583C325.817 352.161 318.747 358.151 309.727 362.545L311.041 365.242C320.488 360.64 327.977 354.319 333.463 346.273L330.984 344.583ZM309.727 362.545C300.727 366.93 290.452 369.141 278.868 369.141V372.141C290.84 372.141 301.576 369.853 311.041 365.242L309.727 362.545Z" fill="black"/>
<path d="M123.783 94.7369C120.726 94.7369 118 94.2119 115.607 93.162C113.229 92.1121 111.338 90.653 109.933 88.7847C108.543 86.901 107.787 84.7163 107.663 82.2304H113.5C113.623 83.759 114.148 85.0791 115.074 86.1908C116.001 87.287 117.213 88.1362 118.711 88.7384C120.208 89.3406 121.868 89.6416 123.69 89.6416C125.728 89.6416 127.535 89.2865 129.109 88.5763C130.684 87.866 131.92 86.8779 132.815 85.6118C133.711 84.3457 134.158 82.8789 134.158 81.2114C134.158 79.4667 133.726 77.9304 132.861 76.6025C131.997 75.2592 130.731 74.2093 129.063 73.4528C127.396 72.6962 125.358 72.3179 122.949 72.3179H119.151V67.2227H122.949C124.833 67.2227 126.485 66.883 127.905 66.2037C129.341 65.5243 130.46 64.567 131.263 63.3318C132.082 62.0966 132.491 60.6452 132.491 58.9777C132.491 57.3719 132.136 55.9746 131.425 54.7857C130.715 53.5969 129.712 52.6705 128.415 52.0065C127.133 51.3426 125.62 51.0107 123.875 51.0107C122.239 51.0107 120.695 51.3117 119.243 51.9139C117.807 52.5006 116.634 53.3575 115.723 54.4847C114.812 55.5963 114.318 56.9396 114.241 58.5145H108.682C108.775 56.0287 109.524 53.8516 110.929 51.9834C112.334 50.0997 114.171 48.6329 116.441 47.583C118.726 46.533 121.235 46.0081 123.968 46.0081C126.902 46.0081 129.418 46.6025 131.518 47.7914C133.618 48.9648 135.231 50.5166 136.359 52.4466C137.486 54.3766 138.049 56.461 138.049 58.6998C138.049 61.3709 137.347 63.6483 135.942 65.532C134.552 67.4157 132.661 68.7204 130.267 69.4461V69.8166C133.263 70.3107 135.602 71.5845 137.285 73.638C138.968 75.6761 139.809 78.2006 139.809 81.2114C139.809 83.7899 139.107 86.1059 137.702 88.1594C136.312 90.1975 134.413 91.8033 132.004 92.9767C129.596 94.1501 126.855 94.7369 123.783 94.7369Z" fill="black"/>
<path d="M123.048 93.8414C119.99 93.8414 117.265 93.3164 114.872 92.2665C112.494 91.2165 110.603 89.7575 109.198 87.8892C107.808 86.0055 107.052 83.8208 106.928 81.3349H112.764C112.888 82.8635 113.413 84.1836 114.339 85.2953C115.266 86.3915 116.478 87.2407 117.975 87.8429C119.473 88.4451 121.133 88.7461 122.955 88.7461C124.993 88.7461 126.799 88.391 128.374 87.6808C129.949 86.9705 131.184 85.9824 132.08 84.7163C132.975 83.4502 133.423 81.9834 133.423 80.3159C133.423 78.5711 132.991 77.0349 132.126 75.707C131.262 74.3637 129.996 73.3138 128.328 72.5573C126.661 71.8007 124.622 71.4224 122.214 71.4224H118.416V66.3272H122.214C124.097 66.3272 125.75 65.9875 127.17 65.3081C128.606 64.6288 129.725 63.6715 130.528 62.4363C131.347 61.2011 131.756 59.7497 131.756 58.0822C131.756 56.4764 131.401 55.0791 130.69 53.8902C129.98 52.7014 128.977 51.7749 127.68 51.111C126.398 50.4471 124.885 50.1151 123.14 50.1151C121.504 50.1151 119.96 50.4162 118.508 51.0184C117.072 51.6051 115.899 52.462 114.988 53.5892C114.077 54.7008 113.583 56.0441 113.506 57.619H107.947C108.04 55.1332 108.789 52.9561 110.194 51.0879C111.599 49.2042 113.436 47.7374 115.706 46.6875C117.991 45.6375 120.5 45.1126 123.233 45.1126C126.166 45.1126 128.683 45.707 130.783 46.8959C132.883 48.0693 134.496 49.6211 135.623 51.5511C136.751 53.4811 137.314 55.5655 137.314 57.8043C137.314 60.4754 136.612 62.7528 135.207 64.6365C133.817 66.5202 131.926 67.8249 129.532 68.5506V68.9211C132.528 69.4152 134.867 70.689 136.55 72.7425C138.233 74.7806 139.074 77.3051 139.074 80.3159C139.074 82.8944 138.372 85.2104 136.967 87.2639C135.577 89.302 133.678 90.9077 131.269 92.0812C128.861 93.2546 126.12 93.8414 123.048 93.8414Z" fill="black"/>
<path d="M114.872 92.2665L114.714 92.6244L114.715 92.6248L114.872 92.2665ZM109.198 87.8892L108.883 88.1215L108.885 88.1244L109.198 87.8892ZM106.928 81.3349V80.9436H106.517L106.537 81.3543L106.928 81.3349ZM112.764 81.3349L113.155 81.3034L113.125 80.9436H112.764V81.3349ZM114.339 85.2953L114.039 85.5458L114.04 85.5479L114.339 85.2953ZM117.975 87.8429L117.83 88.206L117.975 87.8429ZM132.08 84.7163L131.76 84.4903L132.08 84.7163ZM132.126 75.707L131.797 75.9188L131.798 75.9205L132.126 75.707ZM128.328 72.5573L128.166 72.9136L128.328 72.5573ZM118.416 71.4224H118.024V71.8137H118.416V71.4224ZM118.416 66.3272V65.9359H118.024V66.3272H118.416ZM127.17 65.3081L127.003 64.9544L127.001 64.9551L127.17 65.3081ZM130.528 62.4363L130.202 62.2202L130.2 62.223L130.528 62.4363ZM130.69 53.8902L131.026 53.6895L130.69 53.8902ZM127.68 51.111L127.5 51.4585L127.501 51.4594L127.68 51.111ZM118.508 51.0184L118.656 51.3806L118.658 51.3798L118.508 51.0184ZM114.988 53.5892L115.291 53.8372L115.292 53.8351L114.988 53.5892ZM113.506 57.619V58.0103H113.878L113.896 57.6382L113.506 57.619ZM107.947 57.619L107.556 57.6044L107.541 58.0103H107.947V57.619ZM110.194 51.0879L110.506 51.3231L110.507 51.3218L110.194 51.0879ZM115.706 46.6875L115.542 46.3319L115.542 46.3323L115.706 46.6875ZM130.783 46.8959L130.59 47.2364L130.592 47.2375L130.783 46.8959ZM135.623 51.5511L135.286 51.7484V51.7484L135.623 51.5511ZM135.207 64.6365L134.893 64.4025L134.892 64.4042L135.207 64.6365ZM129.532 68.5506L129.419 68.1761L129.141 68.2603V68.5506H129.532ZM129.532 68.9211H129.141V69.2532L129.469 69.3072L129.532 68.9211ZM136.55 72.7425L136.247 72.9906L136.248 72.9917L136.55 72.7425ZM136.967 87.2639L136.644 87.0429L136.643 87.0435L136.967 87.2639ZM131.269 92.0812L131.441 92.433L131.269 92.0812ZM123.048 93.45C120.035 93.45 117.365 92.9329 115.029 91.9081L114.715 92.6248C117.165 93.6999 119.945 94.2327 123.048 94.2327V93.45ZM115.03 91.9085C112.707 90.8825 110.871 89.463 109.511 87.654L108.885 88.1244C110.335 90.0519 112.282 91.5506 114.714 92.6244L115.03 91.9085ZM109.513 87.6569C108.172 85.8392 107.439 83.7296 107.319 81.3155L106.537 81.3543C106.664 83.912 107.445 86.1719 108.883 88.1215L109.513 87.6569ZM106.928 81.7262H112.764V80.9436H106.928V81.7262ZM112.374 81.3664C112.504 82.9704 113.057 84.3683 114.039 85.5458L114.64 85.0448C113.768 83.9989 113.272 82.7566 113.155 81.3034L112.374 81.3664ZM114.04 85.5479C115.013 86.6987 116.28 87.583 117.83 88.206L118.121 87.4798C116.676 86.8985 115.519 86.0844 114.638 85.0427L114.04 85.5479ZM117.83 88.206C119.379 88.829 121.089 89.1374 122.955 89.1374V88.3548C121.177 88.3548 119.567 88.0611 118.121 87.4798L117.83 88.206ZM122.955 89.1374C125.039 89.1374 126.902 88.7743 128.535 88.0375L128.213 87.3241C126.697 88.0078 124.947 88.3548 122.955 88.3548V89.1374ZM128.535 88.0375C130.166 87.3019 131.459 86.2716 132.399 84.9423L131.76 84.4903C130.91 85.6932 129.732 86.6391 128.213 87.3241L128.535 88.0375ZM132.399 84.9423C133.345 83.605 133.815 82.0579 133.815 80.3159H133.032C133.032 81.9089 132.606 83.2954 131.76 84.4903L132.399 84.9423ZM133.815 80.3159C133.815 78.5033 133.364 76.8912 132.454 75.4935L131.798 75.9205C132.618 77.1785 133.032 78.639 133.032 80.3159H133.815ZM132.455 75.4952C131.544 74.0798 130.215 72.9839 128.49 72.2009L128.166 72.9136C129.776 73.6437 130.979 74.6477 131.797 75.9188L132.455 75.4952ZM128.49 72.2009C126.758 71.4152 124.661 71.0311 122.214 71.0311V71.8137C124.583 71.8137 126.563 72.1861 128.166 72.9136L128.49 72.2009ZM122.214 71.0311H118.416V71.8137H122.214V71.0311ZM118.807 71.4224V66.3272H118.024V71.4224H118.807ZM118.416 66.7185H122.214V65.9359H118.416V66.7185ZM122.214 66.7185C124.145 66.7185 125.856 66.3702 127.339 65.6612L127.001 64.9551C125.643 65.6048 124.05 65.9359 122.214 65.9359V66.7185ZM127.337 65.6619C128.834 64.954 130.011 63.9503 130.856 62.6496L130.2 62.223C129.44 63.3927 128.378 64.3036 127.003 64.9544L127.337 65.6619ZM130.854 62.6524C131.72 61.3453 132.147 59.8166 132.147 58.0822H131.364C131.364 59.6828 130.973 61.0569 130.202 62.2202L130.854 62.6524ZM132.147 58.0822C132.147 56.4172 131.778 54.9482 131.026 53.6895L130.354 54.0909C131.023 55.21 131.364 56.5357 131.364 58.0822H132.147ZM131.026 53.6895C130.276 52.4343 129.217 51.4583 127.858 50.7627L127.501 51.4594C128.736 52.0916 129.684 52.9684 130.354 54.0909L131.026 53.6895ZM127.86 50.7636C126.512 50.0654 124.935 49.7238 123.14 49.7238V50.5065C124.835 50.5065 126.284 50.8288 127.5 51.4585L127.86 50.7636ZM123.14 49.7238C121.454 49.7238 119.859 50.0342 118.358 50.6569L118.658 51.3798C120.06 50.7982 121.553 50.5065 123.14 50.5065V49.7238ZM118.36 50.6561C116.868 51.266 115.639 52.1611 114.683 53.3432L115.292 53.8351C116.159 52.7629 117.277 51.9442 118.656 51.3806L118.36 50.6561ZM114.685 53.3411C113.716 54.524 113.196 55.9498 113.115 57.5998L113.896 57.6382C113.97 56.1385 114.438 54.8777 115.291 53.8372L114.685 53.3411ZM113.506 57.2277H107.947V58.0103H113.506V57.2277ZM108.338 57.6336C108.428 55.2221 109.153 53.1233 110.506 51.3231L109.881 50.8527C108.425 52.7889 107.652 55.0442 107.556 57.6044L108.338 57.6336ZM110.507 51.3218C111.871 49.4937 113.656 48.067 115.87 47.0426L115.542 46.3323C113.217 47.4078 111.327 48.9147 109.88 50.8539L110.507 51.3218ZM115.869 47.043C118.099 46.0186 120.551 45.5039 123.233 45.5039V44.7213C120.448 44.7213 117.883 45.2564 115.542 46.3319L115.869 47.043ZM123.233 45.5039C126.113 45.5039 128.561 46.0873 130.59 47.2364L130.976 46.5554C128.806 45.3267 126.219 44.7213 123.233 44.7213V45.5039ZM130.592 47.2375C132.636 48.3795 134.196 49.8833 135.286 51.7484L135.961 51.3537C134.796 49.3588 133.13 47.7591 130.974 46.5543L130.592 47.2375ZM135.286 51.7484C136.378 53.6184 136.923 55.6347 136.923 57.8043H137.705C137.705 55.4963 137.124 53.3437 135.961 51.3537L135.286 51.7484ZM136.923 57.8043C136.923 60.4031 136.241 62.5955 134.893 64.4025L135.52 64.8705C136.982 62.9101 137.705 60.5477 137.705 57.8043H136.923ZM134.892 64.4042C133.556 66.2153 131.737 67.4731 129.419 68.1761L129.646 68.925C132.114 68.1767 134.078 66.8251 135.521 64.8688L134.892 64.4042ZM129.141 68.5506V68.9211H129.924V68.5506H129.141ZM129.469 69.3072C132.385 69.7882 134.633 71.0211 136.247 72.9906L136.853 72.4945C135.101 70.3569 132.671 69.0422 129.596 68.535L129.469 69.3072ZM136.248 72.9917C137.865 74.95 138.683 77.3826 138.683 80.3159H139.466C139.466 77.2275 138.6 74.6112 136.852 72.4934L136.248 72.9917ZM138.683 80.3159C138.683 82.8185 138.003 85.0569 136.644 87.0429L137.29 87.4849C138.741 85.3638 139.466 82.9702 139.466 80.3159H138.683ZM136.643 87.0435C135.295 89.0205 133.451 90.5831 131.098 91.7294L131.441 92.433C133.905 91.2324 135.859 89.5835 137.29 87.4843L136.643 87.0435ZM131.098 91.7294C128.75 92.8733 126.069 93.45 123.048 93.45V94.2327C126.171 94.2327 128.971 93.636 131.441 92.433L131.098 91.7294Z" fill="black"/>
<path d="M408.219 491.66C411.276 491.66 414.001 492.185 416.394 493.235C418.772 494.285 420.663 495.744 422.068 497.612C423.458 499.496 424.214 501.681 424.338 504.167H418.502C418.378 502.638 417.853 501.318 416.927 500.206C416 499.11 414.788 498.261 413.291 497.659C411.793 497.056 410.133 496.755 408.311 496.755C406.273 496.755 404.467 497.11 402.892 497.821C401.317 498.531 400.082 499.519 399.186 500.785C398.291 502.051 397.843 503.518 397.843 505.186C397.843 506.93 398.275 508.467 399.14 509.794C400.004 511.138 401.271 512.188 402.938 512.944C404.606 513.701 406.644 514.079 409.052 514.079H412.851V519.174H409.052C407.169 519.174 405.517 519.514 404.096 520.193C402.66 520.873 401.541 521.83 400.738 523.065C399.92 524.3 399.51 525.752 399.51 527.419C399.51 529.025 399.866 530.422 400.576 531.611C401.286 532.8 402.29 533.727 403.587 534.39C404.868 535.054 406.381 535.386 408.126 535.386C409.763 535.386 411.307 535.085 412.758 534.483C414.194 533.896 415.367 533.039 416.278 531.912C417.189 530.801 417.683 529.457 417.761 527.882H423.319C423.226 530.368 422.477 532.545 421.072 534.414C419.667 536.297 417.83 537.764 415.56 538.814C413.275 539.864 410.766 540.389 408.033 540.389C405.1 540.389 402.583 539.794 400.483 538.606C398.383 537.432 396.77 535.88 395.643 533.95C394.516 532.02 393.952 529.936 393.952 527.697C393.952 525.026 394.654 522.749 396.06 520.865C397.449 518.981 399.341 517.677 401.734 516.951V516.58C398.738 516.086 396.399 514.812 394.716 512.759C393.033 510.721 392.192 508.196 392.192 505.186C392.192 502.607 392.894 500.291 394.299 498.238C395.689 496.199 397.588 494.594 399.997 493.42C402.405 492.247 405.146 491.66 408.219 491.66Z" fill="black"/>
<path d="M408.954 492.556C412.011 492.556 414.736 493.081 417.129 494.131C419.507 495.18 421.398 496.64 422.803 498.508C424.193 500.391 424.95 502.576 425.073 505.062H419.237C419.113 503.533 418.588 502.213 417.662 501.102C416.735 500.005 415.523 499.156 414.026 498.554C412.528 497.952 410.868 497.651 409.046 497.651C407.008 497.651 405.202 498.006 403.627 498.716C402.052 499.426 400.817 500.415 399.921 501.681C399.026 502.947 398.578 504.414 398.578 506.081C398.578 507.826 399.01 509.362 399.875 510.69C400.74 512.033 402.006 513.083 403.673 513.84C405.341 514.596 407.379 514.975 409.787 514.975H413.586V520.07H409.787C407.904 520.07 406.252 520.409 404.831 521.089C403.395 521.768 402.276 522.725 401.473 523.961C400.655 525.196 400.245 526.647 400.245 528.315C400.245 529.921 400.601 531.318 401.311 532.507C402.021 533.696 403.025 534.622 404.322 535.286C405.603 535.95 407.116 536.282 408.861 536.282C410.498 536.282 412.042 535.981 413.493 535.379C414.929 534.792 416.102 533.935 417.013 532.808C417.924 531.696 418.418 530.353 418.496 528.778H424.054C423.961 531.264 423.213 533.441 421.808 535.309C420.402 537.193 418.565 538.66 416.295 539.71C414.01 540.759 411.501 541.284 408.768 541.284C405.835 541.284 403.318 540.69 401.218 539.501C399.118 538.328 397.505 536.776 396.378 534.846C395.251 532.916 394.687 530.831 394.687 528.593C394.687 525.922 395.39 523.644 396.795 521.76C398.184 519.877 400.076 518.572 402.469 517.846V517.476C399.473 516.982 397.134 515.708 395.451 513.654C393.768 511.616 392.927 509.092 392.927 506.081C392.927 503.503 393.629 501.187 395.034 499.133C396.424 497.095 398.323 495.489 400.732 494.316C403.141 493.142 405.881 492.556 408.954 492.556Z" fill="black"/>
<path d="M417.129 494.131L417.287 493.773L417.286 493.772L417.129 494.131ZM422.803 498.508L423.118 498.275L423.116 498.273L422.803 498.508ZM425.073 505.062V505.453H425.484L425.464 505.043L425.073 505.062ZM419.237 505.062L418.847 505.094L418.876 505.453H419.237V505.062ZM417.662 501.102L417.962 500.851L417.961 500.849L417.662 501.102ZM414.026 498.554L414.172 498.191L414.026 498.554ZM399.921 501.681L400.241 501.907L399.921 501.681ZM399.875 510.69L400.204 510.478L400.203 510.476L399.875 510.69ZM403.673 513.84L403.835 513.483L403.673 513.84ZM413.586 514.975H413.977V514.583H413.586V514.975ZM413.586 520.07V520.461H413.977V520.07H413.586ZM404.831 521.089L404.999 521.443L405 521.442L404.831 521.089ZM401.473 523.961L401.799 524.177L401.801 524.174L401.473 523.961ZM401.311 532.507L400.975 532.707L401.311 532.507ZM404.322 535.286L404.502 534.938L404.5 534.938L404.322 535.286ZM413.493 535.379L413.345 535.016L413.343 535.017L413.493 535.379ZM417.013 532.808L416.711 532.56L416.709 532.562L417.013 532.808ZM418.496 528.778V528.387H418.123L418.105 528.759L418.496 528.778ZM424.054 528.778L424.445 528.793L424.46 528.387H424.054V528.778ZM421.808 535.309L421.495 535.074L421.494 535.075L421.808 535.309ZM416.295 539.71L416.459 540.065L416.46 540.065L416.295 539.71ZM401.218 539.501L401.411 539.161L401.409 539.159L401.218 539.501ZM396.378 534.846L396.716 534.649V534.649L396.378 534.846ZM396.795 521.76L397.108 521.994L397.11 521.993L396.795 521.76ZM402.469 517.846L402.582 518.221L402.86 518.137V517.846H402.469ZM402.469 517.476H402.86V517.144L402.533 517.09L402.469 517.476ZM395.451 513.654L395.754 513.406L395.753 513.405L395.451 513.654ZM395.034 499.133L395.357 499.354L395.358 499.354L395.034 499.133ZM400.732 494.316L400.56 493.964L400.732 494.316ZM408.954 492.947C411.966 492.947 414.636 493.464 416.972 494.489L417.286 493.772C414.836 492.697 412.056 492.164 408.954 492.164V492.947ZM416.971 494.488C419.295 495.514 421.13 496.934 422.491 498.743L423.116 498.273C421.667 496.345 419.719 494.846 417.287 493.773L416.971 494.488ZM422.489 498.74C423.829 500.558 424.562 502.667 424.682 505.081L425.464 505.043C425.337 502.485 424.557 500.225 423.118 498.275L422.489 498.74ZM425.073 504.671H419.237V505.453H425.073V504.671ZM419.627 505.031C419.497 503.427 418.944 502.029 417.962 500.851L417.361 501.352C418.233 502.398 418.729 503.64 418.847 505.094L419.627 505.031ZM417.961 500.849C416.988 499.698 415.721 498.814 414.172 498.191L413.88 498.917C415.326 499.499 416.483 500.313 417.363 501.354L417.961 500.849ZM414.172 498.191C412.622 497.568 410.912 497.26 409.046 497.26V498.042C410.825 498.042 412.434 498.336 413.88 498.917L414.172 498.191ZM409.046 497.26C406.963 497.26 405.1 497.623 403.466 498.359L403.788 499.073C405.304 498.389 407.054 498.042 409.046 498.042V497.26ZM403.466 498.359C401.835 499.095 400.542 500.125 399.602 501.455L400.241 501.907C401.092 500.704 402.269 499.758 403.788 499.073L403.466 498.359ZM399.602 501.455C398.656 502.792 398.187 504.339 398.187 506.081H398.969C398.969 504.488 399.396 503.102 400.241 501.907L399.602 501.455ZM398.187 506.081C398.187 507.894 398.637 509.506 399.547 510.903L400.203 510.476C399.384 509.218 398.969 507.758 398.969 506.081H398.187ZM399.546 510.902C400.457 512.317 401.786 513.413 403.512 514.196L403.835 513.483C402.226 512.753 401.022 511.749 400.204 510.478L399.546 510.902ZM403.512 514.196C405.243 514.982 407.34 515.366 409.787 515.366V514.583C407.418 514.583 405.438 514.211 403.835 513.483L403.512 514.196ZM409.787 515.366H413.586V514.583H409.787V515.366ZM413.194 514.975V520.07H413.977V514.975H413.194ZM413.586 519.678H409.787V520.461H413.586V519.678ZM409.787 519.678C407.857 519.678 406.145 520.027 404.662 520.736L405 521.442C406.358 520.792 407.951 520.461 409.787 520.461V519.678ZM404.664 520.735C403.168 521.443 401.99 522.447 401.145 523.747L401.801 524.174C402.561 523.004 403.623 522.093 404.999 521.443L404.664 520.735ZM401.147 523.745C400.281 525.052 399.854 526.58 399.854 528.315H400.637C400.637 526.714 401.029 525.34 401.799 524.177L401.147 523.745ZM399.854 528.315C399.854 529.98 400.223 531.449 400.975 532.707L401.647 532.306C400.978 531.187 400.637 529.861 400.637 528.315H399.854ZM400.975 532.707C401.725 533.963 402.785 534.939 404.143 535.634L404.5 534.938C403.265 534.305 402.317 533.429 401.647 532.306L400.975 532.707ZM404.142 535.633C405.489 536.332 407.067 536.673 408.861 536.673V535.891C407.166 535.891 405.717 535.568 404.502 534.938L404.142 535.633ZM408.861 536.673C410.547 536.673 412.142 536.363 413.643 535.74L413.343 535.017C411.941 535.599 410.448 535.891 408.861 535.891V536.673ZM413.641 535.741C415.134 535.131 416.362 534.236 417.318 533.054L416.709 532.562C415.842 533.634 414.724 534.453 413.345 535.016L413.641 535.741ZM417.316 533.056C418.285 531.873 418.806 530.447 418.886 528.797L418.105 528.759C418.031 530.259 417.563 531.519 416.711 532.56L417.316 533.056ZM418.496 529.169H424.054V528.387H418.496V529.169ZM423.663 528.763C423.573 531.175 422.849 533.274 421.495 535.074L422.12 535.544C423.576 533.608 424.35 531.353 424.445 528.793L423.663 528.763ZM421.494 535.075C420.13 536.903 418.346 538.33 416.131 539.354L416.46 540.065C418.785 538.989 420.675 537.482 422.121 535.543L421.494 535.075ZM416.132 539.354C413.902 540.378 411.45 540.893 408.768 540.893V541.676C411.553 541.676 414.118 541.141 416.459 540.065L416.132 539.354ZM408.768 540.893C405.888 540.893 403.441 540.31 401.411 539.161L401.025 539.842C403.196 541.07 405.782 541.676 408.768 541.676V540.893ZM401.409 539.159C399.365 538.017 397.805 536.514 396.716 534.649L396.04 535.043C397.205 537.038 398.871 538.638 401.027 539.843L401.409 539.159ZM396.716 534.649C395.624 532.779 395.078 530.762 395.078 528.593H394.296C394.296 530.901 394.878 533.053 396.04 535.043L396.716 534.649ZM395.078 528.593C395.078 525.994 395.76 523.801 397.108 521.994L396.481 521.527C395.019 523.487 394.296 525.849 394.296 528.593H395.078ZM397.11 521.993C398.446 520.182 400.264 518.924 402.582 518.221L402.355 517.472C399.887 518.22 397.923 519.572 396.48 521.528L397.11 521.993ZM402.86 517.846V517.476H402.078V517.846H402.86ZM402.533 517.09C399.617 516.609 397.368 515.376 395.754 513.406L395.149 513.902C396.901 516.04 399.33 517.355 402.405 517.862L402.533 517.09ZM395.753 513.405C394.136 511.447 393.318 509.014 393.318 506.081H392.536C392.536 509.169 393.401 511.786 395.15 513.904L395.753 513.405ZM393.318 506.081C393.318 503.578 393.999 501.34 395.357 499.354L394.712 498.912C393.26 501.033 392.536 503.427 392.536 506.081H393.318ZM395.358 499.354C396.706 497.376 398.55 495.814 400.903 494.668L400.56 493.964C398.096 495.165 396.142 496.814 394.711 498.913L395.358 499.354ZM400.903 494.668C403.251 493.524 405.932 492.947 408.954 492.947V492.164C405.83 492.164 403.03 492.761 400.56 493.964L400.903 494.668Z" fill="black"/>
</svg>
