<svg width="527" height="587" viewBox="0 0 527 587" fill="none" xmlns="http://www.w3.org/2000/svg">
<path d="M442.51 0H84.1095C69.971 0 58.5095 11.4872 58.5095 25.6573V560.771C58.5095 574.941 69.971 586.429 84.1095 586.429H442.51C456.648 586.429 468.11 574.941 468.11 560.771V25.6573C468.11 11.4872 456.648 0 442.51 0Z" fill="white"/>
<path d="M109.71 36.6519H416.91C431.048 36.6519 442.51 48.1389 442.51 62.309V524.119C442.51 538.29 431.048 549.777 416.91 549.777H109.71C95.5711 549.777 84.1096 538.29 84.1096 524.119V62.309C84.1096 48.1389 95.5711 36.6519 109.71 36.6519Z" fill="#68E89B"/>
<path d="M100.57 456.318C156.113 511.985 274.001 484.089 363.88 394.009C453.759 303.929 481.593 185.778 426.05 130.11C370.506 74.4428 252.619 102.339 162.74 192.419C72.8611 282.499 45.0267 400.65 100.57 456.318Z" fill="white"/>
<path d="M215.99 334.299V316.189L295.89 189.768H309.029V217.822H300.152L239.782 313.348V314.768H347.382V334.299H215.99ZM301.572 371.586V328.795V320.361V189.768H322.524V371.586H301.572Z" fill="black"/>
<path d="M213.172 330.868V312.757L293.073 186.337H306.212V214.391H297.334L236.965 309.916V311.337H344.564V330.868H213.172ZM298.754 368.155V325.364V316.93V186.337H319.706V368.155H298.754Z" fill="#68E89B"/>
<path d="M213.172 330.868H211.672V332.368H213.172V330.868ZM213.172 312.757L211.904 311.956L211.672 312.323V312.757H213.172ZM293.073 186.337V184.837H292.246L291.805 185.535L293.073 186.337ZM306.212 186.337H307.712V184.837H306.212V186.337ZM306.212 214.391V215.891H307.712V214.391H306.212ZM297.334 214.391V212.891H296.507L296.066 213.589L297.334 214.391ZM236.965 309.916L235.697 309.115L235.465 309.482V309.916H236.965ZM236.965 311.337H235.465V312.837H236.965V311.337ZM344.564 311.337H346.064V309.837H344.564V311.337ZM344.564 330.868V332.368H346.064V330.868H344.564ZM298.754 368.155H297.254V369.655H298.754V368.155ZM298.754 186.337V184.837H297.254V186.337H298.754ZM319.706 186.337H321.206V184.837H319.706V186.337ZM319.706 368.155V369.655H321.206V368.155H319.706ZM214.672 330.868V312.757H211.672V330.868H214.672ZM214.44 313.558L294.341 187.138L291.805 185.535L211.904 311.956L214.44 313.558ZM293.073 187.837H306.212V184.837H293.073V187.837ZM304.712 186.337V214.391H307.712V186.337H304.712ZM306.212 212.891H297.334V215.891H306.212V212.891ZM296.066 213.589L235.697 309.115L238.233 310.717L298.602 215.192L296.066 213.589ZM235.465 309.916V311.337H238.465V309.916H235.465ZM236.965 312.837H344.564V309.837H236.965V312.837ZM343.064 311.337V330.868H346.064V311.337H343.064ZM344.564 329.368H213.172V332.368H344.564V329.368ZM300.254 368.155V325.364H297.254V368.155H300.254ZM300.254 325.364V316.93H297.254V325.364H300.254ZM300.254 316.93V186.337H297.254V316.93H300.254ZM298.754 187.837H319.706V184.837H298.754V187.837ZM318.206 186.337V368.155H321.206V186.337H318.206ZM319.706 366.655H298.754V369.655H319.706V366.655Z" fill="black"/>
<path d="M106.644 84.3612V79.6365L127.488 46.6566H130.916V53.9751H128.6L112.851 78.8954V79.2659H140.921V84.3612H106.644ZM128.971 94.0884V82.9252V80.725V46.6566H134.436V94.0884H128.971Z" fill="black"/>
<path d="M105.909 83.4656V78.741L126.753 45.7611H130.181V53.0796H127.865L112.116 77.9999V78.3704H140.186V83.4656H105.909ZM128.235 93.1929V82.0297V79.8295V45.7611H133.701V93.1929H128.235Z" fill="#010000"/>
<path d="M105.909 83.4656H105.518V83.857H105.909V83.4656ZM105.909 78.741L105.578 78.5319L105.518 78.6277V78.741H105.909ZM126.753 45.7611V45.3697H126.538L126.422 45.552L126.753 45.7611ZM130.181 45.7611H130.572V45.3697H130.181V45.7611ZM130.181 53.0796V53.4709H130.572V53.0796H130.181ZM127.865 53.0796V52.6883H127.649L127.534 52.8706L127.865 53.0796ZM112.116 77.9999L111.785 77.7908L111.725 77.8866V77.9999H112.116ZM112.116 78.3704H111.725V78.7617H112.116V78.3704ZM140.186 78.3704H140.577V77.9791H140.186V78.3704ZM140.186 83.4656V83.857H140.577V83.4656H140.186ZM128.235 93.1929H127.844V93.5842H128.235V93.1929ZM128.235 45.7611V45.3697H127.844V45.7611H128.235ZM133.701 45.7611H134.092V45.3697H133.701V45.7611ZM133.701 93.1929V93.5842H134.092V93.1929H133.701ZM106.3 83.4656V78.741H105.518V83.4656H106.3ZM106.24 78.9501L127.084 45.9701L126.422 45.552L105.578 78.5319L106.24 78.9501ZM126.753 46.1524H130.181V45.3697H126.753V46.1524ZM129.79 45.7611V53.0796H130.572V45.7611H129.79ZM130.181 52.6883H127.865V53.4709H130.181V52.6883ZM127.534 52.8706L111.785 77.7908L112.447 78.2089L128.196 53.2887L127.534 52.8706ZM111.725 77.9999V78.3704H112.507V77.9999H111.725ZM112.116 78.7617H140.186V77.9791H112.116V78.7617ZM139.795 78.3704V83.4656H140.577V78.3704H139.795ZM140.186 83.0743H105.909V83.857H140.186V83.0743ZM128.627 93.1929V82.0297H127.844V93.1929H128.627ZM128.627 82.0297V79.8295H127.844V82.0297H128.627ZM128.627 79.8295V45.7611H127.844V79.8295H128.627ZM128.235 46.1524H133.701V45.3697H128.235V46.1524ZM133.31 45.7611V93.1929H134.092V45.7611H133.31ZM133.701 92.8016H128.235V93.5842H133.701V92.8016Z" fill="black"/>
<path d="M425.357 502.036V506.76L404.513 539.74H401.085V532.422H403.401L419.15 507.502V507.131H391.08V502.036H425.357ZM403.031 492.309V503.472V505.672V539.74H397.565V492.309H403.031Z" fill="black"/>
<path d="M426.092 502.931V507.656L405.248 540.636H401.82V533.317H404.136L419.885 508.397V508.027H391.815V502.931H426.092ZM403.766 493.204V504.367V506.567V540.636H398.3V493.204H403.766Z" fill="black"/>
<path d="M426.092 502.931H426.483V502.54H426.092V502.931ZM426.092 507.656L426.423 507.865L426.483 507.769V507.656H426.092ZM405.248 540.636V541.027H405.463L405.579 540.845L405.248 540.636ZM401.82 540.636H401.429V541.027H401.82V540.636ZM401.82 533.317V532.926H401.429V533.317H401.82ZM404.136 533.317V533.709H404.352L404.467 533.526L404.136 533.317ZM419.885 508.397L420.216 508.606L420.276 508.51V508.397H419.885ZM419.885 508.027H420.276V507.635H419.885V508.027ZM391.815 508.027H391.424V508.418H391.815V508.027ZM391.815 502.931V502.54H391.424V502.931H391.815ZM403.766 493.204H404.157V492.813H403.766V493.204ZM403.766 540.636V541.027H404.157V540.636H403.766ZM398.3 540.636H397.908V541.027H398.3V540.636ZM398.3 493.204V492.813H397.908V493.204H398.3ZM425.701 502.931V507.656H426.483V502.931H425.701ZM425.761 507.447L404.917 540.427L405.579 540.845L426.423 507.865L425.761 507.447ZM405.248 540.245H401.82V541.027H405.248V540.245ZM402.211 540.636V533.317H401.429V540.636H402.211ZM401.82 533.709H404.136V532.926H401.82V533.709ZM404.467 533.526L420.216 508.606L419.554 508.188L403.805 533.108L404.467 533.526ZM420.276 508.397V508.027H419.494V508.397H420.276ZM419.885 507.635H391.815V508.418H419.885V507.635ZM392.206 508.027V502.931H391.424V508.027H392.206ZM391.815 503.323H426.092V502.54H391.815V503.323ZM403.374 493.204V504.367H404.157V493.204H403.374ZM403.374 504.367V506.567H404.157V504.367H403.374ZM403.374 506.567V540.636H404.157V506.567H403.374ZM403.766 540.245H398.3V541.027H403.766V540.245ZM398.691 540.636V493.204H397.908V540.636H398.691ZM398.3 493.595H403.766V492.813H398.3V493.595Z" fill="black"/>
</svg>
