<svg width="527" height="587" viewBox="0 0 527 587" fill="none" xmlns="http://www.w3.org/2000/svg">
<path d="M442.509 0H84.1091C69.9706 0 58.5093 11.4872 58.5093 25.6573V560.771C58.5093 574.941 69.9706 586.429 84.1091 586.429H442.509C456.648 586.429 468.109 574.941 468.109 560.771V25.6573C468.109 11.4872 456.648 0 442.509 0Z" fill="white"/>
<path d="M109.71 36.6519H416.91C431.048 36.6519 442.51 48.1389 442.51 62.309V524.119C442.51 538.29 431.048 549.777 416.91 549.777H109.71C95.5712 549.777 84.1096 538.29 84.1096 524.119V62.309C84.1096 48.1389 95.5712 36.6519 109.71 36.6519Z" fill="#68E89B"/>
<path d="M100.57 456.318C156.113 511.986 274.001 484.089 363.88 394.009C453.759 303.929 481.593 185.778 426.05 130.11C370.506 74.4429 252.618 102.339 162.74 192.419C72.8609 282.499 45.0265 400.65 100.57 456.318Z" fill="white"/>
<path d="M122.856 46.0081C124.801 46.0235 126.746 46.3941 128.692 47.1198C130.637 47.8454 132.413 49.0498 134.019 50.7327C135.624 52.4003 136.914 54.6777 137.886 57.5649C138.859 60.4522 139.345 64.0729 139.345 68.427C139.345 72.6422 138.944 76.3864 138.141 79.6597C137.354 82.9175 136.211 85.6658 134.713 87.9046C133.231 90.1434 131.425 91.8419 129.294 92.9999C127.179 94.1579 124.786 94.7369 122.114 94.7369C119.459 94.7369 117.089 94.2119 115.004 93.162C112.935 92.0966 111.237 90.6221 109.909 88.7384C108.597 86.8393 107.755 84.6391 107.385 82.1378H113.036C113.545 84.3148 114.556 86.1136 116.07 87.5341C117.598 88.9391 119.613 89.6416 122.114 89.6416C125.774 89.6416 128.661 88.0436 130.776 84.8475C132.907 81.6514 133.972 77.1352 133.972 71.2989H133.602C132.737 72.5958 131.71 73.7152 130.521 74.6571C129.333 75.5989 128.012 76.3246 126.561 76.8341C125.11 77.3437 123.566 77.5984 121.929 77.5984C119.212 77.5984 116.718 76.9268 114.448 75.5835C112.194 74.2248 110.388 72.3642 109.029 70.0019C107.686 67.6241 107.014 64.9067 107.014 61.8496C107.014 58.9468 107.663 56.2911 108.959 53.8825C110.272 51.4584 112.109 49.5284 114.472 48.0925C116.849 46.6566 119.644 45.9618 122.856 46.0081ZM122.856 51.1033C120.91 51.1033 119.158 51.5897 117.598 52.5624C116.054 53.5197 114.827 54.8166 113.916 56.4533C113.02 58.0745 112.572 59.8732 112.572 61.8496C112.572 63.8259 113.005 65.6247 113.869 67.2459C114.749 68.8516 115.946 70.1331 117.459 71.0904C118.988 72.0323 120.725 72.5032 122.67 72.5032C124.137 72.5032 125.503 72.2176 126.77 71.6463C128.036 71.0596 129.14 70.2644 130.081 69.2608C131.039 68.2417 131.788 67.0915 132.328 65.8099C132.868 64.513 133.139 63.162 133.139 61.7569C133.139 59.9041 132.691 58.1671 131.795 56.5459C130.915 54.9247 129.695 53.6123 128.136 52.6087C126.592 51.6051 124.832 51.1033 122.856 51.1033Z" fill="black"/>
<path d="M122.121 45.1126C124.066 45.128 126.012 45.4986 127.957 46.2243C129.902 46.9499 131.678 48.1543 133.284 49.8372C134.89 51.5047 136.179 53.7822 137.152 56.6694C138.124 59.5567 138.611 63.1774 138.611 67.5315C138.611 71.7466 138.209 75.4909 137.406 78.7641C136.619 82.022 135.476 84.7703 133.979 87.0091C132.496 89.2479 130.69 90.9463 128.559 92.1043C126.444 93.2624 124.051 93.8414 121.38 93.8414C118.724 93.8414 116.354 93.3164 114.269 92.2665C112.2 91.2011 110.502 89.7266 109.174 87.8429C107.862 85.9438 107.02 83.7436 106.65 81.2423H112.301C112.81 83.4193 113.822 85.2181 115.335 86.6386C116.863 88.0436 118.878 88.7461 121.38 88.7461C125.039 88.7461 127.926 87.1481 130.041 83.952C132.172 80.7559 133.237 76.2397 133.237 70.4034H132.867C132.002 71.7003 130.976 72.8197 129.787 73.7616C128.598 74.7034 127.278 75.4291 125.826 75.9386C124.375 76.4481 122.831 76.7029 121.194 76.7029C118.477 76.7029 115.983 76.0313 113.714 74.688C111.459 73.3293 109.653 71.4687 108.294 69.1064C106.951 66.7286 106.279 64.0112 106.279 60.9541C106.279 58.0513 106.928 55.3956 108.225 52.987C109.537 50.5629 111.374 48.6329 113.737 47.197C116.114 45.7611 118.909 45.0663 122.121 45.1126ZM122.121 50.2078C120.175 50.2078 118.423 50.6941 116.863 51.6669C115.319 52.6242 114.092 53.9211 113.181 55.5578C112.285 57.179 111.838 58.9777 111.838 60.9541C111.838 62.9304 112.27 64.7291 113.135 66.3504C114.015 67.9561 115.211 69.2376 116.724 70.1949C118.253 71.1368 119.99 71.6077 121.935 71.6077C123.402 71.6077 124.769 71.322 126.035 70.7508C127.301 70.164 128.405 69.3689 129.347 68.3653C130.304 67.3462 131.053 66.196 131.593 64.9144C132.134 63.6175 132.404 62.2665 132.404 60.8614C132.404 59.0086 131.956 57.2716 131.06 55.6504C130.18 54.0292 128.961 52.7168 127.401 51.7132C125.857 50.7096 124.097 50.2078 122.121 50.2078Z" fill="black"/>
<path d="M122.121 45.1126L122.115 45.5038L122.118 45.5039L122.121 45.1126ZM127.957 46.2243L128.094 45.8576L128.094 45.8576L127.957 46.2243ZM133.284 49.8372L133.001 50.1074L133.002 50.1087L133.284 49.8372ZM137.152 56.6694L136.781 56.7944L137.152 56.6694ZM137.406 78.7641L137.026 78.6709L137.026 78.6722L137.406 78.7641ZM133.979 87.0091L133.653 86.7916L133.652 86.7931L133.979 87.0091ZM128.559 92.1043L128.372 91.7605L128.371 91.7611L128.559 92.1043ZM114.269 92.2665L114.09 92.6144L114.093 92.6159L114.269 92.2665ZM109.174 87.8429L108.852 88.0654L108.854 88.0684L109.174 87.8429ZM106.65 81.2423V80.851H106.196L106.263 81.2996L106.65 81.2423ZM112.301 81.2423L112.682 81.1531L112.611 80.851H112.301V81.2423ZM115.335 86.6386L115.067 86.9239L115.07 86.9267L115.335 86.6386ZM130.041 83.952L129.716 83.7349L129.715 83.736L130.041 83.952ZM133.237 70.4034H133.629V70.0121H133.237V70.4034ZM132.867 70.4034V70.0121H132.657L132.541 70.1863L132.867 70.4034ZM113.714 74.688L113.512 75.0231L113.514 75.0247L113.714 74.688ZM108.294 69.1064L107.953 69.2989L107.955 69.3015L108.294 69.1064ZM108.225 52.987L107.88 52.8007L107.88 52.8015L108.225 52.987ZM113.737 47.197L113.534 46.862L113.533 46.8626L113.737 47.197ZM116.863 51.6669L117.07 51.9994L117.07 51.9989L116.863 51.6669ZM113.181 55.5578L112.839 55.3674L112.838 55.3686L113.181 55.5578ZM113.135 66.3504L112.789 66.5345L112.791 66.5384L113.135 66.3504ZM116.724 70.1949L116.515 70.5256L116.519 70.5281L116.724 70.1949ZM126.035 70.7508L126.196 71.1075L126.199 71.1058L126.035 70.7508ZM129.347 68.3653L129.061 68.0974L129.061 68.0975L129.347 68.3653ZM131.593 64.9144L131.954 65.0665L131.954 65.0649L131.593 64.9144ZM131.06 55.6504L130.717 55.8371L130.718 55.8396L131.06 55.6504ZM127.401 51.7132L127.188 52.0413L127.189 52.0422L127.401 51.7132ZM122.118 45.5039C124.014 45.5189 125.915 45.8801 127.82 46.5909L128.094 45.8576C126.108 45.1171 124.118 44.7371 122.124 44.7213L122.118 45.5039ZM127.82 46.5909C129.704 47.2935 131.431 48.462 133.001 50.1074L133.567 49.5671C131.925 47.8465 130.101 46.6064 128.094 45.8576L127.82 46.5909ZM133.002 50.1087C134.557 51.7235 135.821 53.9453 136.781 56.7944L137.522 56.5445C136.537 53.619 135.222 51.286 133.566 49.5658L133.002 50.1087ZM136.781 56.7944C137.735 59.6282 138.219 63.2032 138.219 67.5315H139.002C139.002 63.1516 138.513 59.4853 137.522 56.5445L136.781 56.7944ZM138.219 67.5315C138.219 71.7227 137.82 75.4346 137.026 78.6709L137.786 78.8574C138.598 75.5471 139.002 71.7706 139.002 67.5315H138.219ZM137.026 78.6722C136.247 81.8958 135.12 84.5991 133.653 86.7916L134.304 87.2267C135.833 84.9415 136.991 82.1482 137.787 78.8561L137.026 78.6722ZM133.652 86.7931C132.202 88.9844 130.441 90.6363 128.372 91.7605L128.746 92.4482C130.939 91.2564 132.791 89.5115 134.305 87.2252L133.652 86.7931ZM128.371 91.7611C126.32 92.8843 123.992 93.45 121.38 93.45V94.2327C124.109 94.2327 126.568 93.6404 128.747 92.4476L128.371 91.7611ZM121.38 93.45C118.776 93.45 116.468 92.9358 114.445 91.917L114.093 92.6159C116.239 93.697 118.671 94.2327 121.38 94.2327V93.45ZM114.449 91.9186C112.435 90.8818 110.785 89.449 109.494 87.6174L108.854 88.0684C110.219 90.0041 111.966 91.5204 114.09 92.6144L114.449 91.9186ZM109.496 87.6204C108.221 85.7752 107.399 83.6327 107.037 81.1849L106.263 81.2996C106.641 83.8545 107.503 86.1124 108.852 88.0654L109.496 87.6204ZM106.65 81.6336H112.301V80.851H106.65V81.6336ZM111.92 81.3315C112.445 83.5775 113.493 85.4465 115.067 86.9239L115.603 86.3533C114.15 84.9897 113.175 83.2611 112.682 81.1531L111.92 81.3315ZM115.07 86.9267C116.685 88.4112 118.801 89.1374 121.38 89.1374V88.3548C118.955 88.3548 117.042 87.6761 115.6 86.3505L115.07 86.9267ZM121.38 89.1374C125.177 89.1374 128.184 87.4673 130.368 84.168L129.715 83.736C127.668 86.8288 124.9 88.3548 121.38 88.3548V89.1374ZM130.367 84.1691C132.557 80.8833 133.629 76.2795 133.629 70.4034H132.846C132.846 76.1999 131.787 80.6285 129.716 83.7349L130.367 84.1691ZM133.237 70.0121H132.867V70.7947H133.237V70.0121ZM132.541 70.1863C131.699 71.4502 130.7 72.5391 129.544 73.4548L130.03 74.0683C131.251 73.1004 132.306 71.9505 133.193 70.6204L132.541 70.1863ZM129.544 73.4548C128.389 74.3693 127.108 75.0741 125.697 75.5694L125.956 76.3078C127.448 75.7841 128.806 75.0375 130.03 74.0683L129.544 73.4548ZM125.697 75.5694C124.29 76.0634 122.79 76.3116 121.194 76.3116V77.0942C122.872 77.0942 124.46 76.8329 125.956 76.3078L125.697 75.5694ZM121.194 76.3116C118.545 76.3116 116.12 75.6577 113.913 74.3512L113.514 75.0247C115.846 76.4048 118.409 77.0942 121.194 77.0942V76.3116ZM113.916 74.3528C111.72 73.0296 109.96 71.2182 108.633 68.9113L107.955 69.3015C109.345 71.7193 111.198 73.6289 113.512 75.0231L113.916 74.3528ZM108.635 68.9139C107.329 66.6016 106.67 63.952 106.67 60.9541H105.888C105.888 64.0704 106.573 66.8556 107.953 69.2989L108.635 68.9139ZM106.67 60.9541C106.67 58.112 107.305 55.5207 108.569 53.1725L107.88 52.8015C106.551 55.2706 105.888 57.9907 105.888 60.9541H106.67ZM108.569 53.1733C109.848 50.8104 111.637 48.9314 113.94 47.5314L113.533 46.8626C111.112 48.3344 109.226 50.3155 107.88 52.8007L108.569 53.1733ZM113.939 47.5319C116.245 46.1395 118.965 45.4584 122.115 45.5038L122.126 44.7213C118.853 44.6741 115.984 45.3826 113.534 46.862L113.939 47.5319ZM122.121 49.8165C120.106 49.8165 118.281 50.3211 116.656 51.3349L117.07 51.9989C118.564 51.0672 120.244 50.5991 122.121 50.5991V49.8165ZM116.657 51.3343C115.055 52.3278 113.781 53.6745 112.839 55.3674L113.523 55.7481C114.402 54.1677 115.584 52.9205 117.07 51.9994L116.657 51.3343ZM112.838 55.3686C111.909 57.0516 111.446 58.9161 111.446 60.9541H112.229C112.229 59.0393 112.662 57.3064 113.523 55.747L112.838 55.3686ZM111.446 60.9541C111.446 62.9896 111.892 64.8524 112.789 66.5345L113.48 66.1662C112.648 64.6059 112.229 62.8711 112.229 60.9541H111.446ZM112.791 66.5384C113.703 68.2009 114.945 69.5321 116.515 70.5256L116.934 69.8642C115.478 68.9432 114.327 67.7113 113.478 66.1623L112.791 66.5384ZM116.519 70.5281C118.115 71.5111 119.924 71.999 121.935 71.999V71.2164C120.056 71.2164 118.391 70.7624 116.93 69.8618L116.519 70.5281ZM121.935 71.999C123.455 71.999 124.876 71.7028 126.196 71.1074L125.874 70.3941C124.661 70.9413 123.35 71.2164 121.935 71.2164V71.999ZM126.199 71.1058C127.51 70.4983 128.655 69.6737 129.632 68.6331L129.061 68.0975C128.154 69.064 127.091 69.8298 125.87 70.3957L126.199 71.1058ZM129.632 68.6332C130.621 67.5805 131.395 66.391 131.954 65.0665L131.233 64.7624C130.71 66.0009 129.987 67.112 129.061 68.0974L129.632 68.6332ZM131.954 65.0649C132.515 63.7203 132.795 62.3181 132.795 60.8614H132.012C132.012 62.2148 131.752 63.5146 131.232 64.7639L131.954 65.0649ZM132.795 60.8614C132.795 58.9425 132.33 57.1404 131.403 55.4612L130.718 55.8396C131.581 57.4029 132.012 59.0748 132.012 60.8614H132.795ZM131.404 55.4637C130.493 53.7844 129.227 52.4231 127.613 51.3841L127.189 52.0422C128.694 53.0105 129.868 54.274 130.717 55.8371L131.404 55.4637ZM127.614 51.3851C126.002 50.3372 124.167 49.8165 122.121 49.8165V50.5991C124.027 50.5991 125.712 51.082 127.188 52.0413L127.614 51.3851Z" fill="black"/>
<path d="M409.145 540.389C407.2 540.373 405.254 540.003 403.309 539.277C401.363 538.552 399.588 537.347 397.982 535.664C396.376 533.997 395.087 531.719 394.114 528.832C393.141 525.945 392.655 522.324 392.655 517.97C392.655 513.755 393.056 510.011 393.859 506.737C394.647 503.479 395.789 500.731 397.287 498.492C398.769 496.254 400.576 494.555 402.706 493.397C404.822 492.239 407.215 491.66 409.886 491.66C412.542 491.66 414.912 492.185 416.996 493.235C419.065 494.3 420.764 495.775 422.091 497.659C423.404 499.558 424.245 501.758 424.616 504.259H418.965C418.455 502.082 417.444 500.283 415.931 498.863C414.402 497.458 412.387 496.755 409.886 496.755C406.227 496.755 403.34 498.353 401.224 501.549C399.094 504.746 398.028 509.262 398.028 515.098H398.399C399.263 513.801 400.29 512.682 401.479 511.74C402.668 510.798 403.988 510.072 405.439 509.563C406.891 509.053 408.435 508.799 410.071 508.799C412.789 508.799 415.282 509.47 417.552 510.813C419.806 512.172 421.613 514.033 422.972 516.395C424.315 518.773 424.986 521.49 424.986 524.547C424.986 527.45 424.338 530.106 423.041 532.514C421.729 534.939 419.891 536.869 417.529 538.304C415.151 539.74 412.357 540.435 409.145 540.389ZM409.145 535.294C411.09 535.294 412.843 534.807 414.402 533.835C415.946 532.877 417.174 531.58 418.085 529.944C418.98 528.323 419.428 526.524 419.428 524.547C419.428 522.571 418.996 520.772 418.131 519.151C417.251 517.545 416.054 516.264 414.541 515.307C413.013 514.365 411.276 513.894 409.33 513.894C407.863 513.894 406.497 514.179 405.231 514.751C403.965 515.337 402.861 516.133 401.919 517.136C400.962 518.155 400.213 519.306 399.673 520.587C399.132 521.884 398.862 523.235 398.862 524.64C398.862 526.493 399.31 528.23 400.205 529.851C401.085 531.472 402.305 532.785 403.864 533.788C405.408 534.792 407.169 535.294 409.145 535.294Z" fill="black"/>
<path d="M409.879 541.284C407.934 541.269 405.988 540.898 404.043 540.173C402.098 539.447 400.322 538.243 398.716 536.56C397.11 534.892 395.821 532.615 394.848 529.728C393.876 526.84 393.389 523.22 393.389 518.865C393.389 514.65 393.791 510.906 394.594 507.633C395.381 504.375 396.524 501.627 398.021 499.388C399.504 497.149 401.31 495.451 403.441 494.293C405.556 493.135 407.949 492.556 410.62 492.556C413.276 492.556 415.646 493.081 417.731 494.131C419.8 495.196 421.498 496.67 422.826 498.554C424.138 500.453 424.98 502.653 425.35 505.155H419.699C419.19 502.978 418.178 501.179 416.665 499.758C415.137 498.353 413.122 497.651 410.62 497.651C406.961 497.651 404.074 499.249 401.959 502.445C399.828 505.641 398.763 510.157 398.763 515.994H399.133C399.998 514.697 401.024 513.577 402.213 512.635C403.402 511.694 404.722 510.968 406.174 510.458C407.625 509.949 409.169 509.694 410.806 509.694C413.523 509.694 416.017 510.366 418.286 511.709C420.541 513.068 422.347 514.928 423.706 517.291C425.049 519.668 425.721 522.386 425.721 525.443C425.721 528.346 425.072 531.001 423.775 533.41C422.463 535.834 420.626 537.764 418.263 539.2C415.886 540.636 413.091 541.331 409.879 541.284ZM409.879 536.189C411.825 536.189 413.577 535.703 415.137 534.73C416.681 533.773 417.908 532.476 418.819 530.839C419.715 529.218 420.162 527.419 420.162 525.443C420.162 523.467 419.73 521.668 418.865 520.047C417.985 518.441 416.789 517.159 415.276 516.202C413.747 515.26 412.01 514.789 410.065 514.789C408.598 514.789 407.231 515.075 405.965 515.646C404.699 516.233 403.595 517.028 402.653 518.032C401.696 519.051 400.947 520.201 400.407 521.483C399.866 522.78 399.596 524.131 399.596 525.536C399.596 527.388 400.044 529.125 400.94 530.747C401.82 532.368 403.039 533.68 404.599 534.684C406.143 535.687 407.903 536.189 409.879 536.189Z" fill="black"/>
<path d="M409.879 541.284L409.885 540.893L409.882 540.893L409.879 541.284ZM404.043 540.173L403.906 540.539L403.906 540.539L404.043 540.173ZM398.716 536.56L398.999 536.29L398.998 536.288L398.716 536.56ZM394.848 529.728L395.219 529.603L394.848 529.728ZM394.594 507.633L394.974 507.726L394.974 507.725L394.594 507.633ZM398.021 499.388L398.347 499.605L398.348 499.604L398.021 499.388ZM403.441 494.293L403.628 494.636L403.629 494.636L403.441 494.293ZM417.731 494.131L417.91 493.783L417.907 493.781L417.731 494.131ZM422.826 498.554L423.148 498.332L423.146 498.329L422.826 498.554ZM425.35 505.155V505.546H425.804L425.737 505.097L425.35 505.155ZM419.699 505.155L419.318 505.244L419.389 505.546H419.699V505.155ZM416.665 499.758L416.933 499.473L416.93 499.47L416.665 499.758ZM401.959 502.445L402.284 502.662L402.285 502.661L401.959 502.445ZM398.763 515.994H398.371V516.385H398.763V515.994ZM399.133 515.994V516.385H399.343L399.459 516.211L399.133 515.994ZM418.286 511.709L418.488 511.374L418.486 511.372L418.286 511.709ZM423.706 517.291L424.047 517.098L424.045 517.095L423.706 517.291ZM423.775 533.41L424.12 533.596L424.12 533.596L423.775 533.41ZM418.263 539.2L418.466 539.535L418.467 539.534L418.263 539.2ZM415.137 534.73L414.93 534.398L414.93 534.398L415.137 534.73ZM418.819 530.839L419.161 531.03L419.162 531.028L418.819 530.839ZM418.865 520.047L419.211 519.862L419.209 519.859L418.865 520.047ZM415.276 516.202L415.485 515.871L415.481 515.869L415.276 516.202ZM405.965 515.646L405.804 515.29L405.801 515.291L405.965 515.646ZM402.653 518.032L402.939 518.3L402.939 518.299L402.653 518.032ZM400.407 521.483L400.046 521.33L400.046 521.332L400.407 521.483ZM400.94 530.747L401.283 530.56L401.282 530.557L400.94 530.747ZM404.599 534.684L404.812 534.356L404.811 534.355L404.599 534.684ZM409.882 540.893C407.986 540.878 406.085 540.517 404.18 539.806L403.906 540.539C405.892 541.28 407.882 541.66 409.876 541.676L409.882 540.893ZM404.18 539.806C402.296 539.103 400.569 537.935 398.999 536.29L398.433 536.83C400.075 538.55 401.899 539.791 403.906 540.539L404.18 539.806ZM398.998 536.288C397.443 534.673 396.179 532.452 395.219 529.603L394.478 529.852C395.463 532.778 396.778 535.111 398.434 536.831L398.998 536.288ZM395.219 529.603C394.265 526.769 393.781 523.194 393.781 518.865H392.998C392.998 523.245 393.487 526.912 394.478 529.852L395.219 529.603ZM393.781 518.865C393.781 514.674 394.18 510.962 394.974 507.726L394.214 507.54C393.402 510.85 392.998 514.626 392.998 518.865H393.781ZM394.974 507.725C395.753 504.501 396.88 501.798 398.347 499.605L397.696 499.17C396.167 501.455 395.009 504.249 394.213 507.541L394.974 507.725ZM398.348 499.604C399.798 497.413 401.559 495.761 403.628 494.636L403.254 493.949C401.061 495.141 399.209 496.885 397.695 499.172L398.348 499.604ZM403.629 494.636C405.68 493.513 408.008 492.947 410.62 492.947V492.164C407.891 492.164 405.432 492.757 403.253 493.949L403.629 494.636ZM410.62 492.947C413.224 492.947 415.532 493.461 417.555 494.48L417.907 493.781C415.761 492.7 413.329 492.164 410.62 492.164V492.947ZM417.551 494.478C419.565 495.515 421.215 496.948 422.506 498.78L423.146 498.329C421.781 496.393 420.034 494.877 417.91 493.783L417.551 494.478ZM422.504 498.777C423.779 500.622 424.601 502.764 424.963 505.212L425.737 505.097C425.359 502.543 424.497 500.285 423.148 498.332L422.504 498.777ZM425.35 504.763H419.699V505.546H425.35V504.763ZM420.08 505.066C419.555 502.819 418.507 500.951 416.933 499.473L416.397 500.044C417.85 501.407 418.825 503.136 419.318 505.244L420.08 505.066ZM416.93 499.47C415.315 497.986 413.199 497.26 410.62 497.26V498.042C413.045 498.042 414.958 498.721 416.4 500.046L416.93 499.47ZM410.62 497.26C406.823 497.26 403.816 498.93 401.632 502.229L402.285 502.661C404.332 499.568 407.1 498.042 410.62 498.042V497.26ZM401.633 502.228C399.443 505.514 398.371 510.117 398.371 515.994H399.154C399.154 510.197 400.213 505.768 402.284 502.662L401.633 502.228ZM398.763 516.385H399.133V515.602H398.763V516.385ZM399.459 516.211C400.301 514.947 401.3 513.858 402.456 512.942L401.97 512.329C400.749 513.297 399.694 514.447 398.807 515.777L399.459 516.211ZM402.456 512.942C403.611 512.028 404.892 511.323 406.303 510.828L406.044 510.089C404.552 510.613 403.194 511.359 401.97 512.329L402.456 512.942ZM406.303 510.828C407.71 510.334 409.21 510.085 410.806 510.085V509.303C409.128 509.303 407.54 509.564 406.044 510.089L406.303 510.828ZM410.806 510.085C413.455 510.085 415.88 510.739 418.087 512.046L418.486 511.372C416.154 509.992 413.591 509.303 410.806 509.303V510.085ZM418.084 512.044C420.28 513.367 422.04 515.179 423.367 517.486L424.045 517.095C422.655 514.678 420.802 512.768 418.488 511.374L418.084 512.044ZM423.365 517.483C424.671 519.795 425.33 522.445 425.33 525.443H426.112C426.112 522.327 425.427 519.541 424.047 517.098L423.365 517.483ZM425.33 525.443C425.33 528.285 424.695 530.876 423.431 533.224L424.12 533.596C425.449 531.126 426.112 528.406 426.112 525.443H425.33ZM423.431 533.224C422.152 535.587 420.363 537.466 418.06 538.866L418.467 539.534C420.888 538.063 422.774 536.082 424.12 533.596L423.431 533.224ZM418.061 538.865C415.755 540.257 413.035 540.939 409.885 540.893L409.874 541.676C413.147 541.723 416.016 541.014 418.466 539.535L418.061 538.865ZM409.879 536.58C411.894 536.58 413.719 536.076 415.344 535.062L414.93 534.398C413.436 535.33 411.756 535.798 409.879 535.798V536.58ZM415.343 535.063C416.945 534.069 418.219 532.722 419.161 531.03L418.477 530.649C417.598 532.229 416.416 533.476 414.93 534.398L415.343 535.063ZM419.162 531.028C420.091 529.345 420.554 527.481 420.554 525.443H419.771C419.771 527.358 419.338 529.091 418.477 530.65L419.162 531.028ZM420.554 525.443C420.554 523.407 420.108 521.545 419.211 519.862L418.52 520.231C419.352 521.791 419.771 523.526 419.771 525.443H420.554ZM419.209 519.859C418.297 518.196 417.055 516.865 415.485 515.871L415.066 516.533C416.522 517.454 417.673 518.686 418.522 520.235L419.209 519.859ZM415.481 515.869C413.885 514.886 412.076 514.398 410.065 514.398V515.181C411.944 515.181 413.609 515.635 415.07 516.535L415.481 515.869ZM410.065 514.398C408.545 514.398 407.124 514.694 405.804 515.29L406.126 516.003C407.339 515.456 408.65 515.181 410.065 515.181V514.398ZM405.801 515.291C404.49 515.899 403.345 516.723 402.368 517.764L402.939 518.299C403.846 517.333 404.909 516.567 406.13 516.001L405.801 515.291ZM402.368 517.764C401.379 518.816 400.605 520.006 400.046 521.33L400.767 521.635C401.29 520.396 402.013 519.285 402.939 518.3L402.368 517.764ZM400.046 521.332C399.485 522.677 399.205 524.079 399.205 525.536H399.988C399.988 524.182 400.248 522.882 400.768 521.633L400.046 521.332ZM399.205 525.536C399.205 527.455 399.67 529.257 400.597 530.936L401.282 530.557C400.419 528.994 399.988 527.322 399.988 525.536H399.205ZM400.596 530.933C401.507 532.613 402.773 533.974 404.387 535.013L404.811 534.355C403.306 533.387 402.132 532.123 401.283 530.56L400.596 530.933ZM404.386 535.012C405.998 536.06 407.833 536.58 409.879 536.58V535.798C407.973 535.798 406.288 535.315 404.812 534.356L404.386 535.012Z" fill="black"/>
<path d="M340.93 394.444H212.93V407.842H340.93V394.444Z" fill="black"/>
<path d="M338.771 390.436H210.771V403.834H338.771V390.436Z" fill="#68E89B" stroke="black" stroke-width="3"/>
<path d="M278.134 187.282C285.592 187.342 293.049 188.762 300.506 191.544C307.964 194.326 314.77 198.942 320.925 205.393C327.081 211.785 332.023 220.515 335.751 231.583C339.48 242.651 341.344 256.53 341.344 273.22C341.344 289.378 339.806 303.73 336.728 316.277C333.71 328.766 329.33 339.301 323.589 347.883C317.907 356.465 310.982 362.975 302.815 367.414C294.706 371.853 285.532 374.072 275.293 374.072C265.113 374.072 256.028 372.06 248.038 368.035C240.107 363.951 233.597 358.299 228.507 351.079C223.476 343.799 220.251 335.365 218.83 325.777H240.492C242.445 334.122 246.322 341.017 252.122 346.462C257.982 351.848 265.705 354.541 275.293 354.541C289.32 354.541 300.388 348.415 308.496 336.164C316.664 323.912 320.748 306.601 320.748 284.228H319.327C316.013 289.2 312.077 293.491 307.52 297.101C302.963 300.712 297.902 303.493 292.339 305.447C286.775 307.4 280.857 308.376 274.583 308.376C264.166 308.376 254.608 305.802 245.908 300.652C237.267 295.444 230.342 288.312 225.134 279.257C219.984 270.142 217.41 259.726 217.41 248.007C217.41 236.88 219.896 226.7 224.867 217.467C229.898 208.175 236.941 200.777 245.996 195.273C255.111 189.768 265.824 187.105 278.134 187.282ZM278.134 206.814C270.677 206.814 263.959 208.678 257.982 212.407C252.063 216.076 247.358 221.048 243.866 227.322C240.433 233.536 238.717 240.431 238.717 248.007C238.717 255.583 240.374 262.478 243.688 268.692C247.062 274.848 251.649 279.76 257.449 283.429C263.308 287.04 269.967 288.845 277.424 288.845C283.047 288.845 288.285 287.75 293.138 285.56C297.991 283.311 302.223 280.263 305.833 276.416C309.503 272.51 312.373 268.1 314.445 263.188C316.516 258.216 317.552 253.038 317.552 247.652C317.552 240.549 315.835 233.891 312.403 227.677C309.029 221.462 304.353 216.431 298.376 212.584C292.457 208.737 285.71 206.814 278.134 206.814Z" fill="black"/>
<path d="M275.316 183.851C282.774 183.91 290.231 185.33 297.689 188.112C305.146 190.894 311.952 195.51 318.108 201.962C324.263 208.354 329.205 217.084 332.934 228.151C336.662 239.219 338.527 253.098 338.527 269.788C338.527 285.946 336.988 300.298 333.91 312.846C330.892 325.334 326.512 335.869 320.771 344.451C315.089 353.033 308.164 359.543 299.997 363.982C291.888 368.421 282.715 370.641 272.475 370.641C262.296 370.641 253.211 368.628 245.22 364.604C237.29 360.52 230.779 354.868 225.689 347.647C220.658 340.367 217.433 331.933 216.012 322.345H237.674C239.627 330.69 243.504 337.585 249.304 343.03C255.164 348.416 262.887 351.109 272.475 351.109C286.502 351.109 297.57 344.984 305.679 332.732C313.846 320.481 317.93 303.169 317.93 280.797H316.51C313.195 285.768 309.259 290.059 304.702 293.67C300.145 297.28 295.084 300.062 289.521 302.015C283.957 303.968 278.039 304.945 271.765 304.945C261.349 304.945 251.79 302.37 243.09 297.221C234.449 292.012 227.524 284.881 222.316 275.825C217.167 266.711 214.592 256.294 214.592 244.575C214.592 233.448 217.078 223.268 222.049 214.035C227.08 204.743 234.123 197.345 243.179 191.841C252.293 186.337 263.006 183.673 275.316 183.851ZM275.316 203.382C267.859 203.382 261.141 205.246 255.164 208.975C249.245 212.645 244.54 217.616 241.048 223.89C237.615 230.104 235.899 236.999 235.899 244.575C235.899 252.151 237.556 259.046 240.87 265.261C244.244 271.416 248.831 276.328 254.631 279.998C260.49 283.608 267.149 285.413 274.606 285.413C280.229 285.413 285.467 284.318 290.32 282.129C295.173 279.879 299.405 276.831 303.015 272.984C306.685 269.078 309.555 264.669 311.627 259.756C313.698 254.785 314.734 249.606 314.734 244.22C314.734 237.118 313.018 230.459 309.585 224.245C306.211 218.03 301.536 213 295.558 209.153C289.639 205.306 282.892 203.382 275.316 203.382Z" fill="#68E89B"/>
<path d="M275.316 183.851L275.295 185.351L275.304 185.351L275.316 183.851ZM297.689 188.112L298.213 186.707L297.689 188.112ZM318.108 201.962L317.022 202.997L317.027 203.002L318.108 201.962ZM332.934 228.151L331.512 228.63V228.63L332.934 228.151ZM333.91 312.846L332.453 312.488L332.452 312.493L333.91 312.846ZM320.771 344.451L319.524 343.617L319.52 343.623L320.771 344.451ZM299.997 363.982L299.28 362.664L299.276 362.666L299.997 363.982ZM245.22 364.604L244.534 365.937L244.546 365.943L245.22 364.604ZM225.689 347.647L224.455 348.5L224.463 348.511L225.689 347.647ZM216.012 322.345V320.845H214.274L214.529 322.565L216.012 322.345ZM237.674 322.345L239.135 322.003L238.864 320.845H237.674V322.345ZM249.304 343.03L248.278 344.124L248.283 344.13L248.289 344.135L249.304 343.03ZM305.679 332.732L304.43 331.9L304.428 331.904L305.679 332.732ZM317.93 280.797H319.43V279.297H317.93V280.797ZM316.51 280.797V279.297H315.707L315.261 279.965L316.51 280.797ZM243.09 297.221L242.315 298.506L242.326 298.512L243.09 297.221ZM222.316 275.825L221.01 276.563L221.015 276.573L222.316 275.825ZM222.049 214.035L220.73 213.321L220.729 213.324L222.049 214.035ZM243.179 191.841L242.403 190.557L242.399 190.559L243.179 191.841ZM255.164 208.975L255.954 210.25L255.958 210.248L255.164 208.975ZM241.048 223.89L239.737 223.16L239.735 223.165L241.048 223.89ZM240.87 265.261L239.547 265.966L239.551 265.974L239.555 265.982L240.87 265.261ZM254.631 279.998L253.829 281.265L253.837 281.27L253.844 281.275L254.631 279.998ZM290.32 282.129L290.937 283.496L290.944 283.493L290.951 283.489L290.32 282.129ZM303.015 272.984L301.922 271.957L301.921 271.958L303.015 272.984ZM311.627 259.756L313.009 260.339L313.011 260.333L311.627 259.756ZM309.585 224.245L308.267 224.961L308.272 224.97L309.585 224.245ZM295.558 209.153L294.74 210.41L294.746 210.414L295.558 209.153ZM275.304 185.351C282.575 185.408 289.86 186.793 297.164 189.518L298.213 186.707C290.603 183.868 282.972 182.412 275.328 182.351L275.304 185.351ZM297.164 189.518C304.385 192.211 311.005 196.69 317.022 202.997L319.193 200.926C312.9 194.331 305.907 189.577 298.213 186.707L297.164 189.518ZM317.027 203.002C322.988 209.192 327.833 217.709 331.512 228.63L334.355 227.672C330.577 216.458 325.538 207.515 319.188 200.921L317.027 203.002ZM331.512 228.63C335.172 239.493 337.027 253.197 337.027 269.788H340.027C340.027 252.999 338.153 238.945 334.355 227.672L331.512 228.63ZM337.027 269.788C337.027 285.854 335.496 300.083 332.453 312.489L335.367 313.203C338.479 300.514 340.027 286.038 340.027 269.788H337.027ZM332.452 312.493C329.465 324.85 325.146 335.213 319.524 343.617L322.018 345.285C327.878 336.525 332.318 325.818 335.368 313.198L332.452 312.493ZM319.52 343.623C313.959 352.023 307.21 358.355 299.28 362.664L300.713 365.3C309.119 360.732 316.219 354.043 322.022 345.279L319.52 343.623ZM299.276 362.666C291.412 366.972 282.49 369.141 272.475 369.141V372.141C282.939 372.141 292.365 369.87 300.717 365.298L299.276 362.666ZM272.475 369.141C262.497 369.141 253.649 367.169 245.895 363.264L244.546 365.943C252.772 370.087 262.094 372.141 272.475 372.141V369.141ZM245.907 363.27C238.189 359.296 231.864 353.804 226.915 346.783L224.463 348.511C229.694 355.931 236.39 361.744 244.534 365.937L245.907 363.27ZM226.923 346.794C222.035 339.721 218.886 331.508 217.496 322.125L214.529 322.565C215.979 332.358 219.282 341.013 224.455 348.5L226.923 346.794ZM216.012 323.845H237.674V320.845H216.012V323.845ZM236.214 322.687C238.229 331.297 242.245 338.461 248.278 344.124L250.331 341.937C244.763 336.71 241.026 330.084 239.135 322.003L236.214 322.687ZM248.289 344.135C254.48 349.825 262.593 352.609 272.475 352.609V349.609C263.182 349.609 255.847 347.007 250.319 341.926L248.289 344.135ZM272.475 352.609C287.034 352.609 298.559 346.207 306.929 333.56L304.428 331.904C296.581 343.76 285.971 349.609 272.475 349.609V352.609ZM306.927 333.564C315.323 320.969 319.43 303.322 319.43 280.797H316.43C316.43 303.016 312.369 319.992 304.431 331.9L306.927 333.564ZM317.93 279.297H316.51V282.297H317.93V279.297ZM315.261 279.965C312.032 284.81 308.202 288.984 303.771 292.494L305.633 294.845C310.317 291.135 314.359 286.727 317.758 281.629L315.261 279.965ZM303.771 292.494C299.346 295.999 294.433 298.701 289.024 300.6L290.018 303.43C295.736 301.423 300.944 298.561 305.633 294.845L303.771 292.494ZM289.024 300.6C283.63 302.493 277.881 303.445 271.765 303.445V306.445C278.197 306.445 284.285 305.443 290.018 303.43L289.024 300.6ZM271.765 303.445C261.609 303.445 252.315 300.938 243.854 295.93L242.326 298.512C251.265 303.802 261.088 306.445 271.765 306.445V303.445ZM243.864 295.936C235.449 290.864 228.702 283.92 223.616 275.077L221.015 276.573C226.346 285.841 233.448 293.161 242.315 298.506L243.864 295.936ZM223.622 275.087C218.614 266.224 216.092 256.067 216.092 244.575H213.092C213.092 256.521 215.719 267.197 221.01 276.563L223.622 275.087ZM216.092 244.575C216.092 233.681 218.523 223.748 223.37 214.747L220.729 213.324C215.632 222.789 213.092 233.216 213.092 244.575H216.092ZM223.368 214.75C228.272 205.692 235.129 198.489 243.958 193.123L242.399 190.559C233.118 196.201 225.888 203.795 220.73 213.321L223.368 214.75ZM243.954 193.125C252.793 187.787 263.22 185.176 275.295 185.351L275.338 182.351C262.791 182.17 251.794 184.886 242.403 190.557L243.954 193.125ZM275.316 201.882C267.595 201.882 260.6 203.816 254.37 207.702L255.958 210.248C261.683 206.676 268.122 204.882 275.316 204.882V201.882ZM254.373 207.7C248.231 211.509 243.349 216.671 239.737 223.16L242.359 224.619C245.73 218.562 250.259 213.781 255.954 210.25L254.373 207.7ZM239.735 223.165C236.171 229.616 234.399 236.763 234.399 244.575H237.399C237.399 237.236 239.059 230.593 242.361 224.615L239.735 223.165ZM234.399 244.575C234.399 252.378 236.108 259.518 239.547 265.966L242.194 264.555C239.004 258.574 237.399 251.924 237.399 244.575H234.399ZM239.555 265.982C243.048 272.354 247.809 277.457 253.829 281.265L255.433 278.73C249.852 275.2 245.44 270.477 242.186 264.54L239.555 265.982ZM253.844 281.275C259.96 285.043 266.895 286.913 274.606 286.913V283.913C267.403 283.913 261.021 282.173 255.418 278.721L253.844 281.275ZM274.606 286.913C280.429 286.913 285.879 285.778 290.937 283.496L289.703 280.761C285.054 282.859 280.028 283.913 274.606 283.913V286.913ZM290.951 283.489C295.976 281.161 300.365 278 304.109 274.011L301.921 271.958C298.444 275.663 294.371 278.598 289.689 280.768L290.951 283.489ZM304.109 274.011C307.899 269.976 310.868 265.416 313.009 260.339L310.245 259.174C308.243 263.921 305.47 268.18 301.922 271.957L304.109 274.011ZM313.011 260.333C315.159 255.179 316.234 249.804 316.234 244.22H313.234C313.234 249.408 312.237 254.391 310.242 259.179L313.011 260.333ZM316.234 244.22C316.234 236.864 314.453 229.956 310.898 223.52L308.272 224.97C311.582 230.963 313.234 237.371 313.234 244.22H316.234ZM310.903 223.529C307.409 217.092 302.558 211.874 296.37 207.891L294.746 210.414C300.513 214.125 305.014 218.969 308.267 224.961L310.903 223.529ZM296.375 207.895C290.195 203.878 283.16 201.882 275.316 201.882V204.882C282.624 204.882 289.083 206.733 294.74 210.41L296.375 207.895Z" fill="black"/>
<path d="M392.971 486.666H425.961V483.213H392.971V486.666Z" fill="black"/>
<path d="M393.696 487.699H426.687V484.246H393.696V487.699Z" fill="black" stroke="black" stroke-width="0.773206"/>
<path d="M139.03 99.752H106.04V103.205H139.03V99.752Z" fill="black"/>
<path d="M138.304 98.7188H105.313V102.172H138.304V98.7188Z" fill="black" stroke="black" stroke-width="0.773206"/>
</svg>
