<svg width="527" height="587" viewBox="0 0 527 587" fill="none" xmlns="http://www.w3.org/2000/svg">
<path d="M442.509 0H84.1088C69.9703 0 58.5088 11.4871 58.5088 25.6573V560.771C58.5088 574.941 69.9703 586.429 84.1088 586.429H442.509C456.647 586.429 468.109 574.941 468.109 560.771V25.6573C468.109 11.4871 456.647 0 442.509 0Z" fill="white"/>
<path d="M416.909 36.6523H109.709C95.5709 36.6523 84.1094 48.1395 84.1094 62.3096V524.12C84.1094 538.29 95.5709 549.777 109.709 549.777H416.909C431.048 549.777 442.509 538.29 442.509 524.12V62.3096C442.509 48.1395 431.048 36.6523 416.909 36.6523Z" fill="#68E89B"/>
<path d="M100.57 456.318C156.113 511.986 274.001 484.089 363.88 394.009C453.759 303.929 481.593 185.778 426.05 130.11C370.507 74.4429 252.619 102.34 162.74 192.419C72.8613 282.499 45.0269 400.651 100.57 456.318Z" fill="white"/>
<path d="M278.179 208.159L288.195 218.198L237.786 268.72L237.765 268.699C226.783 279.706 223.183 295.944 228.644 309.841C230.423 314.348 233.089 318.415 236.489 321.812L263.605 294.636L263.626 294.656L314.054 244.115L324.073 254.156L331.992 223.22L339.911 192.284L309.045 200.222L278.179 208.159V208.159Z" fill="black"/>
<path d="M122.474 55.0661L124.707 57.304L113.47 68.5661V68.561C111.022 71.0147 110.22 74.6343 111.437 77.7321C111.834 78.7367 112.428 79.6435 113.186 80.4007L119.23 74.3426V74.3477L130.472 63.0813L132.705 65.3195L134.47 58.4234L136.235 51.5273L129.355 53.2969L122.474 55.0661V55.0661Z" fill="black"/>
<path d="M404.144 531.363L401.911 529.125L413.148 517.863V517.868C415.596 515.414 416.399 511.795 415.182 508.697C414.785 507.692 414.191 506.786 413.433 506.028L407.388 512.086V512.081L396.147 523.348L393.914 521.11L392.149 528.006L390.383 534.902L397.264 533.132L404.144 531.363V531.363Z" fill="black"/>
<path d="M256.441 386.372L246.424 376.333L296.833 325.811L296.854 325.832C307.836 314.824 311.437 298.587 305.976 284.69C304.196 280.183 301.53 276.115 298.13 272.719L271.014 299.895L270.993 299.875L220.565 350.416L210.547 340.375L202.628 371.311L194.708 402.247L225.574 394.309L256.441 386.372V386.372Z" fill="black"/>
<path d="M276.179 202.145L286.195 212.185L235.786 262.706L235.765 262.686C224.783 273.693 221.183 289.93 226.644 303.827C228.423 308.334 231.089 312.402 234.489 315.799L261.605 288.622L261.626 288.643L312.054 238.102L322.073 248.142L329.992 217.206L337.911 186.271L307.045 194.209L276.179 202.145V202.145Z" fill="#68E89B" stroke="black" stroke-width="3"/>
<path d="M250.441 380.358L240.424 370.319L290.833 319.797L290.854 319.818C301.836 308.811 305.437 292.573 299.976 278.677C298.196 274.17 295.53 270.102 292.13 266.705L265.014 293.882L264.993 293.861L214.565 344.402L204.547 334.361L196.628 365.297L188.708 396.233L219.574 388.295L250.441 380.358V380.358Z" fill="#68E89B" stroke="black" stroke-width="3"/>
<path d="M122.029 53.7253L124.262 55.9632L113.025 67.2253V67.2202C110.577 69.6739 109.774 73.2935 110.992 76.3913C111.388 77.3959 111.983 78.3027 112.74 79.0599L118.785 73.0018V73.0068L130.026 61.7405L132.259 63.9787L134.025 57.0826L135.79 50.1865L128.91 51.9561L122.029 53.7253V53.7253Z" fill="black" stroke="black" stroke-width="0.668745"/>
<path d="M117.629 94.7926L115.396 92.5547L126.633 81.2927V81.2977C129.081 78.844 129.884 75.2244 128.667 72.1267C128.27 71.122 127.676 70.2152 126.918 69.458L120.873 75.5161V75.5111L109.632 86.7774L107.399 84.5392L105.633 91.4353L103.868 98.3314L110.749 96.5618L117.629 94.7926V94.7926Z" fill="black"/>
<path d="M116.291 93.4518L114.059 91.2139L125.295 79.9518V79.9568C127.744 77.5032 128.546 73.8836 127.329 70.7858C126.932 69.7812 126.338 68.8744 125.58 68.1172L119.535 74.1753V74.1702L108.294 85.4366L106.061 83.1984L104.296 90.0945L102.53 96.9906L109.411 95.221L116.291 93.4518H116.291Z" fill="black" stroke="black" stroke-width="0.668745"/>
<path d="M404.59 532.704L402.357 530.466L413.594 519.204V519.209C416.042 516.755 416.844 513.136 415.627 510.038C415.23 509.033 414.636 508.126 413.878 507.369L407.834 513.427V513.422L396.592 524.689L394.359 522.45L392.594 529.346L390.829 536.243L397.709 534.473L404.59 532.704Z" fill="black" stroke="black" stroke-width="0.668745"/>
<path d="M408.99 491.636L411.223 493.874L399.986 505.136V505.131C397.538 507.585 396.736 511.205 397.953 514.302C398.35 515.307 398.944 516.214 399.702 516.971L405.746 510.913V510.918L416.988 499.652L419.221 501.89L420.986 494.994L422.751 488.098L415.871 489.867L408.99 491.636V491.636Z" fill="black"/>
<path d="M410.327 492.977L412.56 495.215L401.323 506.477V506.472C398.875 508.926 398.073 512.545 399.29 515.643C399.687 516.648 400.281 517.555 401.039 518.312L407.083 512.254V512.259L418.325 500.992L420.558 503.231L422.323 496.335L424.088 489.438L417.208 491.208L410.327 492.977H410.327Z" fill="black" stroke="black" stroke-width="0.668745"/>
</svg>
