<svg width="536" height="587" viewBox="0 0 536 587" fill="none" xmlns="http://www.w3.org/2000/svg">
<path d="M451.509 0H93.109C78.9705 0 67.509 11.4872 67.509 25.6573V560.771C67.509 574.941 78.9705 586.429 93.109 586.429H451.509C465.648 586.429 477.109 574.941 477.109 560.771V25.6573C477.109 11.4872 465.648 0 451.509 0Z" fill="white"/>
<path d="M118.709 36.6519H425.91C440.048 36.6519 451.51 48.139 451.51 62.3091V524.12C451.51 538.29 440.048 549.777 425.91 549.777H118.709C104.571 549.777 93.1095 538.29 93.1095 524.12V62.3091C93.1095 48.139 104.571 36.6519 118.709 36.6519Z" fill="#FFE471"/>
<path d="M109.57 456.318C165.113 511.986 283.001 484.089 372.88 394.009C462.759 303.929 490.593 185.778 435.05 130.11C379.506 74.4429 261.619 102.339 171.74 192.419C81.8611 282.499 54.0268 400.65 109.57 456.318Z" fill="white"/>
<path d="M288.554 374.072C275.178 374.072 263.785 370.432 254.375 363.152C244.964 355.813 237.773 345.19 232.802 331.281C227.83 317.313 225.344 300.445 225.344 280.677C225.344 261.028 227.83 244.249 232.802 230.34C237.832 216.372 245.053 205.719 254.464 198.38C263.933 190.982 275.297 187.282 288.554 187.282C301.812 187.282 313.146 190.982 322.557 198.38C332.026 205.719 339.247 216.372 344.219 230.34C349.249 244.249 351.765 261.028 351.765 280.677C351.765 300.445 349.279 317.313 344.307 331.281C339.336 345.19 332.145 355.813 322.734 363.152C313.324 370.432 301.93 374.072 288.554 374.072ZM288.554 354.541C301.812 354.541 312.11 348.149 319.449 335.365C326.788 322.581 330.458 304.352 330.458 280.677C330.458 264.934 328.771 251.528 325.397 240.461C322.083 229.393 317.289 220.959 311.015 215.159C304.801 209.359 297.314 206.459 288.554 206.459C275.415 206.459 265.147 212.939 257.748 225.901C250.35 238.804 246.651 257.062 246.651 280.677C246.651 296.421 248.308 309.797 251.623 320.805C254.937 331.814 259.701 340.188 265.916 345.929C272.19 351.67 279.736 354.541 288.554 354.541Z" fill="black"/>
<path d="M289.125 372.486C275.749 372.486 264.356 368.846 254.945 361.566C245.535 354.227 238.344 343.603 233.372 329.695C228.401 315.727 225.915 298.859 225.915 279.091C225.915 259.441 228.401 242.662 233.372 228.754C238.403 214.786 245.624 204.132 255.034 196.793C264.504 189.395 275.867 185.696 289.125 185.696C302.383 185.696 313.717 189.395 323.127 196.793C332.597 204.132 339.817 214.786 344.789 228.754C349.82 242.662 352.335 259.441 352.335 279.091C352.335 298.859 349.849 315.727 344.878 329.695C339.906 343.603 332.715 354.227 323.305 361.566C313.894 368.846 302.501 372.486 289.125 372.486ZM289.125 352.955C302.383 352.955 312.681 346.562 320.02 333.778C327.359 320.994 331.028 302.765 331.028 279.091C331.028 263.348 329.342 249.942 325.968 238.874C322.654 227.807 317.86 219.373 311.586 213.572C305.371 207.772 297.884 204.872 289.125 204.872C275.986 204.872 265.717 211.353 258.319 224.315C250.921 237.217 247.222 255.476 247.222 279.091C247.222 294.834 248.879 308.21 252.193 319.219C255.508 330.227 260.272 338.602 266.487 344.343C272.76 350.084 280.306 352.955 289.125 352.955Z" fill="#FFE471"/>
<path d="M254.945 361.566L254.023 362.749L254.028 362.752L254.945 361.566ZM233.372 329.695L231.959 330.198L231.96 330.199L233.372 329.695ZM233.372 228.754L231.961 228.245L231.96 228.249L233.372 228.754ZM255.034 196.793L255.957 197.976L255.958 197.975L255.034 196.793ZM323.127 196.793L322.2 197.973L322.208 197.979L323.127 196.793ZM344.789 228.754L343.376 229.257L343.378 229.264L344.789 228.754ZM344.878 329.695L346.29 330.199L346.291 330.198L344.878 329.695ZM323.305 361.566L324.223 362.752L324.227 362.749L323.305 361.566ZM320.02 333.778L318.719 333.032L318.719 333.032L320.02 333.778ZM325.968 238.874L324.531 239.305L324.533 239.312L325.968 238.874ZM311.586 213.572L310.562 214.669L310.568 214.674L311.586 213.572ZM258.319 224.315L259.62 225.061L259.622 225.058L258.319 224.315ZM252.193 319.219L250.757 319.651L250.757 319.651L252.193 319.219ZM266.487 344.343L265.469 345.445L265.474 345.45L266.487 344.343ZM289.125 370.986C276.038 370.986 264.978 367.431 255.863 360.38L254.028 362.752C263.733 370.261 275.46 373.986 289.125 373.986V370.986ZM255.868 360.383C246.73 353.257 239.683 342.894 234.785 329.19L231.96 330.199C237.004 344.312 244.34 355.198 254.023 362.749L255.868 360.383ZM234.785 329.192C229.887 315.429 227.415 298.741 227.415 279.091H224.415C224.415 298.977 226.914 316.025 231.959 330.198L234.785 329.192ZM227.415 279.091C227.415 259.56 229.887 242.961 234.785 229.258L231.96 228.249C226.915 242.363 224.415 259.323 224.415 279.091H227.415ZM234.783 229.262C239.742 215.496 246.818 205.103 255.957 197.976L254.112 195.61C244.429 203.162 237.064 214.076 231.961 228.245L234.783 229.262ZM255.958 197.975C265.136 190.805 276.165 187.196 289.125 187.196V184.196C275.569 184.196 263.872 187.986 254.111 195.611L255.958 197.975ZM289.125 187.196C302.085 187.196 313.083 190.805 322.2 197.973L324.054 195.614C314.351 187.986 302.681 184.196 289.125 184.196V187.196ZM322.208 197.979C331.403 205.105 338.478 215.495 343.376 229.257L346.202 228.251C341.157 214.077 333.791 203.16 324.046 195.608L322.208 197.979ZM343.378 229.264C348.334 242.965 350.835 259.562 350.835 279.091H353.835C353.835 259.321 351.305 242.359 346.2 228.243L343.378 229.264ZM350.835 279.091C350.835 298.741 348.363 315.429 343.465 329.192L346.291 330.198C351.336 316.025 353.835 298.977 353.835 279.091H350.835ZM343.465 329.19C338.567 342.894 331.52 353.257 322.382 360.383L324.227 362.749C333.91 355.198 341.246 344.312 346.29 330.199L343.465 329.19ZM322.387 360.38C313.272 367.431 302.212 370.986 289.125 370.986V373.986C302.79 373.986 314.517 370.261 324.222 362.752L322.387 360.38ZM289.125 354.455C302.989 354.455 313.751 347.712 321.321 334.525L318.719 333.032C311.611 345.413 301.776 351.455 289.125 351.455V354.455ZM321.321 334.525C328.847 321.416 332.528 302.884 332.528 279.091H329.528C329.528 302.646 325.871 320.573 318.719 333.032L321.321 334.525ZM332.528 279.091C332.528 263.249 330.832 249.687 327.403 238.437L324.533 239.312C327.851 250.197 329.528 263.446 329.528 279.091H332.528ZM327.405 238.444C324.04 227.206 319.133 218.507 312.604 212.471L310.568 214.674C316.587 220.239 321.268 228.407 324.531 239.305L327.405 238.444ZM312.609 212.476C306.108 206.408 298.252 203.372 289.125 203.372V206.372C297.517 206.372 304.635 209.137 310.562 214.669L312.609 212.476ZM289.125 203.372C275.365 203.372 264.638 210.218 257.016 223.571L259.622 225.058C266.797 212.488 276.607 206.372 289.125 206.372V203.372ZM257.018 223.568C249.434 236.794 245.722 255.353 245.722 279.091H248.722C248.722 255.598 252.407 237.64 259.62 225.061L257.018 223.568ZM245.722 279.091C245.722 294.931 247.388 308.461 250.757 319.651L253.629 318.786C250.37 307.959 248.722 294.738 248.722 279.091H245.722ZM250.757 319.651C254.122 330.828 258.999 339.468 265.469 345.445L267.504 343.241C261.545 337.736 256.893 329.627 253.629 318.786L250.757 319.651ZM265.474 345.45C272.035 351.454 279.947 354.455 289.125 354.455V351.455C280.666 351.455 273.485 348.714 267.499 343.236L265.474 345.45Z" fill="black"/>
<path d="M132.226 94.7366C128.737 94.7366 125.765 93.7871 123.31 91.8879C120.855 89.9734 118.979 87.2019 117.682 83.5735C116.385 79.9296 115.736 75.5292 115.736 70.3722C115.736 65.2461 116.385 60.8689 117.682 57.2405C118.994 53.5966 120.878 50.8174 123.333 48.9028C125.803 46.9728 128.768 46.0078 132.226 46.0078C135.685 46.0078 138.642 46.9728 141.097 48.9028C143.567 50.8174 145.451 53.5966 146.748 57.2405C148.06 60.8689 148.716 65.2461 148.716 70.3722C148.716 75.5292 148.068 79.9296 146.771 83.5735C145.474 87.2019 143.598 89.9734 141.143 91.8879C138.688 93.7871 135.716 94.7366 132.226 94.7366ZM132.226 89.6414C135.685 89.6414 138.371 87.9739 140.286 84.6388C142.201 81.3038 143.158 76.5482 143.158 70.3722C143.158 66.2652 142.718 62.768 141.838 59.8807C140.973 56.9934 139.722 54.7932 138.086 53.2801C136.465 51.767 134.511 51.0104 132.226 51.0104C128.799 51.0104 126.12 52.7011 124.19 56.0825C122.26 59.4484 121.295 64.2116 121.295 70.3722C121.295 74.4793 121.727 77.9687 122.592 80.8406C123.456 83.7124 124.699 85.8972 126.321 87.3949C127.957 88.8926 129.926 89.6414 132.226 89.6414Z" fill="black"/>
<path d="M132.381 94.6485C128.891 94.6485 125.919 93.6989 123.464 91.7998C121.009 89.8852 119.133 87.1137 117.836 83.4853C116.539 79.8415 115.891 75.4411 115.891 70.2841C115.891 65.158 116.539 60.7807 117.836 57.1523C119.149 53.5085 121.032 50.7293 123.487 48.8147C125.958 46.8847 128.922 45.9197 132.381 45.9197C135.839 45.9197 138.796 46.8847 141.251 48.8147C143.722 50.7293 145.605 53.5085 146.902 57.1523C148.215 60.7807 148.871 65.158 148.871 70.2841C148.871 75.4411 148.222 79.8415 146.925 83.4853C145.628 87.1137 143.752 89.8852 141.297 91.7998C138.843 93.6989 135.87 94.6485 132.381 94.6485ZM132.381 89.5533C135.839 89.5533 138.526 87.8857 140.441 84.5507C142.355 81.2156 143.312 76.4601 143.312 70.2841C143.312 66.177 142.872 62.6799 141.992 59.7926C141.128 56.9053 139.877 54.7051 138.24 53.192C136.619 51.6788 134.666 50.9223 132.381 50.9223C128.953 50.9223 126.274 52.613 124.344 55.9943C122.414 59.3603 121.449 64.1235 121.449 70.2841C121.449 74.3911 121.882 77.8806 122.746 80.7524C123.611 83.6243 124.854 85.8091 126.475 87.3067C128.112 88.8044 130.08 89.5533 132.381 89.5533Z" fill="black"/>
<path d="M123.464 91.7998L123.224 92.1084L123.225 92.1093L123.464 91.7998ZM117.836 83.4853L117.468 83.6165L117.468 83.617L117.836 83.4853ZM117.836 57.1523L117.468 57.0197L117.468 57.0206L117.836 57.1523ZM123.487 48.8147L123.728 49.1233L123.728 49.1231L123.487 48.8147ZM141.251 48.8147L141.009 49.1223L141.011 49.124L141.251 48.8147ZM146.902 57.1523L146.534 57.2835L146.534 57.2854L146.902 57.1523ZM146.925 83.4853L147.294 83.617L147.294 83.6165L146.925 83.4853ZM141.297 91.7998L141.537 92.1093L141.538 92.1084L141.297 91.7998ZM140.441 84.5507L140.101 84.3559L140.101 84.3559L140.441 84.5507ZM141.992 59.7926L141.617 59.9048L141.618 59.9067L141.992 59.7926ZM138.24 53.192L137.973 53.478L137.975 53.4793L138.24 53.192ZM124.344 55.9943L124.684 56.189L124.684 56.1883L124.344 55.9943ZM122.746 80.7524L122.372 80.8653L122.372 80.8653L122.746 80.7524ZM126.475 87.3067L126.21 87.5942L126.211 87.5954L126.475 87.3067ZM132.381 94.2572C128.967 94.2572 126.082 93.3298 123.704 91.4903L123.225 92.1093C125.757 94.068 128.816 95.0398 132.381 95.0398V94.2572ZM123.705 91.4912C121.321 89.632 119.483 86.9288 118.205 83.3536L117.468 83.617C118.784 87.2987 120.698 90.1384 123.224 92.1084L123.705 91.4912ZM118.205 83.3541C116.927 79.7638 116.282 75.4103 116.282 70.2841H115.5C115.5 75.4718 116.152 79.9192 117.468 83.6165L118.205 83.3541ZM116.282 70.2841C116.282 65.189 116.927 60.8588 118.205 57.284L117.468 57.0206C116.152 60.7027 115.5 65.127 115.5 70.2841H116.282ZM118.204 57.2849C119.498 53.6937 121.344 50.9825 123.728 49.1233L123.247 48.5061C120.721 50.4761 118.8 53.3233 117.468 57.0197L118.204 57.2849ZM123.728 49.1231C126.123 47.2524 129 46.311 132.381 46.311V45.5284C128.845 45.5284 125.793 46.517 123.246 48.5063L123.728 49.1231ZM132.381 46.311C135.762 46.311 138.631 47.2524 141.009 49.1223L141.493 48.5071C138.962 46.517 135.917 45.5284 132.381 45.5284V46.311ZM141.011 49.124C143.41 50.983 145.256 53.6934 146.534 57.2835L147.271 57.0211C145.955 53.3236 144.033 50.4756 141.491 48.5054L141.011 49.124ZM146.534 57.2854C147.827 60.8597 148.48 65.1894 148.48 70.2841H149.262C149.262 65.1266 148.602 60.7018 147.27 57.0192L146.534 57.2854ZM148.48 70.2841C148.48 75.4103 147.835 79.7638 146.557 83.3541L147.294 83.6165C148.61 79.9192 149.262 75.4718 149.262 70.2841H148.48ZM146.557 83.3536C145.279 86.9288 143.441 89.632 141.057 91.4912L141.538 92.1084C144.064 90.1384 145.978 87.2987 147.294 83.617L146.557 83.3536ZM141.058 91.4903C138.68 93.3298 135.795 94.2572 132.381 94.2572V95.0398C135.946 95.0398 139.005 94.068 141.537 92.1093L141.058 91.4903ZM132.381 89.9446C135.998 89.9446 138.805 88.1856 140.78 84.7455L140.101 84.3559C138.247 87.5858 135.681 89.162 132.381 89.162V89.9446ZM140.78 84.7455C142.743 81.3256 143.704 76.4912 143.704 70.2841H142.921C142.921 76.429 141.967 81.1057 140.101 84.3559L140.78 84.7455ZM143.704 70.2841C143.704 66.1513 143.261 62.6134 142.367 59.6785L141.618 59.9067C142.484 62.7464 142.921 66.2028 142.921 70.2841H143.704ZM142.367 59.6803C141.489 56.7487 140.209 54.4792 138.506 52.9046L137.975 53.4793C139.545 54.931 140.766 57.0619 141.617 59.9048L142.367 59.6803ZM138.507 52.9059C136.811 51.3229 134.762 50.531 132.381 50.531V51.3136C134.57 51.3136 136.427 52.0348 137.973 53.478L138.507 52.9059ZM132.381 50.531C128.791 50.531 125.993 52.3169 124.004 55.8004L124.684 56.1883C126.556 52.909 129.115 51.3136 132.381 51.3136V50.531ZM124.005 55.7997C122.026 59.2499 121.058 64.0915 121.058 70.2841H121.841C121.841 64.1555 122.802 59.4706 124.684 56.189L124.005 55.7997ZM121.058 70.2841C121.058 74.4163 121.493 77.9461 122.372 80.8653L123.121 80.6396C122.271 77.8151 121.841 74.366 121.841 70.2841H121.058ZM122.372 80.8653C123.249 83.7809 124.522 86.035 126.21 87.5942L126.741 87.0193C125.186 85.5831 123.972 83.4677 123.121 80.6396L122.372 80.8653ZM126.211 87.5954C127.923 89.1618 129.986 89.9446 132.381 89.9446V89.162C130.174 89.162 128.301 88.4471 126.739 87.0181L126.211 87.5954Z" fill="black"/>
<path d="M417.774 491.66C421.264 491.66 424.236 492.61 426.691 494.509C429.146 496.424 431.022 499.195 432.319 502.824C433.616 506.467 434.264 510.868 434.264 516.025C434.264 521.151 433.616 525.528 432.319 529.157C431.006 532.8 429.123 535.58 426.668 537.494C424.197 539.424 421.233 540.389 417.774 540.389C414.316 540.389 411.359 539.424 408.904 537.494C406.433 535.58 404.55 532.8 403.253 529.157C401.94 525.528 401.284 521.151 401.284 516.025C401.284 510.868 401.933 506.467 403.23 502.824C404.527 499.195 406.403 496.424 408.858 494.509C411.313 492.61 414.285 491.66 417.774 491.66ZM417.774 496.756C414.316 496.756 411.629 498.423 409.714 501.758C407.8 505.093 406.843 509.849 406.843 516.025C406.843 520.132 407.283 523.629 408.163 526.516C409.027 529.404 410.278 531.604 411.915 533.117C413.536 534.63 415.489 535.387 417.774 535.387C421.202 535.387 423.881 533.696 425.811 530.315C427.741 526.949 428.706 522.185 428.706 516.025C428.706 511.918 428.273 508.428 427.409 505.556C426.544 502.685 425.301 500.5 423.68 499.002C422.043 497.504 420.075 496.756 417.774 496.756Z" fill="black"/>
<path d="M417.619 491.528C421.109 491.528 424.081 492.478 426.536 494.377C428.991 496.292 430.867 499.063 432.164 502.691C433.461 506.335 434.109 510.736 434.109 515.893C434.109 521.019 433.461 525.396 432.164 529.024C430.851 532.668 428.968 535.447 426.513 537.362C424.042 539.292 421.078 540.257 417.619 540.257C414.161 540.257 411.204 539.292 408.749 537.362C406.278 535.447 404.395 532.668 403.098 529.024C401.785 525.396 401.129 521.019 401.129 515.893C401.129 510.736 401.778 506.335 403.075 502.691C404.372 499.063 406.248 496.292 408.703 494.377C411.157 492.478 414.13 491.528 417.619 491.528ZM417.619 496.623C414.161 496.623 411.474 498.291 409.559 501.626C407.645 504.961 406.688 509.717 406.688 515.893C406.688 520 407.128 523.497 408.008 526.384C408.872 529.271 410.123 531.472 411.76 532.985C413.381 534.498 415.334 535.254 417.619 535.254C421.047 535.254 423.726 533.564 425.656 530.182C427.586 526.817 428.551 522.053 428.551 515.893C428.551 511.786 428.118 508.296 427.254 505.424C426.389 502.552 425.146 500.368 423.525 498.87C421.888 497.372 419.92 496.623 417.619 496.623Z" fill="black"/>
<path d="M426.536 494.377L426.776 494.068L426.775 494.067L426.536 494.377ZM432.164 502.691L432.532 502.56L432.532 502.56L432.164 502.691ZM432.164 529.024L432.532 529.157L432.532 529.156L432.164 529.024ZM426.513 537.362L426.272 537.053L426.272 537.054L426.513 537.362ZM408.749 537.362L408.991 537.054L408.989 537.053L408.749 537.362ZM403.098 529.024L403.466 528.893L403.466 528.891L403.098 529.024ZM403.075 502.691L402.706 502.56L402.706 502.56L403.075 502.691ZM408.703 494.377L408.463 494.067L408.462 494.068L408.703 494.377ZM409.559 501.626L409.899 501.821L409.899 501.821L409.559 501.626ZM408.008 526.384L408.383 526.272L408.382 526.27L408.008 526.384ZM411.76 532.985L412.027 532.699L412.025 532.697L411.76 532.985ZM425.656 530.182L425.316 529.988L425.316 529.988L425.656 530.182ZM427.254 505.424L427.628 505.312L427.628 505.312L427.254 505.424ZM423.525 498.87L423.79 498.583L423.789 498.581L423.525 498.87ZM417.619 491.92C421.033 491.92 423.918 492.847 426.296 494.686L426.775 494.067C424.243 492.109 421.184 491.137 417.619 491.137V491.92ZM426.295 494.686C428.679 496.545 430.517 499.248 431.795 502.823L432.532 502.56C431.216 498.878 429.302 496.038 426.776 494.068L426.295 494.686ZM431.795 502.823C433.073 506.413 433.718 510.766 433.718 515.893H434.5C434.5 510.705 433.848 506.258 432.532 502.56L431.795 502.823ZM433.718 515.893C433.718 520.988 433.073 525.318 431.795 528.893L432.532 529.156C433.848 525.474 434.5 521.05 434.5 515.893H433.718ZM431.796 528.892C430.502 532.483 428.656 535.194 426.272 537.053L426.753 537.671C429.279 535.701 431.2 532.853 432.532 529.157L431.796 528.892ZM426.272 537.054C423.877 538.924 421 539.866 417.619 539.866V540.648C421.155 540.648 424.207 539.66 426.754 537.67L426.272 537.054ZM417.619 539.866C414.238 539.866 411.369 538.924 408.991 537.054L408.507 537.67C411.038 539.66 414.083 540.648 417.619 540.648V539.866ZM408.989 537.053C406.59 535.194 404.744 532.483 403.466 528.893L402.729 529.156C404.045 532.853 405.967 535.701 408.509 537.671L408.989 537.053ZM403.466 528.891C402.173 525.317 401.52 520.987 401.52 515.893H400.738C400.738 521.05 401.398 525.475 402.73 529.158L403.466 528.891ZM401.52 515.893C401.52 510.766 402.165 506.413 403.443 502.823L402.706 502.56C401.39 506.258 400.738 510.705 400.738 515.893H401.52ZM403.443 502.823C404.721 499.248 406.559 496.545 408.943 494.686L408.462 494.068C405.936 496.038 404.022 498.878 402.706 502.56L403.443 502.823ZM408.942 494.686C411.32 492.847 414.205 491.92 417.619 491.92V491.137C414.054 491.137 410.995 492.109 408.463 494.067L408.942 494.686ZM417.619 496.232C414.002 496.232 411.195 497.991 409.22 501.431L409.899 501.821C411.753 498.591 414.319 497.015 417.619 497.015V496.232ZM409.22 501.431C407.257 504.851 406.296 509.686 406.296 515.893H407.079C407.079 509.748 408.033 505.071 409.899 501.821L409.22 501.431ZM406.296 515.893C406.296 520.025 406.739 523.563 407.633 526.498L408.382 526.27C407.516 523.43 407.079 519.974 407.079 515.893H406.296ZM407.633 526.496C408.511 529.428 409.791 531.698 411.494 533.272L412.025 532.697C410.455 531.246 409.234 529.115 408.383 526.272L407.633 526.496ZM411.493 533.271C413.189 534.854 415.238 535.646 417.619 535.646V534.863C415.43 534.863 413.573 534.142 412.027 532.699L411.493 533.271ZM417.619 535.646C421.209 535.646 424.007 533.86 425.996 530.376L425.316 529.988C423.444 533.268 420.885 534.863 417.619 534.863V535.646ZM425.995 530.377C427.974 526.927 428.942 522.085 428.942 515.893H428.159C428.159 522.021 427.198 526.706 425.316 529.988L425.995 530.377ZM428.942 515.893C428.942 511.76 428.507 508.231 427.628 505.312L426.879 505.537C427.729 508.362 428.159 511.811 428.159 515.893H428.942ZM427.628 505.312C426.751 502.396 425.478 500.142 423.79 498.583L423.259 499.157C424.814 500.594 426.028 502.709 426.879 505.537L427.628 505.312ZM423.789 498.581C422.077 497.015 420.014 496.232 417.619 496.232V497.015C419.826 497.015 421.699 497.73 423.261 499.159L423.789 498.581Z" fill="black"/>
<path d="M442.509 0H84.109C69.9705 0 58.509 11.4872 58.509 25.6573V560.771C58.509 574.941 69.9705 586.429 84.109 586.429H442.509C456.648 586.429 468.109 574.941 468.109 560.771V25.6573C468.109 11.4872 456.648 0 442.509 0Z" fill="white"/>
<path d="M109.709 36.6519H416.91C431.048 36.6519 442.51 48.139 442.51 62.3091V524.12C442.51 538.29 431.048 549.777 416.91 549.777H109.709C95.571 549.777 84.1095 538.29 84.1095 524.12V62.3091C84.1095 48.139 95.571 36.6519 109.709 36.6519Z" fill="#FFE471"/>
<path d="M100.57 456.318C156.113 511.986 274.001 484.089 363.88 394.009C453.759 303.929 481.593 185.778 426.05 130.11C370.506 74.4429 252.619 102.339 162.74 192.419C72.8611 282.499 45.0268 400.65 100.57 456.318Z" fill="white"/>
<path d="M279.554 374.072C266.178 374.072 254.785 370.432 245.375 363.152C235.964 355.813 228.773 345.19 223.802 331.281C218.83 317.313 216.344 300.445 216.344 280.677C216.344 261.028 218.83 244.249 223.802 230.34C228.832 216.372 236.053 205.719 245.464 198.38C254.933 190.982 266.297 187.282 279.554 187.282C292.812 187.282 304.146 190.982 313.557 198.38C323.026 205.719 330.247 216.372 335.219 230.34C340.249 244.249 342.765 261.028 342.765 280.677C342.765 300.445 340.279 317.313 335.307 331.281C330.336 345.19 323.145 355.813 313.734 363.152C304.324 370.432 292.93 374.072 279.554 374.072ZM279.554 354.541C292.812 354.541 303.11 348.149 310.449 335.365C317.788 322.581 321.458 304.352 321.458 280.677C321.458 264.934 319.771 251.528 316.397 240.461C313.083 229.393 308.289 220.959 302.015 215.159C295.801 209.359 288.314 206.459 279.554 206.459C266.415 206.459 256.147 212.939 248.748 225.901C241.35 238.804 237.651 257.062 237.651 280.677C237.651 296.421 239.308 309.797 242.623 320.805C245.937 331.814 250.701 340.188 256.916 345.929C263.19 351.67 270.736 354.541 279.554 354.541Z" fill="black"/>
<path d="M280.125 372.486C266.749 372.486 255.356 368.846 245.945 361.566C236.535 354.227 229.344 343.603 224.372 329.695C219.401 315.727 216.915 298.859 216.915 279.091C216.915 259.441 219.401 242.662 224.372 228.754C229.403 214.786 236.624 204.132 246.034 196.793C255.504 189.395 266.867 185.696 280.125 185.696C293.383 185.696 304.717 189.395 314.127 196.793C323.597 204.132 330.817 214.786 335.789 228.754C340.82 242.662 343.335 259.441 343.335 279.091C343.335 298.859 340.849 315.727 335.878 329.695C330.906 343.603 323.715 354.227 314.305 361.566C304.894 368.846 293.501 372.486 280.125 372.486ZM280.125 352.955C293.383 352.955 303.681 346.562 311.02 333.778C318.359 320.994 322.028 302.765 322.028 279.091C322.028 263.348 320.342 249.942 316.968 238.874C313.654 227.807 308.86 219.373 302.586 213.572C296.371 207.772 288.884 204.872 280.125 204.872C266.986 204.872 256.717 211.353 249.319 224.315C241.921 237.217 238.222 255.476 238.222 279.091C238.222 294.834 239.879 308.21 243.193 319.219C246.508 330.227 251.272 338.602 257.487 344.343C263.76 350.084 271.306 352.955 280.125 352.955Z" fill="#FFE471"/>
<path d="M245.945 361.566L245.023 362.749L245.028 362.752L245.945 361.566ZM224.372 329.695L222.959 330.198L222.96 330.199L224.372 329.695ZM224.372 228.754L222.961 228.245L222.96 228.249L224.372 228.754ZM246.034 196.793L246.957 197.976L246.958 197.975L246.034 196.793ZM314.127 196.793L313.2 197.973L313.208 197.979L314.127 196.793ZM335.789 228.754L334.376 229.257L334.378 229.264L335.789 228.754ZM335.878 329.695L337.29 330.199L337.291 330.198L335.878 329.695ZM314.305 361.566L315.223 362.752L315.227 362.749L314.305 361.566ZM311.02 333.778L309.719 333.032L309.719 333.032L311.02 333.778ZM316.968 238.874L315.531 239.305L315.533 239.312L316.968 238.874ZM302.586 213.572L301.562 214.669L301.568 214.674L302.586 213.572ZM249.319 224.315L250.62 225.061L250.622 225.058L249.319 224.315ZM243.193 319.219L241.757 319.651L241.757 319.651L243.193 319.219ZM257.487 344.343L256.469 345.445L256.474 345.45L257.487 344.343ZM280.125 370.986C267.038 370.986 255.978 367.431 246.863 360.38L245.028 362.752C254.733 370.261 266.46 373.986 280.125 373.986V370.986ZM246.868 360.383C237.73 353.257 230.683 342.894 225.785 329.19L222.96 330.199C228.004 344.312 235.34 355.198 245.023 362.749L246.868 360.383ZM225.785 329.192C220.887 315.429 218.415 298.741 218.415 279.091H215.415C215.415 298.977 217.914 316.025 222.959 330.198L225.785 329.192ZM218.415 279.091C218.415 259.56 220.887 242.961 225.785 229.258L222.96 228.249C217.915 242.363 215.415 259.323 215.415 279.091H218.415ZM225.783 229.262C230.742 215.496 237.818 205.103 246.957 197.976L245.112 195.61C235.429 203.162 228.064 214.076 222.961 228.245L225.783 229.262ZM246.958 197.975C256.136 190.805 267.165 187.196 280.125 187.196V184.196C266.569 184.196 254.872 187.986 245.111 195.611L246.958 197.975ZM280.125 187.196C293.085 187.196 304.083 190.805 313.2 197.973L315.054 195.614C305.351 187.986 293.681 184.196 280.125 184.196V187.196ZM313.208 197.979C322.403 205.105 329.478 215.495 334.376 229.257L337.202 228.251C332.157 214.077 324.791 203.16 315.046 195.608L313.208 197.979ZM334.378 229.264C339.334 242.965 341.835 259.562 341.835 279.091H344.835C344.835 259.321 342.305 242.359 337.2 228.243L334.378 229.264ZM341.835 279.091C341.835 298.741 339.363 315.429 334.465 329.192L337.291 330.198C342.336 316.025 344.835 298.977 344.835 279.091H341.835ZM334.465 329.19C329.567 342.894 322.52 353.257 313.382 360.383L315.227 362.749C324.91 355.198 332.246 344.312 337.29 330.199L334.465 329.19ZM313.387 360.38C304.272 367.431 293.212 370.986 280.125 370.986V373.986C293.79 373.986 305.517 370.261 315.222 362.752L313.387 360.38ZM280.125 354.455C293.989 354.455 304.751 347.712 312.321 334.525L309.719 333.032C302.611 345.413 292.776 351.455 280.125 351.455V354.455ZM312.321 334.525C319.847 321.416 323.528 302.884 323.528 279.091H320.528C320.528 302.646 316.871 320.573 309.719 333.032L312.321 334.525ZM323.528 279.091C323.528 263.249 321.832 249.687 318.403 238.437L315.533 239.312C318.851 250.197 320.528 263.446 320.528 279.091H323.528ZM318.405 238.444C315.04 227.206 310.133 218.507 303.604 212.471L301.568 214.674C307.587 220.239 312.268 228.407 315.531 239.305L318.405 238.444ZM303.609 212.476C297.108 206.408 289.252 203.372 280.125 203.372V206.372C288.517 206.372 295.635 209.137 301.562 214.669L303.609 212.476ZM280.125 203.372C266.365 203.372 255.638 210.218 248.016 223.571L250.622 225.058C257.797 212.488 267.607 206.372 280.125 206.372V203.372ZM248.018 223.568C240.434 236.794 236.722 255.353 236.722 279.091H239.722C239.722 255.598 243.407 237.64 250.62 225.061L248.018 223.568ZM236.722 279.091C236.722 294.931 238.388 308.461 241.757 319.651L244.629 318.786C241.37 307.959 239.722 294.738 239.722 279.091H236.722ZM241.757 319.651C245.122 330.828 249.999 339.468 256.469 345.445L258.504 343.241C252.545 337.736 247.893 329.627 244.629 318.786L241.757 319.651ZM256.474 345.45C263.035 351.454 270.947 354.455 280.125 354.455V351.455C271.666 351.455 264.485 348.714 258.499 343.236L256.474 345.45Z" fill="black"/>
<path d="M123.226 94.7366C119.737 94.7366 116.765 93.7871 114.31 91.8879C111.855 89.9734 109.979 87.2019 108.682 83.5735C107.385 79.9296 106.736 75.5292 106.736 70.3722C106.736 65.2461 107.385 60.8689 108.682 57.2405C109.994 53.5966 111.878 50.8174 114.333 48.9028C116.803 46.9728 119.768 46.0078 123.226 46.0078C126.685 46.0078 129.642 46.9728 132.097 48.9028C134.567 50.8174 136.451 53.5966 137.748 57.2405C139.06 60.8689 139.716 65.2461 139.716 70.3722C139.716 75.5292 139.068 79.9296 137.771 83.5735C136.474 87.2019 134.598 89.9734 132.143 91.8879C129.688 93.7871 126.716 94.7366 123.226 94.7366ZM123.226 89.6414C126.685 89.6414 129.371 87.9739 131.286 84.6388C133.201 81.3038 134.158 76.5482 134.158 70.3722C134.158 66.2652 133.718 62.768 132.838 59.8807C131.973 56.9934 130.722 54.7932 129.086 53.2801C127.465 51.767 125.511 51.0104 123.226 51.0104C119.799 51.0104 117.12 52.7011 115.19 56.0825C113.26 59.4484 112.295 64.2116 112.295 70.3722C112.295 74.4793 112.727 77.9687 113.592 80.8406C114.456 83.7124 115.699 85.8972 117.321 87.3949C118.957 88.8926 120.926 89.6414 123.226 89.6414Z" fill="black"/>
<path d="M123.381 94.6485C119.891 94.6485 116.919 93.6989 114.464 91.7998C112.009 89.8852 110.133 87.1137 108.836 83.4853C107.539 79.8415 106.891 75.4411 106.891 70.2841C106.891 65.158 107.539 60.7807 108.836 57.1523C110.149 53.5085 112.032 50.7293 114.487 48.8147C116.958 46.8847 119.922 45.9197 123.381 45.9197C126.839 45.9197 129.796 46.8847 132.251 48.8147C134.722 50.7293 136.605 53.5085 137.902 57.1523C139.215 60.7807 139.871 65.158 139.871 70.2841C139.871 75.4411 139.222 79.8415 137.925 83.4853C136.628 87.1137 134.752 89.8852 132.297 91.7998C129.843 93.6989 126.87 94.6485 123.381 94.6485ZM123.381 89.5533C126.839 89.5533 129.526 87.8857 131.441 84.5507C133.355 81.2156 134.312 76.4601 134.312 70.2841C134.312 66.177 133.872 62.6799 132.992 59.7926C132.128 56.9053 130.877 54.7051 129.24 53.192C127.619 51.6788 125.666 50.9223 123.381 50.9223C119.953 50.9223 117.274 52.613 115.344 55.9943C113.414 59.3603 112.449 64.1235 112.449 70.2841C112.449 74.3911 112.882 77.8806 113.746 80.7524C114.611 83.6243 115.854 85.8091 117.475 87.3067C119.112 88.8044 121.08 89.5533 123.381 89.5533Z" fill="black"/>
<path d="M114.464 91.7998L114.224 92.1084L114.225 92.1093L114.464 91.7998ZM108.836 83.4853L108.468 83.6165L108.468 83.617L108.836 83.4853ZM108.836 57.1523L108.468 57.0197L108.468 57.0206L108.836 57.1523ZM114.487 48.8147L114.728 49.1233L114.728 49.1231L114.487 48.8147ZM132.251 48.8147L132.009 49.1223L132.011 49.124L132.251 48.8147ZM137.902 57.1523L137.534 57.2835L137.534 57.2854L137.902 57.1523ZM137.925 83.4853L138.294 83.617L138.294 83.6165L137.925 83.4853ZM132.297 91.7998L132.537 92.1093L132.538 92.1084L132.297 91.7998ZM131.441 84.5507L131.101 84.3559L131.101 84.3559L131.441 84.5507ZM132.992 59.7926L132.617 59.9048L132.618 59.9067L132.992 59.7926ZM129.24 53.192L128.973 53.478L128.975 53.4793L129.24 53.192ZM115.344 55.9943L115.684 56.189L115.684 56.1883L115.344 55.9943ZM113.746 80.7524L113.372 80.8653L113.372 80.8653L113.746 80.7524ZM117.475 87.3067L117.21 87.5942L117.211 87.5954L117.475 87.3067ZM123.381 94.2572C119.967 94.2572 117.082 93.3298 114.704 91.4903L114.225 92.1093C116.757 94.068 119.816 95.0398 123.381 95.0398V94.2572ZM114.705 91.4912C112.321 89.632 110.483 86.9288 109.205 83.3536L108.468 83.617C109.784 87.2987 111.698 90.1384 114.224 92.1084L114.705 91.4912ZM109.205 83.3541C107.927 79.7638 107.282 75.4103 107.282 70.2841H106.5C106.5 75.4718 107.152 79.9192 108.468 83.6165L109.205 83.3541ZM107.282 70.2841C107.282 65.189 107.927 60.8588 109.205 57.284L108.468 57.0206C107.152 60.7027 106.5 65.127 106.5 70.2841H107.282ZM109.204 57.2849C110.498 53.6937 112.344 50.9825 114.728 49.1233L114.247 48.5061C111.721 50.4761 109.8 53.3233 108.468 57.0197L109.204 57.2849ZM114.728 49.1231C117.123 47.2524 120 46.311 123.381 46.311V45.5284C119.845 45.5284 116.793 46.517 114.246 48.5063L114.728 49.1231ZM123.381 46.311C126.762 46.311 129.631 47.2524 132.009 49.1223L132.493 48.5071C129.962 46.517 126.917 45.5284 123.381 45.5284V46.311ZM132.011 49.124C134.41 50.983 136.256 53.6934 137.534 57.2835L138.271 57.0211C136.955 53.3236 135.033 50.4756 132.491 48.5054L132.011 49.124ZM137.534 57.2854C138.827 60.8597 139.48 65.1894 139.48 70.2841H140.262C140.262 65.1266 139.602 60.7018 138.27 57.0192L137.534 57.2854ZM139.48 70.2841C139.48 75.4103 138.835 79.7638 137.557 83.3541L138.294 83.6165C139.61 79.9192 140.262 75.4718 140.262 70.2841H139.48ZM137.557 83.3536C136.279 86.9288 134.441 89.632 132.057 91.4912L132.538 92.1084C135.064 90.1384 136.978 87.2987 138.294 83.617L137.557 83.3536ZM132.058 91.4903C129.68 93.3298 126.795 94.2572 123.381 94.2572V95.0398C126.946 95.0398 130.005 94.068 132.537 92.1093L132.058 91.4903ZM123.381 89.9446C126.998 89.9446 129.805 88.1856 131.78 84.7455L131.101 84.3559C129.247 87.5858 126.681 89.162 123.381 89.162V89.9446ZM131.78 84.7455C133.743 81.3256 134.704 76.4912 134.704 70.2841H133.921C133.921 76.429 132.967 81.1057 131.101 84.3559L131.78 84.7455ZM134.704 70.2841C134.704 66.1513 134.261 62.6134 133.367 59.6785L132.618 59.9067C133.484 62.7464 133.921 66.2028 133.921 70.2841H134.704ZM133.367 59.6803C132.489 56.7487 131.209 54.4792 129.506 52.9046L128.975 53.4793C130.545 54.931 131.766 57.0619 132.617 59.9048L133.367 59.6803ZM129.507 52.9059C127.811 51.3229 125.762 50.531 123.381 50.531V51.3136C125.57 51.3136 127.427 52.0348 128.973 53.478L129.507 52.9059ZM123.381 50.531C119.791 50.531 116.993 52.3169 115.004 55.8004L115.684 56.1883C117.556 52.909 120.115 51.3136 123.381 51.3136V50.531ZM115.005 55.7997C113.026 59.2499 112.058 64.0915 112.058 70.2841H112.841C112.841 64.1555 113.802 59.4706 115.684 56.189L115.005 55.7997ZM112.058 70.2841C112.058 74.4163 112.493 77.9461 113.372 80.8653L114.121 80.6396C113.271 77.8151 112.841 74.366 112.841 70.2841H112.058ZM113.372 80.8653C114.249 83.7809 115.522 86.035 117.21 87.5942L117.741 87.0193C116.186 85.5831 114.972 83.4677 114.121 80.6396L113.372 80.8653ZM117.211 87.5954C118.923 89.1618 120.986 89.9446 123.381 89.9446V89.162C121.174 89.162 119.301 88.4471 117.739 87.0181L117.211 87.5954Z" fill="black"/>
<path d="M408.774 491.66C412.264 491.66 415.236 492.61 417.691 494.509C420.146 496.424 422.022 499.195 423.319 502.824C424.616 506.467 425.264 510.868 425.264 516.025C425.264 521.151 424.616 525.528 423.319 529.157C422.006 532.8 420.123 535.58 417.668 537.494C415.197 539.424 412.233 540.389 408.774 540.389C405.316 540.389 402.359 539.424 399.904 537.494C397.433 535.58 395.55 532.8 394.253 529.157C392.94 525.528 392.284 521.151 392.284 516.025C392.284 510.868 392.933 506.467 394.23 502.824C395.527 499.195 397.403 496.424 399.858 494.509C402.313 492.61 405.285 491.66 408.774 491.66ZM408.774 496.756C405.316 496.756 402.629 498.423 400.714 501.758C398.8 505.093 397.843 509.849 397.843 516.025C397.843 520.132 398.283 523.629 399.163 526.516C400.027 529.404 401.278 531.604 402.915 533.117C404.536 534.63 406.489 535.387 408.774 535.387C412.202 535.387 414.881 533.696 416.811 530.315C418.741 526.949 419.706 522.185 419.706 516.025C419.706 511.918 419.273 508.428 418.409 505.556C417.544 502.685 416.301 500.5 414.68 499.002C413.043 497.504 411.075 496.756 408.774 496.756Z" fill="black"/>
<path d="M408.619 491.528C412.109 491.528 415.081 492.478 417.536 494.377C419.991 496.292 421.867 499.063 423.164 502.691C424.461 506.335 425.109 510.736 425.109 515.893C425.109 521.019 424.461 525.396 423.164 529.024C421.851 532.668 419.968 535.447 417.513 537.362C415.042 539.292 412.078 540.257 408.619 540.257C405.161 540.257 402.204 539.292 399.749 537.362C397.278 535.447 395.395 532.668 394.098 529.024C392.785 525.396 392.129 521.019 392.129 515.893C392.129 510.736 392.778 506.335 394.075 502.691C395.372 499.063 397.248 496.292 399.703 494.377C402.157 492.478 405.13 491.528 408.619 491.528ZM408.619 496.623C405.161 496.623 402.474 498.291 400.559 501.626C398.645 504.961 397.688 509.717 397.688 515.893C397.688 520 398.128 523.497 399.008 526.384C399.872 529.271 401.123 531.472 402.76 532.985C404.381 534.498 406.334 535.254 408.619 535.254C412.047 535.254 414.726 533.564 416.656 530.182C418.586 526.817 419.551 522.053 419.551 515.893C419.551 511.786 419.118 508.296 418.254 505.424C417.389 502.552 416.146 500.368 414.525 498.87C412.888 497.372 410.92 496.623 408.619 496.623Z" fill="black"/>
<path d="M417.536 494.377L417.776 494.068L417.775 494.067L417.536 494.377ZM423.164 502.691L423.532 502.56L423.532 502.56L423.164 502.691ZM423.164 529.024L423.532 529.157L423.532 529.156L423.164 529.024ZM417.513 537.362L417.272 537.053L417.272 537.054L417.513 537.362ZM399.749 537.362L399.991 537.054L399.989 537.053L399.749 537.362ZM394.098 529.024L394.466 528.893L394.466 528.891L394.098 529.024ZM394.075 502.691L393.706 502.56L393.706 502.56L394.075 502.691ZM399.703 494.377L399.463 494.067L399.462 494.068L399.703 494.377ZM400.559 501.626L400.899 501.821L400.899 501.821L400.559 501.626ZM399.008 526.384L399.383 526.272L399.382 526.27L399.008 526.384ZM402.76 532.985L403.027 532.699L403.025 532.697L402.76 532.985ZM416.656 530.182L416.316 529.988L416.316 529.988L416.656 530.182ZM418.254 505.424L418.628 505.312L418.628 505.312L418.254 505.424ZM414.525 498.87L414.79 498.583L414.789 498.581L414.525 498.87ZM408.619 491.92C412.033 491.92 414.918 492.847 417.296 494.686L417.775 494.067C415.243 492.109 412.184 491.137 408.619 491.137V491.92ZM417.295 494.686C419.679 496.545 421.517 499.248 422.795 502.823L423.532 502.56C422.216 498.878 420.302 496.038 417.776 494.068L417.295 494.686ZM422.795 502.823C424.073 506.413 424.718 510.766 424.718 515.893H425.5C425.5 510.705 424.848 506.258 423.532 502.56L422.795 502.823ZM424.718 515.893C424.718 520.988 424.073 525.318 422.795 528.893L423.532 529.156C424.848 525.474 425.5 521.05 425.5 515.893H424.718ZM422.796 528.892C421.502 532.483 419.656 535.194 417.272 537.053L417.753 537.671C420.279 535.701 422.2 532.853 423.532 529.157L422.796 528.892ZM417.272 537.054C414.877 538.924 412 539.866 408.619 539.866V540.648C412.155 540.648 415.207 539.66 417.754 537.67L417.272 537.054ZM408.619 539.866C405.238 539.866 402.369 538.924 399.991 537.054L399.507 537.67C402.038 539.66 405.083 540.648 408.619 540.648V539.866ZM399.989 537.053C397.59 535.194 395.744 532.483 394.466 528.893L393.729 529.156C395.045 532.853 396.967 535.701 399.509 537.671L399.989 537.053ZM394.466 528.891C393.173 525.317 392.52 520.987 392.52 515.893H391.738C391.738 521.05 392.398 525.475 393.73 529.158L394.466 528.891ZM392.52 515.893C392.52 510.766 393.165 506.413 394.443 502.823L393.706 502.56C392.39 506.258 391.738 510.705 391.738 515.893H392.52ZM394.443 502.823C395.721 499.248 397.559 496.545 399.943 494.686L399.462 494.068C396.936 496.038 395.022 498.878 393.706 502.56L394.443 502.823ZM399.942 494.686C402.32 492.847 405.205 491.92 408.619 491.92V491.137C405.054 491.137 401.995 492.109 399.463 494.067L399.942 494.686ZM408.619 496.232C405.002 496.232 402.195 497.991 400.22 501.431L400.899 501.821C402.753 498.591 405.319 497.015 408.619 497.015V496.232ZM400.22 501.431C398.257 504.851 397.296 509.686 397.296 515.893H398.079C398.079 509.748 399.033 505.071 400.899 501.821L400.22 501.431ZM397.296 515.893C397.296 520.025 397.739 523.563 398.633 526.498L399.382 526.27C398.516 523.43 398.079 519.974 398.079 515.893H397.296ZM398.633 526.496C399.511 529.428 400.791 531.698 402.494 533.272L403.025 532.697C401.455 531.246 400.234 529.115 399.383 526.272L398.633 526.496ZM402.493 533.271C404.189 534.854 406.238 535.646 408.619 535.646V534.863C406.43 534.863 404.573 534.142 403.027 532.699L402.493 533.271ZM408.619 535.646C412.209 535.646 415.007 533.86 416.996 530.376L416.316 529.988C414.444 533.268 411.885 534.863 408.619 534.863V535.646ZM416.995 530.377C418.974 526.927 419.942 522.085 419.942 515.893H419.159C419.159 522.021 418.198 526.706 416.316 529.988L416.995 530.377ZM419.942 515.893C419.942 511.76 419.507 508.231 418.628 505.312L417.879 505.537C418.729 508.362 419.159 511.811 419.159 515.893H419.942ZM418.628 505.312C417.751 502.396 416.478 500.142 414.79 498.583L414.259 499.157C415.814 500.594 417.028 502.709 417.879 505.537L418.628 505.312ZM414.789 498.581C413.077 497.015 411.014 496.232 408.619 496.232V497.015C410.826 497.015 412.699 497.73 414.261 499.159L414.789 498.581Z" fill="black"/>
</svg>
