<svg width="527" height="587" viewBox="0 0 527 587" fill="none" xmlns="http://www.w3.org/2000/svg">
<path d="M442.509 0H84.109C69.9705 0 58.509 11.4872 58.509 25.6573V560.771C58.509 574.941 69.9705 586.429 84.109 586.429H442.509C456.648 586.429 468.109 574.941 468.109 560.771V25.6573C468.109 11.4872 456.648 0 442.509 0Z" fill="white"/>
<path d="M109.709 36.6519H416.91C431.048 36.6519 442.51 48.1391 442.51 62.3092V524.12C442.51 538.29 431.048 549.777 416.91 549.777H109.709C95.571 549.777 84.1095 538.29 84.1095 524.12V62.3092C84.1095 48.1391 95.571 36.6519 109.709 36.6519Z" fill="#FFE471"/>
<path d="M100.57 456.318C156.113 511.986 274.001 484.089 363.88 394.009C453.759 303.929 481.593 185.778 426.05 130.11C370.506 74.4429 252.619 102.339 162.74 192.419C72.8611 282.499 45.0268 400.65 100.57 456.318Z" fill="white"/>
<path d="M277.069 374.072C266.652 374.072 257.271 372.001 248.926 367.858C240.581 363.715 233.893 358.033 228.862 350.812C223.831 343.592 221.079 335.365 220.606 326.132H241.913C242.741 334.359 246.47 341.165 253.099 346.551C259.787 351.878 267.777 354.541 277.069 354.541C284.526 354.541 291.155 352.795 296.955 349.303C302.815 345.811 307.402 341.017 310.716 334.921C314.089 328.766 315.776 321.811 315.776 314.058C315.776 306.127 314.03 299.054 310.538 292.84C307.106 286.566 302.371 281.624 296.334 278.014C290.297 274.404 283.402 272.569 275.648 272.51C270.085 272.451 264.374 273.309 258.514 275.084C252.655 276.801 247.831 279.02 244.043 281.743L223.447 279.257L234.455 189.768H328.915V209.299H252.921L246.529 262.922H247.594C251.323 259.962 255.999 257.506 261.621 255.553C267.244 253.6 273.103 252.623 279.2 252.623C290.326 252.623 300.24 255.287 308.94 260.613C317.7 265.881 324.565 273.102 329.537 282.275C334.568 291.449 337.083 301.925 337.083 313.703C337.083 325.303 334.479 335.661 329.271 344.775C324.121 353.831 317.019 360.992 307.964 366.26C298.908 371.468 288.61 374.072 277.069 374.072Z" fill="black"/>
<path d="M274.252 370.64C263.835 370.64 254.454 368.569 246.109 364.426C237.764 360.283 231.076 354.601 226.045 347.38C221.014 340.16 218.262 331.933 217.788 322.7H239.095C239.924 330.927 243.653 337.733 250.281 343.119C256.969 348.446 264.959 351.109 274.252 351.109C281.709 351.109 288.338 349.363 294.138 345.871C299.997 342.379 304.584 337.585 307.899 331.489C311.272 325.334 312.959 318.379 312.959 310.626C312.959 302.695 311.213 295.623 307.721 289.408C304.288 283.134 299.553 278.192 293.516 274.582C287.479 270.972 280.584 269.137 272.831 269.078C267.268 269.019 261.556 269.877 255.697 271.652C249.837 273.369 245.014 275.588 241.226 278.311L220.629 275.825L231.638 186.336H326.098V205.868H250.104L243.712 259.49H244.777C248.506 256.53 253.181 254.074 258.804 252.121C264.427 250.168 270.286 249.191 276.382 249.191C287.509 249.191 297.423 251.855 306.123 257.182C314.882 262.449 321.748 269.67 326.72 278.843C331.75 288.017 334.266 298.493 334.266 310.271C334.266 321.871 331.662 332.229 326.453 341.343C321.304 350.399 314.202 357.56 305.146 362.828C296.091 368.036 285.793 370.64 274.252 370.64Z" fill="#FFE471"/>
<path d="M246.109 364.426L245.442 365.769L245.442 365.769L246.109 364.426ZM226.045 347.38L227.276 346.523L227.276 346.523L226.045 347.38ZM217.788 322.7V321.2H216.21L216.29 322.777L217.788 322.7ZM239.095 322.7L240.588 322.55L240.452 321.2H239.095V322.7ZM250.281 343.119L249.335 344.283L249.341 344.288L249.347 344.292L250.281 343.119ZM294.138 345.871L293.37 344.583L293.364 344.586L294.138 345.871ZM307.899 331.489L306.583 330.768L306.581 330.773L307.899 331.489ZM307.721 289.408L306.405 290.128L306.409 290.136L306.413 290.143L307.721 289.408ZM272.831 269.078L272.815 270.578L272.82 270.578L272.831 269.078ZM255.697 271.652L256.119 273.092L256.132 273.088L255.697 271.652ZM241.226 278.311L241.046 279.8L241.627 279.87L242.101 279.529L241.226 278.311ZM220.629 275.825L219.141 275.642L218.957 277.134L220.45 277.314L220.629 275.825ZM231.638 186.336V184.836H230.311L230.149 186.153L231.638 186.336ZM326.098 186.336H327.598V184.836H326.098V186.336ZM326.098 205.868V207.368H327.598V205.868H326.098ZM250.104 205.868V204.368H248.772L248.614 205.69L250.104 205.868ZM243.712 259.49L242.222 259.312L242.022 260.99H243.712V259.49ZM244.777 259.49V260.99H245.3L245.71 260.665L244.777 259.49ZM306.123 257.182L305.34 258.461L305.35 258.467L306.123 257.182ZM326.72 278.843L325.401 279.558L325.404 279.565L326.72 278.843ZM326.453 341.343L325.151 340.599L325.149 340.602L326.453 341.343ZM305.146 362.828L305.894 364.128L305.901 364.124L305.146 362.828ZM274.252 369.14C264.039 369.14 254.89 367.111 246.776 363.082L245.442 365.769C254.018 370.027 263.631 372.14 274.252 372.14V369.14ZM246.776 363.082C238.643 359.045 232.154 353.525 227.276 346.523L224.814 348.238C229.997 355.678 236.885 361.521 245.442 365.769L246.776 363.082ZM227.276 346.523C222.413 339.544 219.746 331.591 219.286 322.623L216.29 322.777C216.777 332.275 219.615 340.775 224.814 348.238L227.276 346.523ZM217.788 324.2H239.095V321.2H217.788V324.2ZM237.603 322.85C238.473 331.489 242.408 338.655 249.335 344.283L251.227 341.955C244.897 336.811 241.375 330.365 240.588 322.55L237.603 322.85ZM249.347 344.292C256.324 349.849 264.651 352.609 274.252 352.609V349.609C265.267 349.609 257.615 347.042 251.216 341.946L249.347 344.292ZM274.252 352.609C281.953 352.609 288.855 350.803 294.912 347.156L293.364 344.586C287.821 347.923 281.465 349.609 274.252 349.609V352.609ZM294.906 347.16C301.001 343.527 305.776 338.534 309.216 332.206L306.581 330.773C303.393 336.636 298.994 341.231 293.37 344.583L294.906 347.16ZM309.214 332.21C312.721 325.811 314.459 318.605 314.459 310.626H311.459C311.459 318.154 309.823 324.856 306.583 330.768L309.214 332.21ZM314.459 310.626C314.459 302.467 312.66 295.137 309.029 288.673L306.413 290.143C309.765 296.109 311.459 302.923 311.459 310.626H314.459ZM309.037 288.688C305.478 282.184 300.557 277.045 294.286 273.295L292.747 275.869C298.55 279.34 303.098 284.085 306.405 290.128L309.037 288.688ZM294.286 273.295C287.997 269.534 280.835 267.639 272.843 267.578L272.82 270.578C280.334 270.635 286.962 272.41 292.747 275.869L294.286 273.295ZM272.847 267.578C267.116 267.517 261.253 268.401 255.262 270.217L256.132 273.088C261.86 271.352 267.419 270.52 272.815 270.578L272.847 267.578ZM255.275 270.213C249.301 271.963 244.311 274.246 240.35 277.093L242.101 279.529C245.717 276.93 250.374 274.775 256.118 273.092L255.275 270.213ZM241.406 276.822L220.809 274.336L220.45 277.314L241.046 279.8L241.406 276.822ZM222.118 276.008L233.127 186.519L230.149 186.153L219.141 275.642L222.118 276.008ZM231.638 187.836H326.098V184.836H231.638V187.836ZM324.598 186.336V205.868H327.598V186.336H324.598ZM326.098 204.368H250.104V207.368H326.098V204.368ZM248.614 205.69L242.222 259.312L245.201 259.667L251.593 206.045L248.614 205.69ZM243.712 260.99H244.777V257.99H243.712V260.99ZM245.71 260.665C249.278 257.833 253.795 255.449 259.296 253.538L258.312 250.704C252.568 252.699 247.734 255.228 243.845 258.315L245.71 260.665ZM259.296 253.538C264.757 251.641 270.45 250.691 276.382 250.691V247.691C270.123 247.691 264.097 248.695 258.312 250.704L259.296 253.538ZM276.382 250.691C287.259 250.691 296.896 253.291 305.34 258.461L306.906 255.902C297.949 250.418 287.76 247.691 276.382 247.691V250.691ZM305.35 258.467C313.875 263.593 320.554 270.615 325.401 279.558L328.038 278.129C322.942 268.725 315.89 261.305 306.896 255.896L305.35 258.467ZM325.404 279.565C330.299 288.491 332.766 298.713 332.766 310.271H335.766C335.766 298.273 333.201 287.544 328.035 278.122L325.404 279.565ZM332.766 310.271C332.766 321.638 330.216 331.735 325.151 340.599L327.756 342.088C333.107 332.723 335.766 322.104 335.766 310.271H332.766ZM325.149 340.602C320.132 349.426 313.22 356.396 304.392 361.531L305.901 364.124C315.184 358.724 322.476 351.372 327.757 342.085L325.149 340.602ZM304.399 361.528C295.594 366.592 285.558 369.14 274.252 369.14V372.14C286.027 372.14 296.588 369.481 305.894 364.128L304.399 361.528Z" fill="black"/>
<path d="M122.578 94.7366C119.86 94.7366 117.413 94.1962 115.236 93.1154C113.059 92.0346 111.314 90.5524 110.002 88.6687C108.69 86.785 107.972 84.6388 107.848 82.2302H113.406C113.623 84.3763 114.595 86.152 116.325 87.557C118.069 88.9466 120.154 89.6414 122.578 89.6414C124.523 89.6414 126.253 89.1859 127.766 88.275C129.294 87.364 130.491 86.1134 131.356 84.523C132.236 82.9173 132.676 81.1031 132.676 79.0804C132.676 77.0114 132.22 75.1664 131.309 73.5452C130.414 71.9085 129.178 70.6193 127.604 69.6774C126.029 68.7356 124.23 68.2569 122.207 68.2415C120.756 68.2261 119.266 68.4499 117.737 68.9131C116.209 69.3609 114.95 69.9399 113.962 70.6501L108.589 70.0017L111.461 46.6563H136.103V51.7515H116.278L114.611 65.7402H114.889C115.861 64.9682 117.081 64.3274 118.548 63.8179C120.015 63.3084 121.543 63.0536 123.134 63.0536C126.036 63.0536 128.623 63.7484 130.892 65.138C133.177 66.5122 134.968 68.3959 136.265 70.7891C137.578 73.1823 138.234 75.9152 138.234 78.9878C138.234 82.014 137.555 84.716 136.196 87.0938C134.853 89.4561 133 91.3244 130.638 92.6985C128.275 94.0573 125.589 94.7366 122.578 94.7366Z" fill="black"/>
<path d="M121.843 93.8414C119.126 93.8414 116.678 93.301 114.501 92.2201C112.324 91.1393 110.579 89.6571 109.267 87.7734C107.955 85.8897 107.237 83.7436 107.113 81.3349H112.672C112.888 83.4811 113.86 85.2567 115.59 86.6617C117.334 88.0513 119.419 88.7461 121.843 88.7461C123.788 88.7461 125.518 88.2907 127.031 87.3797C128.559 86.4687 129.756 85.2181 130.621 83.6278C131.501 82.022 131.941 80.2078 131.941 78.1851C131.941 76.1162 131.485 74.2711 130.574 72.6499C129.679 71.0132 128.444 69.724 126.869 68.7822C125.294 67.8403 123.495 67.3617 121.472 67.3462C120.021 67.3308 118.531 67.5547 117.003 68.0179C115.474 68.4656 114.216 69.0446 113.227 69.7549L107.854 69.1064L110.726 45.7611H135.368V50.8563H115.543L113.876 64.8449H114.154C115.127 64.0729 116.346 63.4322 117.813 62.9227C119.28 62.4131 120.808 62.1584 122.399 62.1584C125.302 62.1584 127.888 62.8532 130.157 64.2428C132.443 65.617 134.234 67.5006 135.531 69.8938C136.843 72.287 137.499 75.0199 137.499 78.0925C137.499 81.1188 136.82 83.8208 135.461 86.1985C134.118 88.5609 132.265 90.4291 129.903 91.8033C127.54 93.162 124.854 93.8414 121.843 93.8414Z" fill="black"/>
<path d="M114.501 92.2201L114.327 92.5706L114.327 92.5706L114.501 92.2201ZM109.267 87.7734L109.588 87.5497L109.588 87.5497L109.267 87.7734ZM107.113 81.3349V80.9436H106.701L106.722 81.355L107.113 81.3349ZM112.672 81.3349L113.061 81.2957L113.025 80.9436H112.672V81.3349ZM115.59 86.6617L115.343 86.9654L115.346 86.9678L115.59 86.6617ZM127.031 87.3797L126.83 87.0435L126.829 87.0444L127.031 87.3797ZM130.621 83.6278L130.277 83.4397L130.277 83.4409L130.621 83.6278ZM130.574 72.6499L130.231 72.8377L130.233 72.8416L130.574 72.6499ZM121.472 67.3462L121.468 67.7375L121.469 67.7375L121.472 67.3462ZM117.003 68.0179L117.113 68.3934L117.116 68.3924L117.003 68.0179ZM113.227 69.7549L113.181 70.1434L113.332 70.1616L113.456 70.0726L113.227 69.7549ZM107.854 69.1064L107.466 69.0586L107.418 69.4479L107.807 69.4949L107.854 69.1064ZM110.726 45.7611V45.3697H110.38L110.338 45.7133L110.726 45.7611ZM135.368 45.7611H135.76V45.3697H135.368V45.7611ZM135.368 50.8563V51.2476H135.76V50.8563H135.368ZM115.543 50.8563V50.465H115.196L115.155 50.8099L115.543 50.8563ZM113.876 64.8449L113.487 64.7986L113.435 65.2363H113.876V64.8449ZM114.154 64.8449V65.2363H114.29L114.397 65.1515L114.154 64.8449ZM130.157 64.2428L129.953 64.5765L129.956 64.5781L130.157 64.2428ZM135.531 69.8938L135.187 70.0803L135.187 70.082L135.531 69.8938ZM135.461 86.1985L135.121 86.0044L135.121 86.0051L135.461 86.1985ZM129.903 91.8033L130.098 92.1425L130.099 92.1415L129.903 91.8033ZM121.843 93.45C119.179 93.45 116.792 92.9206 114.675 91.8697L114.327 92.5706C116.564 93.6813 119.072 94.2327 121.843 94.2327V93.45ZM114.675 91.8697C112.554 90.8163 110.861 89.3763 109.588 87.5497L108.946 87.9971C110.298 89.9379 112.095 91.4624 114.327 92.5706L114.675 91.8697ZM109.588 87.5497C108.32 85.7292 107.624 83.6543 107.504 81.3149L106.722 81.355C106.849 83.8328 107.59 86.0503 108.946 87.9971L109.588 87.5497ZM107.113 81.7262H112.672V80.9436H107.113V81.7262ZM112.282 81.3741C112.509 83.6277 113.536 85.4971 115.343 86.9654L115.837 86.358C114.185 85.0162 113.266 83.3345 113.061 81.2957L112.282 81.3741ZM115.346 86.9678C117.166 88.4175 119.339 89.1374 121.843 89.1374V88.3548C119.499 88.3548 117.503 87.6852 115.834 86.3556L115.346 86.9678ZM121.843 89.1374C123.852 89.1374 125.653 88.6662 127.233 87.7149L126.829 87.0444C125.383 87.9151 123.725 88.3548 121.843 88.3548V89.1374ZM127.231 87.7158C128.821 86.7683 130.067 85.4656 130.964 83.8147L130.277 83.4409C129.445 84.9706 128.298 86.1692 126.831 87.0436L127.231 87.7158ZM130.964 83.8158C131.879 82.1466 132.332 80.2665 132.332 78.1851H131.549C131.549 80.1491 131.123 81.8974 130.277 83.4397L130.964 83.8158ZM132.332 78.1851C132.332 76.0568 131.863 74.1443 130.915 72.4582L130.233 72.8416C131.108 74.3979 131.549 76.1756 131.549 78.1851H132.332ZM130.918 72.4621C129.989 70.7653 128.705 69.4246 127.07 68.4463L126.668 69.118C128.182 70.0234 129.368 71.2611 130.231 72.8377L130.918 72.4621ZM127.07 68.4463C125.429 67.4651 123.56 66.9709 121.475 66.9549L121.469 67.7375C123.43 67.7525 125.159 68.2155 126.668 69.118L127.07 68.4463ZM121.477 66.9549C119.982 66.939 118.452 67.1698 116.889 67.6434L117.116 68.3924C118.61 67.9396 120.061 67.7225 121.468 67.7375L121.477 66.9549ZM116.893 67.6423C115.334 68.0989 114.032 68.6945 112.999 69.4371L113.456 70.0726C114.399 69.3948 115.614 68.8324 117.113 68.3934L116.893 67.6423ZM113.274 69.3664L107.901 68.7179L107.807 69.4949L113.181 70.1434L113.274 69.3664ZM108.243 69.1542L111.115 45.8088L110.338 45.7133L107.466 69.0586L108.243 69.1542ZM110.726 46.1524H135.368V45.3697H110.726V46.1524ZM134.977 45.7611V50.8563H135.76V45.7611H134.977ZM135.368 50.465H115.543V51.2476H135.368V50.465ZM115.155 50.8099L113.487 64.7986L114.264 64.8913L115.932 50.9026L115.155 50.8099ZM113.876 65.2363H114.154V64.4536H113.876V65.2363ZM114.397 65.1515C115.328 64.4127 116.506 63.7909 117.942 63.2923L117.685 62.553C116.186 63.0735 114.925 63.7332 113.911 64.5384L114.397 65.1515ZM117.942 63.2923C119.366 62.7975 120.851 62.5497 122.399 62.5497V61.7671C120.766 61.7671 119.194 62.0288 117.685 62.553L117.942 63.2923ZM122.399 62.5497C125.236 62.5497 127.75 63.228 129.953 64.5765L130.362 63.9091C128.025 62.4784 125.367 61.7671 122.399 61.7671V62.5497ZM129.956 64.5781C132.18 65.9155 133.922 67.7472 135.187 70.0803L135.875 69.7074C134.545 67.2541 132.705 65.3184 130.359 63.9074L129.956 64.5781ZM135.187 70.082C136.464 72.4106 137.108 75.0773 137.108 78.0925H137.89C137.89 74.9626 137.222 72.1635 135.874 69.7057L135.187 70.082ZM137.108 78.0925C137.108 81.058 136.443 83.6918 135.121 86.0044L135.801 86.3927C137.197 83.9497 137.89 81.1795 137.89 78.0925H137.108ZM135.121 86.0051C133.812 88.307 132.009 90.1254 129.706 91.465L130.099 92.1415C132.521 90.7328 134.424 88.8147 135.801 86.392L135.121 86.0051ZM129.708 91.4641C127.411 92.7852 124.793 93.45 121.843 93.45V94.2327C124.915 94.2327 127.67 93.5388 130.098 92.1425L129.708 91.4641Z" fill="black"/>
<path d="M409.423 491.66C412.14 491.66 414.587 492.201 416.764 493.281C418.941 494.362 420.686 495.844 421.999 497.728C423.311 499.612 424.029 501.758 424.152 504.167H418.594C418.378 502.02 417.405 500.245 415.676 498.84C413.931 497.45 411.847 496.755 409.423 496.755C407.477 496.755 405.748 497.211 404.235 498.122C402.706 499.033 401.51 500.283 400.645 501.874C399.765 503.479 399.325 505.294 399.325 507.316C399.325 509.385 399.78 511.23 400.691 512.852C401.587 514.488 402.822 515.777 404.397 516.719C405.972 517.661 407.771 518.14 409.793 518.155C411.245 518.171 412.735 517.947 414.263 517.484C415.792 517.036 417.05 516.457 418.038 515.747L423.411 516.395L420.539 539.74H395.897V534.645H415.722L417.39 520.657H417.112C416.139 521.429 414.919 522.069 413.453 522.579C411.986 523.088 410.457 523.343 408.867 523.343C405.964 523.343 403.378 522.648 401.108 521.259C398.823 519.885 397.032 518.001 395.735 515.608C394.423 513.214 393.766 510.482 393.766 507.409C393.766 504.383 394.446 501.681 395.805 499.303C397.148 496.941 399.001 495.072 401.363 493.698C403.725 492.339 406.412 491.66 409.423 491.66Z" fill="black"/>
<path d="M410.158 492.555C412.875 492.555 415.323 493.096 417.5 494.177C419.677 495.257 421.422 496.74 422.734 498.623C424.046 500.507 424.764 502.653 424.888 505.062H419.329C419.113 502.916 418.141 501.14 416.411 499.735C414.666 498.345 412.582 497.651 410.158 497.651C408.213 497.651 406.483 498.106 404.97 499.017C403.442 499.928 402.245 501.179 401.38 502.769C400.5 504.375 400.06 506.189 400.06 508.212C400.06 510.281 400.516 512.126 401.427 513.747C402.322 515.383 403.557 516.673 405.132 517.615C406.707 518.556 408.506 519.035 410.529 519.05C411.98 519.066 413.47 518.842 414.998 518.379C416.527 517.931 417.785 517.352 418.774 516.642L424.147 517.29L421.275 540.636H396.633V535.54H416.458L418.125 521.552H417.847C416.874 522.324 415.655 522.965 414.188 523.474C412.721 523.984 411.192 524.238 409.602 524.238C406.699 524.238 404.113 523.544 401.844 522.154C399.558 520.78 397.767 518.896 396.47 516.503C395.158 514.11 394.502 511.377 394.502 508.304C394.502 505.278 395.181 502.576 396.54 500.198C397.883 497.836 399.736 495.968 402.098 494.593C404.461 493.235 407.147 492.555 410.158 492.555Z" fill="black"/>
<path d="M417.5 494.177L417.674 493.826L417.674 493.826L417.5 494.177ZM422.734 498.623L422.413 498.847L422.413 498.847L422.734 498.623ZM424.888 505.062V505.453H425.3L425.279 505.042L424.888 505.062ZM419.329 505.062L418.94 505.101L418.976 505.453H419.329V505.062ZM416.411 499.735L416.658 499.431L416.655 499.429L416.411 499.735ZM404.97 499.017L405.17 499.353L405.172 499.352L404.97 499.017ZM401.38 502.769L401.723 502.957L401.724 502.956L401.38 502.769ZM401.427 513.747L401.77 513.559L401.768 513.555L401.427 513.747ZM410.529 519.05L410.533 518.659L410.532 518.659L410.529 519.05ZM414.998 518.379L414.888 518.003L414.885 518.004L414.998 518.379ZM418.774 516.642L418.82 516.253L418.669 516.235L418.545 516.324L418.774 516.642ZM424.147 517.29L424.535 517.338L424.583 516.949L424.194 516.902L424.147 517.29ZM421.275 540.636V541.027H421.621L421.663 540.683L421.275 540.636ZM396.633 540.636H396.241V541.027H396.633V540.636ZM396.633 535.54V535.149H396.241V535.54H396.633ZM416.458 535.54V535.932H416.805L416.846 535.587L416.458 535.54ZM418.125 521.552L418.514 521.598L418.566 521.16H418.125V521.552ZM417.847 521.552V521.16H417.711L417.604 521.245L417.847 521.552ZM401.844 522.154L402.048 521.82L402.045 521.819L401.844 522.154ZM396.47 516.503L396.814 516.316L396.814 516.315L396.47 516.503ZM396.54 500.198L396.88 500.392L396.88 500.392L396.54 500.198ZM402.098 494.593L401.903 494.254L401.902 494.255L402.098 494.593ZM410.158 492.947C412.822 492.947 415.209 493.476 417.326 494.527L417.674 493.826C415.437 492.715 412.929 492.164 410.158 492.164V492.947ZM417.326 494.527C419.447 495.58 421.14 497.02 422.413 498.847L423.055 498.4C421.703 496.459 419.906 494.934 417.674 493.826L417.326 494.527ZM422.413 498.847C423.681 500.668 424.377 502.742 424.497 505.082L425.279 505.042C425.152 502.564 424.411 500.346 423.055 498.4L422.413 498.847ZM424.888 504.671H419.329V505.453H424.888V504.671ZM419.719 505.023C419.492 502.769 418.465 500.9 416.658 499.431L416.164 500.039C417.816 501.38 418.735 503.062 418.94 505.101L419.719 505.023ZM416.655 499.429C414.835 497.979 412.662 497.259 410.158 497.259V498.042C412.502 498.042 414.498 498.712 416.167 500.041L416.655 499.429ZM410.158 497.259C408.149 497.259 406.348 497.73 404.768 498.682L405.172 499.352C406.618 498.482 408.276 498.042 410.158 498.042V497.259ZM404.77 498.681C403.18 499.628 401.934 500.931 401.037 502.582L401.724 502.956C402.556 501.426 403.703 500.228 405.17 499.353L404.77 498.681ZM401.037 502.581C400.122 504.25 399.669 506.13 399.669 508.212H400.452C400.452 506.248 400.878 504.499 401.723 502.957L401.037 502.581ZM399.669 508.212C399.669 510.34 400.138 512.252 401.086 513.939L401.768 513.555C400.893 511.999 400.452 510.221 400.452 508.212H399.669ZM401.083 513.935C402.012 515.631 403.296 516.972 404.931 517.95L405.333 517.279C403.819 516.373 402.633 515.136 401.77 513.559L401.083 513.935ZM404.931 517.95C406.572 518.932 408.441 519.426 410.526 519.442L410.532 518.659C408.571 518.644 406.842 518.181 405.333 517.279L404.931 517.95ZM410.524 519.442C412.019 519.458 413.549 519.227 415.112 518.753L414.885 518.004C413.391 518.457 411.94 518.674 410.533 518.659L410.524 519.442ZM415.108 518.754C416.667 518.298 417.969 517.702 419.002 516.96L418.545 516.324C417.602 517.002 416.387 517.564 414.888 518.003L415.108 518.754ZM418.727 517.03L424.1 517.679L424.194 516.902L418.82 516.253L418.727 517.03ZM423.758 517.243L420.886 540.588L421.663 540.683L424.535 517.338L423.758 517.243ZM421.275 540.244H396.633V541.027H421.275V540.244ZM397.024 540.636V535.54H396.241V540.636H397.024ZM396.633 535.932H416.458V535.149H396.633V535.932ZM416.846 535.587L418.514 521.598L417.737 521.505L416.069 535.494L416.846 535.587ZM418.125 521.16H417.847V521.943H418.125V521.16ZM417.604 521.245C416.673 521.984 415.495 522.606 414.059 523.104L414.316 523.844C415.815 523.323 417.076 522.664 418.09 521.858L417.604 521.245ZM414.059 523.104C412.635 523.599 411.15 523.847 409.602 523.847V524.63C411.235 524.63 412.807 524.368 414.316 523.844L414.059 523.104ZM409.602 523.847C406.765 523.847 404.251 523.169 402.048 521.82L401.639 522.488C403.976 523.918 406.634 524.63 409.602 524.63V523.847ZM402.045 521.819C399.821 520.481 398.079 518.65 396.814 516.316L396.126 516.689C397.456 519.143 399.296 521.078 401.642 522.489L402.045 521.819ZM396.814 516.315C395.537 513.986 394.893 511.319 394.893 508.304H394.11C394.11 511.434 394.779 514.233 396.127 516.691L396.814 516.315ZM394.893 508.304C394.893 505.339 395.558 502.705 396.88 500.392L396.2 500.004C394.804 502.447 394.11 505.217 394.11 508.304H394.893ZM396.88 500.392C398.189 498.09 399.992 496.271 402.295 494.932L401.902 494.255C399.48 495.664 397.577 497.582 396.2 500.005L396.88 500.392ZM402.293 494.933C404.59 493.612 407.208 492.947 410.158 492.947V492.164C407.086 492.164 404.331 492.858 401.903 494.254L402.293 494.933Z" fill="black"/>
</svg>
