<svg width="527" height="587" viewBox="0 0 527 587" fill="none" xmlns="http://www.w3.org/2000/svg">
<path d="M442.51 0H84.1096C69.9711 0 58.5095 11.4872 58.5095 25.6573V560.771C58.5095 574.941 69.9711 586.429 84.1096 586.429H442.51C456.648 586.429 468.11 574.941 468.11 560.771V25.6573C468.11 11.4872 456.648 0 442.51 0Z" fill="white"/>
<path d="M109.71 36.6519H416.91C431.048 36.6519 442.51 48.1391 442.51 62.3092V524.12C442.51 538.29 431.048 549.777 416.91 549.777H109.71C95.5712 549.777 84.1099 538.29 84.1099 524.12V62.3092C84.1099 48.1391 95.5712 36.6519 109.71 36.6519Z" fill="#FFE471"/>
<path d="M100.57 456.318C156.113 511.986 274.001 484.089 363.88 394.009C453.759 303.93 481.593 185.778 426.05 130.111C370.506 74.4431 252.619 102.34 162.74 192.419C72.8611 282.499 45.0268 400.651 100.57 456.318Z" fill="white"/>
<path d="M280.621 374.072C273.163 373.954 265.706 372.533 258.249 369.811C250.791 367.088 243.985 362.501 237.83 356.05C231.674 349.54 226.732 340.751 223.004 329.683C219.275 318.556 217.411 304.588 217.411 287.78C217.411 271.681 218.92 257.417 221.938 244.988C224.957 232.5 229.336 221.995 235.077 213.472C240.818 204.89 247.743 198.38 255.852 193.941C264.019 189.502 273.223 187.282 283.462 187.282C293.642 187.282 302.697 189.324 310.628 193.408C318.618 197.433 325.128 203.055 330.159 210.276C335.19 217.497 338.445 225.812 339.925 235.223H318.263C316.25 227.055 312.344 220.278 306.544 214.893C300.744 209.507 293.05 206.814 283.462 206.814C269.375 206.814 258.278 212.939 250.17 225.191C242.121 237.442 238.066 254.636 238.007 276.771H239.428C242.742 271.74 246.678 267.449 251.235 263.898C255.852 260.288 260.942 257.506 266.505 255.553C272.068 253.6 277.957 252.623 284.172 252.623C294.589 252.623 304.117 255.228 312.759 260.436C321.4 265.585 328.324 272.717 333.533 281.831C338.741 290.887 341.345 301.274 341.345 312.993C341.345 324.238 338.83 334.536 333.799 343.888C328.768 353.18 321.696 360.578 312.581 366.082C303.526 371.527 292.872 374.191 280.621 374.072ZM280.621 354.541C288.078 354.541 294.766 352.677 300.685 348.948C306.662 345.219 311.368 340.218 314.8 333.944C318.292 327.671 320.038 320.687 320.038 312.993C320.038 305.476 318.352 298.64 314.978 292.485C311.664 286.27 307.077 281.328 301.217 277.659C295.417 273.989 288.788 272.155 281.331 272.155C275.708 272.155 270.47 273.279 265.617 275.528C260.764 277.718 256.503 280.737 252.833 284.584C249.223 288.431 246.382 292.84 244.31 297.812C242.239 302.724 241.203 307.903 241.203 313.348C241.203 320.568 242.89 327.316 246.264 333.589C249.696 339.863 254.372 344.923 260.291 348.77C266.268 352.617 273.045 354.541 280.621 354.541Z" fill="black"/>
<path d="M277.803 370.64C270.346 370.522 262.888 369.102 255.431 366.379C247.973 363.656 241.167 359.07 235.012 352.618C228.856 346.108 223.914 337.319 220.186 326.251C216.457 315.124 214.593 301.156 214.593 284.348C214.593 268.249 216.102 253.986 219.12 241.557C222.139 229.068 226.519 218.563 232.26 210.04C238.001 201.458 244.925 194.948 253.034 190.509C261.201 186.07 270.405 183.851 280.644 183.851C290.824 183.851 299.879 185.892 307.81 189.976C315.8 194.001 322.31 199.624 327.341 206.844C332.372 214.065 335.627 222.38 337.107 231.791H315.445C313.433 223.623 309.526 216.847 303.726 211.461C297.926 206.075 290.232 203.382 280.644 203.382C266.558 203.382 255.46 209.508 247.352 221.759C239.303 234.01 235.248 251.204 235.189 273.339H236.61C239.924 268.308 243.86 264.017 248.417 260.466C253.034 256.856 258.124 254.074 263.687 252.121C269.251 250.168 275.14 249.191 281.354 249.191C291.771 249.191 301.3 251.796 309.941 257.004C318.582 262.153 325.506 269.285 330.715 278.4C335.923 287.455 338.527 297.842 338.527 309.561C338.527 320.806 336.012 331.104 330.981 340.456C325.95 349.748 318.878 357.146 309.763 362.65C300.708 368.095 290.054 370.759 277.803 370.64ZM277.803 351.109C285.26 351.109 291.948 349.245 297.867 345.516C303.845 341.787 308.55 336.786 311.983 330.512C315.475 324.239 317.221 317.255 317.221 309.561C317.221 302.044 315.534 295.208 312.16 289.053C308.846 282.838 304.259 277.896 298.399 274.227C292.599 270.557 285.971 268.723 278.513 268.723C272.89 268.723 267.653 269.847 262.799 272.096C257.946 274.286 253.685 277.305 250.015 281.152C246.405 284.999 243.564 289.408 241.493 294.38C239.421 299.292 238.385 304.471 238.385 309.916C238.385 317.137 240.072 323.884 243.446 330.157C246.878 336.431 251.554 341.491 257.473 345.338C263.45 349.186 270.227 351.109 277.803 351.109Z" fill="#FFE471"/>
<path d="M277.803 370.64L277.779 372.14L277.788 372.14L277.803 370.64ZM255.431 366.379L254.916 367.788L255.431 366.379ZM235.012 352.618L233.922 353.649L233.926 353.654L235.012 352.618ZM220.186 326.251L218.763 326.728L218.764 326.73L220.186 326.251ZM219.12 241.557L220.578 241.911L220.578 241.909L219.12 241.557ZM232.26 210.04L233.504 210.878L233.506 210.874L232.26 210.04ZM253.034 190.509L252.317 189.191L252.313 189.193L253.034 190.509ZM307.81 189.976L307.123 191.31L307.135 191.316L307.81 189.976ZM327.341 206.844L328.572 205.987V205.987L327.341 206.844ZM337.107 231.791V233.291H338.861L338.589 231.558L337.107 231.791ZM315.445 231.791L313.988 232.15L314.27 233.291H315.445V231.791ZM303.726 211.461L302.706 212.56L303.726 211.461ZM247.352 221.759L246.101 220.931L246.098 220.935L247.352 221.759ZM235.189 273.339L233.689 273.335L233.685 274.839H235.189V273.339ZM236.61 273.339V274.839H237.418L237.862 274.164L236.61 273.339ZM248.417 260.466L249.339 261.65L249.341 261.648L248.417 260.466ZM263.687 252.121L263.19 250.706L263.687 252.121ZM309.941 257.004L309.166 258.289L309.173 258.293L309.941 257.004ZM330.715 278.4L329.412 279.144L329.415 279.147L330.715 278.4ZM330.981 340.456L332.3 341.17L332.302 341.166L330.981 340.456ZM309.763 362.65L310.536 363.936L310.539 363.934L309.763 362.65ZM297.867 345.516L297.073 344.243L297.067 344.247L297.867 345.516ZM311.983 330.512L310.672 329.783L310.667 329.792L311.983 330.512ZM312.16 289.053L310.837 289.759L310.841 289.766L310.845 289.774L312.16 289.053ZM298.399 274.227L297.598 275.495L297.603 275.498L298.399 274.227ZM262.799 272.096L263.416 273.464L263.423 273.46L263.43 273.457L262.799 272.096ZM250.015 281.152L248.93 280.116L248.921 280.125L250.015 281.152ZM241.493 294.38L242.875 294.963L242.877 294.957L241.493 294.38ZM243.446 330.157L242.125 330.868L242.13 330.877L243.446 330.157ZM257.473 345.338L256.655 346.596L256.661 346.6L257.473 345.338ZM277.827 369.141C270.547 369.025 263.255 367.639 255.945 364.97L254.916 367.788C262.521 370.564 270.144 372.019 277.779 372.14L277.827 369.141ZM255.945 364.97C248.73 362.336 242.113 357.888 236.097 351.583L233.926 353.654C240.221 360.251 247.217 364.977 254.916 367.788L255.945 364.97ZM236.102 351.588C230.133 345.275 225.287 336.694 221.607 325.772L218.764 326.73C222.542 337.944 227.579 346.94 233.922 353.649L236.102 351.588ZM221.608 325.775C217.948 314.852 216.093 301.058 216.093 284.348H213.093C213.093 301.255 214.966 315.396 218.763 326.728L221.608 325.775ZM216.093 284.348C216.093 268.339 217.594 254.198 220.578 241.911L217.663 241.203C214.61 253.773 213.093 268.159 213.093 284.348H216.093ZM220.578 241.909C223.565 229.552 227.884 219.221 233.504 210.878L231.015 209.202C225.153 217.905 220.713 228.584 217.662 241.204L220.578 241.909ZM233.506 210.874C239.129 202.469 245.881 196.135 253.754 191.825L252.313 189.193C243.97 193.761 236.872 200.447 231.013 209.206L233.506 210.874ZM253.75 191.827C261.676 187.519 270.629 185.351 280.644 185.351V182.351C270.18 182.351 260.727 184.621 252.317 189.191L253.75 191.827ZM280.644 185.351C290.619 185.351 299.433 187.35 307.123 191.31L308.497 188.643C300.325 184.435 291.029 182.351 280.644 182.351V185.351ZM307.135 191.316C314.907 195.23 321.225 200.689 326.111 207.702L328.572 205.987C323.396 198.558 316.693 192.771 308.485 188.637L307.135 191.316ZM326.111 207.702C331.001 214.721 334.178 222.819 335.625 232.024L338.589 231.558C337.077 221.942 333.743 213.409 328.572 205.987L326.111 207.702ZM337.107 230.291H315.445V233.291H337.107V230.291ZM316.901 231.432C314.824 222.999 310.775 215.959 304.747 210.361L302.706 212.56C308.278 217.734 312.042 224.247 313.988 232.15L316.901 231.432ZM304.747 210.361C298.613 204.666 290.526 201.882 280.644 201.882V204.882C289.938 204.882 297.239 207.484 302.706 212.56L304.747 210.361ZM280.644 201.882C266.029 201.882 254.473 208.282 246.101 220.931L248.603 222.587C256.448 210.733 267.086 204.882 280.644 204.882V201.882ZM246.098 220.935C237.827 233.525 233.749 251.047 233.689 273.335L236.689 273.343C236.748 251.36 240.778 234.496 248.606 222.583L246.098 220.935ZM235.189 274.839H236.61V271.839H235.189V274.839ZM237.862 274.164C241.091 269.264 244.916 265.096 249.339 261.65L247.495 259.283C242.804 262.939 238.758 267.353 235.357 272.514L237.862 274.164ZM249.341 261.648C253.828 258.139 258.774 255.436 264.184 253.536L263.19 250.706C257.474 252.713 252.239 255.573 247.493 259.285L249.341 261.648ZM264.184 253.536C269.579 251.642 275.3 250.691 281.354 250.691V247.691C274.98 247.691 268.922 248.694 263.19 250.706L264.184 253.536ZM281.354 250.691C291.507 250.691 300.767 253.226 309.166 258.289L310.715 255.719C301.832 250.365 292.034 247.691 281.354 247.691V250.691ZM309.173 258.293C317.582 263.303 324.327 270.243 329.412 279.144L332.017 277.655C326.686 268.326 319.582 261.003 310.709 255.715L309.173 258.293ZM329.415 279.147C334.477 287.949 337.027 298.072 337.027 309.561H340.027C340.027 297.612 337.37 286.961 332.015 277.652L329.415 279.147ZM337.027 309.561C337.027 320.573 334.566 330.625 329.66 339.745L332.302 341.166C337.457 331.584 340.027 321.039 340.027 309.561H337.027ZM329.662 339.742C324.76 348.797 317.875 355.999 308.988 361.366L310.539 363.934C319.88 358.293 327.141 350.699 332.3 341.17L329.662 339.742ZM308.99 361.365C300.208 366.645 289.837 369.257 277.817 369.14L277.788 372.14C290.272 372.261 301.207 369.545 310.536 363.936L308.99 361.365ZM277.803 352.609C285.524 352.609 292.492 350.675 298.666 346.785L297.067 344.247C291.404 347.815 284.997 349.609 277.803 349.609V352.609ZM298.661 346.789C304.86 342.922 309.744 337.729 313.298 331.233L310.667 329.792C307.356 335.844 302.829 340.653 297.073 344.243L298.661 346.789ZM313.293 331.242C316.918 324.729 318.721 317.491 318.721 309.561H315.721C315.721 317.018 314.031 323.748 310.672 329.783L313.293 331.242ZM318.721 309.561C318.721 301.811 316.979 294.724 313.476 288.332L310.845 289.774C314.089 295.693 315.721 302.278 315.721 309.561H318.721ZM313.484 288.347C310.048 281.906 305.282 276.767 299.196 272.956L297.603 275.498C303.236 279.026 307.643 283.771 310.837 289.759L313.484 288.347ZM299.201 272.959C293.141 269.125 286.229 267.223 278.513 267.223V270.223C285.712 270.223 292.058 271.99 297.598 275.495L299.201 272.959ZM278.513 267.223C272.684 267.223 267.23 268.39 262.169 270.735L263.43 273.457C268.076 271.304 273.097 270.223 278.513 270.223V267.223ZM262.182 270.729C257.153 272.998 252.733 276.129 248.93 280.116L251.101 282.187C254.637 278.48 258.739 275.574 263.416 273.464L262.182 270.729ZM248.921 280.125C245.185 284.106 242.247 288.669 240.108 293.803L242.877 294.957C244.881 290.148 247.624 285.891 251.109 282.178L248.921 280.125ZM240.11 293.797C237.959 298.898 236.885 304.275 236.885 309.916H239.885C239.885 304.667 240.883 299.686 242.875 294.963L240.11 293.797ZM236.885 309.916C236.885 317.381 238.632 324.373 242.125 330.868L244.767 329.447C241.512 323.395 239.885 316.892 239.885 309.916H236.885ZM242.13 330.877C245.68 337.366 250.526 342.612 256.655 346.596L258.29 344.081C252.582 340.371 248.077 335.496 244.762 329.437L242.13 330.877ZM256.661 346.6C262.897 350.613 269.959 352.609 277.803 352.609V349.609C270.495 349.609 264.004 347.758 258.284 344.077L256.661 346.6Z" fill="black"/>
<path d="M123.505 94.7366C121.56 94.7057 119.614 94.3352 117.669 93.6249C115.723 92.9147 113.948 91.7181 112.342 90.0351C110.736 88.3367 109.447 86.0439 108.474 83.1566C107.502 80.2539 107.015 76.61 107.015 72.225C107.015 68.0253 107.409 64.3043 108.196 61.0619C108.984 57.804 110.126 55.0634 111.624 52.8401C113.122 50.6012 114.928 48.9028 117.044 47.7448C119.174 46.5868 121.575 46.0078 124.246 46.0078C126.902 46.0078 129.264 46.5405 131.333 47.6059C133.418 48.6558 135.116 50.1226 136.429 52.0063C137.741 53.89 138.59 56.0593 138.976 58.5143H133.325C132.8 56.3835 131.781 54.6157 130.268 53.2106C128.755 51.8056 126.748 51.103 124.246 51.103C120.572 51.103 117.677 52.7011 115.561 55.8972C113.461 59.0933 112.404 63.5786 112.388 69.3532H112.759C113.624 68.0408 114.65 66.9214 115.839 65.995C117.044 65.0531 118.371 64.3274 119.823 63.8179C121.274 63.3084 122.81 63.0536 124.432 63.0536C127.149 63.0536 129.635 63.733 131.889 65.0917C134.143 66.435 135.95 68.2955 137.309 70.6733C138.667 73.0356 139.347 75.7454 139.347 78.8025C139.347 81.7361 138.691 84.4227 137.378 86.8622C136.066 89.2863 134.221 91.2163 131.843 92.6522C129.481 94.0727 126.701 94.7675 123.505 94.7366ZM123.505 89.6414C125.451 89.6414 127.195 89.155 128.739 88.1823C130.299 87.2096 131.526 85.9049 132.422 84.2683C133.333 82.6316 133.788 80.8097 133.788 78.8025C133.788 76.8416 133.348 75.0583 132.468 73.4525C131.604 71.8313 130.407 70.5421 128.878 69.5848C127.365 68.6275 125.636 68.1489 123.69 68.1489C122.224 68.1489 120.857 68.4422 119.591 69.0289C118.325 69.6002 117.213 70.3877 116.256 71.3913C115.314 72.3949 114.573 73.5452 114.033 74.8421C113.492 76.1236 113.222 77.4746 113.222 78.8951C113.222 80.7788 113.662 82.539 114.542 84.1756C115.438 85.8123 116.658 87.1324 118.202 88.136C119.761 89.1396 121.529 89.6414 123.505 89.6414Z" fill="black"/>
<path d="M122.77 93.8414C120.824 93.8105 118.879 93.4399 116.934 92.7297C114.988 92.0194 113.212 90.8228 111.607 89.1399C110.001 87.4415 108.712 85.1486 107.739 82.2613C106.766 79.3586 106.28 75.7147 106.28 71.3298C106.28 67.1301 106.674 63.409 107.461 60.1666C108.249 56.9088 109.391 54.1682 110.889 51.9448C112.386 49.706 114.193 48.0076 116.308 46.8496C118.439 45.6916 120.84 45.1126 123.511 45.1126C126.167 45.1126 128.529 45.6453 130.598 46.7106C132.682 47.7605 134.381 49.2273 135.693 51.111C137.006 52.9947 137.855 55.164 138.241 57.619H132.59C132.065 55.4883 131.046 53.7204 129.533 52.3154C128.019 50.9103 126.012 50.2078 123.511 50.2078C119.836 50.2078 116.941 51.8058 114.826 55.0019C112.726 58.198 111.668 62.6833 111.653 68.4579H112.024C112.888 67.1455 113.915 66.0261 115.104 65.0997C116.308 64.1579 117.636 63.4322 119.087 62.9227C120.539 62.4131 122.075 62.1584 123.696 62.1584C126.414 62.1584 128.9 62.8377 131.154 64.1965C133.408 65.5397 135.215 67.4003 136.573 69.778C137.932 72.1404 138.611 74.8501 138.611 77.9072C138.611 80.8408 137.955 83.5274 136.643 85.9669C135.33 88.391 133.485 90.321 131.107 91.7569C128.745 93.1774 125.966 93.8722 122.77 93.8414ZM122.77 88.7461C124.715 88.7461 126.46 88.2598 128.004 87.2871C129.563 86.3143 130.791 85.0096 131.686 83.373C132.597 81.7364 133.053 79.9144 133.053 77.9072C133.053 75.9463 132.613 74.163 131.733 72.5573C130.868 70.936 129.672 69.6468 128.143 68.6895C126.63 67.7322 124.901 67.2536 122.955 67.2536C121.488 67.2536 120.122 67.547 118.856 68.1337C117.59 68.705 116.478 69.4924 115.521 70.496C114.579 71.4996 113.838 72.6499 113.297 73.9469C112.757 75.2284 112.487 76.5794 112.487 77.9999C112.487 79.8836 112.927 81.6437 113.807 83.2804C114.702 84.917 115.922 86.2371 117.466 87.2407C119.026 88.2443 120.794 88.7461 122.77 88.7461Z" fill="black"/>
<path d="M122.77 93.8414L122.764 94.2326L122.766 94.2326L122.77 93.8414ZM116.934 92.7297L116.799 93.0973L116.934 92.7297ZM111.607 89.1399L111.322 89.4087L111.324 89.41L111.607 89.1399ZM107.739 82.2613L107.368 82.3857L107.368 82.3863L107.739 82.2613ZM107.461 60.1666L107.841 60.259L107.841 60.2585L107.461 60.1666ZM110.889 51.9448L111.213 52.1634L111.214 52.1624L110.889 51.9448ZM116.308 46.8496L116.121 46.5058L116.12 46.5063L116.308 46.8496ZM130.598 46.7106L130.419 47.0585L130.422 47.0601L130.598 46.7106ZM135.693 51.111L136.014 50.8873V50.8873L135.693 51.111ZM138.241 57.619V58.0103H138.698L138.627 57.5582L138.241 57.619ZM132.59 57.619L132.21 57.7126L132.283 58.0103H132.59V57.619ZM129.533 52.3154L129.266 52.6021L129.533 52.3154ZM114.826 55.0019L114.5 54.786L114.499 54.7871L114.826 55.0019ZM111.653 68.4579L111.262 68.4569L111.261 68.8492H111.653V68.4579ZM112.024 68.4579V68.8492H112.234L112.35 68.6732L112.024 68.4579ZM115.104 65.0997L115.344 65.4084L115.345 65.408L115.104 65.0997ZM119.087 62.9227L118.958 62.5534L119.087 62.9227ZM131.154 64.1965L130.952 64.5316L130.953 64.5326L131.154 64.1965ZM136.573 69.778L136.234 69.9722L136.234 69.9731L136.573 69.778ZM136.643 85.9669L136.987 86.1532L136.987 86.1523L136.643 85.9669ZM131.107 91.7569L131.309 92.0923L131.31 92.0919L131.107 91.7569ZM128.004 87.2871L127.797 86.955L127.795 86.956L128.004 87.2871ZM131.686 83.373L131.345 83.1827L131.343 83.1852L131.686 83.373ZM131.733 72.5573L131.388 72.7414L131.39 72.7453L131.733 72.5573ZM128.143 68.6895L127.934 69.0202L127.935 69.0212L128.143 68.6895ZM118.856 68.1337L119.017 68.4904L119.02 68.4887L118.856 68.1337ZM115.521 70.496L115.238 70.2259L115.235 70.2282L115.521 70.496ZM113.297 73.9469L113.658 74.0989L113.659 74.0974L113.297 73.9469ZM113.807 83.2804L113.462 83.4657L113.464 83.4682L113.807 83.2804ZM117.466 87.2407L117.253 87.5688L117.254 87.5698L117.466 87.2407ZM122.776 93.4501C120.877 93.4199 118.975 93.0583 117.068 92.3621L116.799 93.0973C118.783 93.8215 120.772 94.201 122.764 94.2326L122.776 93.4501ZM117.068 92.3621C115.185 91.6749 113.459 90.5146 111.89 88.8697L111.324 89.41C112.966 91.131 114.791 92.364 116.799 93.0973L117.068 92.3621ZM111.891 88.871C110.334 87.2243 109.07 84.9856 108.11 82.1364L107.368 82.3863C108.354 85.3116 109.668 87.6587 111.322 89.4087L111.891 88.871ZM108.11 82.137C107.155 79.2876 106.671 75.6892 106.671 71.3298H105.889C105.889 75.7403 106.377 79.4296 107.368 82.3857L108.11 82.137ZM106.671 71.3298C106.671 67.1536 107.063 63.4645 107.841 60.259L107.081 60.0743C106.284 63.3535 105.889 67.1066 105.889 71.3298H106.671ZM107.841 60.2585C108.621 57.035 109.747 54.3399 111.213 52.1634L110.564 51.7262C109.035 53.9964 107.876 56.7825 107.081 60.0747L107.841 60.2585ZM111.214 52.1624C112.681 49.9697 114.442 48.3172 116.496 47.1928L116.12 46.5063C113.944 47.698 112.092 49.4423 110.564 51.7272L111.214 52.1624ZM116.495 47.1934C118.563 46.0696 120.898 45.5039 123.511 45.5039V44.7213C120.781 44.7213 118.315 45.3135 116.121 46.5058L116.495 47.1934ZM123.511 45.5039C126.113 45.5039 128.413 46.0255 130.419 47.0585L130.777 46.3627C128.645 45.265 126.22 44.7213 123.511 44.7213V45.5039ZM130.422 47.0601C132.449 48.0813 134.097 49.5053 135.372 51.3347L136.014 50.8873C134.664 48.9494 132.915 47.4398 130.774 46.3611L130.422 47.0601ZM135.372 51.3347C136.648 53.1658 137.477 55.2785 137.854 57.6798L138.627 57.5582C138.233 55.0496 137.363 52.8236 136.014 50.8873L135.372 51.3347ZM138.241 57.2277H132.59V58.0103H138.241V57.2277ZM132.97 57.5254C132.428 55.3255 131.371 53.4889 129.799 52.0286L129.266 52.6021C130.72 53.9519 131.702 55.6511 132.21 57.7126L132.97 57.5254ZM129.799 52.0286C128.199 50.5427 126.089 49.8165 123.511 49.8165V50.5991C125.936 50.5991 127.84 51.2779 129.266 52.6021L129.799 52.0286ZM123.511 49.8165C119.698 49.8165 116.684 51.486 114.5 54.786L115.152 55.2179C117.199 52.1256 119.974 50.5991 123.511 50.5991V49.8165ZM114.499 54.7871C112.341 58.0713 111.277 62.6425 111.262 68.4569L112.044 68.459C112.06 62.7242 113.111 58.3247 115.153 55.2168L114.499 54.7871ZM111.653 68.8492H112.024V68.0666H111.653V68.8492ZM112.35 68.6732C113.193 67.3949 114.191 66.3074 115.344 65.4084L114.863 64.791C113.639 65.7448 112.584 66.8961 111.697 68.2426L112.35 68.6732ZM115.345 65.408C116.515 64.4925 117.806 63.7874 119.217 63.2919L118.958 62.5534C117.466 63.077 116.101 63.8232 114.863 64.7915L115.345 65.408ZM119.217 63.2919C120.625 62.7978 122.117 62.5497 123.696 62.5497V61.7671C122.033 61.7671 120.453 62.0285 118.958 62.5534L119.217 63.2919ZM123.696 62.5497C126.345 62.5497 128.761 63.2109 130.952 64.5316L131.356 63.8613C129.039 62.4646 126.482 61.7671 123.696 61.7671V62.5497ZM130.953 64.5326C133.147 65.8398 134.907 67.6503 136.234 69.9722L136.913 69.5839C135.522 67.1502 133.669 65.2397 131.354 63.8603L130.953 64.5326ZM136.234 69.9731C137.555 72.2691 138.22 74.9101 138.22 77.9072H139.003C139.003 74.7901 138.309 72.0116 136.912 69.5829L136.234 69.9731ZM138.22 77.9072C138.22 80.7801 137.578 83.4024 136.298 85.7815L136.987 86.1523C138.332 83.6524 139.003 80.9016 139.003 77.9072H138.22ZM136.299 85.7806C135.02 88.1429 133.224 90.0218 130.905 91.422L131.31 92.0919C133.747 90.6202 135.641 88.6391 136.987 86.1532L136.299 85.7806ZM130.906 91.4216C128.615 92.7992 125.909 93.4804 122.774 93.4501L122.766 94.2326C126.023 94.2641 128.875 93.5557 131.309 92.0923L130.906 91.4216ZM122.77 89.1374C124.784 89.1374 126.602 88.6328 128.213 87.6181L127.795 86.956C126.318 87.8867 124.647 88.3548 122.77 88.3548V89.1374ZM128.211 87.6191C129.828 86.6102 131.102 85.2555 132.03 83.5608L131.343 83.1852C130.479 84.7638 129.298 86.0184 127.797 86.955L128.211 87.6191ZM132.028 83.5633C132.974 81.8643 133.444 79.9761 133.444 77.9072H132.662C132.662 79.8527 132.221 81.6084 131.345 83.1827L132.028 83.5633ZM133.444 77.9072C133.444 75.8854 132.99 74.0367 132.076 72.3692L131.39 72.7453C132.236 74.2894 132.662 76.0073 132.662 77.9072H133.444ZM132.078 72.3731C131.182 70.6927 129.938 69.3522 128.351 68.3579L127.935 69.0212C129.405 69.9414 130.554 71.1794 131.388 72.7414L132.078 72.3731ZM128.352 68.3588C126.771 67.3585 124.968 66.8623 122.955 66.8623V67.6449C124.833 67.6449 126.489 68.1059 127.934 69.0202L128.352 68.3588ZM122.955 66.8623C121.434 66.8623 120.012 67.1668 118.691 67.7786L119.02 68.4887C120.232 67.9271 121.542 67.6449 122.955 67.6449V66.8623ZM118.695 67.777C117.383 68.369 116.23 69.1858 115.238 70.2259L115.804 70.7661C116.726 69.799 117.797 69.0409 119.017 68.4904L118.695 67.777ZM115.235 70.2282C114.261 71.2668 113.494 72.457 112.936 73.7963L113.659 74.0974C114.181 72.8428 114.897 71.7324 115.806 70.7638L115.235 70.2282ZM112.937 73.7948C112.376 75.1255 112.095 76.5283 112.095 77.9999H112.878C112.878 76.6305 113.138 75.3313 113.658 74.0989L112.937 73.7948ZM112.095 77.9999C112.095 79.9473 112.551 81.7713 113.462 83.4657L114.152 83.095C113.303 81.5162 112.878 79.8198 112.878 77.9999H112.095ZM113.464 83.4682C114.39 85.1609 115.654 86.5295 117.253 87.5688L117.679 86.9126C116.19 85.9448 115.015 84.6732 114.15 83.0925L113.464 83.4682ZM117.254 87.5698C118.881 88.6167 120.724 89.1374 122.77 89.1374V88.3548C120.863 88.3548 119.17 87.8719 117.678 86.9117L117.254 87.5698Z" fill="black"/>
<path d="M408.497 491.66C410.442 491.691 412.388 492.062 414.333 492.772C416.279 493.482 418.054 494.679 419.66 496.362C421.266 498.06 422.555 500.353 423.528 503.24C424.501 506.143 424.987 509.787 424.987 514.172C424.987 518.371 424.593 522.092 423.806 525.335C423.018 528.593 421.876 531.333 420.378 533.557C418.88 535.795 417.074 537.494 414.959 538.652C412.828 539.81 410.427 540.389 407.756 540.389C405.1 540.389 402.738 539.856 400.669 538.791C398.584 537.741 396.886 536.274 395.574 534.39C394.261 532.507 393.412 530.337 393.026 527.882H398.677C399.202 530.013 400.221 531.781 401.734 533.186C403.247 534.591 405.255 535.294 407.756 535.294C411.431 535.294 414.326 533.696 416.441 530.5C418.541 527.303 419.598 522.818 419.614 517.044H419.243C418.379 518.356 417.352 519.475 416.163 520.402C414.959 521.344 413.631 522.069 412.179 522.579C410.728 523.088 409.192 523.343 407.571 523.343C404.853 523.343 402.367 522.664 400.113 521.305C397.859 519.962 396.052 518.101 394.694 515.723C393.335 513.361 392.655 510.651 392.655 507.594C392.655 504.661 393.312 501.974 394.624 499.535C395.937 497.11 397.782 495.18 400.159 493.745C402.522 492.324 405.301 491.629 408.497 491.66ZM408.497 496.755C406.552 496.755 404.807 497.242 403.263 498.214C401.703 499.187 400.476 500.492 399.58 502.128C398.669 503.765 398.214 505.587 398.214 507.594C398.214 509.555 398.654 511.338 399.534 512.944C400.399 514.565 401.595 515.855 403.124 516.812C404.637 517.769 406.366 518.248 408.312 518.248C409.779 518.248 411.145 517.955 412.411 517.368C413.677 516.797 414.789 516.009 415.746 515.005C416.688 514.002 417.429 512.852 417.969 511.555C418.51 510.273 418.78 508.922 418.78 507.502C418.78 505.618 418.34 503.858 417.46 502.221C416.564 500.584 415.345 499.264 413.801 498.261C412.241 497.257 410.473 496.755 408.497 496.755Z" fill="black"/>
<path d="M409.232 492.555C411.177 492.586 413.123 492.957 415.068 493.667C417.014 494.377 418.789 495.574 420.395 497.257C422.001 498.955 423.29 501.248 424.263 504.135C425.235 507.038 425.722 510.682 425.722 515.067C425.722 519.267 425.328 522.988 424.541 526.23C423.753 529.488 422.611 532.229 421.113 534.452C419.615 536.691 417.809 538.389 415.694 539.547C413.563 540.705 411.162 541.284 408.491 541.284C405.835 541.284 403.473 540.751 401.404 539.686C399.319 538.636 397.621 537.169 396.309 535.286C394.996 533.402 394.147 531.233 393.761 528.778H399.412C399.937 530.908 400.956 532.676 402.469 534.081C403.982 535.486 405.989 536.189 408.491 536.189C412.165 536.189 415.06 534.591 417.176 531.395C419.276 528.199 420.333 523.713 420.349 517.939H419.978C419.113 519.251 418.087 520.371 416.898 521.297C415.694 522.239 414.366 522.965 412.914 523.474C411.463 523.984 409.927 524.238 408.305 524.238C405.588 524.238 403.102 523.559 400.848 522.2C398.594 520.857 396.787 518.996 395.428 516.619C394.07 514.256 393.39 511.547 393.39 508.49C393.39 505.556 394.047 502.869 395.359 500.43C396.671 498.006 398.516 496.076 400.894 494.64C403.257 493.219 406.036 492.524 409.232 492.555ZM409.232 497.651C407.286 497.651 405.542 498.137 403.998 499.11C402.438 500.082 401.211 501.387 400.315 503.024C399.404 504.66 398.949 506.482 398.949 508.49C398.949 510.45 399.389 512.234 400.269 513.839C401.134 515.461 402.33 516.75 403.859 517.707C405.372 518.664 407.101 519.143 409.047 519.143C410.513 519.143 411.88 518.85 413.146 518.263C414.412 517.692 415.524 516.904 416.481 515.901C417.423 514.897 418.164 513.747 418.704 512.45C419.245 511.168 419.515 509.817 419.515 508.397C419.515 506.513 419.075 504.753 418.195 503.116C417.299 501.48 416.08 500.16 414.536 499.156C412.976 498.152 411.208 497.651 409.232 497.651Z" fill="black"/>
<path d="M409.232 492.555L409.238 492.164L409.236 492.164L409.232 492.555ZM415.068 493.667L415.202 493.299L415.068 493.667ZM420.395 497.257L420.679 496.988L420.678 496.987L420.395 497.257ZM424.263 504.135L424.634 504.011L424.634 504.01L424.263 504.135ZM424.541 526.23L424.16 526.138L424.16 526.138L424.541 526.23ZM421.113 534.452L420.788 534.233L420.788 534.234L421.113 534.452ZM415.694 539.547L415.88 539.891L415.881 539.89L415.694 539.547ZM401.404 539.686L401.583 539.338L401.58 539.337L401.404 539.686ZM396.309 535.286L395.987 535.509V535.509L396.309 535.286ZM393.761 528.778V528.386H393.303L393.374 528.839L393.761 528.778ZM399.412 528.778L399.792 528.684L399.719 528.386H399.412V528.778ZM402.469 534.081L402.735 533.795L402.469 534.081ZM417.176 531.395L417.502 531.611L417.503 531.61L417.176 531.395ZM420.349 517.939L420.74 517.94L420.741 517.548H420.349V517.939ZM419.978 517.939V517.548H419.767L419.651 517.724L419.978 517.939ZM416.898 521.297L416.657 520.988L416.657 520.989L416.898 521.297ZM412.914 523.474L413.044 523.843L412.914 523.474ZM400.848 522.2L401.05 521.865L401.048 521.864L400.848 522.2ZM395.428 516.619L395.768 516.425L395.768 516.424L395.428 516.619ZM395.359 500.43L395.015 500.243L395.014 500.244L395.359 500.43ZM400.894 494.64L400.693 494.304L400.692 494.305L400.894 494.64ZM403.998 499.11L404.205 499.442L404.206 499.441L403.998 499.11ZM400.315 503.024L400.657 503.214L400.659 503.212L400.315 503.024ZM400.269 513.839L400.614 513.655L400.612 513.651L400.269 513.839ZM403.859 517.707L404.068 517.377L404.066 517.376L403.859 517.707ZM413.146 518.263L412.985 517.906L412.981 517.908L413.146 518.263ZM416.481 515.901L416.764 516.171L416.766 516.169L416.481 515.901ZM418.704 512.45L418.344 512.298L418.343 512.299L418.704 512.45ZM418.195 503.116L418.539 502.931L418.538 502.929L418.195 503.116ZM414.536 499.156L414.749 498.828L414.747 498.827L414.536 499.156ZM409.226 492.947C411.125 492.977 413.027 493.338 414.934 494.035L415.202 493.299C413.219 492.575 411.23 492.196 409.238 492.164L409.226 492.947ZM414.934 494.035C416.816 494.722 418.542 495.882 420.112 497.527L420.678 496.987C419.036 495.266 417.211 494.033 415.202 493.299L414.934 494.035ZM420.111 497.526C421.668 499.172 422.932 501.411 423.892 504.26L424.634 504.01C423.648 501.085 422.334 498.738 420.679 496.988L420.111 497.526ZM423.892 504.26C424.847 507.109 425.331 510.708 425.331 515.067H426.113C426.113 510.656 425.624 506.967 424.634 504.011L423.892 504.26ZM425.331 515.067C425.331 519.243 424.939 522.932 424.16 526.138L424.921 526.322C425.717 523.043 426.113 519.29 426.113 515.067H425.331ZM424.16 526.138C423.381 529.362 422.255 532.057 420.788 534.233L421.438 534.671C422.967 532.4 424.125 529.614 424.921 526.322L424.16 526.138ZM420.788 534.234C419.321 536.427 417.559 538.08 415.506 539.204L415.881 539.89C418.058 538.699 419.91 536.954 421.438 534.67L420.788 534.234ZM415.507 539.203C413.439 540.327 411.103 540.893 408.491 540.893V541.675C411.22 541.675 413.687 541.083 415.88 539.891L415.507 539.203ZM408.491 540.893C405.888 540.893 403.589 540.371 401.583 539.338L401.225 540.034C403.356 541.132 405.782 541.675 408.491 541.675V540.893ZM401.58 539.337C399.552 538.315 397.904 536.891 396.63 535.062L395.987 535.509C397.338 537.447 399.086 538.957 401.228 540.036L401.58 539.337ZM396.63 535.062C395.354 533.231 394.525 531.118 394.147 528.717L393.374 528.839C393.769 531.347 394.638 533.573 395.987 535.509L396.63 535.062ZM393.761 529.169H399.412V528.386H393.761V529.169ZM399.032 528.871C399.574 531.071 400.63 532.908 402.203 534.368L402.735 533.795C401.282 532.445 400.3 530.746 399.792 528.684L399.032 528.871ZM402.203 534.368C403.803 535.854 405.913 536.58 408.491 536.58V535.798C406.066 535.798 404.161 535.119 402.735 533.795L402.203 534.368ZM408.491 536.58C412.303 536.58 415.318 534.911 417.502 531.611L416.849 531.179C414.803 534.271 412.028 535.798 408.491 535.798V536.58ZM417.503 531.61C419.661 528.325 420.724 523.754 420.74 517.94L419.957 517.938C419.942 523.673 418.891 528.072 416.849 531.18L417.503 531.61ZM420.349 517.548H419.978V518.33H420.349V517.548ZM419.651 517.724C418.809 519.002 417.811 520.089 416.657 520.988L417.138 521.606C418.362 520.652 419.418 519.501 420.305 518.154L419.651 517.724ZM416.657 520.989C415.486 521.904 414.196 522.609 412.785 523.105L413.044 523.843C414.535 523.32 415.901 522.574 417.139 521.605L416.657 520.989ZM412.785 523.105C411.377 523.599 409.885 523.847 408.305 523.847V524.63C409.968 524.63 411.549 524.368 413.044 523.843L412.785 523.105ZM408.305 523.847C405.657 523.847 403.241 523.186 401.05 521.865L400.646 522.535C402.963 523.932 405.519 524.63 408.305 524.63V523.847ZM401.048 521.864C398.854 520.557 397.095 518.746 395.768 516.425L395.089 516.813C396.479 519.247 398.333 521.157 400.648 522.536L401.048 521.864ZM395.768 516.424C394.447 514.128 393.782 511.487 393.782 508.49H392.999C392.999 511.607 393.692 514.385 395.089 516.814L395.768 516.424ZM393.782 508.49C393.782 505.617 394.424 502.994 395.704 500.615L395.014 500.244C393.669 502.744 392.999 505.495 392.999 508.49H393.782ZM395.703 500.616C396.982 498.254 398.778 496.375 401.097 494.975L400.692 494.305C398.255 495.776 396.361 497.758 395.015 500.243L395.703 500.616ZM401.096 494.975C403.387 493.598 406.093 492.916 409.228 492.947L409.236 492.164C405.979 492.133 403.126 492.841 400.693 494.304L401.096 494.975ZM409.232 497.259C407.218 497.259 405.4 497.764 403.789 498.779L404.206 499.441C405.684 498.51 407.355 498.042 409.232 498.042V497.259ZM403.791 498.778C402.173 499.787 400.899 501.141 399.972 502.836L400.659 503.212C401.522 501.633 402.703 500.378 404.205 499.442L403.791 498.778ZM399.973 502.833C399.028 504.532 398.557 506.421 398.557 508.49H399.34C399.34 506.544 399.781 504.788 400.657 503.214L399.973 502.833ZM398.557 508.49C398.557 510.511 399.012 512.36 399.926 514.028L400.612 513.651C399.766 512.107 399.34 510.389 399.34 508.49H398.557ZM399.924 514.024C400.82 515.704 402.063 517.045 403.651 518.039L404.066 517.376C402.597 516.455 401.447 515.217 400.614 513.655L399.924 514.024ZM403.649 518.038C405.231 519.038 407.034 519.534 409.047 519.534V518.752C407.169 518.752 405.513 518.291 404.068 517.377L403.649 518.038ZM409.047 519.534C410.567 519.534 411.99 519.23 413.31 518.618L412.981 517.908C411.769 518.47 410.46 518.752 409.047 518.752V519.534ZM413.307 518.62C414.619 518.028 415.772 517.211 416.764 516.171L416.198 515.631C415.275 516.598 414.205 517.356 412.985 517.906L413.307 518.62ZM416.766 516.169C417.741 515.13 418.507 513.94 419.066 512.6L418.343 512.299C417.82 513.554 417.105 514.664 416.196 515.633L416.766 516.169ZM419.065 512.602C419.626 511.271 419.906 509.868 419.906 508.397H419.124C419.124 509.766 418.863 511.065 418.344 512.298L419.065 512.602ZM419.906 508.397C419.906 506.449 419.451 504.625 418.539 502.931L417.85 503.302C418.699 504.881 419.124 506.577 419.124 508.397H419.906ZM418.538 502.929C417.612 501.236 416.348 499.867 414.749 498.828L414.322 499.484C415.811 500.452 416.987 501.724 417.852 503.304L418.538 502.929ZM414.747 498.827C413.12 497.78 411.278 497.259 409.232 497.259V498.042C411.138 498.042 412.832 498.525 414.324 499.485L414.747 498.827Z" fill="black"/>
<path d="M342.945 394.444H214.945V407.842H342.945V394.444Z" fill="black"/>
<path d="M340.127 390.435H212.127V403.833H340.127V390.435Z" fill="#FFE471" stroke="black" stroke-width="3"/>
<path d="M139.385 99.752H106.394V103.205H139.385V99.752Z" fill="black"/>
<path d="M138.658 98.7188H105.668V102.172H138.658V98.7188Z" fill="black" stroke="black" stroke-width="0.773206"/>
<path d="M392.474 486.666H425.464V483.212H392.474V486.666Z" fill="black"/>
<path d="M393.199 487.699H426.189V484.246H393.199V487.699Z" fill="black" stroke="black" stroke-width="0.773206"/>
</svg>
