<svg width="527" height="587" viewBox="0 0 527 587" fill="none" xmlns="http://www.w3.org/2000/svg">
<path d="M442.509 0H84.1091C69.9706 0 58.5093 11.4872 58.5093 25.6573V560.771C58.5093 574.941 69.9706 586.429 84.1091 586.429H442.509C456.648 586.429 468.109 574.941 468.109 560.771V25.6573C468.109 11.4872 456.648 0 442.509 0Z" fill="white"/>
<path d="M109.709 36.6519H416.909C431.048 36.6519 442.509 48.1391 442.509 62.3092V524.12C442.509 538.29 431.048 549.777 416.909 549.777H109.709C95.5707 549.777 84.1091 538.29 84.1091 524.12V62.3092C84.1091 48.1391 95.5707 36.6519 109.709 36.6519Z" fill="#FFE471"/>
<path d="M100.57 456.318C156.113 511.986 274.001 484.089 363.88 394.009C453.759 303.93 481.593 185.778 426.05 130.11C370.507 74.4429 252.619 102.34 162.74 192.419C72.8612 282.499 45.0268 400.651 100.57 456.318Z" fill="white"/>
<path d="M122.856 46.0078C124.802 46.0233 126.747 46.3938 128.693 47.1195C130.638 47.8452 132.414 49.0495 134.02 50.7325C135.625 52.4 136.915 54.6774 137.887 57.5647C138.86 60.452 139.346 64.0727 139.346 68.4268C139.346 72.6419 138.945 76.3861 138.142 79.6594C137.355 82.9173 136.212 85.6656 134.714 87.9044C133.232 90.1432 131.426 91.8416 129.295 92.9996C127.18 94.1576 124.786 94.7366 122.115 94.7366C119.46 94.7366 117.09 94.2117 115.005 93.1617C112.936 92.0964 111.238 90.6218 109.91 88.7382C108.598 86.839 107.756 84.6388 107.386 82.1375H113.037C113.546 84.3146 114.557 86.1134 116.071 87.5338C117.599 88.9389 119.614 89.6414 122.115 89.6414C125.775 89.6414 128.662 88.0434 130.777 84.8473C132.908 81.6512 133.973 77.135 133.973 71.2986H133.603C132.738 72.5956 131.711 73.715 130.522 74.6568C129.334 75.5987 128.013 76.3244 126.562 76.8339C125.111 77.3434 123.567 77.5982 121.93 77.5982C119.213 77.5982 116.719 76.9265 114.449 75.5832C112.195 74.2245 110.389 72.364 109.03 70.0017C107.687 67.6239 107.015 64.9064 107.015 61.8493C107.015 58.9466 107.663 56.2909 108.96 53.8823C110.273 51.4582 112.11 49.5282 114.473 48.0922C116.85 46.6563 119.645 45.9615 122.856 46.0078ZM122.856 51.103C120.911 51.103 119.159 51.5894 117.599 52.5621C116.055 53.5194 114.828 54.8164 113.917 56.453C113.021 58.0742 112.573 59.873 112.573 61.8493C112.573 63.8256 113.006 65.6244 113.87 67.2456C114.75 68.8514 115.947 70.1329 117.46 71.0902C118.989 72.032 120.726 72.503 122.671 72.503C124.138 72.503 125.504 72.2173 126.771 71.646C128.037 71.0593 129.141 70.2641 130.082 69.2605C131.04 68.2415 131.789 67.0912 132.329 65.8097C132.869 64.5127 133.14 63.1617 133.14 61.7567C133.14 59.9039 132.692 58.1669 131.796 56.5457C130.916 54.9245 129.696 53.6121 128.137 52.6085C126.593 51.6048 124.833 51.103 122.856 51.103Z" fill="black"/>
<path d="M122.121 45.1126C124.067 45.128 126.012 45.4986 127.957 46.2243C129.903 46.9499 131.679 48.1543 133.284 49.8372C134.89 51.5047 136.179 53.7822 137.152 56.6694C138.125 59.5567 138.611 63.1774 138.611 67.5315C138.611 71.7466 138.21 75.4909 137.407 78.7641C136.619 82.022 135.477 84.7703 133.979 87.0091C132.497 89.2479 130.69 90.9463 128.56 92.1043C126.444 93.2624 124.051 93.8414 121.38 93.8414C118.724 93.8414 116.354 93.3164 114.27 92.2665C112.201 91.2011 110.503 89.7266 109.175 87.8429C107.862 85.9438 107.021 83.7436 106.65 81.2423H112.301C112.811 83.4193 113.822 85.2181 115.335 86.6386C116.864 88.0436 118.879 88.7461 121.38 88.7461C125.039 88.7461 127.927 87.1481 130.042 83.952C132.173 80.7559 133.238 76.2397 133.238 70.4034H132.867C132.003 71.7003 130.976 72.8197 129.787 73.7616C128.598 74.7034 127.278 75.4291 125.827 75.9386C124.375 76.4481 122.831 76.7029 121.195 76.7029C118.477 76.7029 115.984 76.0313 113.714 74.688C111.46 73.3293 109.653 71.4687 108.295 69.1064C106.951 66.7286 106.28 64.0112 106.28 60.9541C106.28 58.0513 106.928 55.3956 108.225 52.987C109.538 50.5629 111.375 48.6329 113.737 47.197C116.115 45.7611 118.91 45.0663 122.121 45.1126ZM122.121 50.2078C120.176 50.2078 118.423 50.6941 116.864 51.6669C115.32 52.6242 114.092 53.9211 113.181 55.5578C112.286 57.179 111.838 58.9777 111.838 60.9541C111.838 62.9304 112.27 64.7291 113.135 66.3504C114.015 67.9561 115.212 69.2376 116.725 70.1949C118.253 71.1368 119.99 71.6077 121.936 71.6077C123.403 71.6077 124.769 71.322 126.035 70.7508C127.301 70.164 128.405 69.3689 129.347 68.3653C130.304 67.3462 131.053 66.196 131.594 64.9144C132.134 63.6175 132.404 62.2665 132.404 60.8614C132.404 59.0086 131.956 57.2716 131.061 55.6504C130.181 54.0292 128.961 52.7168 127.402 51.7132C125.858 50.7096 124.097 50.2078 122.121 50.2078Z" fill="black"/>
<path d="M122.121 45.1126L122.115 45.5038L122.118 45.5039L122.121 45.1126ZM127.957 46.2243L128.094 45.8576L128.094 45.8576L127.957 46.2243ZM133.284 49.8372L133.001 50.1074L133.002 50.1087L133.284 49.8372ZM137.152 56.6694L136.781 56.7944L137.152 56.6694ZM137.407 78.7641L137.027 78.6709L137.026 78.6722L137.407 78.7641ZM133.979 87.0091L133.654 86.7916L133.653 86.7931L133.979 87.0091ZM128.56 92.1043L128.373 91.7605L128.372 91.7611L128.56 92.1043ZM114.27 92.2665L114.091 92.6144L114.094 92.6159L114.27 92.2665ZM109.175 87.8429L108.853 88.0654L108.855 88.0684L109.175 87.8429ZM106.65 81.2423V80.851H106.197L106.263 81.2996L106.65 81.2423ZM112.301 81.2423L112.682 81.1531L112.612 80.851H112.301V81.2423ZM115.335 86.6386L115.067 86.9239L115.07 86.9267L115.335 86.6386ZM130.042 83.952L129.716 83.7349L129.716 83.736L130.042 83.952ZM133.238 70.4034H133.629V70.0121H133.238V70.4034ZM132.867 70.4034V70.0121H132.658L132.542 70.1863L132.867 70.4034ZM113.714 74.688L113.512 75.0231L113.515 75.0247L113.714 74.688ZM108.295 69.1064L107.954 69.2989L107.955 69.3015L108.295 69.1064ZM108.225 52.987L107.881 52.8007L107.881 52.8015L108.225 52.987ZM113.737 47.197L113.535 46.862L113.534 46.8626L113.737 47.197ZM116.864 51.6669L117.07 51.9994L117.071 51.9989L116.864 51.6669ZM113.181 55.5578L112.839 55.3674L112.839 55.3686L113.181 55.5578ZM113.135 66.3504L112.79 66.5345L112.792 66.5384L113.135 66.3504ZM116.725 70.1949L116.516 70.5256L116.52 70.5281L116.725 70.1949ZM126.035 70.7508L126.196 71.1075L126.2 71.1058L126.035 70.7508ZM129.347 68.3653L129.062 68.0974L129.062 68.0975L129.347 68.3653ZM131.594 64.9144L131.954 65.0665L131.955 65.0649L131.594 64.9144ZM131.061 55.6504L130.717 55.8371L130.718 55.8396L131.061 55.6504ZM127.402 51.7132L127.188 52.0413L127.19 52.0422L127.402 51.7132ZM122.118 45.5039C124.015 45.5189 125.915 45.8801 127.821 46.5909L128.094 45.8576C126.109 45.1171 124.118 44.7371 122.124 44.7213L122.118 45.5039ZM127.821 46.5909C129.704 47.2935 131.431 48.462 133.001 50.1074L133.567 49.5671C131.926 47.8465 130.101 46.6064 128.094 45.8576L127.821 46.5909ZM133.002 50.1087C134.557 51.7235 135.821 53.9453 136.781 56.7944L137.523 56.5445C136.537 53.619 135.223 51.286 133.566 49.5658L133.002 50.1087ZM136.781 56.7944C137.736 59.6282 138.22 63.2032 138.22 67.5315H139.002C139.002 63.1516 138.514 59.4853 137.523 56.5445L136.781 56.7944ZM138.22 67.5315C138.22 71.7227 137.821 75.4346 137.027 78.6709L137.787 78.8574C138.599 75.5471 139.002 71.7706 139.002 67.5315H138.22ZM137.026 78.6722C136.247 81.8958 135.121 84.5991 133.654 86.7916L134.304 87.2267C135.833 84.9415 136.991 82.1482 137.787 78.8561L137.026 78.6722ZM133.653 86.7931C132.202 88.9844 130.441 90.6363 128.373 91.7605L128.746 92.4482C130.939 91.2564 132.792 89.5115 134.305 87.2252L133.653 86.7931ZM128.372 91.7611C126.32 92.8843 123.993 93.45 121.38 93.45V94.2327C124.11 94.2327 126.569 93.6404 128.748 92.4476L128.372 91.7611ZM121.38 93.45C118.777 93.45 116.469 92.9358 114.446 91.917L114.094 92.6159C116.24 93.697 118.672 94.2327 121.38 94.2327V93.45ZM114.449 91.9186C112.436 90.8818 110.786 89.449 109.494 87.6174L108.855 88.0684C110.219 90.0041 111.966 91.5204 114.091 92.6144L114.449 91.9186ZM109.497 87.6204C108.221 85.7752 107.4 83.6327 107.037 81.1849L106.263 81.2996C106.642 83.8545 107.503 86.1124 108.853 88.0654L109.497 87.6204ZM106.65 81.6336H112.301V80.851H106.65V81.6336ZM111.92 81.3315C112.446 83.5775 113.494 85.4465 115.067 86.9239L115.603 86.3533C114.151 84.9897 113.176 83.2611 112.682 81.1531L111.92 81.3315ZM115.07 86.9267C116.685 88.4112 118.802 89.1374 121.38 89.1374V88.3548C118.956 88.3548 117.042 87.6761 115.6 86.3505L115.07 86.9267ZM121.38 89.1374C125.178 89.1374 128.185 87.4673 130.368 84.168L129.716 83.736C127.669 86.8288 124.901 88.3548 121.38 88.3548V89.1374ZM130.367 84.1691C132.558 80.8833 133.629 76.2795 133.629 70.4034H132.847C132.847 76.1999 131.787 80.6285 129.716 83.7349L130.367 84.1691ZM133.238 70.0121H132.867V70.7947H133.238V70.0121ZM132.542 70.1863C131.699 71.4502 130.7 72.5391 129.544 73.4548L130.03 74.0683C131.252 73.1004 132.306 71.9505 133.193 70.6204L132.542 70.1863ZM129.544 73.4548C128.39 74.3693 127.108 75.0741 125.697 75.5694L125.956 76.3078C127.448 75.7841 128.807 75.0375 130.03 74.0683L129.544 73.4548ZM125.697 75.5694C124.29 76.0634 122.79 76.3116 121.195 76.3116V77.0942C122.873 77.0942 124.461 76.8329 125.956 76.3078L125.697 75.5694ZM121.195 76.3116C118.545 76.3116 116.121 75.6577 113.913 74.3512L113.515 75.0247C115.847 76.4048 118.409 77.0942 121.195 77.0942V76.3116ZM113.916 74.3528C111.721 73.0296 109.961 71.2182 108.634 68.9113L107.955 69.3015C109.346 71.7193 111.199 73.6289 113.512 75.0231L113.916 74.3528ZM108.635 68.9139C107.329 66.6016 106.671 63.952 106.671 60.9541H105.888C105.888 64.0704 106.574 66.8556 107.954 69.2989L108.635 68.9139ZM106.671 60.9541C106.671 58.112 107.305 55.5207 108.57 53.1725L107.881 52.8015C106.551 55.2706 105.888 57.9907 105.888 60.9541H106.671ZM108.569 53.1733C109.849 50.8104 111.637 48.9314 113.94 47.5314L113.534 46.8626C111.113 48.3344 109.226 50.3155 107.881 52.8007L108.569 53.1733ZM113.939 47.5319C116.245 46.1395 118.966 45.4584 122.115 45.5038L122.127 44.7213C118.854 44.6741 115.985 45.3826 113.535 46.862L113.939 47.5319ZM122.121 49.8165C120.107 49.8165 118.282 50.3211 116.657 51.3349L117.071 51.9989C118.565 51.0672 120.244 50.5991 122.121 50.5991V49.8165ZM116.658 51.3343C115.055 52.3278 113.782 53.6745 112.839 55.3674L113.523 55.7481C114.403 54.1677 115.584 52.9205 117.07 51.9994L116.658 51.3343ZM112.839 55.3686C111.909 57.0516 111.447 58.9161 111.447 60.9541H112.229C112.229 59.0393 112.663 57.3064 113.524 55.747L112.839 55.3686ZM111.447 60.9541C111.447 62.9896 111.893 64.8524 112.79 66.5345L113.48 66.1662C112.648 64.6059 112.229 62.8711 112.229 60.9541H111.447ZM112.792 66.5384C113.703 68.2009 114.945 69.5321 116.516 70.5256L116.934 69.8642C115.478 68.9432 114.327 67.7113 113.478 66.1623L112.792 66.5384ZM116.52 70.5281C118.115 71.5111 119.924 71.999 121.936 71.999V71.2164C120.057 71.2164 118.392 70.7624 116.93 69.8618L116.52 70.5281ZM121.936 71.999C123.455 71.999 124.877 71.7028 126.196 71.1074L125.874 70.3941C124.662 70.9413 123.35 71.2164 121.936 71.2164V71.999ZM126.2 71.1058C127.511 70.4983 128.656 69.6737 129.632 68.6331L129.062 68.0975C128.155 69.064 127.092 69.8298 125.871 70.3957L126.2 71.1058ZM129.632 68.6332C130.621 67.5805 131.396 66.391 131.954 65.0665L131.233 64.7624C130.711 66.0009 129.988 67.112 129.062 68.0974L129.632 68.6332ZM131.955 65.0649C132.515 63.7203 132.796 62.3181 132.796 60.8614H132.013C132.013 62.2148 131.753 63.5146 131.232 64.7639L131.955 65.0649ZM132.796 60.8614C132.796 58.9425 132.331 57.1404 131.403 55.4612L130.718 55.8396C131.582 57.4029 132.013 59.0748 132.013 60.8614H132.796ZM131.405 55.4637C130.493 53.7844 129.228 52.4231 127.613 51.3841L127.19 52.0422C128.694 53.0105 129.868 54.274 130.717 55.8371L131.405 55.4637ZM127.615 51.3851C126.003 50.3372 124.167 49.8165 122.121 49.8165V50.5991C124.028 50.5991 125.713 51.082 127.188 52.0413L127.615 51.3851Z" fill="black"/>
<path d="M409.145 540.389C407.2 540.373 405.255 540.003 403.309 539.277C401.364 538.552 399.588 537.347 397.982 535.664C396.377 533.997 395.087 531.719 394.115 528.832C393.142 525.945 392.655 522.324 392.655 517.97C392.655 513.755 393.057 510.011 393.86 506.737C394.647 503.479 395.79 500.731 397.288 498.492C398.77 496.254 400.576 494.555 402.707 493.397C404.822 492.239 407.215 491.66 409.887 491.66C412.542 491.66 414.912 492.185 416.997 493.235C419.066 494.3 420.764 495.775 422.092 497.659C423.404 499.558 424.246 501.758 424.616 504.259H418.965C418.456 502.082 417.444 500.283 415.931 498.863C414.403 497.458 412.388 496.755 409.887 496.755C406.227 496.755 403.34 498.353 401.225 501.549C399.094 504.746 398.029 509.262 398.029 515.098H398.399C399.264 513.801 400.291 512.682 401.479 511.74C402.668 510.798 403.988 510.072 405.44 509.563C406.891 509.053 408.435 508.799 410.072 508.799C412.789 508.799 415.283 509.47 417.553 510.813C419.807 512.172 421.613 514.033 422.972 516.395C424.315 518.773 424.987 521.49 424.987 524.547C424.987 527.45 424.338 530.106 423.042 532.514C421.729 534.939 419.892 536.869 417.529 538.304C415.152 539.74 412.357 540.435 409.145 540.389ZM409.145 535.294C411.091 535.294 412.843 534.807 414.403 533.835C415.947 532.877 417.174 531.58 418.085 529.944C418.981 528.323 419.429 526.524 419.429 524.547C419.429 522.571 418.996 520.772 418.132 519.151C417.251 517.545 416.055 516.264 414.542 515.307C413.013 514.365 411.276 513.894 409.331 513.894C407.864 513.894 406.497 514.179 405.231 514.751C403.965 515.337 402.861 516.133 401.92 517.136C400.962 518.155 400.213 519.306 399.673 520.587C399.133 521.884 398.862 523.235 398.862 524.64C398.862 526.493 399.31 528.23 400.206 529.851C401.086 531.472 402.306 532.785 403.865 533.788C405.409 534.792 407.169 535.294 409.145 535.294Z" fill="black"/>
<path d="M409.88 541.284C407.934 541.269 405.989 540.898 404.043 540.172C402.098 539.447 400.322 538.242 398.717 536.56C397.111 534.892 395.822 532.615 394.849 529.727C393.876 526.84 393.39 523.219 393.39 518.865C393.39 514.65 393.791 510.906 394.594 507.633C395.382 504.375 396.524 501.626 398.022 499.388C399.504 497.149 401.311 495.45 403.441 494.292C405.557 493.134 407.95 492.555 410.621 492.555C413.277 492.555 415.647 493.08 417.731 494.13C419.8 495.196 421.498 496.67 422.826 498.554C424.139 500.453 424.98 502.653 425.351 505.154H419.7C419.19 502.977 418.179 501.179 416.666 499.758C415.137 498.353 413.122 497.651 410.621 497.651C406.962 497.651 404.074 499.249 401.959 502.445C399.828 505.641 398.763 510.157 398.763 515.993H399.134C399.998 514.696 401.025 513.577 402.214 512.635C403.403 511.693 404.723 510.968 406.174 510.458C407.626 509.949 409.17 509.694 410.806 509.694C413.524 509.694 416.017 510.365 418.287 511.709C420.541 513.067 422.348 514.928 423.706 517.29C425.05 519.668 425.721 522.386 425.721 525.443C425.721 528.345 425.073 531.001 423.776 533.41C422.463 535.834 420.626 537.764 418.264 539.2C415.886 540.636 413.091 541.33 409.88 541.284ZM409.88 536.189C411.825 536.189 413.578 535.703 415.137 534.73C416.681 533.773 417.909 532.476 418.82 530.839C419.715 529.218 420.163 527.419 420.163 525.443C420.163 523.466 419.731 521.668 418.866 520.046C417.986 518.441 416.789 517.159 415.276 516.202C413.748 515.26 412.011 514.789 410.065 514.789C408.598 514.789 407.232 515.075 405.966 515.646C404.7 516.233 403.596 517.028 402.654 518.031C401.697 519.05 400.948 520.201 400.407 521.482C399.867 522.779 399.597 524.13 399.597 525.535C399.597 527.388 400.045 529.125 400.94 530.746C401.82 532.368 403.04 533.68 404.599 534.684C406.143 535.687 407.904 536.189 409.88 536.189Z" fill="black"/>
<path d="M409.88 541.284L409.885 540.893L409.883 540.893L409.88 541.284ZM404.043 540.172L403.907 540.539L403.907 540.539L404.043 540.172ZM398.717 536.56L399 536.289L398.999 536.288L398.717 536.56ZM394.849 529.727L395.22 529.602L394.849 529.727ZM394.594 507.633L394.974 507.726L394.975 507.725L394.594 507.633ZM398.022 499.388L398.347 499.605L398.348 499.604L398.022 499.388ZM403.441 494.292L403.628 494.636L403.629 494.636L403.441 494.292ZM417.731 494.13L417.91 493.782L417.907 493.781L417.731 494.13ZM422.826 498.554L423.148 498.331L423.146 498.328L422.826 498.554ZM425.351 505.154V505.546H425.804L425.738 505.097L425.351 505.154ZM419.7 505.154L419.319 505.244L419.389 505.546H419.7V505.154ZM416.666 499.758L416.934 499.473L416.931 499.47L416.666 499.758ZM401.959 502.445L402.285 502.662L402.285 502.661L401.959 502.445ZM398.763 515.993H398.372V516.385H398.763V515.993ZM399.134 515.993V516.385H399.343L399.459 516.21L399.134 515.993ZM418.287 511.709L418.489 511.374L418.486 511.372L418.287 511.709ZM423.706 517.29L424.047 517.098L424.046 517.095L423.706 517.29ZM423.776 533.41L424.12 533.596L424.12 533.595L423.776 533.41ZM418.264 539.2L418.466 539.535L418.467 539.534L418.264 539.2ZM415.137 534.73L414.931 534.397L414.93 534.398L415.137 534.73ZM418.82 530.839L419.162 531.029L419.162 531.028L418.82 530.839ZM418.866 520.046L419.211 519.862L419.209 519.858L418.866 520.046ZM415.276 516.202L415.485 515.871L415.481 515.869L415.276 516.202ZM405.966 515.646L405.805 515.289L405.801 515.291L405.966 515.646ZM402.654 518.031L402.939 518.299L402.939 518.299L402.654 518.031ZM400.407 521.482L400.047 521.33L400.046 521.332L400.407 521.482ZM400.94 530.746L401.284 530.56L401.283 530.557L400.94 530.746ZM404.599 534.684L404.813 534.355L404.811 534.354L404.599 534.684ZM409.883 540.893C407.986 540.878 406.086 540.517 404.18 539.806L403.907 540.539C405.892 541.28 407.883 541.66 409.877 541.675L409.883 540.893ZM404.18 539.806C402.297 539.103 400.57 537.935 399 536.289L398.434 536.83C400.075 538.55 401.899 539.79 403.907 540.539L404.18 539.806ZM398.999 536.288C397.443 534.673 396.18 532.451 395.22 529.602L394.478 529.852C395.464 532.778 396.778 535.111 398.435 536.831L398.999 536.288ZM395.22 529.602C394.265 526.769 393.781 523.193 393.781 518.865H392.999C392.999 523.245 393.487 526.911 394.478 529.852L395.22 529.602ZM393.781 518.865C393.781 514.674 394.18 510.962 394.974 507.726L394.214 507.539C393.402 510.85 392.999 514.626 392.999 518.865H393.781ZM394.975 507.725C395.754 504.501 396.88 501.798 398.347 499.605L397.697 499.17C396.168 501.455 395.01 504.249 394.214 507.541L394.975 507.725ZM398.348 499.604C399.799 497.412 401.56 495.76 403.628 494.636L403.254 493.949C401.062 495.14 399.209 496.885 397.696 499.172L398.348 499.604ZM403.629 494.636C405.681 493.512 408.008 492.947 410.621 492.947V492.164C407.891 492.164 405.432 492.756 403.253 493.949L403.629 494.636ZM410.621 492.947C413.224 492.947 415.532 493.461 417.555 494.48L417.907 493.781C415.761 492.7 413.329 492.164 410.621 492.164V492.947ZM417.552 494.478C419.565 495.515 421.215 496.948 422.506 498.779L423.146 498.328C421.782 496.393 420.035 494.876 417.91 493.782L417.552 494.478ZM422.504 498.776C423.78 500.622 424.601 502.764 424.964 505.212L425.738 505.097C425.359 502.542 424.498 500.284 423.148 498.331L422.504 498.776ZM425.351 504.763H419.7V505.546H425.351V504.763ZM420.081 505.065C419.555 502.819 418.507 500.95 416.934 499.473L416.398 500.043C417.85 501.407 418.825 503.136 419.319 505.244L420.081 505.065ZM416.931 499.47C415.316 497.986 413.199 497.259 410.621 497.259V498.042C413.045 498.042 414.959 498.721 416.401 500.046L416.931 499.47ZM410.621 497.259C406.823 497.259 403.816 498.929 401.633 502.229L402.285 502.661C404.332 499.568 407.1 498.042 410.621 498.042V497.259ZM401.634 502.228C399.443 505.513 398.372 510.117 398.372 515.993H399.154C399.154 510.197 400.214 505.768 402.285 502.662L401.634 502.228ZM398.763 516.385H399.134V515.602H398.763V516.385ZM399.459 516.21C400.302 514.947 401.301 513.858 402.457 512.942L401.971 512.328C400.749 513.296 399.695 514.446 398.808 515.776L399.459 516.21ZM402.457 512.942C403.611 512.027 404.893 511.323 406.304 510.827L406.045 510.089C404.553 510.613 403.194 511.359 401.971 512.328L402.457 512.942ZM406.304 510.827C407.711 510.333 409.211 510.085 410.806 510.085V509.303C409.128 509.303 407.54 509.564 406.045 510.089L406.304 510.827ZM410.806 510.085C413.456 510.085 415.88 510.739 418.088 512.046L418.486 511.372C416.154 509.992 413.592 509.303 410.806 509.303V510.085ZM418.085 512.044C420.28 513.367 422.04 515.179 423.367 517.485L424.046 517.095C422.655 514.677 420.802 512.768 418.489 511.374L418.085 512.044ZM423.366 517.483C424.672 519.795 425.33 522.445 425.33 525.443H426.113C426.113 522.326 425.427 519.541 424.047 517.098L423.366 517.483ZM425.33 525.443C425.33 528.285 424.696 530.876 423.431 533.224L424.12 533.595C425.45 531.126 426.113 528.406 426.113 525.443H425.33ZM423.432 533.223C422.152 535.586 420.364 537.465 418.061 538.865L418.467 539.534C420.888 538.062 422.774 536.081 424.12 533.596L423.432 533.223ZM418.061 538.865C415.756 540.257 413.035 540.938 409.885 540.893L409.874 541.675C413.147 541.723 416.016 541.014 418.466 539.535L418.061 538.865ZM409.88 536.58C411.894 536.58 413.719 536.076 415.344 535.062L414.93 534.398C413.436 535.33 411.757 535.798 409.88 535.798V536.58ZM415.343 535.062C416.946 534.069 418.219 532.722 419.162 531.029L418.478 530.649C417.598 532.229 416.417 533.476 414.931 534.397L415.343 535.062ZM419.162 531.028C420.092 529.345 420.554 527.481 420.554 525.443H419.772C419.772 527.357 419.338 529.09 418.477 530.65L419.162 531.028ZM420.554 525.443C420.554 523.407 420.108 521.544 419.211 519.862L418.521 520.231C419.353 521.791 419.772 523.526 419.772 525.443H420.554ZM419.209 519.858C418.298 518.196 417.056 516.865 415.485 515.871L415.067 516.532C416.523 517.454 417.674 518.685 418.523 520.234L419.209 519.858ZM415.481 515.869C413.886 514.886 412.077 514.398 410.065 514.398V515.18C411.944 515.18 413.609 515.634 415.071 516.535L415.481 515.869ZM410.065 514.398C408.546 514.398 407.124 514.694 405.805 515.289L406.127 516.003C407.339 515.455 408.651 515.18 410.065 515.18V514.398ZM405.801 515.291C404.49 515.898 403.345 516.723 402.369 517.764L402.939 518.299C403.846 517.333 404.909 516.567 406.13 516.001L405.801 515.291ZM402.369 517.764C401.38 518.816 400.605 520.006 400.047 521.33L400.768 521.634C401.29 520.396 402.013 519.285 402.939 518.299L402.369 517.764ZM400.046 521.332C399.486 522.676 399.205 524.079 399.205 525.535H399.988C399.988 524.182 400.248 522.882 400.769 521.633L400.046 521.332ZM399.205 525.535C399.205 527.454 399.67 529.256 400.598 530.936L401.283 530.557C400.419 528.994 399.988 527.322 399.988 525.535H399.205ZM400.596 530.933C401.508 532.612 402.773 533.974 404.388 535.013L404.811 534.354C403.307 533.386 402.132 532.123 401.284 530.56L400.596 530.933ZM404.386 535.012C405.998 536.06 407.834 536.58 409.88 536.58V535.798C407.973 535.798 406.288 535.315 404.813 534.355L404.386 535.012Z" fill="black"/>
<path d="M340.93 394.444H212.93V407.842H340.93V394.444Z" fill="black"/>
<path d="M338.772 390.435H210.772V403.833H338.772V390.435Z" fill="#FFE471" stroke="black" stroke-width="3"/>
<path d="M278.135 187.282C285.592 187.342 293.049 188.762 300.507 191.544C307.964 194.326 314.771 198.942 320.926 205.393C327.081 211.785 332.023 220.515 335.752 231.583C339.481 242.651 341.345 256.53 341.345 273.22C341.345 289.378 339.806 303.73 336.728 316.277C333.71 328.766 329.33 339.301 323.589 347.883C317.907 356.465 310.983 362.975 302.815 367.414C294.707 371.853 285.533 374.072 275.294 374.072C265.114 374.072 256.029 372.06 248.039 368.035C240.108 363.951 233.598 358.299 228.508 351.079C223.477 343.799 220.251 335.365 218.831 325.777H240.493C242.446 334.122 246.322 341.017 252.123 346.462C257.982 351.848 265.706 354.541 275.294 354.541C289.321 354.541 300.389 348.415 308.497 336.164C316.665 323.912 320.748 306.601 320.748 284.228H319.328C316.014 289.2 312.078 293.491 307.52 297.101C302.963 300.712 297.903 303.493 292.339 305.447C286.776 307.4 280.857 308.376 274.584 308.376C264.167 308.376 254.608 305.802 245.908 300.652C237.267 295.444 230.342 288.312 225.134 279.257C219.985 270.142 217.41 259.726 217.41 248.007C217.41 236.88 219.896 226.7 224.868 217.467C229.898 208.175 236.942 200.777 245.997 195.273C255.112 189.768 265.824 187.105 278.135 187.282ZM278.135 206.814C270.677 206.814 263.96 208.678 257.982 212.407C252.063 216.076 247.358 221.048 243.866 227.322C240.433 233.536 238.717 240.431 238.717 248.007C238.717 255.583 240.374 262.478 243.689 268.692C247.062 274.848 251.649 279.76 257.449 283.429C263.309 287.04 269.967 288.845 277.424 288.845C283.047 288.845 288.285 287.75 293.138 285.56C297.991 283.311 302.223 280.263 305.834 276.416C309.503 272.51 312.374 268.1 314.445 263.188C316.517 258.216 317.552 253.038 317.552 247.652C317.552 240.549 315.836 233.891 312.403 227.677C309.03 221.462 304.354 216.431 298.376 212.584C292.458 208.737 285.71 206.814 278.135 206.814Z" fill="black"/>
<path d="M275.317 183.851C282.775 183.91 290.232 185.33 297.69 188.112C305.147 190.894 311.953 195.51 318.109 201.961C324.264 208.353 329.206 217.083 332.935 228.151C336.663 239.219 338.528 253.098 338.528 269.788C338.528 285.946 336.989 300.298 333.911 312.846C330.893 325.334 326.513 335.869 320.772 344.451C315.09 353.033 308.165 359.543 299.998 363.982C291.889 368.421 282.716 370.64 272.476 370.64C262.297 370.64 253.212 368.628 245.221 364.603C237.291 360.52 230.78 354.867 225.69 347.647C220.659 340.367 217.434 331.933 216.013 322.345H237.675C239.628 330.69 243.505 337.585 249.305 343.03C255.165 348.416 262.888 351.109 272.476 351.109C286.503 351.109 297.571 344.983 305.68 332.732C313.847 320.481 317.931 303.169 317.931 280.797H316.511C313.196 285.768 309.26 290.059 304.703 293.669C300.146 297.28 295.085 300.062 289.522 302.015C283.958 303.968 278.04 304.944 271.766 304.944C261.35 304.944 251.791 302.37 243.091 297.221C234.45 292.012 227.525 284.88 222.317 275.825C217.167 266.71 214.593 256.294 214.593 244.575C214.593 233.448 217.079 223.268 222.05 214.035C227.081 204.743 234.124 197.345 243.18 191.841C252.294 186.336 263.007 183.673 275.317 183.851ZM275.317 203.382C267.86 203.382 261.142 205.246 255.165 208.975C249.246 212.644 244.541 217.616 241.049 223.89C237.616 230.104 235.9 236.999 235.9 244.575C235.9 252.151 237.557 259.046 240.871 265.26C244.245 271.416 248.832 276.328 254.632 279.998C260.491 283.608 267.15 285.413 274.607 285.413C280.23 285.413 285.468 284.318 290.321 282.128C295.174 279.879 299.406 276.831 303.016 272.984C306.686 269.078 309.556 264.669 311.628 259.756C313.699 254.785 314.735 249.606 314.735 244.22C314.735 237.118 313.019 230.459 309.586 224.245C306.212 218.03 301.537 212.999 295.559 209.152C289.64 205.305 282.893 203.382 275.317 203.382Z" fill="#FFE471"/>
<path d="M275.317 183.851L275.296 185.35L275.305 185.351L275.317 183.851ZM297.69 188.112L298.214 186.707L297.69 188.112ZM318.109 201.961L317.023 202.997L317.028 203.002L318.109 201.961ZM332.935 228.151L331.513 228.63V228.63L332.935 228.151ZM333.911 312.846L332.454 312.488L332.453 312.493L333.911 312.846ZM320.772 344.451L319.525 343.617L319.521 343.623L320.772 344.451ZM299.998 363.982L299.281 362.664L299.277 362.666L299.998 363.982ZM245.221 364.603L244.535 365.937L244.547 365.943L245.221 364.603ZM225.69 347.647L224.456 348.5L224.464 348.511L225.69 347.647ZM216.013 322.345V320.845H214.275L214.53 322.565L216.013 322.345ZM237.675 322.345L239.136 322.003L238.865 320.845H237.675V322.345ZM249.305 343.03L248.279 344.124L248.284 344.129L248.29 344.135L249.305 343.03ZM305.68 332.732L304.431 331.9L304.429 331.904L305.68 332.732ZM317.931 280.797H319.431V279.297H317.931V280.797ZM316.511 280.797V279.297H315.708L315.262 279.965L316.511 280.797ZM243.091 297.221L242.316 298.505L242.327 298.511L243.091 297.221ZM222.317 275.825L221.011 276.563L221.016 276.573L222.317 275.825ZM222.05 214.035L220.731 213.321L220.73 213.324L222.05 214.035ZM243.18 191.841L242.404 190.557L242.4 190.559L243.18 191.841ZM255.165 208.975L255.955 210.25L255.959 210.248L255.165 208.975ZM241.049 223.89L239.738 223.16L239.736 223.164L241.049 223.89ZM240.871 265.26L239.548 265.966L239.552 265.974L239.556 265.981L240.871 265.26ZM254.632 279.998L253.83 281.265L253.838 281.27L253.845 281.275L254.632 279.998ZM290.321 282.128L290.938 283.496L290.945 283.492L290.952 283.489L290.321 282.128ZM303.016 272.984L301.923 271.957L301.922 271.958L303.016 272.984ZM311.628 259.756L313.01 260.339L313.012 260.333L311.628 259.756ZM309.586 224.245L308.267 224.96L308.273 224.97L309.586 224.245ZM295.559 209.152L294.741 210.41L294.747 210.414L295.559 209.152ZM275.305 185.351C282.576 185.408 289.861 186.793 297.165 189.517L298.214 186.707C290.603 183.868 282.973 182.411 275.329 182.351L275.305 185.351ZM297.165 189.517C304.386 192.211 311.006 196.69 317.023 202.997L319.194 200.926C312.901 194.33 305.908 189.577 298.214 186.707L297.165 189.517ZM317.028 203.002C322.989 209.192 327.834 217.709 331.513 228.63L334.356 227.672C330.578 216.458 325.539 207.515 319.189 200.921L317.028 203.002ZM331.513 228.63C335.173 239.493 337.028 253.197 337.028 269.788H340.028C340.028 252.999 338.154 238.945 334.356 227.672L331.513 228.63ZM337.028 269.788C337.028 285.854 335.497 300.083 332.454 312.488L335.368 313.203C338.48 300.514 340.028 286.038 340.028 269.788H337.028ZM332.453 312.493C329.466 324.85 325.147 335.213 319.525 343.617L322.019 345.285C327.879 336.525 332.319 325.818 335.369 313.198L332.453 312.493ZM319.521 343.623C313.96 352.022 307.211 358.354 299.281 362.664L300.714 365.3C309.12 360.732 316.22 354.043 322.023 345.279L319.521 343.623ZM299.277 362.666C291.413 366.972 282.491 369.14 272.476 369.14V372.14C282.94 372.14 292.366 369.87 300.718 365.298L299.277 362.666ZM272.476 369.14C262.498 369.14 253.65 367.169 245.896 363.264L244.547 365.943C252.773 370.087 262.095 372.14 272.476 372.14V369.14ZM245.908 363.27C238.19 359.296 231.865 353.803 226.916 346.782L224.464 348.511C229.695 355.931 236.391 361.744 244.535 365.937L245.908 363.27ZM226.924 346.794C222.036 339.721 218.887 331.508 217.497 322.125L214.53 322.565C215.98 332.358 219.283 341.013 224.456 348.499L226.924 346.794ZM216.013 323.845H237.675V320.845H216.013V323.845ZM236.215 322.687C238.23 331.296 242.246 338.461 248.279 344.124L250.332 341.937C244.764 336.71 241.027 330.084 239.136 322.003L236.215 322.687ZM248.29 344.135C254.481 349.825 262.594 352.609 272.476 352.609V349.609C263.183 349.609 255.848 347.007 250.32 341.926L248.29 344.135ZM272.476 352.609C287.035 352.609 298.56 346.207 306.93 333.56L304.429 331.904C296.582 343.76 285.972 349.609 272.476 349.609V352.609ZM306.928 333.564C315.324 320.969 319.431 303.321 319.431 280.797H316.431C316.431 303.016 312.37 319.992 304.431 331.9L306.928 333.564ZM317.931 279.297H316.511V282.297H317.931V279.297ZM315.262 279.965C312.033 284.809 308.203 288.983 303.772 292.494L305.634 294.845C310.318 291.135 314.36 286.727 317.759 281.629L315.262 279.965ZM303.772 292.494C299.347 295.999 294.434 298.701 289.025 300.599L290.019 303.43C295.737 301.422 300.945 298.56 305.634 294.845L303.772 292.494ZM289.025 300.599C283.631 302.493 277.882 303.444 271.766 303.444V306.444C278.198 306.444 284.286 305.443 290.019 303.43L289.025 300.599ZM271.766 303.444C261.61 303.444 252.316 300.938 243.855 295.93L242.327 298.511C251.266 303.802 261.089 306.444 271.766 306.444V303.444ZM243.865 295.936C235.45 290.864 228.703 283.92 223.617 275.077L221.016 276.573C226.347 285.841 233.449 293.161 242.316 298.505L243.865 295.936ZM223.623 275.087C218.615 266.224 216.093 256.067 216.093 244.575H213.093C213.093 256.521 215.72 267.197 221.011 276.563L223.623 275.087ZM216.093 244.575C216.093 233.681 218.524 223.747 223.371 214.746L220.73 213.324C215.633 222.789 213.093 233.215 213.093 244.575H216.093ZM223.369 214.749C228.273 205.692 235.13 198.489 243.959 193.122L242.4 190.559C233.119 196.201 225.889 203.795 220.731 213.321L223.369 214.749ZM243.955 193.125C252.794 187.787 263.221 185.176 275.296 185.35L275.339 182.351C262.792 182.17 251.795 184.886 242.404 190.557L243.955 193.125ZM275.317 201.882C267.596 201.882 260.601 203.816 254.371 207.702L255.959 210.248C261.684 206.676 268.123 204.882 275.317 204.882V201.882ZM254.374 207.7C248.232 211.508 243.35 216.671 239.738 223.16L242.36 224.619C245.731 218.561 250.26 213.78 255.955 210.25L254.374 207.7ZM239.736 223.164C236.172 229.616 234.4 236.763 234.4 244.575H237.4C237.4 237.235 239.06 230.592 242.362 224.615L239.736 223.164ZM234.4 244.575C234.4 252.378 236.109 259.518 239.548 265.966L242.195 264.554C239.005 258.574 237.4 251.924 237.4 244.575H234.4ZM239.556 265.981C243.049 272.354 247.81 277.457 253.83 281.265L255.434 278.73C249.853 275.199 245.441 270.477 242.187 264.539L239.556 265.981ZM253.845 281.275C259.961 285.043 266.896 286.913 274.607 286.913V283.913C267.404 283.913 261.022 282.173 255.419 278.721L253.845 281.275ZM274.607 286.913C280.43 286.913 285.88 285.778 290.938 283.496L289.704 280.761C285.055 282.859 280.029 283.913 274.607 283.913V286.913ZM290.952 283.489C295.977 281.161 300.366 278 304.11 274.011L301.922 271.958C298.445 275.663 294.372 278.598 289.69 280.767L290.952 283.489ZM304.109 274.011C307.9 269.976 310.869 265.416 313.01 260.339L310.246 259.173C308.244 263.921 305.471 268.18 301.923 271.957L304.109 274.011ZM313.012 260.333C315.16 255.179 316.235 249.804 316.235 244.22H313.235C313.235 249.408 312.238 254.39 310.243 259.179L313.012 260.333ZM316.235 244.22C316.235 236.864 314.454 229.956 310.899 223.519L308.273 224.97C311.583 230.962 313.235 237.371 313.235 244.22H316.235ZM310.904 223.529C307.41 217.092 302.559 211.874 296.371 207.891L294.747 210.414C300.514 214.125 305.015 218.969 308.268 224.96L310.904 223.529ZM296.376 207.895C290.196 203.878 283.161 201.882 275.317 201.882V204.882C282.625 204.882 289.084 206.733 294.741 210.41L296.376 207.895Z" fill="black"/>
<path d="M392.971 486.666H425.961V483.212H392.971V486.666Z" fill="black"/>
<path d="M393.697 487.699H426.687V484.246H393.697V487.699Z" fill="black" stroke="black" stroke-width="0.773206"/>
<path d="M139.031 99.752H106.041V103.205H139.031V99.752Z" fill="black"/>
<path d="M138.304 98.7188H105.314V102.172H138.304V98.7188Z" fill="black" stroke="black" stroke-width="0.773206"/>
</svg>
