<svg width="527" height="587" viewBox="0 0 527 587" fill="none" xmlns="http://www.w3.org/2000/svg">
<path d="M442.51 0H84.1102C69.9717 0 58.5103 11.4871 58.5103 25.6572V560.771C58.5103 574.941 69.9717 586.429 84.1102 586.429H442.51C456.649 586.429 468.11 574.941 468.11 560.771V25.6572C468.11 11.4871 456.649 0 442.51 0Z" fill="white"/>
<path d="M109.71 36.6523H416.91C431.048 36.6523 442.51 48.1395 442.51 62.3096V524.12C442.51 538.29 431.048 549.777 416.91 549.777H109.71C95.5712 549.777 84.1099 538.29 84.1099 524.12V62.3096C84.1099 48.1395 95.5712 36.6523 109.71 36.6523Z" fill="#FFE471"/>
<path d="M100.57 456.319C156.114 511.987 274.001 484.09 363.88 394.01C453.759 303.93 481.593 185.779 426.05 130.111C370.507 74.4439 252.619 102.34 162.74 192.42C72.8614 282.5 45.0269 400.652 100.57 456.319Z" fill="white"/>
<path d="M223.408 268.182C220.534 268.182 217.6 270.5 216.83 273.381L187.839 381.816C187.069 384.696 188.764 387.015 191.638 387.015H264.263C267.137 387.015 270.071 384.696 270.841 381.816L299.83 273.381C300.6 270.5 298.907 268.182 296.033 268.182H223.408V268.182Z" fill="black"/>
<path d="M269.066 206.096C266.192 206.096 263.26 208.414 262.49 211.295L233.5 319.728C232.73 322.608 234.423 324.927 237.297 324.927H309.922C312.796 324.927 315.73 322.608 316.5 319.728L345.49 211.295C346.26 208.414 344.565 206.096 341.691 206.096H269.066Z" fill="black"/>
<path d="M290.033 262.169H217.408C214.543 262.169 211.598 264.497 210.83 267.368L181.84 375.802C181.073 378.674 182.773 381.001 185.638 381.001H258.263C261.128 381.001 264.073 378.674 264.84 375.802L293.83 267.368C294.598 264.497 292.898 262.169 290.033 262.169Z" fill="white" stroke="black" stroke-width="1.37669"/>
<path d="M220.61 269.596H282.86C285.725 269.596 287.425 271.923 286.657 274.795L261.639 368.375C260.871 371.246 257.926 373.574 255.061 373.574H192.811C189.946 373.574 188.246 371.246 189.013 368.375L214.032 274.795C214.8 271.923 217.745 269.596 220.61 269.596Z" fill="#FFE471"/>
<path d="M335.691 200.082H263.065C260.2 200.082 257.256 202.409 256.488 205.281L227.498 313.715C226.73 316.586 228.43 318.914 231.295 318.914H303.921C306.786 318.914 309.731 316.586 310.498 313.715L339.488 205.281C340.256 202.409 338.556 200.082 335.691 200.082Z" fill="white" stroke="black" stroke-width="1.37669"/>
<path d="M266.268 207.509H328.518C331.383 207.509 333.083 209.837 332.316 212.708L307.297 306.288C306.529 309.159 303.584 311.487 300.719 311.487H238.469C235.604 311.487 233.904 309.159 234.672 306.288L259.69 212.708C260.458 209.837 263.403 207.509 266.268 207.509Z" fill="#FFE471"/>
<path d="M106.505 84.8557V54.2844H111.692V84.8557H106.505ZM93.8129 72.164V66.9762H124.384V72.164H93.8129ZM133.278 93.1934V89.0245L148.934 71.8861C150.771 69.8789 152.284 68.1342 153.473 66.6519C154.662 65.1542 155.542 63.7492 156.113 62.4368C156.7 61.1089 156.994 59.7193 156.994 58.268C156.994 56.6005 156.592 55.1568 155.789 53.937C155.002 52.7173 153.921 51.7754 152.547 51.1115C151.173 50.4476 149.629 50.1156 147.915 50.1156C146.093 50.1156 144.503 50.4939 143.144 51.2505C141.801 51.9916 140.758 53.0338 140.017 54.3771C139.292 55.7204 138.929 57.2953 138.929 59.1017H133.463C133.463 56.3225 134.104 53.883 135.385 51.7832C136.667 49.6833 138.411 48.0467 140.619 46.8732C142.843 45.6998 145.336 45.1131 148.1 45.1131C150.879 45.1131 153.342 45.6998 155.488 46.8732C157.634 48.0467 159.317 49.6293 160.537 51.621C161.757 53.6128 162.367 55.8285 162.367 58.268C162.367 60.0127 162.05 61.7188 161.417 63.3864C160.799 65.0384 159.719 66.8835 158.175 68.9216C156.646 70.9443 154.523 73.4147 151.806 76.3328L141.152 87.7276V88.0981H163.2V93.1934H133.278Z" fill="black"/>
<path d="M106.505 84.8557H106.113V85.247H106.505V84.8557ZM106.505 54.2844V53.8931H106.113V54.2844H106.505ZM111.692 54.2844H112.084V53.8931H111.692V54.2844ZM111.692 84.8557V85.247H112.084V84.8557H111.692ZM93.8129 72.164H93.4215V72.5553H93.8129V72.164ZM93.8129 66.9762V66.5849H93.4215V66.9762H93.8129ZM124.384 66.9762H124.775V66.5849H124.384V66.9762ZM124.384 72.164V72.5553H124.775V72.164H124.384ZM106.896 84.8557V54.2844H106.113V84.8557H106.896ZM106.505 54.6758H111.692V53.8931H106.505V54.6758ZM111.301 54.2844V84.8557H112.084V54.2844H111.301ZM111.692 84.4644H106.505V85.247H111.692V84.4644ZM94.2042 72.164V66.9762H93.4215V72.164H94.2042ZM93.8129 67.3675H124.384V66.5849H93.8129V67.3675ZM123.993 66.9762V72.164H124.775V66.9762H123.993ZM124.384 71.7727H93.8129V72.5553H124.384V71.7727ZM133.278 93.1934H132.886V93.5847H133.278V93.1934ZM133.278 89.0245L132.989 88.7606L132.886 88.8727V89.0245H133.278ZM148.934 71.8861L148.645 71.6219L148.645 71.6222L148.934 71.8861ZM153.473 66.6519L153.778 66.8968L153.78 66.8952L153.473 66.6519ZM156.113 62.4368L155.756 62.2786L155.755 62.2806L156.113 62.4368ZM155.789 53.937L155.46 54.1493L155.462 54.1522L155.789 53.937ZM152.547 51.1115L152.717 50.7592L152.717 50.7592L152.547 51.1115ZM143.144 51.2505L143.333 51.5931L143.334 51.5924L143.144 51.2505ZM140.017 54.3771L139.675 54.188L139.673 54.1911L140.017 54.3771ZM138.929 59.1017V59.493H139.32V59.1017H138.929ZM133.463 59.1017H133.072V59.493H133.463V59.1017ZM135.385 51.7832L135.719 51.987L135.719 51.987L135.385 51.7832ZM140.619 46.8732L140.437 46.5272L140.436 46.5277L140.619 46.8732ZM155.488 46.8732L155.676 46.5299L155.676 46.5299L155.488 46.8732ZM160.537 51.621L160.203 51.8254L160.537 51.621ZM161.417 63.3864L161.051 63.2475L161.051 63.2493L161.417 63.3864ZM158.175 68.9216L157.863 68.6853L157.862 68.6857L158.175 68.9216ZM151.806 76.3328L152.092 76.6001L152.092 76.5995L151.806 76.3328ZM141.152 87.7276L140.866 87.4603L140.761 87.5731V87.7276H141.152ZM141.152 88.0981H140.761V88.4895H141.152V88.0981ZM163.2 88.0981H163.592V87.7068H163.2V88.0981ZM163.2 93.1934V93.5847H163.592V93.1934H163.2ZM133.669 93.1934V89.0245H132.886V93.1934H133.669ZM133.567 89.2885L149.223 72.15L148.645 71.6222L132.989 88.7606L133.567 89.2885ZM149.222 72.1503C151.063 70.1393 152.583 68.3878 153.778 66.8968L153.168 66.4071C151.986 67.8805 150.479 69.6185 148.645 71.6219L149.222 72.1503ZM153.78 66.8952C154.983 65.3792 155.884 63.945 156.472 62.593L155.755 62.2806C155.201 63.5534 154.341 64.9293 153.167 66.4086L153.78 66.8952ZM156.471 62.5949C157.08 61.2173 157.385 59.7738 157.385 58.268H156.602C156.602 59.6649 156.32 61.0006 155.756 62.2786L156.471 62.5949ZM157.385 58.268C157.385 56.5351 156.967 55.0143 156.116 53.7219L155.462 54.1522C156.217 55.2993 156.602 56.6658 156.602 58.268H157.385ZM156.118 53.7248C155.29 52.4415 154.152 51.4527 152.717 50.7592L152.377 51.4639C153.689 52.0982 154.714 52.993 155.46 54.1493L156.118 53.7248ZM152.717 50.7592C151.284 50.0666 149.68 49.7243 147.915 49.7243V50.5069C149.577 50.5069 151.062 50.8286 152.377 51.4639L152.717 50.7592ZM147.915 49.7243C146.038 49.7243 144.38 50.1145 142.953 50.9086L143.334 51.5924C144.625 50.8734 146.148 50.5069 147.915 50.5069V49.7243ZM142.955 50.9079C141.547 51.6847 140.451 52.7801 139.675 54.188L140.36 54.5661C141.065 53.2875 142.054 52.2985 143.333 51.5931L142.955 50.9079ZM139.673 54.1911C138.911 55.6011 138.537 57.2422 138.537 59.1017H139.32C139.32 57.3483 139.672 55.8396 140.361 54.5631L139.673 54.1911ZM138.929 58.7104H133.463V59.493H138.929V58.7104ZM133.854 59.1017C133.854 56.3849 134.48 54.0178 135.719 51.987L135.051 51.5793C133.727 53.7482 133.072 56.2602 133.072 59.1017H133.854ZM135.719 51.987C136.964 49.948 138.656 48.3599 140.803 47.2188L140.436 46.5277C138.167 47.7335 136.37 49.4186 135.051 51.5793L135.719 51.987ZM140.802 47.2193C142.964 46.0784 145.393 45.5044 148.1 45.5044V44.7217C145.279 44.7217 142.722 45.3211 140.437 46.5272L140.802 47.2193ZM148.1 45.5044C150.823 45.5044 153.219 46.0787 155.3 47.2166L155.676 46.5299C153.465 45.3209 150.936 44.7217 148.1 44.7217V45.5044ZM155.3 47.2166C157.39 48.3588 159.021 49.8947 160.203 51.8254L160.871 51.4167C159.614 49.3638 157.879 47.7345 155.676 46.5299L155.3 47.2166ZM160.203 51.8254C161.384 53.7529 161.975 55.8972 161.975 58.268H162.758C162.758 55.7597 162.13 53.4728 160.871 51.4167L160.203 51.8254ZM161.975 58.268C161.975 59.9642 161.668 61.6233 161.051 63.2475L161.783 63.5252C162.432 61.8144 162.758 60.0612 162.758 58.268H161.975ZM161.051 63.2493C160.451 64.8538 159.393 66.6652 157.863 68.6853L158.487 69.1579C160.044 67.1019 161.148 65.2231 161.784 63.5234L161.051 63.2493ZM157.862 68.6857C156.345 70.6934 154.232 73.1529 151.519 76.0662L152.092 76.5995C154.814 73.6764 156.947 71.1951 158.487 69.1575L157.862 68.6857ZM151.52 76.0656L140.866 87.4603L141.438 87.9948L152.092 76.6001L151.52 76.0656ZM140.761 87.7276V88.0981H141.543V87.7276H140.761ZM141.152 88.4895H163.2V87.7068H141.152V88.4895ZM162.809 88.0981V93.1934H163.592V88.0981H162.809ZM163.2 92.802H133.278V93.5847H163.2V92.802Z" fill="black"/>
<path d="M420.116 501.574V532.145H414.928V501.574H420.116ZM432.808 514.266V519.454H402.236V514.266H432.808ZM393.343 493.236V497.405L377.687 514.544C375.849 516.551 374.336 518.296 373.147 519.778C371.959 521.275 371.078 522.68 370.507 523.993C369.92 525.321 369.627 526.71 369.627 528.162C369.627 529.829 370.029 531.273 370.831 532.493C371.619 533.712 372.7 534.654 374.074 535.318C375.448 535.982 376.992 536.314 378.706 536.314C380.528 536.314 382.118 535.936 383.477 535.179C384.82 534.438 385.862 533.396 386.603 532.053C387.329 530.709 387.692 529.134 387.692 527.328H393.158C393.158 530.107 392.517 532.547 391.235 534.647C389.954 536.746 388.209 538.383 386.001 539.556C383.778 540.73 381.284 541.317 378.521 541.317C375.741 541.317 373.279 540.73 371.132 539.556C368.986 538.383 367.303 536.8 366.084 534.809C364.864 532.817 364.254 530.601 364.254 528.162C364.254 526.417 364.57 524.711 365.204 523.043C365.821 521.391 366.902 519.546 368.446 517.508C369.974 515.485 372.097 513.015 374.815 510.097L385.469 498.702V498.332H363.42V493.236H393.343Z" fill="black"/>
<path d="M420.116 501.574H420.507V501.183H420.116V501.574ZM420.116 532.145V532.537H420.507V532.145H420.116ZM414.928 532.145H414.537V532.537H414.928V532.145ZM414.928 501.574V501.183H414.537V501.574H414.928ZM432.808 514.266H433.199V513.874H432.808V514.266ZM432.808 519.454V519.845H433.199V519.454H432.808ZM402.236 519.454H401.845V519.845H402.236V519.454ZM402.236 514.266V513.874H401.845V514.266H402.236ZM419.725 501.574V532.145H420.507V501.574H419.725ZM420.116 531.754H414.928V532.537H420.116V531.754ZM415.319 532.145V501.574H414.537V532.145H415.319ZM414.928 501.965H420.116V501.183H414.928V501.965ZM432.416 514.266V519.454H433.199V514.266H432.416ZM432.808 519.062H402.236V519.845H432.808V519.062ZM402.628 519.454V514.266H401.845V519.454H402.628ZM402.236 514.657H432.808V513.874H402.236V514.657ZM393.343 493.236H393.734V492.845H393.343V493.236ZM393.343 497.405L393.632 497.669L393.734 497.557V497.405H393.343ZM377.687 514.544L377.975 514.808L377.976 514.808L377.687 514.544ZM373.147 519.778L372.842 519.533L372.841 519.534L373.147 519.778ZM370.507 523.993L370.865 524.151L370.866 524.149L370.507 523.993ZM370.831 532.493L371.16 532.28L371.158 532.277L370.831 532.493ZM374.074 535.318L373.904 535.671L373.904 535.671L374.074 535.318ZM383.477 535.179L383.288 534.837L383.286 534.837L383.477 535.179ZM386.603 532.053L386.946 532.242L386.948 532.239L386.603 532.053ZM387.692 527.328V526.937H387.301V527.328H387.692ZM393.158 527.328H393.549V526.937H393.158V527.328ZM391.235 534.647L390.901 534.443L390.901 534.443L391.235 534.647ZM386.001 539.556L386.184 539.903L386.185 539.902L386.001 539.556ZM371.132 539.556L370.945 539.9L370.945 539.9L371.132 539.556ZM366.084 534.809L366.417 534.604L366.084 534.809ZM365.204 523.043L365.569 523.182L365.57 523.18L365.204 523.043ZM368.446 517.508L368.758 517.744L368.758 517.744L368.446 517.508ZM374.815 510.097L374.529 509.83L374.529 509.83L374.815 510.097ZM385.469 498.702L385.754 498.969L385.86 498.857V498.702H385.469ZM385.469 498.332H385.86V497.94H385.469V498.332ZM363.42 498.332H363.029V498.723H363.42V498.332ZM363.42 493.236V492.845H363.029V493.236H363.42ZM392.952 493.236V497.405H393.734V493.236H392.952ZM393.054 497.141L377.398 514.28L377.976 514.808L393.632 497.669L393.054 497.141ZM377.398 514.279C375.557 516.29 374.038 518.042 372.842 519.533L373.453 520.023C374.635 518.549 376.142 516.811 377.975 514.808L377.398 514.279ZM372.841 519.534C371.638 521.05 370.737 522.485 370.148 523.837L370.866 524.149C371.42 522.876 372.28 521.5 373.454 520.021L372.841 519.534ZM370.149 523.835C369.541 525.212 369.236 526.656 369.236 528.162H370.018C370.018 526.765 370.3 525.429 370.865 524.151L370.149 523.835ZM369.236 528.162C369.236 529.895 369.654 531.415 370.505 532.708L371.158 532.277C370.403 531.13 370.018 529.764 370.018 528.162H369.236ZM370.503 532.705C371.331 533.988 372.468 534.977 373.904 535.671L374.244 534.966C372.931 534.331 371.907 533.437 371.16 532.28L370.503 532.705ZM373.904 535.671C375.337 536.363 376.94 536.705 378.706 536.705V535.923C377.044 535.923 375.559 535.601 374.244 534.966L373.904 535.671ZM378.706 536.705C380.583 536.705 382.241 536.315 383.667 535.521L383.286 534.837C381.995 535.556 380.473 535.923 378.706 535.923V536.705ZM383.666 535.522C385.074 534.745 386.169 533.65 386.946 532.242L386.261 531.864C385.555 533.142 384.566 534.131 383.288 534.837L383.666 535.522ZM386.948 532.239C387.709 530.829 388.083 529.187 388.083 527.328H387.301C387.301 529.081 386.949 530.59 386.259 531.867L386.948 532.239ZM387.692 527.719H393.158V526.937H387.692V527.719ZM392.766 527.328C392.766 530.045 392.141 532.412 390.901 534.443L391.569 534.85C392.893 532.681 393.549 530.17 393.549 527.328H392.766ZM390.901 534.443C389.657 536.482 387.965 538.07 385.818 539.211L386.185 539.902C388.454 538.696 390.251 537.011 391.569 534.85L390.901 534.443ZM385.819 539.21C383.657 540.351 381.227 540.925 378.521 540.925V541.708C381.342 541.708 383.899 541.109 386.184 539.903L385.819 539.21ZM378.521 540.925C375.798 540.925 373.401 540.351 371.32 539.213L370.945 539.9C373.156 541.109 375.685 541.708 378.521 541.708V540.925ZM371.32 539.213C369.231 538.071 367.6 536.535 366.417 534.604L365.75 535.013C367.007 537.066 368.742 538.695 370.945 539.9L371.32 539.213ZM366.417 534.604C365.237 532.677 364.645 530.532 364.645 528.162H363.863C363.863 530.67 364.491 532.957 365.75 535.013L366.417 534.604ZM364.645 528.162C364.645 526.466 364.953 524.806 365.569 523.182L364.838 522.904C364.188 524.615 363.863 526.368 363.863 528.162H364.645ZM365.57 523.18C366.17 521.576 367.227 519.765 368.758 517.744L368.134 517.272C366.576 519.328 365.472 521.207 364.837 522.906L365.57 523.18ZM368.758 517.744C370.275 515.736 372.388 513.277 375.101 510.364L374.529 509.83C371.807 512.753 369.674 515.235 368.134 517.272L368.758 517.744ZM375.101 510.364L385.754 498.969L385.183 498.435L374.529 509.83L375.101 510.364ZM385.86 498.702V498.332H385.077V498.702H385.86ZM385.469 497.94H363.42V498.723H385.469V497.94ZM363.811 498.332V493.236H363.029V498.332H363.811ZM363.42 493.628H393.343V492.845H363.42V493.628Z" fill="black"/>
</svg>
