<svg width="527" height="587" viewBox="0 0 527 587" fill="none" xmlns="http://www.w3.org/2000/svg">
<path d="M442.51 0H84.1099C69.9714 0 58.5098 11.4871 58.5098 25.6572V560.771C58.5098 574.941 69.9714 586.429 84.1099 586.429H442.51C456.648 586.429 468.11 574.941 468.11 560.771V25.6572C468.11 11.4871 456.648 0 442.51 0Z" fill="white"/>
<path d="M416.91 36.6519H109.71C95.5712 36.6519 84.1099 48.139 84.1099 62.3091V524.12C84.1099 538.29 95.5712 549.777 109.71 549.777H416.91C431.048 549.777 442.51 538.29 442.51 524.12V62.3091C442.51 48.139 431.048 36.6519 416.91 36.6519Z" fill="#FFE471"/>
<path d="M100.57 456.318C156.113 511.986 274.001 484.089 363.88 394.009C453.759 303.93 481.593 185.778 426.05 130.111C370.506 74.4431 252.618 102.34 162.74 192.419C72.8609 282.499 45.0265 400.651 100.57 456.318Z" fill="white"/>
<path d="M278.179 208.159L288.195 218.198L237.786 268.72L237.765 268.699C226.783 279.706 223.183 295.944 228.644 309.84C230.423 314.347 233.089 318.415 236.489 321.812L263.605 294.635L263.626 294.656L314.054 244.115L324.073 254.155L331.992 223.22L339.911 192.284L309.045 200.222L278.179 208.159V208.159Z" fill="black"/>
<path d="M122.475 55.0659L124.708 57.3038L113.471 68.5659V68.5608C111.023 71.0145 110.221 74.6341 111.438 77.7318C111.835 78.7365 112.429 79.6433 113.187 80.4005L119.231 74.3424V74.3474L130.472 63.081L132.706 65.3193L134.471 58.4232L136.236 51.5271L129.356 53.2966L122.475 55.0659V55.0659Z" fill="black"/>
<path d="M404.145 531.363L401.912 529.125L413.149 517.863V517.868C415.597 515.414 416.4 511.795 415.182 508.697C414.786 507.692 414.191 506.786 413.433 506.028L407.389 512.086V512.081L396.147 523.348L393.914 521.11L392.149 528.006L390.384 534.902L397.264 533.132L404.145 531.363V531.363Z" fill="black"/>
<path d="M256.441 386.372L246.425 376.332L296.833 325.811L296.855 325.831C307.837 314.824 311.437 298.587 305.977 284.69C304.197 280.183 301.531 276.115 298.131 272.719L271.015 299.895L270.994 299.874L220.565 350.415L210.547 340.375L202.628 371.311L194.709 402.247L225.574 394.308L256.441 386.372V386.372Z" fill="black"/>
<path d="M276.179 202.145L286.195 212.184L235.786 262.706L235.765 262.685C224.783 273.693 221.183 289.93 226.644 303.827C228.423 308.334 231.089 312.402 234.489 315.798L261.605 288.622L261.626 288.642L312.054 238.101L322.073 248.142L329.992 217.206L337.911 186.27L307.045 194.208L276.179 202.145V202.145Z" fill="#FFE471" stroke="black" stroke-width="3"/>
<path d="M250.441 380.358L240.425 370.319L290.833 319.797L290.855 319.818C301.837 308.811 305.437 292.573 299.977 278.677C298.197 274.17 295.531 270.102 292.131 266.705L265.015 293.882L264.994 293.861L214.565 344.402L204.547 334.361L196.628 365.297L188.709 396.233L219.574 388.295L250.441 380.358V380.358Z" fill="#FFE471" stroke="black" stroke-width="3"/>
<path d="M122.029 53.7255L124.262 55.9634L113.025 67.2255V67.2204C110.577 69.6741 109.775 73.2937 110.992 76.3915C111.389 77.3962 111.983 78.3029 112.741 79.0601L118.785 73.002V73.007L130.027 61.7407L132.26 63.9789L134.025 57.0828L135.791 50.1868L128.91 51.9563L122.029 53.7255V53.7255Z" fill="black" stroke="black" stroke-width="0.668745"/>
<path d="M117.629 94.7924L115.396 92.5545L126.633 81.2924V81.2974C129.081 78.8438 129.884 75.2241 128.667 72.1264C128.27 71.1217 127.676 70.215 126.918 69.4578L120.873 75.5158V75.5108L109.632 86.7772L107.399 84.539L105.634 91.4351L103.868 98.3312L110.749 96.5616L117.629 94.7924V94.7924Z" fill="black"/>
<path d="M116.292 93.4519L114.059 91.214L125.296 79.9519V79.9569C127.744 77.5032 128.547 73.8836 127.329 70.7859C126.933 69.7812 126.338 68.8744 125.58 68.1172L119.536 74.1753V74.1702L108.294 85.4367L106.061 83.1984L104.296 90.0945L102.531 96.9906L109.411 95.2211L116.292 93.4519H116.292Z" fill="black" stroke="black" stroke-width="0.668745"/>
<path d="M404.59 532.704L402.357 530.466L413.594 519.204V519.209C416.042 516.755 416.845 513.135 415.628 510.038C415.231 509.033 414.637 508.126 413.879 507.369L407.834 513.427V513.422L396.593 524.688L394.36 522.45L392.594 529.346L390.829 536.242L397.709 534.473L404.59 532.704V532.704Z" fill="black" stroke="black" stroke-width="0.668745"/>
<path d="M408.99 491.636L411.223 493.874L399.986 505.136V505.131C397.538 507.585 396.735 511.205 397.952 514.302C398.349 515.307 398.944 516.214 399.701 516.971L405.746 510.913V510.918L416.987 499.652L419.221 501.89L420.986 494.994L422.751 488.098L415.871 489.867L408.99 491.636V491.636Z" fill="black"/>
<path d="M410.328 492.977L412.561 495.215L401.324 506.477V506.472C398.876 508.926 398.073 512.545 399.29 515.643C399.687 516.648 400.281 517.555 401.039 518.312L407.084 512.254V512.259L418.325 500.992L420.558 503.231L422.324 496.335L424.089 489.438L417.209 491.208L410.328 492.977V492.977Z" fill="black" stroke="black" stroke-width="0.668745"/>
</svg>
