<svg width="92" height="92" viewBox="0 0 92 92" fill="none" xmlns="http://www.w3.org/2000/svg">
<path fill-rule="evenodd" clip-rule="evenodd" d="M37.5029 4.17039C37.5037 3.30143 37.2328 2.45396 36.728 1.7466C36.2233 1.03923 35.5101 0.507362 34.6881 0.225418C33.8662 -0.0565249 32.9767 -0.0744317 32.144 0.174204C31.3114 0.42284 30.5773 0.925576 30.0446 1.61206L0.877892 39.1121C0.308914 39.8435 0 40.7437 0 41.6704C0 42.5971 0.308914 43.4973 0.877892 44.2287L30.0446 81.7287C30.5773 82.4152 31.3114 82.918 32.144 83.1666C32.9767 83.4152 33.8662 83.3973 34.6881 83.1154C35.5101 82.8334 36.2233 82.3016 36.728 81.5942C37.2328 80.8868 37.5037 80.0394 37.5029 79.1704V62.5454C59.9154 63.0121 70.6821 67.2662 76.0904 71.8912C81.2321 76.2871 82.1737 81.4579 83.1529 86.8746L83.4071 88.2704C83.594 89.2692 84.1396 90.1652 84.941 90.7899C85.7424 91.4146 86.7445 91.7249 87.7587 91.6625C88.7729 91.6 89.7294 91.1691 90.4481 90.4508C91.1668 89.7324 91.5982 88.7762 91.6612 87.7621C92.3737 76.3121 91.3029 59.7204 83.2154 45.8412C75.3654 32.3704 61.2279 22.0121 37.5029 20.9287V4.17039Z" fill="#FF9B99"/>
</svg>
