<svg width="132" height="162" viewBox="0 0 132 162" fill="none" xmlns="http://www.w3.org/2000/svg">
<path d="M25.0879 8.25475C20.0016 5.10262 13.6093 4.99871 8.4199 7.943C3.23049 10.8873 0 16.4295 0 22.4566V144.385C0 150.412 3.23049 155.954 8.4199 158.899C13.6093 161.843 20.0016 161.704 25.0879 158.587L124.065 97.6226C128.979 94.6091 131.969 89.2401 131.969 83.4208C131.969 77.6015 128.979 72.2671 124.065 69.2189L25.0879 8.25475Z" fill="#202AD0"/>
<path d="M26.7887 2.36625C21.8623 -0.684738 15.6711 -0.78532 10.6449 2.0645C5.61865 4.91432 2.48975 10.2787 2.48975 16.1124V134.129C2.48975 139.962 5.61865 145.327 10.6449 148.177C15.6711 151.026 21.8623 150.892 26.7887 147.875L122.653 88.8667C127.413 85.9499 130.309 80.7531 130.309 75.1205C130.309 69.4879 127.413 64.3247 122.653 61.3743L26.7887 2.36625Z" fill="#F18F07"/>
</svg>
