<svg version="1.2" xmlns="http://www.w3.org/2000/svg" viewBox="0 0 157 162" width="157" height="162">
	<title>button-play-svg</title>
	<style>
		.s0 { fill: #202ad0 } 
		.s1 { fill: #f18f07 } 
		.s2 { fill: #ffffff } 
	</style>
	<path id="Layer" class="s0" d="m80 159c-42 0-76-34-76-76 0-42 34-76 76-76 42 0 76 34 76 76 0 42-34 76-76 76z"/>
	<path id="Layer" class="s1" d="m81 152c-42 0-76-34-76-76 0-42 34-76 76-76 42 0 76 34 76 76 0 42-34 76-76 76z"/>
	<path id="Layer" class="s2" d="m111.1 80.5l-45.3 26.7c-3.9 2.3-8.8-0.5-8.8-5v-53.4c0-4.5 4.9-7.3 8.8-5l45.3 26.7c0.9 0.5 1.6 1.2 2.1 2.1 0.5 0.9 0.8 1.9 0.8 2.9 0 1-0.3 2-0.8 2.9-0.5 0.9-1.2 1.6-2.1 2.1z"/>
</svg>
