<svg width="693" height="249" viewBox="0 0 693 249" fill="none" xmlns="http://www.w3.org/2000/svg">
<rect x="4" y="37" width="689" height="212" rx="100" fill="#B3F3CD"/>
<rect y="10" width="689" height="212" rx="100" fill="#E79600"/>
<path d="M220.44 131.69C220.44 134.03 220.223 135.893 219.79 137.28C219.443 138.667 218.533 139.837 217.06 140.79C215.673 141.657 213.42 142.653 210.3 143.78L217.06 156.26C222.26 154.527 226.333 152.707 229.28 150.8C232.227 148.98 234.307 146.727 235.52 144.04C236.82 141.44 237.47 138.147 237.47 134.16V54.6H220.44V131.69ZM284.133 144.56C277.286 144.56 271.35 143.217 266.323 140.53C261.296 137.843 257.396 134.03 254.623 129.09C251.85 124.063 250.463 118.213 250.463 111.54C250.55 104.78 251.936 98.93 254.623 93.99C257.396 88.9633 261.296 85.1067 266.323 82.42C271.436 79.6467 277.373 78.26 284.133 78.26C291.066 78.26 297.003 79.6033 301.943 82.29C306.97 84.9767 310.87 88.79 313.643 93.73C316.416 98.67 317.803 104.52 317.803 111.28C317.803 117.953 316.416 123.803 313.643 128.83C310.87 133.857 306.97 137.757 301.943 140.53C296.916 143.217 290.98 144.56 284.133 144.56ZM284.263 130.13C287.47 130.13 290.243 129.307 292.583 127.66C295.01 126.013 296.916 123.76 298.303 120.9C299.69 118.04 300.383 114.833 300.383 111.28C300.383 107.64 299.69 104.433 298.303 101.66C296.916 98.8867 295.01 96.72 292.583 95.16C290.156 93.5133 287.34 92.69 284.133 92.69C281.013 92.69 278.196 93.5133 275.683 95.16C273.256 96.8067 271.35 99.06 269.963 101.92C268.576 104.693 267.883 107.9 267.883 111.54C267.883 115.18 268.576 118.387 269.963 121.16C271.35 123.933 273.3 126.143 275.813 127.79C278.326 129.35 281.143 130.13 284.263 130.13ZM386.883 79.95H378.043L369.983 92.3V145.86C369.983 150.02 368.379 153.27 365.173 155.61C362.053 158.037 357.979 159.293 352.953 159.38C349.746 159.293 346.539 158.817 343.333 157.95C340.126 157.083 336.573 155.697 332.673 153.79L327.603 165.75C329.336 166.877 331.373 167.873 333.713 168.74C336.053 169.693 338.479 170.473 340.993 171.08C343.506 171.687 345.846 172.12 348.013 172.38C350.266 172.727 352.043 172.9 353.343 172.9C360.016 172.9 365.866 171.86 370.893 169.78C375.919 167.787 379.819 164.797 382.593 160.81C385.453 156.823 386.883 151.883 386.883 145.99V79.95ZM373.493 121.81C370.459 124.583 367.599 126.663 364.913 128.05C362.313 129.437 359.539 130.13 356.593 130.13C353.559 130.13 350.873 129.35 348.533 127.79C346.279 126.143 344.546 123.933 343.333 121.16C342.206 118.387 341.643 115.223 341.643 111.67C341.643 107.943 342.206 104.693 343.333 101.92C344.546 99.06 346.279 96.8067 348.533 95.16C350.786 93.5133 353.516 92.69 356.723 92.69C359.583 92.69 362.313 93.34 364.913 94.64C367.599 95.8533 370.503 98.15 373.623 101.53L378.303 90.09C377.003 88.0967 375.139 86.19 372.713 84.37C370.373 82.55 367.729 81.0767 364.783 79.95C361.923 78.8233 359.149 78.26 356.463 78.26C349.703 78.26 343.896 79.69 339.043 82.55C334.276 85.3233 330.593 89.2233 327.993 94.25C325.479 99.19 324.223 104.997 324.223 111.67C324.223 118.257 325.479 124.02 327.993 128.96C330.593 133.9 334.276 137.757 339.043 140.53C343.809 143.217 349.443 144.56 355.943 144.56C358.976 144.56 361.793 144.083 364.393 143.13C367.079 142.177 369.593 140.833 371.933 139.1C374.273 137.28 376.396 135.2 378.303 132.86L373.493 121.81ZM414.879 124.15C414.879 121.897 415.659 119.86 417.219 118.04C418.779 116.22 421.033 115.31 423.979 115.31H436.719V124.93C434.553 127.01 432.256 128.57 429.829 129.61C427.489 130.65 425.149 131.17 422.809 131.17C421.249 131.17 419.863 130.867 418.649 130.26C417.523 129.567 416.613 128.7 415.919 127.66C415.226 126.533 414.879 125.363 414.879 124.15ZM408.119 98.02C410.459 96.98 413.363 96.0267 416.829 95.16C420.296 94.2933 423.503 93.86 426.449 93.86C429.569 93.86 431.996 94.77 433.729 96.59C435.549 98.3233 436.503 100.75 436.589 103.87V104H424.239C417.133 104.087 411.369 105.863 406.949 109.33C402.529 112.71 400.319 117.65 400.319 124.15C400.319 130.217 402.183 135.157 405.909 138.97C409.636 142.697 415.356 144.56 423.069 144.56C426.189 144.56 429.136 143.78 431.909 142.22C434.769 140.66 437.369 138.667 439.709 136.24L442.569 143H453.619V101.53C453.619 97.0233 452.363 93.0367 449.849 89.57C447.423 86.0167 444.129 83.2433 439.969 81.25C435.809 79.2567 431.216 78.26 426.189 78.26C424.456 78.26 422.073 78.52 419.039 79.04C416.093 79.56 413.189 80.2533 410.329 81.12C407.469 81.9 405.216 82.8533 403.569 83.98L408.119 98.02ZM484.29 143V104.52C486.717 102.353 489.274 100.447 491.96 98.8C494.734 97.1533 497.377 95.8533 499.89 94.9C502.404 93.9467 504.657 93.47 506.65 93.47L503.27 79.95C501.017 79.95 498.547 80.5133 495.86 81.64C493.26 82.7667 490.704 84.1533 488.19 85.8C485.677 87.36 483.554 88.92 481.82 90.48L476.23 79.95H467.39V143H484.29Z" fill="white"/>
</svg>
