<svg width="132" height="160" viewBox="0 0 132 160" fill="none" xmlns="http://www.w3.org/2000/svg">
<path d="M106.205 8.20249C111.259 5.07031 117.611 4.96705 122.767 7.89271C127.924 10.8184 131.134 16.3255 131.134 22.3145V143.471C131.134 149.46 127.924 154.967 122.767 157.893C117.611 160.819 111.259 160.681 106.205 157.583L7.85413 97.0049C2.97076 94.0104 -0.000247955 88.6754 -0.000247955 82.8929C-0.000247955 77.1104 2.97076 71.8098 7.85413 68.7809L106.205 8.20249Z" fill="#202AD0"/>
<path d="M104.514 2.35128C109.41 -0.680405 115.562 -0.780351 120.556 2.05144C125.551 4.88323 128.66 10.2137 128.66 16.0105V133.28C128.66 139.077 125.551 144.407 120.556 147.239C115.562 150.071 109.41 149.937 104.514 146.939L9.25674 88.3044C4.52693 85.406 1.64935 80.2421 1.64935 74.6452C1.64935 69.0482 4.52693 63.9177 9.25674 60.986L104.514 2.35128Z" fill="#F18F07"/>
</svg>
