<svg width="693" height="261" viewBox="0 0 693 261" fill="none" xmlns="http://www.w3.org/2000/svg">
<rect x="4" y="49" width="689" height="212" rx="100" fill="#E48B00"/>
<rect y="22" width="689" height="212" rx="100" fill="#202AD0"/>
<path d="M193.2 151.95C193.2 154.65 192.95 156.8 192.45 158.4C192.05 160 191 161.35 189.3 162.45C187.7 163.45 185.1 164.6 181.5 165.9L189.3 180.3C195.3 178.3 200 176.2 203.4 174C206.8 171.9 209.2 169.3 210.6 166.2C212.1 163.2 212.85 159.4 212.85 154.8V63H193.2V151.95ZM266.692 166.8C258.792 166.8 251.942 165.25 246.142 162.15C240.342 159.05 235.842 154.65 232.642 148.95C229.442 143.15 227.842 136.4 227.842 128.7C227.942 120.9 229.542 114.15 232.642 108.45C235.842 102.65 240.342 98.2 246.142 95.1C252.042 91.9 258.892 90.3 266.692 90.3C274.692 90.3 281.542 91.85 287.242 94.95C293.042 98.05 297.542 102.45 300.742 108.15C303.942 113.85 305.542 120.6 305.542 128.4C305.542 136.1 303.942 142.85 300.742 148.65C297.542 154.45 293.042 158.95 287.242 162.15C281.442 165.25 274.592 166.8 266.692 166.8ZM266.842 150.15C270.542 150.15 273.742 149.2 276.442 147.3C279.242 145.4 281.442 142.8 283.042 139.5C284.642 136.2 285.442 132.5 285.442 128.4C285.442 124.2 284.642 120.5 283.042 117.3C281.442 114.1 279.242 111.6 276.442 109.8C273.642 107.9 270.392 106.95 266.692 106.95C263.092 106.95 259.842 107.9 256.942 109.8C254.142 111.7 251.942 114.3 250.342 117.6C248.742 120.8 247.942 124.5 247.942 128.7C247.942 132.9 248.742 136.6 250.342 139.8C251.942 143 254.192 145.55 257.092 147.45C259.992 149.25 263.242 150.15 266.842 150.15ZM385.249 92.25H375.049L365.749 106.5V168.3C365.749 173.1 363.899 176.85 360.199 179.55C356.599 182.35 351.899 183.8 346.099 183.9C342.399 183.8 338.699 183.25 334.999 182.25C331.299 181.25 327.199 179.65 322.699 177.45L316.849 191.25C318.849 192.55 321.199 193.7 323.899 194.7C326.599 195.8 329.399 196.7 332.299 197.4C335.199 198.1 337.899 198.6 340.399 198.9C342.999 199.3 345.049 199.5 346.549 199.5C354.249 199.5 360.999 198.3 366.799 195.9C372.599 193.6 377.099 190.15 380.299 185.55C383.599 180.95 385.249 175.25 385.249 168.45V92.25ZM369.799 140.55C366.299 143.75 362.999 146.15 359.899 147.75C356.899 149.35 353.699 150.15 350.299 150.15C346.799 150.15 343.699 149.25 340.999 147.45C338.399 145.55 336.399 143 334.999 139.8C333.699 136.6 333.049 132.95 333.049 128.85C333.049 124.55 333.699 120.8 334.999 117.6C336.399 114.3 338.399 111.7 340.999 109.8C343.599 107.9 346.749 106.95 350.449 106.95C353.749 106.95 356.899 107.7 359.899 109.2C362.999 110.6 366.349 113.25 369.949 117.15L375.349 103.95C373.849 101.65 371.699 99.45 368.899 97.35C366.199 95.25 363.149 93.55 359.749 92.25C356.449 90.95 353.249 90.3 350.149 90.3C342.349 90.3 335.649 91.95 330.049 95.25C324.549 98.45 320.299 102.95 317.299 108.75C314.399 114.45 312.949 121.15 312.949 128.85C312.949 136.45 314.399 143.1 317.299 148.8C320.299 154.5 324.549 158.95 330.049 162.15C335.549 165.25 342.049 166.8 349.549 166.8C353.049 166.8 356.299 166.25 359.299 165.15C362.399 164.05 365.299 162.5 367.999 160.5C370.699 158.4 373.149 156 375.349 153.3L369.799 140.55ZM417.553 143.25C417.553 140.65 418.453 138.3 420.253 136.2C422.053 134.1 424.653 133.05 428.053 133.05H442.753V144.15C440.253 146.55 437.603 148.35 434.803 149.55C432.103 150.75 429.403 151.35 426.703 151.35C424.903 151.35 423.303 151 421.903 150.3C420.603 149.5 419.553 148.5 418.753 147.3C417.953 146 417.553 144.65 417.553 143.25ZM409.753 113.1C412.453 111.9 415.803 110.8 419.803 109.8C423.803 108.8 427.503 108.3 430.903 108.3C434.503 108.3 437.303 109.35 439.303 111.45C441.403 113.45 442.503 116.25 442.603 119.85V120H428.353C420.153 120.1 413.503 122.15 408.403 126.15C403.303 130.05 400.753 135.75 400.753 143.25C400.753 150.25 402.903 155.95 407.203 160.35C411.503 164.65 418.103 166.8 427.003 166.8C430.603 166.8 434.003 165.9 437.203 164.1C440.503 162.3 443.503 160 446.203 157.2L449.503 165H462.253V117.15C462.253 111.95 460.803 107.35 457.903 103.35C455.103 99.25 451.303 96.05 446.503 93.75C441.703 91.45 436.403 90.3 430.603 90.3C428.603 90.3 425.853 90.6 422.353 91.2C418.953 91.8 415.603 92.6 412.303 93.6C409.003 94.5 406.403 95.6 404.503 96.9L409.753 113.1ZM497.643 165V120.6C500.443 118.1 503.393 115.9 506.493 114C509.693 112.1 512.743 110.6 515.643 109.5C518.543 108.4 521.143 107.85 523.443 107.85L519.543 92.25C516.943 92.25 514.093 92.9 510.993 94.2C507.993 95.5 505.043 97.1 502.143 99C499.243 100.8 496.793 102.6 494.793 104.4L488.343 92.25H478.143V165H497.643Z" fill="white"/>
</svg>
