<svg width="20" height="20" viewBox="0 0 20 20" fill="none" xmlns="http://www.w3.org/2000/svg">
<g clip-path="url(#clip0_319_814)">
<path d="M9.9999 0.399902C7.45382 0.399902 5.01203 1.41133 3.21168 3.21168C1.41133 5.01203 0.399902 7.45382 0.399902 9.9999C0.399968 11.2606 0.648344 12.5089 1.13085 13.6736C1.61336 14.8383 2.32054 15.8966 3.21203 16.788C4.10352 17.6794 5.16185 18.3865 6.3266 18.8688C7.49135 19.3512 8.73971 19.5995 10.0004 19.5994C11.2611 19.5993 12.5094 19.351 13.6741 18.8685C14.8388 18.386 15.8971 17.6788 16.7885 16.7873C17.6799 15.8958 18.387 14.8375 18.8693 13.6727C19.3517 12.508 19.6 11.2596 19.5999 9.9989C19.5999 4.6979 15.3009 0.399902 9.9999 0.399902ZM9.8489 15.5989H9.7979C9.0159 15.5759 8.4639 14.9989 8.4869 14.2279C8.5089 13.4699 9.0739 12.9189 9.8299 12.9189L9.8759 12.9209C10.6799 12.9439 11.2259 13.5149 11.2029 14.3079C11.1799 15.0679 10.6249 15.5989 9.8489 15.5989V15.5989ZM13.1399 9.0679C12.9559 9.3279 12.5519 9.6539 12.0419 10.0509L11.4799 10.4379C11.1719 10.6779 10.9859 10.9049 10.9169 11.1259C10.8609 11.2999 10.8349 11.3469 10.8299 11.7019V11.7919H8.6849L8.6909 11.6099C8.7179 10.8659 8.7359 10.4259 9.0449 10.0629C9.5299 9.4949 10.5999 8.8049 10.6449 8.7759C10.7917 8.66866 10.9198 8.5379 11.0239 8.3889C11.2489 8.0779 11.3479 7.8339 11.3479 7.5959C11.3479 7.2619 11.2499 6.9529 11.0549 6.6799C10.8669 6.4139 10.5099 6.2819 9.9939 6.2819C9.4819 6.2819 9.1309 6.4439 8.9219 6.7779C8.7059 7.1189 8.5969 7.4779 8.5969 7.8449V7.9369H6.3859L6.3899 7.8409C6.4469 6.4879 6.9309 5.5129 7.8249 4.9439C8.3879 4.5829 9.0889 4.3999 9.9059 4.3999C10.9739 4.3999 11.8779 4.6599 12.5879 5.1719C13.3089 5.6909 13.6739 6.4689 13.6739 7.4829C13.6729 8.0499 13.4939 8.5829 13.1399 9.0679V9.0679Z" fill="#E99F00"/>
</g>
<defs>
<clipPath id="clip0_319_814">
<rect width="20" height="20" fill="white"/>
</clipPath>
</defs>
</svg>
