<svg width="226" height="214" viewBox="0 0 226 214" fill="none" xmlns="http://www.w3.org/2000/svg">
<path d="M0 30C0 13.4315 13.4315 0 30 0H196C212.569 0 226 13.4315 226 30V184C226 200.569 212.569 214 196 214H30C13.4315 214 0 200.569 0 184V30Z" fill="#FFE471"/>
<path d="M33 41C33 35.4771 37.4772 31 43 31H83C88.5228 31 93 35.4772 93 41V77.8142C93 83.337 88.5228 87.8142 83 87.8142H43C37.4772 87.8142 33 83.337 33 77.8142V41Z" fill="#FF9B99"/>
<path d="M139 41C139 35.4771 143.477 31 149 31H189C194.523 31 199 35.4772 199 41V77.8142C199 83.337 194.523 87.8142 189 87.8142H149C143.477 87.8142 139 83.337 139 77.8142V41Z" fill="#FF9B99"/>
<path d="M33 123C33 117.477 37.4772 113 43 113H83C88.5228 113 93 117.477 93 123V159.814C93 165.337 88.5228 169.814 83 169.814H43C37.4772 169.814 33 165.337 33 159.814V123Z" fill="#FF9B99"/>
<path d="M139 123C139 117.477 143.477 113 149 113H189C194.523 113 199 117.477 199 123V159.814C199 165.337 194.523 169.814 189 169.814H149C143.477 169.814 139 165.337 139 159.814V123Z" fill="#FF9B99"/>
</svg>
