<svg width="527" height="587" viewBox="0 0 527 587" fill="none" xmlns="http://www.w3.org/2000/svg">
<path d="M442.51 0H84.1104C69.9719 0 58.5105 11.4872 58.5105 25.6573V560.771C58.5105 574.941 69.9719 586.429 84.1104 586.429H442.51C456.649 586.429 468.11 574.941 468.11 560.771V25.6573C468.11 11.4872 456.649 0 442.51 0Z" fill="white"/>
<path d="M109.71 36.6519H416.91C431.048 36.6519 442.51 48.139 442.51 62.3091V524.12C442.51 538.29 431.048 549.777 416.91 549.777H109.71C95.5715 549.777 84.1101 538.29 84.1101 524.12V62.3091C84.1101 48.139 95.5715 36.6519 109.71 36.6519Z" fill="#1D1DD5"/>
<path d="M100.57 456.319C156.113 511.986 274.001 484.089 363.88 394.01C453.759 303.93 481.593 185.778 426.05 130.111C370.506 74.4434 252.619 102.34 162.74 192.42C72.8611 282.499 45.0268 400.651 100.57 456.319Z" fill="white"/>
<path d="M254.802 295.885C251.928 295.885 248.996 298.204 248.226 301.084L219.235 409.52C218.465 412.4 220.158 414.719 223.032 414.719H295.657C298.531 414.719 301.465 412.4 302.235 409.52L331.226 301.084C331.996 298.204 330.301 295.885 327.427 295.885H254.802V295.885Z" fill="black"/>
<path d="M197.304 245.824C194.43 245.824 191.496 248.143 190.725 251.024L161.735 359.459C160.965 362.339 162.66 364.658 165.534 364.658H238.159C241.033 364.658 243.967 362.339 244.737 359.459L273.725 251.024C274.496 248.143 272.802 245.824 269.929 245.824H197.304V245.824Z" fill="black"/>
<path d="M321.427 289.872H248.802C245.937 289.872 242.992 292.2 242.225 295.071L213.235 403.505C212.467 406.377 214.167 408.705 217.032 408.705H289.657C292.522 408.705 295.467 406.377 296.235 403.505L325.225 295.071C325.992 292.2 324.292 289.872 321.427 289.872Z" fill="white" stroke="black" stroke-width="1.37669"/>
<path d="M300.462 233.798C297.589 233.798 294.654 236.116 293.884 238.997L264.894 347.432C264.124 350.312 265.817 352.631 268.691 352.631H341.318C344.192 352.631 347.124 350.312 347.894 347.432L376.884 238.997C377.654 236.116 375.961 233.798 373.087 233.798H300.462Z" fill="black"/>
<path d="M242.962 183.739C240.088 183.739 237.156 186.057 236.386 188.938L207.396 297.371C206.625 300.251 208.318 302.57 211.192 302.57H283.817C286.691 302.57 289.625 300.251 290.396 297.371L319.386 188.938C320.156 186.057 318.461 183.739 315.587 183.739H242.962Z" fill="black"/>
<path d="M252.004 297.299H314.254C317.119 297.299 318.819 299.627 318.052 302.498L293.033 396.078C292.265 398.95 289.32 401.277 286.455 401.277H224.205C221.34 401.277 219.64 398.95 220.408 396.078L245.426 302.498C246.194 299.627 249.139 297.299 252.004 297.299Z" fill="#FFE471"/>
<path d="M367.086 227.785H294.461C291.596 227.785 288.651 230.113 287.884 232.984L258.894 341.418C258.126 344.29 259.826 346.617 262.691 346.617H335.316C338.181 346.617 341.126 344.29 341.894 341.418L370.884 232.984C371.652 230.113 369.951 227.785 367.086 227.785Z" fill="white" stroke="black" stroke-width="1.37669"/>
<path d="M297.663 235.212H359.913C362.778 235.212 364.479 237.54 363.711 240.411L338.692 333.991C337.924 336.862 334.98 339.19 332.115 339.19H269.864C266.999 339.19 265.299 336.862 266.067 333.991L291.086 240.411C291.853 237.54 294.798 235.212 297.663 235.212Z" fill="#68E89B"/>
<path d="M309.588 177.725H236.963C234.098 177.725 231.153 180.053 230.385 182.924L201.395 291.358C200.627 294.229 202.328 296.557 205.193 296.557H277.818C280.683 296.557 283.628 294.229 284.395 291.358L313.385 182.924C314.153 180.053 312.453 177.725 309.588 177.725Z" fill="white" stroke="black" stroke-width="1.37669"/>
<path d="M240.165 185.152H302.415C305.28 185.152 306.98 187.48 306.213 190.351L281.194 283.931C280.426 286.803 277.482 289.13 274.617 289.13H212.366C209.501 289.13 207.801 286.803 208.569 283.931L233.588 190.351C234.355 187.48 237.3 185.152 240.165 185.152Z" fill="#7DF6ED"/>
<path d="M263.929 239.812H191.303C188.438 239.812 185.494 242.14 184.726 245.011L155.736 353.445C154.968 356.317 156.669 358.644 159.533 358.644H232.159C235.024 358.644 237.969 356.317 238.736 353.445L267.726 245.011C268.494 242.14 266.794 239.812 263.929 239.812Z" fill="white" stroke="black" stroke-width="1.37669"/>
<path d="M194.506 247.239H256.756C259.621 247.239 261.321 249.567 260.554 252.438L235.535 346.018C234.767 348.89 231.822 351.217 228.957 351.217H166.707C163.842 351.217 162.142 348.89 162.91 346.018L187.928 252.438C188.696 249.567 191.641 247.239 194.506 247.239Z" fill="#FF9B99"/>
<path d="M106.504 84.8552V54.284H111.692V84.8552H106.504ZM93.8126 72.1635V66.9757H124.384V72.1635H93.8126ZM134.395 83.4656V78.741L155.239 45.7611H158.667V53.0796H156.351L140.602 77.9999V78.3704H168.672V83.4656H134.395ZM156.721 93.1929V82.0297V79.8295V45.7611H162.187V93.1929H156.721Z" fill="white"/>
<path d="M106.504 84.8552H106.113V85.2466H106.504V84.8552ZM106.504 54.284V53.8926H106.113V54.284H106.504ZM111.692 54.284H112.083V53.8926H111.692V54.284ZM111.692 84.8552V85.2466H112.083V84.8552H111.692ZM93.8126 72.1635H93.4213V72.5548H93.8126V72.1635ZM93.8126 66.9757V66.5844H93.4213V66.9757H93.8126ZM124.384 66.9757H124.775V66.5844H124.384V66.9757ZM124.384 72.1635V72.5548H124.775V72.1635H124.384ZM106.896 84.8552V54.284H106.113V84.8552H106.896ZM106.504 54.6753H111.692V53.8926H106.504V54.6753ZM111.301 54.284V84.8552H112.083V54.284H111.301ZM111.692 84.4639H106.504V85.2466H111.692V84.4639ZM94.2039 72.1635V66.9757H93.4213V72.1635H94.2039ZM93.8126 67.367H124.384V66.5844H93.8126V67.367ZM123.993 66.9757V72.1635H124.775V66.9757H123.993ZM124.384 71.7722H93.8126V72.5548H124.384V71.7722ZM134.395 83.4656H134.004V83.857H134.395V83.4656ZM134.395 78.741L134.064 78.5319L134.004 78.6277V78.741H134.395ZM155.239 45.7611V45.3697H155.023L154.908 45.552L155.239 45.7611ZM158.667 45.7611H159.058V45.3697H158.667V45.7611ZM158.667 53.0796V53.4709H159.058V53.0796H158.667ZM156.351 53.0796V52.6883H156.135L156.02 52.8706L156.351 53.0796ZM140.602 77.9999L140.271 77.7908L140.21 77.8866V77.9999H140.602ZM140.602 78.3704H140.21V78.7617H140.602V78.3704ZM168.672 78.3704H169.063V77.9791H168.672V78.3704ZM168.672 83.4656V83.857H169.063V83.4656H168.672ZM156.721 93.1929H156.33V93.5842H156.721V93.1929ZM156.721 45.7611V45.3697H156.33V45.7611H156.721ZM162.187 45.7611H162.578V45.3697H162.187V45.7611ZM162.187 93.1929V93.5842H162.578V93.1929H162.187ZM134.786 83.4656V78.741H134.004V83.4656H134.786ZM134.726 78.9501L155.57 45.9701L154.908 45.552L134.064 78.5319L134.726 78.9501ZM155.239 46.1524H158.667V45.3697H155.239V46.1524ZM158.275 45.7611V53.0796H159.058V45.7611H158.275ZM158.667 52.6883H156.351V53.4709H158.667V52.6883ZM156.02 52.8706L140.271 77.7908L140.933 78.2089L156.681 53.2887L156.02 52.8706ZM140.21 77.9999V78.3704H140.993V77.9999H140.21ZM140.602 78.7617H168.672V77.9791H140.602V78.7617ZM168.28 78.3704V83.4656H169.063V78.3704H168.28ZM168.672 83.0743H134.395V83.857H168.672V83.0743ZM157.112 93.1929V82.0297H156.33V93.1929H157.112ZM157.112 82.0297V79.8295H156.33V82.0297H157.112ZM157.112 79.8295V45.7611H156.33V79.8295H157.112ZM156.721 46.1524H162.187V45.3697H156.721V46.1524ZM161.796 45.7611V93.1929H162.578V45.7611H161.796ZM162.187 92.8016H156.721V93.5842H162.187V92.8016Z" fill="black"/>
<path d="M420.116 501.574V532.145H414.928V501.574H420.116ZM432.808 514.265V519.453H402.237V514.265H432.808ZM392.226 502.963V507.688L371.382 540.668H367.954V533.349H370.27L386.019 508.429V508.058H357.949V502.963H392.226ZM369.899 493.236V504.399V506.599V540.668H364.434V493.236H369.899Z" fill="white"/>
<path d="M420.116 501.574H420.508V501.182H420.116V501.574ZM420.116 532.145V532.536H420.508V532.145H420.116ZM414.928 532.145H414.537V532.536H414.928V532.145ZM414.928 501.574V501.182H414.537V501.574H414.928ZM432.808 514.265H433.199V513.874H432.808V514.265ZM432.808 519.453V519.844H433.199V519.453H432.808ZM402.237 519.453H401.845V519.844H402.237V519.453ZM402.237 514.265V513.874H401.845V514.265H402.237ZM419.725 501.574V532.145H420.508V501.574H419.725ZM420.116 531.754H414.928V532.536H420.116V531.754ZM415.32 532.145V501.574H414.537V532.145H415.32ZM414.928 501.965H420.116V501.182H414.928V501.965ZM432.417 514.265V519.453H433.199V514.265H432.417ZM432.808 519.062H402.237V519.844H432.808V519.062ZM402.628 519.453V514.265H401.845V519.453H402.628ZM402.237 514.657H432.808V513.874H402.237V514.657ZM392.226 502.963H392.617V502.572H392.226V502.963ZM392.226 507.688L392.557 507.897L392.617 507.801V507.688H392.226ZM371.382 540.668V541.059H371.597L371.712 540.877L371.382 540.668ZM367.954 540.668H367.563V541.059H367.954V540.668ZM367.954 533.349V532.958H367.563V533.349H367.954ZM370.27 533.349V533.741H370.486L370.601 533.558L370.27 533.349ZM386.019 508.429L386.35 508.638L386.41 508.542V508.429H386.019ZM386.019 508.058H386.41V507.667H386.019V508.058ZM357.949 508.058H357.558V508.45H357.949V508.058ZM357.949 502.963V502.572H357.558V502.963H357.949ZM369.899 493.236H370.291V492.845H369.899V493.236ZM369.899 540.668V541.059H370.291V540.668H369.899ZM364.434 540.668H364.042V541.059H364.434V540.668ZM364.434 493.236V492.845H364.042V493.236H364.434ZM391.834 502.963V507.688H392.617V502.963H391.834ZM391.895 507.479L371.051 540.459L371.712 540.877L392.557 507.897L391.895 507.479ZM371.382 540.276H367.954V541.059H371.382V540.276ZM368.345 540.668V533.349H367.563V540.668H368.345ZM367.954 533.741H370.27V532.958H367.954V533.741ZM370.601 533.558L386.35 508.638L385.688 508.22L369.939 533.14L370.601 533.558ZM386.41 508.429V508.058H385.628V508.429H386.41ZM386.019 507.667H357.949V508.45H386.019V507.667ZM358.34 508.058V502.963H357.558V508.058H358.34ZM357.949 503.355H392.226V502.572H357.949V503.355ZM369.508 493.236V504.399H370.291V493.236H369.508ZM369.508 504.399V506.599H370.291V504.399H369.508ZM369.508 506.599V540.668H370.291V506.599H369.508ZM369.899 540.276H364.434V541.059H369.899V540.276ZM364.825 540.668V493.236H364.042V540.668H364.825ZM364.434 493.627H369.899V492.845H364.434V493.627Z" fill="black"/>
</svg>
