<svg width="527" height="587" viewBox="0 0 527 587" fill="none" xmlns="http://www.w3.org/2000/svg">
<path d="M442.51 0H84.1099C69.9714 0 58.51 11.4872 58.51 25.6573V560.771C58.51 574.941 69.9714 586.429 84.1099 586.429H442.51C456.648 586.429 468.11 574.941 468.11 560.771V25.6573C468.11 11.4872 456.648 0 442.51 0Z" fill="white"/>
<path d="M109.71 36.6519H416.91C431.048 36.6519 442.51 48.1389 442.51 62.309V524.119C442.51 538.29 431.048 549.777 416.91 549.777H109.71C95.5715 549.777 84.1099 538.29 84.1099 524.119V62.309C84.1099 48.1389 95.5715 36.6519 109.71 36.6519Z" fill="#D40000"/>
<path d="M122.121 45.1126C124.067 45.128 126.012 45.4986 127.957 46.2243C129.903 46.9499 131.679 48.1543 133.284 49.8372C134.89 51.5047 136.179 53.7822 137.152 56.6694C138.125 59.5567 138.611 63.1774 138.611 67.5315C138.611 71.7466 138.21 75.4909 137.407 78.7641C136.619 82.022 135.477 84.7703 133.979 87.0091C132.497 89.2479 130.69 90.9463 128.56 92.1043C126.444 93.2624 124.051 93.8414 121.38 93.8414C118.724 93.8414 116.354 93.3164 114.27 92.2665C112.201 91.2011 110.503 89.7266 109.175 87.8429C107.862 85.9438 107.021 83.7436 106.65 81.2423H112.301C112.811 83.4193 113.822 85.2181 115.335 86.6386C116.864 88.0436 118.879 88.7461 121.38 88.7461C125.039 88.7461 127.927 87.1481 130.042 83.952C132.173 80.7559 133.238 76.2397 133.238 70.4034H132.867C132.003 71.7003 130.976 72.8197 129.787 73.7616C128.598 74.7034 127.278 75.4291 125.827 75.9386C124.375 76.4481 122.831 76.7029 121.195 76.7029C118.477 76.7029 115.984 76.0313 113.714 74.688C111.46 73.3293 109.653 71.4687 108.295 69.1064C106.951 66.7286 106.28 64.0112 106.28 60.9541C106.28 58.0513 106.928 55.3956 108.225 52.987C109.538 50.5629 111.375 48.6329 113.737 47.197C116.115 45.7611 118.91 45.0663 122.121 45.1126ZM122.121 50.2078C120.176 50.2078 118.423 50.6941 116.864 51.6669C115.32 52.6242 114.092 53.9211 113.181 55.5578C112.286 57.179 111.838 58.9777 111.838 60.9541C111.838 62.9304 112.27 64.7291 113.135 66.3504C114.015 67.9561 115.212 69.2376 116.725 70.1949C118.253 71.1368 119.99 71.6077 121.936 71.6077C123.403 71.6077 124.769 71.322 126.035 70.7508C127.301 70.164 128.405 69.3689 129.347 68.3653C130.304 67.3462 131.053 66.196 131.594 64.9144C132.134 63.6175 132.404 62.2665 132.404 60.8614C132.404 59.0086 131.956 57.2716 131.061 55.6504C130.181 54.0292 128.961 52.7168 127.402 51.7132C125.858 50.7096 124.097 50.2078 122.121 50.2078Z" fill="white"/>
<path d="M122.121 45.1126L122.115 45.5038L122.118 45.5039L122.121 45.1126ZM127.957 46.2243L128.094 45.8576L128.094 45.8576L127.957 46.2243ZM133.284 49.8372L133.001 50.1074L133.002 50.1087L133.284 49.8372ZM137.152 56.6694L136.781 56.7944L137.152 56.6694ZM137.407 78.7641L137.027 78.6709L137.026 78.6722L137.407 78.7641ZM133.979 87.0091L133.654 86.7916L133.653 86.7931L133.979 87.0091ZM128.56 92.1043L128.373 91.7605L128.372 91.7611L128.56 92.1043ZM114.27 92.2665L114.091 92.6144L114.094 92.6159L114.27 92.2665ZM109.175 87.8429L108.853 88.0654L108.855 88.0684L109.175 87.8429ZM106.65 81.2423V80.851H106.197L106.263 81.2996L106.65 81.2423ZM112.301 81.2423L112.682 81.1531L112.612 80.851H112.301V81.2423ZM115.335 86.6386L115.067 86.9239L115.07 86.9267L115.335 86.6386ZM130.042 83.952L129.716 83.7349L129.716 83.736L130.042 83.952ZM133.238 70.4034H133.629V70.0121H133.238V70.4034ZM132.867 70.4034V70.0121H132.658L132.542 70.1863L132.867 70.4034ZM113.714 74.688L113.512 75.0231L113.515 75.0247L113.714 74.688ZM108.295 69.1064L107.954 69.2989L107.955 69.3015L108.295 69.1064ZM108.225 52.987L107.881 52.8007L107.881 52.8015L108.225 52.987ZM113.737 47.197L113.535 46.862L113.534 46.8626L113.737 47.197ZM116.864 51.6669L117.07 51.9994L117.071 51.9989L116.864 51.6669ZM113.181 55.5578L112.839 55.3674L112.839 55.3686L113.181 55.5578ZM113.135 66.3504L112.79 66.5345L112.792 66.5384L113.135 66.3504ZM116.725 70.1949L116.516 70.5256L116.52 70.5281L116.725 70.1949ZM126.035 70.7508L126.196 71.1075L126.2 71.1058L126.035 70.7508ZM129.347 68.3653L129.062 68.0974L129.062 68.0975L129.347 68.3653ZM131.594 64.9144L131.954 65.0665L131.955 65.0649L131.594 64.9144ZM131.061 55.6504L130.717 55.8371L130.718 55.8396L131.061 55.6504ZM127.402 51.7132L127.188 52.0413L127.19 52.0422L127.402 51.7132ZM122.118 45.5039C124.015 45.5189 125.915 45.8801 127.821 46.5909L128.094 45.8576C126.109 45.1171 124.118 44.7371 122.124 44.7213L122.118 45.5039ZM127.821 46.5909C129.704 47.2935 131.431 48.462 133.001 50.1074L133.567 49.5671C131.926 47.8465 130.101 46.6064 128.094 45.8576L127.821 46.5909ZM133.002 50.1087C134.557 51.7235 135.821 53.9453 136.781 56.7944L137.523 56.5445C136.537 53.619 135.223 51.286 133.566 49.5658L133.002 50.1087ZM136.781 56.7944C137.736 59.6282 138.22 63.2032 138.22 67.5315H139.002C139.002 63.1516 138.514 59.4853 137.523 56.5445L136.781 56.7944ZM138.22 67.5315C138.22 71.7227 137.821 75.4346 137.027 78.6709L137.787 78.8574C138.599 75.5471 139.002 71.7706 139.002 67.5315H138.22ZM137.026 78.6722C136.247 81.8958 135.121 84.5991 133.654 86.7916L134.304 87.2267C135.833 84.9415 136.991 82.1482 137.787 78.8561L137.026 78.6722ZM133.653 86.7931C132.202 88.9844 130.441 90.6363 128.373 91.7605L128.746 92.4482C130.939 91.2564 132.792 89.5115 134.305 87.2252L133.653 86.7931ZM128.372 91.7611C126.32 92.8843 123.993 93.45 121.38 93.45V94.2327C124.11 94.2327 126.569 93.6404 128.748 92.4476L128.372 91.7611ZM121.38 93.45C118.777 93.45 116.469 92.9358 114.446 91.917L114.094 92.6159C116.24 93.697 118.672 94.2327 121.38 94.2327V93.45ZM114.449 91.9186C112.436 90.8818 110.786 89.449 109.494 87.6174L108.855 88.0684C110.219 90.0041 111.966 91.5204 114.091 92.6144L114.449 91.9186ZM109.497 87.6204C108.221 85.7752 107.4 83.6327 107.037 81.1849L106.263 81.2996C106.642 83.8545 107.503 86.1124 108.853 88.0654L109.497 87.6204ZM106.65 81.6336H112.301V80.851H106.65V81.6336ZM111.92 81.3315C112.446 83.5775 113.494 85.4465 115.067 86.9239L115.603 86.3533C114.151 84.9897 113.176 83.2611 112.682 81.1531L111.92 81.3315ZM115.07 86.9267C116.685 88.4112 118.802 89.1374 121.38 89.1374V88.3548C118.956 88.3548 117.042 87.6761 115.6 86.3505L115.07 86.9267ZM121.38 89.1374C125.178 89.1374 128.185 87.4673 130.368 84.168L129.716 83.736C127.669 86.8288 124.901 88.3548 121.38 88.3548V89.1374ZM130.367 84.1691C132.558 80.8833 133.629 76.2795 133.629 70.4034H132.847C132.847 76.1999 131.787 80.6285 129.716 83.7349L130.367 84.1691ZM133.238 70.0121H132.867V70.7947H133.238V70.0121ZM132.542 70.1863C131.699 71.4502 130.7 72.5391 129.544 73.4548L130.03 74.0683C131.252 73.1004 132.306 71.9505 133.193 70.6204L132.542 70.1863ZM129.544 73.4548C128.39 74.3693 127.108 75.0741 125.697 75.5694L125.956 76.3078C127.448 75.7841 128.807 75.0375 130.03 74.0683L129.544 73.4548ZM125.697 75.5694C124.29 76.0634 122.79 76.3116 121.195 76.3116V77.0942C122.873 77.0942 124.461 76.8329 125.956 76.3078L125.697 75.5694ZM121.195 76.3116C118.545 76.3116 116.121 75.6577 113.913 74.3512L113.515 75.0247C115.847 76.4048 118.409 77.0942 121.195 77.0942V76.3116ZM113.916 74.3528C111.721 73.0296 109.961 71.2182 108.634 68.9113L107.955 69.3015C109.346 71.7193 111.199 73.6289 113.512 75.0231L113.916 74.3528ZM108.635 68.9139C107.329 66.6016 106.671 63.952 106.671 60.9541H105.888C105.888 64.0704 106.574 66.8556 107.954 69.2989L108.635 68.9139ZM106.671 60.9541C106.671 58.112 107.305 55.5207 108.57 53.1725L107.881 52.8015C106.551 55.2706 105.888 57.9907 105.888 60.9541H106.671ZM108.569 53.1733C109.849 50.8104 111.637 48.9314 113.94 47.5314L113.534 46.8626C111.113 48.3344 109.226 50.3155 107.881 52.8007L108.569 53.1733ZM113.939 47.5319C116.245 46.1395 118.966 45.4584 122.115 45.5038L122.127 44.7213C118.854 44.6741 115.985 45.3826 113.535 46.862L113.939 47.5319ZM122.121 49.8165C120.107 49.8165 118.282 50.3211 116.657 51.3349L117.071 51.9989C118.565 51.0672 120.244 50.5991 122.121 50.5991V49.8165ZM116.658 51.3343C115.055 52.3278 113.782 53.6745 112.839 55.3674L113.523 55.7481C114.403 54.1677 115.584 52.9205 117.07 51.9994L116.658 51.3343ZM112.839 55.3686C111.909 57.0516 111.447 58.9161 111.447 60.9541H112.229C112.229 59.0393 112.663 57.3064 113.524 55.747L112.839 55.3686ZM111.447 60.9541C111.447 62.9896 111.893 64.8524 112.79 66.5345L113.48 66.1662C112.648 64.6059 112.229 62.8711 112.229 60.9541H111.447ZM112.792 66.5384C113.703 68.2009 114.945 69.5321 116.516 70.5256L116.934 69.8642C115.478 68.9432 114.327 67.7113 113.478 66.1623L112.792 66.5384ZM116.52 70.5281C118.115 71.5111 119.924 71.999 121.936 71.999V71.2164C120.057 71.2164 118.392 70.7624 116.93 69.8618L116.52 70.5281ZM121.936 71.999C123.455 71.999 124.877 71.7028 126.196 71.1074L125.874 70.3941C124.662 70.9413 123.35 71.2164 121.936 71.2164V71.999ZM126.2 71.1058C127.511 70.4983 128.656 69.6737 129.632 68.6331L129.062 68.0975C128.155 69.064 127.092 69.8298 125.871 70.3957L126.2 71.1058ZM129.632 68.6332C130.621 67.5805 131.396 66.391 131.954 65.0665L131.233 64.7624C130.711 66.0009 129.988 67.112 129.062 68.0974L129.632 68.6332ZM131.955 65.0649C132.515 63.7203 132.796 62.3181 132.796 60.8614H132.013C132.013 62.2148 131.753 63.5146 131.232 64.7639L131.955 65.0649ZM132.796 60.8614C132.796 58.9425 132.331 57.1404 131.403 55.4612L130.718 55.8396C131.582 57.4029 132.013 59.0748 132.013 60.8614H132.796ZM131.405 55.4637C130.493 53.7844 129.228 52.4231 127.613 51.3841L127.19 52.0422C128.694 53.0105 129.868 54.274 130.717 55.8371L131.405 55.4637ZM127.615 51.3851C126.003 50.3372 124.167 49.8165 122.121 49.8165V50.5991C124.028 50.5991 125.713 51.082 127.188 52.0413L127.615 51.3851Z" fill="black"/>
<path d="M109.71 36.6519H416.91C431.048 36.6519 442.51 48.1389 442.51 62.309V524.119C442.51 538.29 431.048 549.777 416.91 549.777H109.71C95.5715 549.777 84.1099 538.29 84.1099 524.119V62.309C84.1099 48.1389 95.5715 36.6519 109.71 36.6519Z" fill="#1D1DD5"/>
<path d="M100.57 456.318C156.113 511.986 274.001 484.089 363.88 394.009C453.759 303.93 481.593 185.778 426.05 130.111C370.506 74.4431 252.619 102.34 162.74 192.419C72.8611 282.499 45.0268 400.651 100.57 456.318Z" fill="white"/>
<path d="M263.254 293.98L119.743 437.813C143.38 461.193 181.047 468.528 224.528 458.216C268.008 447.905 313.774 420.785 351.844 382.77L263.254 293.98Z" fill="#68E89B"/>
<path d="M263.255 293.98L351.844 382.77C351.985 382.636 352.125 382.502 352.264 382.367C390.332 344.206 417.525 298.259 427.892 254.585C438.259 210.911 430.955 173.066 407.579 149.333L263.255 293.98Z" fill="#7DF6ED"/>
<path d="M173.957 204.486C135.923 242.74 108.82 288.746 98.5867 332.42C88.3538 376.095 95.8267 413.875 119.367 437.478C119.492 437.59 119.617 437.702 119.742 437.813L263.254 293.98L173.957 204.486Z" fill="#FFE471"/>
<path d="M173.958 204.486L263.254 293.98L407.579 149.333C407.47 149.205 407.362 149.077 407.252 148.95C395.571 137.242 380.281 129.38 362.254 125.814C344.228 122.247 323.82 123.045 302.193 128.163C280.567 133.28 258.146 142.617 236.212 155.64C214.277 168.662 193.259 185.116 174.356 204.061C174.223 204.202 174.09 204.344 173.958 204.486Z" fill="#FF9B99"/>
<path d="M102.867 92.757C109.332 99.2357 123.052 95.9892 133.512 85.5055C143.972 75.0217 147.212 61.2707 140.748 54.792C134.283 48.3132 120.563 51.5601 110.103 62.0438C99.6423 72.5276 96.403 86.2782 102.867 92.757Z" fill="white"/>
<path d="M121.801 73.8635L105.099 90.6033C107.85 93.3244 112.233 94.1778 117.294 92.9777C122.354 91.7777 127.681 88.6213 132.111 84.1971L121.801 73.8635Z" fill="#68E89B"/>
<path d="M121.801 73.8635L132.111 84.1971C132.128 84.1814 132.144 84.1658 132.16 84.1501C136.591 79.7088 139.755 74.3613 140.962 69.2783C142.168 64.1954 141.318 59.7908 138.598 57.0288L121.801 73.8635Z" fill="#7DF6ED"/>
<path d="M111.408 63.448C106.981 67.9001 103.827 73.2544 102.636 78.3374C101.445 83.4204 102.315 87.8174 105.055 90.5644C105.069 90.5775 105.084 90.5903 105.099 90.6033L121.801 73.8638L111.408 63.4482L111.408 63.448Z" fill="#FFE471"/>
<path d="M111.408 63.448L121.801 73.8636L138.598 57.0291C138.585 57.014 138.573 56.9991 138.56 56.9841C137.2 55.6215 135.421 54.7064 133.323 54.2913C131.225 53.8762 128.849 53.9693 126.333 54.5649C123.816 55.1605 121.206 56.2471 118.654 57.7627C116.101 59.2783 113.655 61.1932 111.455 63.3981C111.439 63.4144 111.424 63.4309 111.408 63.4472L111.408 63.448Z" fill="#FF9B99"/>
<path d="M423.753 493.672C417.289 487.193 403.569 490.439 393.108 500.923C382.648 511.407 379.408 525.158 385.873 531.637C392.337 538.115 406.057 534.869 416.518 524.385C426.978 513.901 430.217 500.15 423.753 493.672Z" fill="white"/>
<path d="M404.819 512.565L421.522 495.826C418.771 493.104 414.387 492.251 409.326 493.451C404.266 494.651 398.94 497.807 394.509 502.231L404.819 512.565Z" fill="#68E89B"/>
<path d="M404.819 512.565L394.509 502.231C394.492 502.247 394.476 502.263 394.46 502.278C390.029 506.72 386.864 512.067 385.658 517.15C384.451 522.233 385.302 526.638 388.022 529.4L404.819 512.565V512.565Z" fill="#7DF6ED"/>
<path d="M415.212 522.981C419.638 518.529 422.793 513.174 423.984 508.091C425.175 503.008 424.305 498.611 421.565 495.864C421.551 495.851 421.536 495.838 421.521 495.825L404.819 512.565L415.212 522.981H415.212Z" fill="#FFE471"/>
<path d="M415.212 522.981L404.82 512.565L388.023 529.4C388.035 529.415 388.048 529.43 388.061 529.445C389.42 530.807 391.2 531.722 393.298 532.137C395.396 532.553 397.771 532.459 400.288 531.864C402.805 531.268 405.414 530.182 407.967 528.666C410.52 527.15 412.966 525.236 415.166 523.031C415.181 523.014 415.197 522.998 415.212 522.981L415.212 522.981Z" fill="#FF9B99"/>
</svg>
