<svg width="527" height="587" viewBox="0 0 527 587" fill="none" xmlns="http://www.w3.org/2000/svg">
<path d="M442.511 0H84.1113C69.9728 0 58.5113 11.4872 58.5113 25.6573V560.771C58.5113 574.941 69.9728 586.429 84.1113 586.429H442.511C456.65 586.429 468.111 574.941 468.111 560.771V25.6573C468.111 11.4872 456.65 0 442.511 0Z" fill="white"/>
<path d="M416.91 36.6519H109.71C95.5712 36.6519 84.1097 48.139 84.1097 62.3091V524.12C84.1097 538.29 95.5712 549.777 109.71 549.777H416.91C431.048 549.777 442.51 538.29 442.51 524.12V62.3091C442.51 48.139 431.048 36.6519 416.91 36.6519Z" fill="#FF9B99"/>
<path d="M100.57 456.318C156.113 511.986 274.001 484.089 363.88 394.009C453.759 303.929 481.593 185.778 426.05 130.11C370.506 74.4429 252.619 102.34 162.74 192.419C72.861 282.499 45.0267 400.651 100.57 456.318Z" fill="white"/>
<path d="M284.171 189.768V371.587H262.154V212.851H261.089L216.7 242.325V219.953L262.154 189.768H284.171Z" fill="black"/>
<path d="M281.354 186.337V368.155H259.337V209.419H258.272L213.882 238.893V216.521L259.337 186.337H281.354Z" fill="#FF9B99"/>
<path d="M281.354 186.337H282.854V184.837H281.354V186.337ZM281.354 368.155V369.655H282.854V368.155H281.354ZM259.337 368.155H257.837V369.655H259.337V368.155ZM259.337 209.419H260.837V207.919H259.337V209.419ZM258.272 209.419V207.919H257.819L257.442 208.169L258.272 209.419ZM213.882 238.893H212.382V241.69L214.712 240.143L213.882 238.893ZM213.882 216.521L213.053 215.272L212.382 215.717V216.521H213.882ZM259.337 186.337V184.837H258.884L258.507 185.087L259.337 186.337ZM279.854 186.337V368.155H282.854V186.337H279.854ZM281.354 366.655H259.337V369.655H281.354V366.655ZM260.837 368.155V209.419H257.837V368.155H260.837ZM259.337 207.919H258.272V210.919H259.337V207.919ZM257.442 208.169L213.053 237.644L214.712 240.143L259.101 210.669L257.442 208.169ZM215.382 238.893V216.521H212.382V238.893H215.382ZM214.712 217.771L260.167 187.586L258.507 185.087L213.053 215.272L214.712 217.771ZM259.337 187.837H281.354V184.837H259.337V187.837Z" fill="black"/>
<path d="M124.431 46.657V94.0886H118.687V52.6786H118.41L106.83 60.3677V54.5314L118.687 46.657H124.431Z" fill="black"/>
<path d="M123.696 45.7617V93.1934H117.952V51.7833H117.674L106.094 59.4724V53.6361L117.952 45.7617H123.696Z" fill="black"/>
<path d="M123.696 45.7617H124.087V45.3704H123.696V45.7617ZM123.696 93.1934V93.5847H124.087V93.1934H123.696ZM117.952 93.1934H117.561V93.5847H117.952V93.1934ZM117.952 51.7833H118.343V51.392H117.952V51.7833ZM117.674 51.7833V51.392H117.556L117.458 51.4573L117.674 51.7833ZM106.094 59.4724H105.703V60.202L106.311 59.7984L106.094 59.4724ZM106.094 53.6361L105.878 53.3101L105.703 53.4262V53.6361H106.094ZM117.952 45.7617V45.3704H117.834L117.736 45.4357L117.952 45.7617ZM123.304 45.7617V93.1934H124.087V45.7617H123.304ZM123.696 92.802H117.952V93.5847H123.696V92.802ZM118.343 93.1934V51.7833H117.561V93.1934H118.343ZM117.952 51.392H117.674V52.1746H117.952V51.392ZM117.458 51.4573L105.878 59.1464L106.311 59.7984L117.891 52.1093L117.458 51.4573ZM106.485 59.4724V53.6361H105.703V59.4724H106.485ZM106.311 53.9621L118.169 46.0877L117.736 45.4357L105.878 53.3101L106.311 53.9621ZM117.952 46.153H123.696V45.3704H117.952V46.153Z" fill="black"/>
<path d="M402.188 539.772V492.341H407.932V533.751H408.21L419.79 526.062V531.898L407.932 539.772H402.188Z" fill="black"/>
<path d="M402.923 540.667V493.236H408.667V534.646H408.945L420.525 526.957V532.793L408.667 540.667H402.923Z" fill="black"/>
<path d="M402.923 540.667H402.532V541.059H402.923V540.667ZM402.923 493.236V492.845H402.532V493.236H402.923ZM408.667 493.236H409.058V492.845H408.667V493.236ZM408.667 534.646H408.276V535.037H408.667V534.646ZM408.945 534.646V535.037H409.063L409.161 534.972L408.945 534.646ZM420.525 526.957H420.916V526.227L420.308 526.631L420.525 526.957ZM420.525 532.793L420.741 533.119L420.916 533.003V532.793H420.525ZM408.667 540.667V541.059H408.785L408.883 540.993L408.667 540.667ZM403.315 540.667V493.236H402.532V540.667H403.315ZM402.923 493.627H408.667V492.845H402.923V493.627ZM408.276 493.236V534.646H409.058V493.236H408.276ZM408.667 535.037H408.945V534.255H408.667V535.037ZM409.161 534.972L420.741 527.283L420.308 526.631L408.728 534.32L409.161 534.972ZM420.133 526.957V532.793H420.916V526.957H420.133ZM420.308 532.467L408.45 540.341L408.883 540.993L420.741 533.119L420.308 532.467ZM408.667 540.276H402.923V541.059H408.667V540.276Z" fill="black"/>
</svg>
