<svg width="527" height="587" viewBox="0 0 527 587" fill="none" xmlns="http://www.w3.org/2000/svg">
<path d="M442.51 0H84.1101C69.9716 0 58.5101 11.4872 58.5101 25.6573V560.771C58.5101 574.941 69.9716 586.429 84.1101 586.429H442.51C456.649 586.429 468.11 574.941 468.11 560.771V25.6573C468.11 11.4872 456.649 0 442.51 0Z" fill="white"/>
<path d="M109.71 36.6519H416.91C431.048 36.6519 442.51 48.139 442.51 62.3091V524.12C442.51 538.29 431.048 549.777 416.91 549.777H109.71C95.5711 549.777 84.1096 538.29 84.1096 524.12V62.3091C84.1096 48.139 95.5711 36.6519 109.71 36.6519Z" fill="#FF9B99"/>
<path d="M100.57 456.318C156.113 511.986 274.001 484.089 363.88 394.009C453.759 303.93 481.593 185.778 426.05 130.111C370.506 74.4431 252.619 102.34 162.74 192.419C72.8611 282.499 45.0267 400.651 100.57 456.318Z" fill="white"/>
<path d="M281.686 374.072C269.967 374.072 259.521 372.06 250.347 368.036C241.232 364.011 233.982 358.418 228.596 351.256C223.27 344.036 220.369 335.661 219.896 326.132H242.268C242.742 331.991 244.754 337.052 248.305 341.313C251.856 345.515 256.502 348.771 262.243 351.079C267.984 353.387 274.347 354.541 281.331 354.541C289.143 354.541 296.068 353.18 302.105 350.457C308.142 347.735 312.877 343.947 316.309 339.094C319.742 334.241 321.458 328.618 321.458 322.226C321.458 315.538 319.801 309.649 316.487 304.559C313.172 299.41 308.319 295.385 301.927 292.485C295.535 289.585 287.723 288.135 278.49 288.135H263.93V268.604H278.49C285.71 268.604 292.043 267.302 297.488 264.697C302.993 262.093 307.284 258.424 310.361 253.689C313.498 248.954 315.066 243.391 315.066 236.999C315.066 230.843 313.705 225.487 310.983 220.93C308.26 216.372 304.413 212.821 299.441 210.276C294.529 207.731 288.729 206.459 282.041 206.459C275.767 206.459 269.849 207.613 264.285 209.921C258.781 212.17 254.283 215.455 250.791 219.776C247.299 224.037 245.405 229.186 245.109 235.223H223.802C224.157 225.694 227.028 217.349 232.414 210.188C237.8 202.967 244.843 197.344 253.543 193.32C262.302 189.295 271.92 187.283 282.396 187.283C293.641 187.283 303.288 189.561 311.338 194.119C319.387 198.617 325.572 204.565 329.892 211.963C334.213 219.361 336.373 227.351 336.373 235.933C336.373 246.172 333.68 254.902 328.294 262.123C322.968 269.344 315.717 274.345 306.544 277.126V278.547C318.026 280.441 326.992 285.324 333.444 293.195C339.895 301.008 343.12 310.685 343.12 322.226C343.12 332.11 340.427 340.988 335.042 348.859C329.715 356.672 322.435 362.827 313.202 367.325C303.969 371.823 293.464 374.072 281.686 374.072Z" fill="black"/>
<path d="M278.868 370.641C267.15 370.641 256.703 368.628 247.53 364.604C238.415 360.579 231.165 354.986 225.779 347.825C220.452 340.604 217.552 332.229 217.079 322.7H239.451C239.924 328.56 241.937 333.62 245.488 337.881C249.039 342.084 253.685 345.339 259.426 347.647C265.167 349.955 271.529 351.109 278.513 351.109C286.326 351.109 293.25 349.748 299.287 347.026C305.324 344.303 310.059 340.515 313.492 335.662C316.925 330.809 318.641 325.186 318.641 318.794C318.641 312.106 316.984 306.217 313.669 301.127C310.355 295.978 305.502 291.953 299.11 289.053C292.718 286.153 284.905 284.703 275.672 284.703H261.113V265.172H275.672C282.893 265.172 289.226 263.87 294.671 261.266C300.175 258.661 304.466 254.992 307.544 250.257C310.681 245.522 312.249 239.959 312.249 233.567C312.249 227.411 310.888 222.055 308.165 217.498C305.443 212.941 301.596 209.389 296.624 206.844C291.712 204.299 285.911 203.027 279.223 203.027C272.95 203.027 267.031 204.181 261.468 206.489C255.964 208.738 251.465 212.023 247.973 216.344C244.482 220.605 242.588 225.754 242.292 231.791H220.985C221.34 222.262 224.21 213.917 229.596 206.756C234.982 199.535 242.025 193.912 250.726 189.888C259.485 185.863 269.103 183.851 279.579 183.851C290.824 183.851 300.471 186.129 308.52 190.687C316.57 195.185 322.754 201.133 327.075 208.531C331.396 215.929 333.556 223.919 333.556 232.501C333.556 242.74 330.863 251.47 325.477 258.691C320.15 265.912 312.9 270.913 303.726 273.695V275.115C315.208 277.009 324.175 281.892 330.626 289.763C337.077 297.576 340.303 307.253 340.303 318.794C340.303 328.678 337.61 337.556 332.224 345.428C326.897 353.24 319.618 359.395 310.385 363.893C301.152 368.392 290.646 370.641 278.868 370.641Z" fill="#FF9B99"/>
<path d="M247.53 364.604L246.924 365.976L246.927 365.977L247.53 364.604ZM225.779 347.825L224.572 348.715L224.58 348.726L225.779 347.825ZM217.079 322.7V321.2H215.502L215.58 322.775L217.079 322.7ZM239.451 322.7L240.946 322.579L240.834 321.2H239.451V322.7ZM245.488 337.881L244.335 338.842L244.342 338.85L245.488 337.881ZM259.426 347.647L258.866 349.039L259.426 347.647ZM313.492 335.662L312.267 334.796L313.492 335.662ZM313.669 301.127L312.408 301.939L312.412 301.946L313.669 301.127ZM299.11 289.053L298.49 290.419L299.11 289.053ZM261.113 284.703H259.613V286.203H261.113V284.703ZM261.113 265.172V263.672H259.613V265.172H261.113ZM294.671 261.266L294.029 259.91L294.024 259.912L294.671 261.266ZM307.544 250.257L306.293 249.429L306.286 249.44L307.544 250.257ZM308.165 217.498L309.453 216.729H309.453L308.165 217.498ZM296.624 206.844L295.934 208.176L295.941 208.18L296.624 206.844ZM261.468 206.489L262.035 207.878L262.043 207.875L261.468 206.489ZM247.973 216.344L249.134 217.294L249.14 217.287L247.973 216.344ZM242.292 231.791V233.291H243.72L243.79 231.865L242.292 231.791ZM220.985 231.791L219.486 231.735L219.428 233.291H220.985V231.791ZM229.596 206.756L230.795 207.657L230.799 207.652L229.596 206.756ZM250.726 189.888L250.099 188.525L250.096 188.526L250.726 189.888ZM308.52 190.687L307.781 191.992L307.789 191.996L308.52 190.687ZM327.075 208.531L325.78 209.288L327.075 208.531ZM325.477 258.691L324.275 257.794L324.27 257.801L325.477 258.691ZM303.726 273.695L303.291 272.259L302.226 272.582V273.695H303.726ZM303.726 275.115H302.226V276.388L303.482 276.595L303.726 275.115ZM330.626 289.763L329.466 290.714L329.47 290.719L330.626 289.763ZM332.224 345.428L330.986 344.58L330.985 344.583L332.224 345.428ZM310.385 363.893L311.042 365.242L310.385 363.893ZM278.868 369.141C267.322 369.141 257.086 367.158 248.132 363.23L246.927 365.977C256.32 370.098 266.977 372.141 278.868 372.141V369.141ZM248.135 363.231C239.229 359.299 232.193 353.857 226.978 346.923L224.58 348.726C230.137 356.115 237.601 361.859 246.924 365.976L248.135 363.231ZM226.986 346.934C221.846 339.966 219.037 331.88 218.577 322.626L215.58 322.775C216.068 332.579 219.059 341.242 224.572 348.715L226.986 346.934ZM217.079 324.2H239.451V321.2H217.079V324.2ZM237.956 322.821C238.452 328.969 240.574 334.328 244.335 338.842L246.64 336.921C243.299 332.912 241.396 328.15 240.946 322.579L237.956 322.821ZM244.342 338.85C248.07 343.261 252.927 346.651 258.866 349.039L259.985 346.255C254.443 344.027 250.008 340.906 246.633 336.913L244.342 338.85ZM258.866 349.039C264.807 351.427 271.362 352.609 278.513 352.609V349.609C271.697 349.609 265.527 348.483 259.985 346.255L258.866 349.039ZM278.513 352.609C286.501 352.609 293.642 351.217 299.904 348.393L298.671 345.658C292.859 348.279 286.151 349.609 278.513 349.609V352.609ZM299.904 348.393C306.156 345.573 311.112 341.624 314.717 336.528L312.267 334.796C309.006 339.406 304.492 343.033 298.671 345.658L299.904 348.393ZM314.717 336.528C318.342 331.402 320.141 325.472 320.141 318.794H317.141C317.141 324.9 315.507 330.215 312.267 334.796L314.717 336.528ZM320.141 318.794C320.141 311.846 318.415 305.666 314.926 300.309L312.412 301.946C315.552 306.768 317.141 312.366 317.141 318.794H320.141ZM314.931 300.315C311.438 294.89 306.345 290.689 299.73 287.687L298.49 290.419C304.659 293.218 309.272 297.066 312.408 301.939L314.931 300.315ZM299.73 287.687C293.092 284.676 285.055 283.203 275.672 283.203V286.203C284.756 286.203 292.344 287.631 298.49 290.419L299.73 287.687ZM275.672 283.203H261.113V286.203H275.672V283.203ZM262.613 284.703V265.172H259.613V284.703H262.613ZM261.113 266.672H275.672V263.672H261.113V266.672ZM275.672 266.672C283.074 266.672 289.635 265.337 295.318 262.619L294.024 259.912C288.817 262.403 282.712 263.672 275.672 263.672V266.672ZM295.312 262.621C301.048 259.908 305.56 256.061 308.801 251.075L306.286 249.44C303.372 253.923 299.303 257.415 294.029 259.91L295.312 262.621ZM308.794 251.085C312.114 246.075 313.749 240.215 313.749 233.567H310.749C310.749 239.702 309.248 244.969 306.293 249.429L308.794 251.085ZM313.749 233.567C313.749 227.184 312.335 221.553 309.453 216.729L306.878 218.267C309.44 222.557 310.749 227.638 310.749 233.567H313.749ZM309.453 216.729C306.578 211.917 302.516 208.175 297.308 205.509L295.941 208.18C300.675 210.603 304.307 213.964 306.878 218.267L309.453 216.729ZM297.314 205.513C292.148 202.836 286.102 201.527 279.223 201.527V204.527C285.721 204.527 291.275 205.763 295.934 208.176L297.314 205.513ZM279.223 201.527C272.761 201.527 266.646 202.717 260.893 205.104L262.043 207.875C267.416 205.645 273.139 204.527 279.223 204.527V201.527ZM260.9 205.101C255.179 207.439 250.469 210.87 246.807 215.401L249.14 217.287C252.462 213.177 256.748 210.038 262.035 207.878L260.9 205.101ZM246.813 215.393C243.098 219.927 241.104 225.393 240.793 231.718L243.79 231.865C244.072 226.116 245.865 221.283 249.134 217.294L246.813 215.393ZM242.292 230.291H220.985V233.291H242.292V230.291ZM222.484 231.847C222.828 222.603 225.605 214.558 230.795 207.657L228.398 205.854C222.816 213.276 219.852 221.921 219.486 231.735L222.484 231.847ZM230.799 207.652C236.026 200.645 242.867 195.176 251.355 191.249L250.096 188.526C241.184 192.649 233.939 198.425 228.394 205.859L230.799 207.652ZM251.352 191.251C259.898 187.324 269.3 185.351 279.579 185.351V182.351C268.906 182.351 259.072 184.402 250.099 188.525L251.352 191.251ZM279.579 185.351C290.62 185.351 300.001 187.587 307.781 191.992L309.259 189.381C300.941 184.672 291.027 182.351 279.579 182.351V185.351ZM307.789 191.996C315.622 196.374 321.605 202.138 325.78 209.288L328.37 207.775C323.904 200.128 317.517 193.996 309.252 189.377L307.789 191.996ZM325.78 209.288C329.966 216.456 332.056 224.185 332.056 232.501H335.056C335.056 223.654 332.825 215.403 328.37 207.775L325.78 209.288ZM332.056 232.501C332.056 242.463 329.441 250.867 324.275 257.794L326.679 259.588C332.284 252.073 335.056 243.018 335.056 232.501H332.056ZM324.27 257.801C319.149 264.743 312.178 269.564 303.291 272.259L304.162 275.13C313.622 272.261 321.152 267.08 326.684 259.581L324.27 257.801ZM302.226 273.695V275.115H305.226V273.695H302.226ZM303.482 276.595C314.66 278.439 323.279 283.165 329.466 290.714L331.786 288.813C325.071 280.619 315.757 275.579 303.97 273.635L303.482 276.595ZM329.47 290.719C335.668 298.225 338.803 307.55 338.803 318.794H341.803C341.803 306.955 338.487 296.927 331.783 288.808L329.47 290.719ZM338.803 318.794C338.803 328.387 336.195 336.968 330.986 344.58L333.462 346.275C339.025 338.144 341.803 328.969 341.803 318.794H338.803ZM330.985 344.583C325.818 352.161 318.747 358.151 309.728 362.545L311.042 365.242C320.488 360.64 327.977 354.319 333.464 346.273L330.985 344.583ZM309.728 362.545C300.728 366.93 290.452 369.141 278.868 369.141V372.141C290.84 372.141 301.576 369.853 311.042 365.242L309.728 362.545Z" fill="black"/>
<path d="M123.783 94.7369C120.726 94.7369 118.001 94.2119 115.608 93.162C113.23 92.1121 111.339 90.653 109.934 88.7847C108.544 86.901 107.787 84.7163 107.664 82.2304H113.5C113.624 83.759 114.149 85.0791 115.075 86.1908C116.001 87.287 117.214 88.1362 118.711 88.7384C120.209 89.3406 121.869 89.6416 123.691 89.6416C125.729 89.6416 127.535 89.2865 129.11 88.5763C130.685 87.866 131.92 86.8779 132.816 85.6118C133.711 84.3457 134.159 82.8789 134.159 81.2114C134.159 79.4667 133.727 77.9304 132.862 76.6025C131.997 75.2592 130.731 74.2093 129.064 73.4528C127.396 72.6962 125.358 72.3179 122.949 72.3179H119.151V67.2227H122.949C124.833 67.2227 126.485 66.883 127.906 66.2037C129.342 65.5243 130.461 64.567 131.264 63.3318C132.082 62.0966 132.491 60.6452 132.491 58.9777C132.491 57.3719 132.136 55.9746 131.426 54.7857C130.716 53.5969 129.712 52.6705 128.415 52.0065C127.134 51.3426 125.621 51.0107 123.876 51.0107C122.239 51.0107 120.695 51.3117 119.244 51.9139C117.808 52.5006 116.635 53.3575 115.724 54.4847C114.813 55.5963 114.319 56.9396 114.241 58.5145H108.683C108.776 56.0287 109.524 53.8516 110.929 51.9834C112.334 50.0997 114.172 48.6329 116.442 47.583C118.727 46.533 121.236 46.0081 123.969 46.0081C126.902 46.0081 129.419 46.6025 131.519 47.7914C133.619 48.9648 135.232 50.5166 136.359 52.4466C137.486 54.3766 138.05 56.461 138.05 58.6998C138.05 61.3709 137.347 63.6483 135.942 65.532C134.553 67.4157 132.661 68.7204 130.268 69.4461V69.8166C133.263 70.3107 135.603 71.5845 137.286 73.638C138.969 75.6761 139.81 78.2006 139.81 81.2114C139.81 83.7899 139.108 86.1059 137.702 88.1594C136.313 90.1975 134.414 91.8033 132.005 92.9767C129.596 94.1501 126.856 94.7369 123.783 94.7369Z" fill="black"/>
<path d="M123.048 93.8414C119.991 93.8414 117.266 93.3164 114.872 92.2665C112.495 91.2165 110.603 89.7575 109.198 87.8892C107.809 86.0055 107.052 83.8208 106.929 81.3349H112.765C112.888 82.8635 113.413 84.1836 114.34 85.2953C115.266 86.3915 116.478 87.2407 117.976 87.8429C119.474 88.4451 121.133 88.7461 122.955 88.7461C124.993 88.7461 126.8 88.391 128.375 87.6808C129.95 86.9705 131.185 85.9824 132.08 84.7163C132.976 83.4502 133.424 81.9834 133.424 80.3159C133.424 78.5711 132.991 77.0349 132.127 75.707C131.262 74.3637 129.996 73.3138 128.328 72.5573C126.661 71.8007 124.623 71.4224 122.214 71.4224H118.416V66.3272H122.214C124.098 66.3272 125.75 65.9875 127.17 65.3081C128.606 64.6288 129.726 63.6715 130.529 62.4363C131.347 61.2011 131.756 59.7497 131.756 58.0822C131.756 56.4764 131.401 55.0791 130.691 53.8902C129.98 52.7014 128.977 51.7749 127.68 51.111C126.398 50.4471 124.885 50.1151 123.141 50.1151C121.504 50.1151 119.96 50.4162 118.509 51.0184C117.073 51.6051 115.899 52.462 114.988 53.5892C114.077 54.7008 113.583 56.0441 113.506 57.619H107.948C108.04 55.1332 108.789 52.9561 110.194 51.0879C111.599 49.2042 113.436 47.7374 115.706 46.6875C117.991 45.6375 120.5 45.1126 123.233 45.1126C126.167 45.1126 128.684 45.707 130.783 46.8959C132.883 48.0693 134.497 49.6211 135.624 51.5511C136.751 53.4811 137.315 55.5655 137.315 57.8043C137.315 60.4754 136.612 62.7528 135.207 64.6365C133.817 66.5202 131.926 67.8249 129.533 68.5506V68.9211C132.528 69.4152 134.867 70.689 136.55 72.7425C138.233 74.7806 139.075 77.3051 139.075 80.3159C139.075 82.8944 138.372 85.2104 136.967 87.2639C135.578 89.302 133.678 90.9077 131.27 92.0812C128.861 93.2546 126.12 93.8414 123.048 93.8414Z" fill="black"/>
<path d="M114.872 92.2665L114.714 92.6244L114.715 92.6248L114.872 92.2665ZM109.198 87.8892L108.883 88.1215L108.885 88.1244L109.198 87.8892ZM106.929 81.3349V80.9436H106.517L106.538 81.3543L106.929 81.3349ZM112.765 81.3349L113.155 81.3034L113.126 80.9436H112.765V81.3349ZM114.34 85.2953L114.039 85.5458L114.041 85.5479L114.34 85.2953ZM117.976 87.8429L117.83 88.206L117.976 87.8429ZM132.08 84.7163L131.761 84.4903L132.08 84.7163ZM132.127 75.707L131.798 75.9188L131.799 75.9205L132.127 75.707ZM128.328 72.5573L128.167 72.9136L128.328 72.5573ZM118.416 71.4224H118.025V71.8137H118.416V71.4224ZM118.416 66.3272V65.9359H118.025V66.3272H118.416ZM127.17 65.3081L127.003 64.9544L127.002 64.9551L127.17 65.3081ZM130.529 62.4363L130.202 62.2202L130.201 62.223L130.529 62.4363ZM130.691 53.8902L131.027 53.6895L130.691 53.8902ZM127.68 51.111L127.5 51.4585L127.502 51.4594L127.68 51.111ZM118.509 51.0184L118.657 51.3806L118.658 51.3798L118.509 51.0184ZM114.988 53.5892L115.291 53.8372L115.293 53.8351L114.988 53.5892ZM113.506 57.619V58.0103H113.879L113.897 57.6382L113.506 57.619ZM107.948 57.619L107.557 57.6044L107.541 58.0103H107.948V57.619ZM110.194 51.0879L110.507 51.3231L110.508 51.3218L110.194 51.0879ZM115.706 46.6875L115.543 46.3319L115.542 46.3323L115.706 46.6875ZM130.783 46.8959L130.591 47.2364L130.592 47.2375L130.783 46.8959ZM135.624 51.5511L135.286 51.7484V51.7484L135.624 51.5511ZM135.207 64.6365L134.893 64.4025L134.892 64.4042L135.207 64.6365ZM129.533 68.5506L129.419 68.1761L129.141 68.2603V68.5506H129.533ZM129.533 68.9211H129.141V69.2532L129.469 69.3072L129.533 68.9211ZM136.55 72.7425L136.248 72.9906L136.248 72.9917L136.55 72.7425ZM136.967 87.2639L136.644 87.0429L136.644 87.0435L136.967 87.2639ZM131.27 92.0812L131.441 92.433L131.27 92.0812ZM123.048 93.45C120.036 93.45 117.366 92.9329 115.03 91.9081L114.715 92.6248C117.166 93.6999 119.946 94.2327 123.048 94.2327V93.45ZM115.03 91.9085C112.707 90.8825 110.871 89.463 109.511 87.654L108.885 88.1244C110.335 90.0519 112.282 91.5506 114.714 92.6244L115.03 91.9085ZM109.513 87.6569C108.172 85.8392 107.439 83.7296 107.319 81.3155L106.538 81.3543C106.665 83.912 107.445 86.1719 108.883 88.1215L109.513 87.6569ZM106.929 81.7262H112.765V80.9436H106.929V81.7262ZM112.375 81.3664C112.504 82.9704 113.058 84.3683 114.039 85.5458L114.64 85.0448C113.769 83.9989 113.272 82.7566 113.155 81.3034L112.375 81.3664ZM114.041 85.5479C115.013 86.6987 116.28 87.583 117.83 88.206L118.122 87.4798C116.676 86.8985 115.519 86.0844 114.639 85.0427L114.041 85.5479ZM117.83 88.206C119.38 88.829 121.09 89.1374 122.955 89.1374V88.3548C121.177 88.3548 119.568 88.0611 118.122 87.4798L117.83 88.206ZM122.955 89.1374C125.039 89.1374 126.902 88.7743 128.536 88.0375L128.214 87.3241C126.698 88.0078 124.948 88.3548 122.955 88.3548V89.1374ZM128.536 88.0375C130.167 87.3019 131.46 86.2716 132.4 84.9423L131.761 84.4903C130.91 85.6932 129.733 86.6391 128.214 87.3241L128.536 88.0375ZM132.4 84.9423C133.346 83.605 133.815 82.0579 133.815 80.3159H133.032C133.032 81.9089 132.606 83.2954 131.761 84.4903L132.4 84.9423ZM133.815 80.3159C133.815 78.5033 133.365 76.8912 132.455 75.4935L131.799 75.9205C132.618 77.1785 133.032 78.639 133.032 80.3159H133.815ZM132.456 75.4952C131.545 74.0798 130.216 72.9839 128.49 72.2009L128.167 72.9136C129.776 73.6437 130.979 74.6477 131.798 75.9188L132.456 75.4952ZM128.49 72.2009C126.758 71.4152 124.662 71.0311 122.214 71.0311V71.8137C124.584 71.8137 126.563 72.1861 128.167 72.9136L128.49 72.2009ZM122.214 71.0311H118.416V71.8137H122.214V71.0311ZM118.807 71.4224V66.3272H118.025V71.4224H118.807ZM118.416 66.7185H122.214V65.9359H118.416V66.7185ZM122.214 66.7185C124.145 66.7185 125.857 66.3702 127.339 65.6612L127.002 64.9551C125.643 65.6048 124.051 65.9359 122.214 65.9359V66.7185ZM127.338 65.6619C128.834 64.954 130.011 63.9503 130.857 62.6496L130.201 62.223C129.44 63.3927 128.379 64.3036 127.003 64.9544L127.338 65.6619ZM130.855 62.6524C131.721 61.3453 132.147 59.8166 132.147 58.0822H131.365C131.365 59.6828 130.973 61.0569 130.202 62.2202L130.855 62.6524ZM132.147 58.0822C132.147 56.4172 131.779 54.9482 131.027 53.6895L130.355 54.0909C131.023 55.21 131.365 56.5357 131.365 58.0822H132.147ZM131.027 53.6895C130.277 52.4343 129.217 51.4583 127.858 50.7627L127.502 51.4594C128.737 52.0916 129.684 52.9684 130.355 54.0909L131.027 53.6895ZM127.86 50.7636C126.512 50.0654 124.935 49.7238 123.141 49.7238V50.5065C124.836 50.5065 126.284 50.8288 127.5 51.4585L127.86 50.7636ZM123.141 49.7238C121.455 49.7238 119.859 50.0342 118.359 50.6569L118.658 51.3798C120.06 50.7982 121.553 50.5065 123.141 50.5065V49.7238ZM118.361 50.6561C116.868 51.266 115.639 52.1611 114.684 53.3432L115.293 53.8351C116.159 52.7629 117.277 51.9442 118.657 51.3806L118.361 50.6561ZM114.686 53.3411C113.716 54.524 113.196 55.9498 113.115 57.5998L113.897 57.6382C113.97 56.1385 114.438 54.8777 115.291 53.8372L114.686 53.3411ZM113.506 57.2277H107.948V58.0103H113.506V57.2277ZM108.339 57.6336C108.428 55.2221 109.153 53.1233 110.507 51.3231L109.881 50.8527C108.425 52.7889 107.652 55.0442 107.557 57.6044L108.339 57.6336ZM110.508 51.3218C111.871 49.4937 113.656 48.067 115.87 47.0426L115.542 46.3323C113.217 47.4078 111.327 48.9147 109.88 50.8539L110.508 51.3218ZM115.87 47.043C118.099 46.0186 120.552 45.5039 123.233 45.5039V44.7213C120.449 44.7213 117.883 45.2564 115.543 46.3319L115.87 47.043ZM123.233 45.5039C126.114 45.5039 128.561 46.0873 130.591 47.2364L130.976 46.5554C128.806 45.3267 126.22 44.7213 123.233 44.7213V45.5039ZM130.592 47.2375C132.636 48.3795 134.197 49.8833 135.286 51.7484L135.962 51.3537C134.797 49.3588 133.13 47.7591 130.974 46.5543L130.592 47.2375ZM135.286 51.7484C136.378 53.6184 136.923 55.6347 136.923 57.8043H137.706C137.706 55.4963 137.124 53.3437 135.962 51.3537L135.286 51.7484ZM136.923 57.8043C136.923 60.4031 136.241 62.5955 134.893 64.4025L135.521 64.8705C136.983 62.9101 137.706 60.5477 137.706 57.8043H136.923ZM134.892 64.4042C133.556 66.2153 131.738 67.4731 129.419 68.1761L129.646 68.925C132.114 68.1767 134.079 66.8251 135.522 64.8688L134.892 64.4042ZM129.141 68.5506V68.9211H129.924V68.5506H129.141ZM129.469 69.3072C132.385 69.7882 134.633 71.0211 136.248 72.9906L136.853 72.4945C135.101 70.3569 132.671 69.0422 129.596 68.535L129.469 69.3072ZM136.248 72.9917C137.866 74.95 138.683 77.3826 138.683 80.3159H139.466C139.466 77.2275 138.601 74.6112 136.852 72.4934L136.248 72.9917ZM138.683 80.3159C138.683 82.8185 138.003 85.0569 136.644 87.0429L137.29 87.4849C138.741 85.3638 139.466 82.9702 139.466 80.3159H138.683ZM136.644 87.0435C135.296 89.0205 133.451 90.5831 131.098 91.7294L131.441 92.433C133.906 91.2324 135.859 89.5835 137.29 87.4843L136.644 87.0435ZM131.098 91.7294C128.75 92.8733 126.07 93.45 123.048 93.45V94.2327C126.171 94.2327 128.972 93.636 131.441 92.433L131.098 91.7294Z" fill="black"/>
<path d="M408.218 491.66C411.275 491.66 414.001 492.185 416.394 493.235C418.772 494.285 420.663 495.744 422.068 497.612C423.458 499.496 424.214 501.681 424.338 504.167H418.501C418.378 502.638 417.853 501.318 416.927 500.206C416 499.11 414.788 498.261 413.29 497.659C411.793 497.057 410.133 496.756 408.311 496.756C406.273 496.756 404.466 497.111 402.892 497.821C401.317 498.531 400.081 499.519 399.186 500.785C398.29 502.052 397.843 503.518 397.843 505.186C397.843 506.931 398.275 508.467 399.14 509.795C400.004 511.138 401.27 512.188 402.938 512.944C404.605 513.701 406.643 514.079 409.052 514.079H412.85V519.175H409.052C407.168 519.175 405.516 519.514 404.096 520.194C402.66 520.873 401.541 521.83 400.738 523.065C399.919 524.301 399.51 525.752 399.51 527.42C399.51 529.025 399.865 530.423 400.576 531.611C401.286 532.8 402.289 533.727 403.586 534.391C404.868 535.055 406.381 535.387 408.126 535.387C409.762 535.387 411.306 535.085 412.758 534.483C414.194 533.897 415.367 533.04 416.278 531.913C417.189 530.801 417.683 529.458 417.76 527.883H423.319C423.226 530.369 422.477 532.546 421.072 534.414C419.667 536.298 417.83 537.764 415.56 538.814C413.275 539.864 410.766 540.389 408.033 540.389C405.099 540.389 402.583 539.795 400.483 538.606C398.383 537.432 396.77 535.881 395.642 533.951C394.515 532.021 393.952 529.936 393.952 527.697C393.952 525.026 394.654 522.749 396.059 520.865C397.449 518.982 399.34 517.677 401.734 516.951V516.581C398.738 516.087 396.399 514.813 394.716 512.759C393.033 510.721 392.192 508.197 392.192 505.186C392.192 502.607 392.894 500.291 394.299 498.238C395.689 496.2 397.588 494.594 399.997 493.421C402.405 492.247 405.146 491.66 408.218 491.66Z" fill="black"/>
<path d="M408.953 492.556C412.01 492.556 414.735 493.081 417.129 494.131C419.506 495.18 421.398 496.64 422.803 498.508C424.193 500.391 424.949 502.576 425.073 505.062H419.236C419.113 503.533 418.588 502.213 417.661 501.102C416.735 500.005 415.523 499.156 414.025 498.554C412.528 497.952 410.868 497.651 409.046 497.651C407.008 497.651 405.201 498.006 403.626 498.716C402.051 499.426 400.816 500.415 399.921 501.681C399.025 502.947 398.577 504.414 398.577 506.081C398.577 507.826 399.01 509.362 399.874 510.69C400.739 512.033 402.005 513.083 403.673 513.84C405.34 514.596 407.378 514.975 409.787 514.975H413.585V520.07H409.787C407.903 520.07 406.251 520.409 404.831 521.089C403.395 521.768 402.275 522.725 401.472 523.961C400.654 525.196 400.245 526.647 400.245 528.315C400.245 529.921 400.6 531.318 401.31 532.507C402.021 533.696 403.024 534.622 404.321 535.286C405.603 535.95 407.116 536.282 408.861 536.282C410.497 536.282 412.041 535.981 413.493 535.379C414.928 534.792 416.102 533.935 417.013 532.808C417.924 531.696 418.418 530.353 418.495 528.778H424.054C423.961 531.264 423.212 533.441 421.807 535.309C420.402 537.193 418.565 538.66 416.295 539.71C414.01 540.759 411.501 541.284 408.768 541.284C405.834 541.284 403.318 540.69 401.218 539.501C399.118 538.328 397.504 536.776 396.377 534.846C395.25 532.916 394.687 530.831 394.687 528.593C394.687 525.922 395.389 523.644 396.794 521.76C398.184 519.877 400.075 518.572 402.468 517.846V517.476C399.473 516.982 397.134 515.708 395.451 513.654C393.768 511.616 392.926 509.092 392.926 506.081C392.926 503.503 393.629 501.187 395.034 499.133C396.424 497.095 398.323 495.489 400.731 494.316C403.14 493.142 405.881 492.556 408.953 492.556Z" fill="black"/>
<path d="M417.129 494.131L417.287 493.773L417.286 493.772L417.129 494.131ZM422.803 498.508L423.118 498.275L423.116 498.273L422.803 498.508ZM425.073 505.062V505.453H425.484L425.463 505.043L425.073 505.062ZM419.236 505.062L418.846 505.094L418.875 505.453H419.236V505.062ZM417.661 501.102L417.962 500.851L417.96 500.849L417.661 501.102ZM414.025 498.554L414.171 498.191L414.025 498.554ZM399.921 501.681L400.24 501.907L399.921 501.681ZM399.874 510.69L400.203 510.478L400.202 510.476L399.874 510.69ZM403.673 513.84L403.834 513.483L403.673 513.84ZM413.585 514.975H413.977V514.583H413.585V514.975ZM413.585 520.07V520.461H413.977V520.07H413.585ZM404.831 521.089L404.998 521.443L405 521.442L404.831 521.089ZM401.472 523.961L401.799 524.177L401.801 524.174L401.472 523.961ZM401.31 532.507L400.974 532.707L401.31 532.507ZM404.321 535.286L404.501 534.938L404.499 534.938L404.321 535.286ZM413.493 535.379L413.345 535.016L413.343 535.017L413.493 535.379ZM417.013 532.808L416.71 532.56L416.709 532.562L417.013 532.808ZM418.495 528.778V528.387H418.123L418.104 528.759L418.495 528.778ZM424.054 528.778L424.445 528.793L424.46 528.387H424.054V528.778ZM421.807 535.309L421.494 535.074L421.493 535.075L421.807 535.309ZM416.295 539.71L416.458 540.065L416.459 540.065L416.295 539.71ZM401.218 539.501L401.411 539.161L401.409 539.159L401.218 539.501ZM396.377 534.846L396.715 534.649V534.649L396.377 534.846ZM396.794 521.76L397.108 521.994L397.109 521.993L396.794 521.76ZM402.468 517.846L402.582 518.221L402.86 518.137V517.846H402.468ZM402.468 517.476H402.86V517.144L402.532 517.09L402.468 517.476ZM395.451 513.654L395.754 513.406L395.753 513.405L395.451 513.654ZM395.034 499.133L395.357 499.354L395.357 499.354L395.034 499.133ZM400.731 494.316L400.56 493.964L400.731 494.316ZM408.953 492.947C411.965 492.947 414.636 493.464 416.971 494.489L417.286 493.772C414.835 492.697 412.055 492.164 408.953 492.164V492.947ZM416.971 494.488C419.294 495.514 421.13 496.934 422.49 498.743L423.116 498.273C421.666 496.345 419.719 494.846 417.287 493.773L416.971 494.488ZM422.488 498.74C423.829 500.558 424.562 502.667 424.682 505.081L425.463 505.043C425.336 502.485 424.556 500.225 423.118 498.275L422.488 498.74ZM425.073 504.671H419.236V505.453H425.073V504.671ZM419.626 505.031C419.497 503.427 418.943 502.029 417.962 500.851L417.361 501.352C418.232 502.398 418.729 503.64 418.846 505.094L419.626 505.031ZM417.96 500.849C416.988 499.698 415.721 498.814 414.171 498.191L413.879 498.917C415.325 499.499 416.482 500.313 417.362 501.354L417.96 500.849ZM414.171 498.191C412.622 497.568 410.911 497.26 409.046 497.26V498.042C410.824 498.042 412.434 498.336 413.879 498.917L414.171 498.191ZM409.046 497.26C406.962 497.26 405.099 497.623 403.466 498.359L403.787 499.073C405.303 498.389 407.053 498.042 409.046 498.042V497.26ZM403.466 498.359C401.834 499.095 400.542 500.125 399.601 501.455L400.24 501.907C401.091 500.704 402.269 499.758 403.787 499.073L403.466 498.359ZM399.601 501.455C398.655 502.792 398.186 504.339 398.186 506.081H398.969C398.969 504.488 399.395 503.102 400.24 501.907L399.601 501.455ZM398.186 506.081C398.186 507.894 398.636 509.506 399.547 510.903L400.202 510.476C399.383 509.218 398.969 507.758 398.969 506.081H398.186ZM399.545 510.902C400.456 512.317 401.785 513.413 403.511 514.196L403.834 513.483C402.225 512.753 401.022 511.749 400.203 510.478L399.545 510.902ZM403.511 514.196C405.243 514.982 407.339 515.366 409.787 515.366V514.583C407.417 514.583 405.438 514.211 403.834 513.483L403.511 514.196ZM409.787 515.366H413.585V514.583H409.787V515.366ZM413.194 514.975V520.07H413.977V514.975H413.194ZM413.585 519.678H409.787V520.461H413.585V519.678ZM409.787 519.678C407.856 519.678 406.144 520.027 404.662 520.736L405 521.442C406.358 520.792 407.95 520.461 409.787 520.461V519.678ZM404.663 520.735C403.167 521.443 401.99 522.447 401.144 523.747L401.801 524.174C402.561 523.004 403.622 522.093 404.998 521.443L404.663 520.735ZM401.146 523.745C400.28 525.052 399.854 526.58 399.854 528.315H400.636C400.636 526.714 401.028 525.34 401.799 524.177L401.146 523.745ZM399.854 528.315C399.854 529.98 400.223 531.449 400.974 532.707L401.646 532.306C400.978 531.187 400.636 529.861 400.636 528.315H399.854ZM400.974 532.707C401.724 533.963 402.784 534.939 404.143 535.634L404.499 534.938C403.264 534.305 402.317 533.429 401.646 532.306L400.974 532.707ZM404.141 535.633C405.489 536.332 407.066 536.673 408.861 536.673V535.891C407.166 535.891 405.717 535.568 404.501 534.938L404.141 535.633ZM408.861 536.673C410.546 536.673 412.142 536.363 413.643 535.74L413.343 535.017C411.941 535.599 410.448 535.891 408.861 535.891V536.673ZM413.641 535.741C415.133 535.131 416.362 534.236 417.317 533.054L416.709 532.562C415.842 533.634 414.724 534.453 413.345 535.016L413.641 535.741ZM417.316 533.056C418.285 531.873 418.805 530.447 418.886 528.797L418.104 528.759C418.031 530.259 417.563 531.519 416.71 532.56L417.316 533.056ZM418.495 529.169H424.054V528.387H418.495V529.169ZM423.663 528.763C423.573 531.175 422.848 533.274 421.494 535.074L422.12 535.544C423.576 533.608 424.349 531.353 424.445 528.793L423.663 528.763ZM421.493 535.075C420.13 536.903 418.345 538.33 416.131 539.354L416.459 540.065C418.784 538.989 420.674 537.482 422.121 535.543L421.493 535.075ZM416.132 539.354C413.902 540.378 411.449 540.893 408.768 540.893V541.676C411.552 541.676 414.118 541.141 416.458 540.065L416.132 539.354ZM408.768 540.893C405.887 540.893 403.44 540.31 401.411 539.161L401.025 539.842C403.195 541.07 405.781 541.676 408.768 541.676V540.893ZM401.409 539.159C399.365 538.017 397.804 536.514 396.715 534.649L396.039 535.043C397.204 537.038 398.871 538.638 401.027 539.843L401.409 539.159ZM396.715 534.649C395.623 532.779 395.078 530.762 395.078 528.593H394.295C394.295 530.901 394.877 533.053 396.039 535.043L396.715 534.649ZM395.078 528.593C395.078 525.994 395.76 523.801 397.108 521.994L396.48 521.527C395.018 523.487 394.295 525.849 394.295 528.593H395.078ZM397.109 521.993C398.445 520.182 400.264 518.924 402.582 518.221L402.355 517.472C399.887 518.22 397.922 519.572 396.479 521.528L397.109 521.993ZM402.86 517.846V517.476H402.077V517.846H402.86ZM402.532 517.09C399.616 516.609 397.368 515.376 395.754 513.406L395.148 513.902C396.9 516.04 399.33 517.355 402.405 517.862L402.532 517.09ZM395.753 513.405C394.136 511.447 393.318 509.014 393.318 506.081H392.535C392.535 509.169 393.4 511.786 395.149 513.904L395.753 513.405ZM393.318 506.081C393.318 503.578 393.998 501.34 395.357 499.354L394.711 498.912C393.26 501.033 392.535 503.427 392.535 506.081H393.318ZM395.357 499.354C396.705 497.376 398.55 495.814 400.903 494.668L400.56 493.964C398.096 495.165 396.142 496.814 394.711 498.913L395.357 499.354ZM400.903 494.668C403.251 493.524 405.931 492.947 408.953 492.947V492.164C405.83 492.164 403.029 492.761 400.56 493.964L400.903 494.668Z" fill="black"/>
</svg>
