<svg width="527" height="587" viewBox="0 0 527 587" fill="none" xmlns="http://www.w3.org/2000/svg">
<path d="M442.509 0H84.1091C69.9706 0 58.509 11.4872 58.509 25.6573V560.771C58.509 574.941 69.9706 586.429 84.1091 586.429H442.509C456.648 586.429 468.109 574.941 468.109 560.771V25.6573C468.109 11.4872 456.648 0 442.509 0Z" fill="white"/>
<path d="M109.709 36.6519H416.909C431.047 36.6519 442.509 48.139 442.509 62.3091V524.12C442.509 538.29 431.047 549.777 416.909 549.777H109.709C95.5705 549.777 84.1091 538.29 84.1091 524.12V62.3091C84.1091 48.139 95.5705 36.6519 109.709 36.6519Z" fill="#FF9B99"/>
<path d="M100.57 456.318C156.113 511.986 274.001 484.089 363.88 394.009C453.759 303.93 481.593 185.778 426.05 130.111C370.506 74.4431 252.619 102.34 162.74 192.419C72.8611 282.499 45.0268 400.651 100.57 456.318Z" fill="white"/>
<path d="M280.62 374.072C273.163 373.954 265.706 372.534 258.248 369.811C250.791 367.089 243.984 362.502 237.829 356.05C231.674 349.54 226.732 340.751 223.003 329.683C219.274 318.556 217.41 304.589 217.41 287.78C217.41 271.681 218.919 257.418 221.938 244.989C224.956 232.5 229.336 221.995 235.077 213.472C240.818 204.89 247.743 198.38 255.851 193.941C264.019 189.502 273.222 187.283 283.461 187.283C293.641 187.283 302.697 189.325 310.627 193.408C318.617 197.433 325.128 203.056 330.159 210.276C335.189 217.497 338.445 225.813 339.924 235.223H318.262C316.25 227.055 312.344 220.279 306.544 214.893C300.743 209.507 293.049 206.814 283.461 206.814C269.375 206.814 258.278 212.94 250.169 225.191C242.12 237.442 238.066 254.636 238.007 276.771H239.427C242.741 271.741 246.677 267.45 251.235 263.898C255.851 260.288 260.941 257.506 266.505 255.553C272.068 253.6 277.957 252.624 284.171 252.624C294.588 252.624 304.117 255.228 312.758 260.436C321.399 265.585 328.324 272.717 333.532 281.832C338.741 290.887 341.345 301.274 341.345 312.993C341.345 324.238 338.829 334.536 333.799 343.888C328.768 353.18 321.695 360.578 312.581 366.082C303.525 371.527 292.872 374.191 280.62 374.072ZM280.62 354.541C288.078 354.541 294.766 352.677 300.684 348.948C306.662 345.219 311.367 340.218 314.8 333.945C318.292 327.671 320.038 320.687 320.038 312.993C320.038 305.476 318.351 298.64 314.978 292.485C311.663 286.271 307.076 281.329 301.217 277.659C295.417 273.99 288.788 272.155 281.331 272.155C275.708 272.155 270.47 273.279 265.617 275.528C260.764 277.718 256.502 280.737 252.833 284.584C249.222 288.431 246.381 292.84 244.31 297.812C242.238 302.724 241.203 307.903 241.203 313.348C241.203 320.569 242.889 327.316 246.263 333.59C249.696 339.863 254.371 344.924 260.29 348.771C266.268 352.618 273.045 354.541 280.62 354.541Z" fill="black"/>
<path d="M277.802 370.641C270.345 370.522 262.888 369.102 255.43 366.379C247.973 363.657 241.167 359.07 235.011 352.619C228.856 346.108 223.914 337.319 220.185 326.251C216.457 315.124 214.592 301.157 214.592 284.348C214.592 268.249 216.101 253.986 219.12 241.557C222.138 229.069 226.518 218.563 232.259 210.04C238 201.459 244.925 194.948 253.033 190.509C261.201 186.07 270.404 183.851 280.643 183.851C290.823 183.851 299.879 185.893 307.81 189.977C315.8 194.001 322.31 199.624 327.341 206.844C332.372 214.065 335.627 222.381 337.106 231.791H315.444C313.432 223.624 309.526 216.847 303.726 211.461C297.926 206.075 290.231 203.382 280.643 203.382C266.557 203.382 255.46 209.508 247.351 221.759C239.302 234.011 235.248 251.204 235.189 273.339H236.609C239.924 268.309 243.859 264.018 248.417 260.467C253.033 256.856 258.123 254.075 263.687 252.121C269.25 250.168 275.139 249.192 281.354 249.192C291.77 249.192 301.299 251.796 309.94 257.004C318.581 262.153 325.506 269.285 330.714 278.4C335.923 287.455 338.527 297.842 338.527 309.561C338.527 320.806 336.011 331.105 330.981 340.456C325.95 349.748 318.877 357.146 309.763 362.651C300.707 368.096 290.054 370.759 277.802 370.641ZM277.802 351.109C285.26 351.109 291.948 349.245 297.866 345.516C303.844 341.788 308.549 336.786 311.982 330.513C315.474 324.239 317.22 317.255 317.22 309.561C317.22 302.044 315.533 295.209 312.16 289.053C308.845 282.839 304.258 277.897 298.399 274.227C292.599 270.558 285.97 268.723 278.513 268.723C272.89 268.723 267.652 269.847 262.799 272.097C257.946 274.286 253.684 277.305 250.015 281.152C246.404 284.999 243.564 289.408 241.492 294.38C239.421 299.292 238.385 304.471 238.385 309.916C238.385 317.137 240.072 323.884 243.445 330.158C246.878 336.431 251.554 341.492 257.472 345.339C263.45 349.186 270.227 351.109 277.802 351.109Z" fill="#FF9B99"/>
<path d="M277.802 370.641L277.779 372.14L277.788 372.141L277.802 370.641ZM255.43 366.379L254.916 367.788L255.43 366.379ZM235.011 352.619L233.921 353.649L233.926 353.654L235.011 352.619ZM220.185 326.251L218.763 326.728L218.764 326.73L220.185 326.251ZM219.12 241.557L220.578 241.911L220.578 241.909L219.12 241.557ZM232.259 210.04L233.503 210.878L233.506 210.874L232.259 210.04ZM253.033 190.509L252.317 189.191L252.313 189.193L253.033 190.509ZM307.81 189.977L307.123 191.31L307.135 191.316L307.81 189.977ZM327.341 206.844L328.572 205.987V205.987L327.341 206.844ZM337.106 231.791V233.291H338.861L338.588 231.558L337.106 231.791ZM315.444 231.791L313.988 232.15L314.269 233.291H315.444V231.791ZM303.726 211.461L302.705 212.56L303.726 211.461ZM247.351 221.759L246.101 220.931L246.098 220.936L247.351 221.759ZM235.189 273.339L233.689 273.335L233.685 274.839H235.189V273.339ZM236.609 273.339V274.839H237.417L237.862 274.165L236.609 273.339ZM248.417 260.467L249.339 261.65L249.341 261.648L248.417 260.467ZM263.687 252.121L263.19 250.706L263.687 252.121ZM309.94 257.004L309.166 258.289L309.172 258.293L309.94 257.004ZM330.714 278.4L329.412 279.144L329.414 279.148L330.714 278.4ZM330.981 340.456L332.3 341.17L332.302 341.167L330.981 340.456ZM309.763 362.651L310.536 363.936L310.538 363.935L309.763 362.651ZM297.866 345.516L297.072 344.244L297.067 344.247L297.866 345.516ZM311.982 330.513L310.671 329.783L310.666 329.793L311.982 330.513ZM312.16 289.053L310.836 289.759L310.84 289.767L310.844 289.774L312.16 289.053ZM298.399 274.227L297.597 275.495L297.603 275.499L298.399 274.227ZM262.799 272.097L263.416 273.464L263.423 273.461L263.43 273.458L262.799 272.097ZM250.015 281.152L248.929 280.117L248.921 280.125L250.015 281.152ZM241.492 294.38L242.874 294.963L242.877 294.957L241.492 294.38ZM243.445 330.158L242.124 330.868L242.129 330.878L243.445 330.158ZM257.472 345.339L256.655 346.596L256.66 346.6L257.472 345.339ZM277.826 369.141C270.547 369.025 263.255 367.639 255.945 364.97L254.916 367.788C262.52 370.565 270.143 372.019 277.779 372.14L277.826 369.141ZM255.945 364.97C248.729 362.336 242.112 357.888 236.096 351.583L233.926 353.654C240.221 360.251 247.217 364.977 254.916 367.788L255.945 364.97ZM236.101 351.588C230.133 345.276 225.286 336.694 221.607 325.772L218.764 326.73C222.542 337.944 227.579 346.941 233.921 353.649L236.101 351.588ZM221.607 325.775C217.947 314.852 216.092 301.059 216.092 284.348H213.092C213.092 301.255 214.966 315.397 218.763 326.728L221.607 325.775ZM216.092 284.348C216.092 268.34 217.593 254.199 220.578 241.911L217.662 241.203C214.609 253.773 213.092 268.159 213.092 284.348H216.092ZM220.578 241.909C223.565 229.553 227.883 219.222 233.503 210.878L231.015 209.202C225.153 217.905 220.712 228.585 217.662 241.204L220.578 241.909ZM233.506 210.874C239.129 202.469 245.881 196.135 253.754 191.825L252.313 189.193C243.969 193.761 236.872 200.448 231.012 209.206L233.506 210.874ZM253.749 191.827C261.676 187.519 270.628 185.351 280.643 185.351V182.351C270.18 182.351 260.726 184.621 252.317 189.191L253.749 191.827ZM280.643 185.351C290.618 185.351 299.433 187.35 307.123 191.31L308.496 188.643C300.325 184.435 291.028 182.351 280.643 182.351V185.351ZM307.135 191.316C314.906 195.231 321.224 200.689 326.11 207.702L328.572 205.987C323.396 198.558 316.693 192.772 308.484 188.637L307.135 191.316ZM326.11 207.702C331 214.721 334.177 222.819 335.625 232.024L338.588 231.558C337.076 221.942 333.743 213.409 328.572 205.987L326.11 207.702ZM337.106 230.291H315.444V233.291H337.106V230.291ZM316.901 231.432C314.823 222.999 310.775 215.959 304.746 210.362L302.705 212.56C308.277 217.734 312.041 224.248 313.988 232.15L316.901 231.432ZM304.746 210.362C298.613 204.666 290.526 201.882 280.643 201.882V204.882C289.937 204.882 297.239 207.484 302.705 212.56L304.746 210.362ZM280.643 201.882C266.028 201.882 254.472 208.282 246.101 220.931L248.602 222.587C256.447 210.734 267.086 204.882 280.643 204.882V201.882ZM246.098 220.936C237.826 233.525 233.748 251.047 233.689 273.335L236.689 273.343C236.748 251.361 240.778 234.496 248.605 222.583L246.098 220.936ZM235.189 274.839H236.609V271.839H235.189V274.839ZM237.862 274.165C241.09 269.265 244.916 265.096 249.339 261.65L247.495 259.283C242.803 262.939 238.757 267.353 235.357 272.514L237.862 274.165ZM249.341 261.648C253.828 258.139 258.773 255.436 264.184 253.537L263.19 250.706C257.473 252.713 252.239 255.573 247.493 259.285L249.341 261.648ZM264.184 253.537C269.579 251.643 275.299 250.692 281.354 250.692V247.692C274.979 247.692 268.921 248.694 263.19 250.706L264.184 253.537ZM281.354 250.692C291.507 250.692 300.766 253.226 309.166 258.289L310.715 255.72C301.832 250.366 292.034 247.692 281.354 247.692V250.692ZM309.172 258.293C317.581 263.304 324.326 270.244 329.412 279.144L332.017 277.656C326.686 268.327 319.581 261.003 310.708 255.716L309.172 258.293ZM329.414 279.148C334.476 287.949 337.027 298.072 337.027 309.561H340.027C340.027 297.612 337.369 286.962 332.015 277.652L329.414 279.148ZM337.027 309.561C337.027 320.573 334.566 330.625 329.66 339.745L332.302 341.167C337.457 331.584 340.027 321.039 340.027 309.561H337.027ZM329.662 339.742C324.759 348.797 317.875 355.999 308.987 361.367L310.538 363.935C319.88 358.293 327.141 350.699 332.3 341.17L329.662 339.742ZM308.99 361.365C300.208 366.646 289.836 369.257 277.817 369.141L277.788 372.141C290.272 372.261 301.207 369.546 310.536 363.936L308.99 361.365ZM277.802 352.609C285.523 352.609 292.492 350.675 298.666 346.785L297.067 344.247C291.404 347.815 284.996 349.609 277.802 349.609V352.609ZM298.66 346.789C304.86 342.922 309.744 337.729 313.298 331.233L310.666 329.793C307.355 335.844 302.828 340.653 297.072 344.244L298.66 346.789ZM313.293 331.242C316.918 324.73 318.72 317.492 318.72 309.561H315.72C315.72 317.019 314.03 323.749 310.671 329.783L313.293 331.242ZM318.72 309.561C318.72 301.811 316.978 294.724 313.475 288.332L310.844 289.774C314.088 295.693 315.72 302.278 315.72 309.561H318.72ZM313.483 288.347C310.048 281.906 305.281 276.767 299.195 272.956L297.603 275.499C303.236 279.026 307.643 283.771 310.836 289.759L313.483 288.347ZM299.201 272.96C293.14 269.125 286.228 267.223 278.513 267.223V270.223C285.712 270.223 292.057 271.99 297.597 275.495L299.201 272.96ZM278.513 267.223C272.684 267.223 267.229 268.39 262.168 270.736L263.43 273.458C268.075 271.305 273.096 270.223 278.513 270.223V267.223ZM262.182 270.729C257.153 272.998 252.732 276.13 248.929 280.117L251.1 282.187C254.636 278.48 258.738 275.574 263.416 273.464L262.182 270.729ZM248.921 280.125C245.185 284.106 242.247 288.669 240.107 293.803L242.877 294.957C244.88 290.148 247.624 285.892 251.109 282.178L248.921 280.125ZM240.11 293.797C237.959 298.898 236.885 304.275 236.885 309.916H239.885C239.885 304.667 240.882 299.687 242.874 294.963L240.11 293.797ZM236.885 309.916C236.885 317.381 238.631 324.373 242.124 330.868L244.766 329.447C241.512 323.395 239.885 316.892 239.885 309.916H236.885ZM242.129 330.878C245.68 337.366 250.525 342.612 256.655 346.596L258.29 344.081C252.582 340.371 248.076 335.497 244.761 329.438L242.129 330.878ZM256.66 346.6C262.896 350.613 269.959 352.609 277.802 352.609V349.609C270.495 349.609 264.003 347.758 258.284 344.077L256.66 346.6Z" fill="black"/>
<path d="M123.505 94.7369C121.559 94.706 119.614 94.3354 117.668 93.6252C115.723 92.9149 113.947 91.7183 112.342 90.0354C110.736 88.337 109.447 86.0441 108.474 83.1568C107.501 80.2541 107.015 76.6102 107.015 72.2253C107.015 68.0256 107.408 64.3045 108.196 61.0621C108.983 57.8043 110.126 55.0637 111.624 52.8403C113.121 50.6015 114.928 48.9031 117.043 47.7451C119.174 46.5871 121.575 46.0081 124.246 46.0081C126.902 46.0081 129.264 46.5408 131.333 47.6061C133.417 48.656 135.116 50.1228 136.428 52.0065C137.74 53.8902 138.59 56.0595 138.976 58.5145H133.325C132.8 56.3838 131.781 54.6159 130.267 53.2109C128.754 51.8058 126.747 51.1033 124.246 51.1033C120.571 51.1033 117.676 52.7013 115.561 55.8974C113.461 59.0935 112.403 63.5788 112.388 69.3534H112.758C113.623 68.041 114.65 66.9216 115.839 65.9952C117.043 65.0534 118.371 64.3277 119.822 63.8182C121.274 63.3086 122.81 63.0539 124.431 63.0539C127.149 63.0539 129.634 63.7332 131.889 65.092C134.143 66.4353 135.949 68.2958 137.308 70.6735C138.667 73.0359 139.346 75.7456 139.346 78.8027C139.346 81.7363 138.69 84.4229 137.378 86.8624C136.065 89.2865 134.22 91.2165 131.842 92.6525C129.48 94.0729 126.701 94.7677 123.505 94.7369ZM123.505 89.6416C125.45 89.6416 127.195 89.1553 128.739 88.1826C130.298 87.2098 131.526 85.9052 132.421 84.2685C133.332 82.6319 133.788 80.8099 133.788 78.8027C133.788 76.8418 133.348 75.0585 132.468 73.4528C131.603 71.8316 130.406 70.5423 128.878 69.585C127.365 68.6277 125.635 68.1491 123.69 68.1491C122.223 68.1491 120.857 68.4425 119.591 69.0292C118.325 69.6005 117.213 70.3879 116.256 71.3915C115.314 72.3951 114.573 73.5454 114.032 74.8424C113.492 76.1239 113.222 77.4749 113.222 78.8954C113.222 80.7791 113.662 82.5392 114.542 84.1759C115.437 85.8125 116.657 87.1326 118.201 88.1362C119.761 89.1398 121.528 89.6416 123.505 89.6416Z" fill="black"/>
<path d="M122.769 93.8414C120.824 93.8105 118.878 93.4399 116.933 92.7297C114.988 92.0194 113.212 90.8228 111.606 89.1399C110 87.4415 108.711 85.1486 107.738 82.2613C106.766 79.3586 106.279 75.7147 106.279 71.3298C106.279 67.1301 106.673 63.409 107.461 60.1666C108.248 56.9088 109.391 54.1682 110.888 51.9448C112.386 49.706 114.192 48.0076 116.308 46.8496C118.438 45.6916 120.839 45.1126 123.51 45.1126C126.166 45.1126 128.529 45.6453 130.597 46.7106C132.682 47.7605 134.38 49.2273 135.693 51.111C137.005 52.9947 137.854 55.164 138.24 57.619H132.589C132.064 55.4883 131.045 53.7204 129.532 52.3154C128.019 50.9103 126.012 50.2078 123.51 50.2078C119.836 50.2078 116.941 51.8058 114.825 55.0019C112.726 58.198 111.668 62.6833 111.653 68.4579H112.023C112.888 67.1455 113.915 66.0261 115.103 65.0997C116.308 64.1579 117.636 63.4322 119.087 62.9227C120.538 62.4131 122.075 62.1584 123.696 62.1584C126.413 62.1584 128.899 62.8377 131.153 64.1965C133.408 65.5397 135.214 67.4003 136.573 69.778C137.932 72.1404 138.611 74.8501 138.611 77.9072C138.611 80.8408 137.955 83.5274 136.642 85.9669C135.33 88.391 133.485 90.321 131.107 91.7569C128.745 93.1774 125.965 93.8722 122.769 93.8414ZM122.769 88.7461C124.715 88.7461 126.46 88.2598 128.004 87.2871C129.563 86.3143 130.79 85.0096 131.686 83.373C132.597 81.7364 133.052 79.9144 133.052 77.9072C133.052 75.9463 132.612 74.163 131.732 72.5573C130.868 70.936 129.671 69.6468 128.143 68.6895C126.629 67.7322 124.9 67.2536 122.955 67.2536C121.488 67.2536 120.121 67.547 118.855 68.1337C117.589 68.705 116.478 69.4924 115.52 70.496C114.578 71.4996 113.837 72.6499 113.297 73.9469C112.757 75.2284 112.486 76.5794 112.486 77.9999C112.486 79.8836 112.926 81.6437 113.806 83.2804C114.702 84.917 115.922 86.2371 117.466 87.2407C119.025 88.2443 120.793 88.7461 122.769 88.7461Z" fill="black"/>
<path d="M122.769 93.8414L122.763 94.2326L122.766 94.2326L122.769 93.8414ZM116.933 92.7297L116.799 93.0973L116.933 92.7297ZM111.606 89.1399L111.322 89.4087L111.323 89.41L111.606 89.1399ZM107.738 82.2613L107.367 82.3857L107.368 82.3863L107.738 82.2613ZM107.461 60.1666L107.841 60.259L107.841 60.2585L107.461 60.1666ZM110.888 51.9448L111.213 52.1634L111.214 52.1624L110.888 51.9448ZM116.308 46.8496L116.121 46.5058L116.12 46.5063L116.308 46.8496ZM130.597 46.7106L130.418 47.0585L130.421 47.0601L130.597 46.7106ZM135.693 51.111L136.014 50.8873V50.8873L135.693 51.111ZM138.24 57.619V58.0103H138.698L138.627 57.5582L138.24 57.619ZM132.589 57.619L132.209 57.7126L132.283 58.0103H132.589V57.619ZM129.532 52.3154L129.266 52.6021L129.532 52.3154ZM114.825 55.0019L114.499 54.786L114.498 54.7871L114.825 55.0019ZM111.653 68.4579L111.261 68.4569L111.26 68.8492H111.653V68.4579ZM112.023 68.4579V68.8492H112.234L112.35 68.6732L112.023 68.4579ZM115.103 65.0997L115.344 65.4084L115.344 65.408L115.103 65.0997ZM119.087 62.9227L118.957 62.5534L119.087 62.9227ZM131.153 64.1965L130.951 64.5316L130.953 64.5326L131.153 64.1965ZM136.573 69.778L136.233 69.9722L136.234 69.9731L136.573 69.778ZM136.642 85.9669L136.986 86.1532L136.987 86.1523L136.642 85.9669ZM131.107 91.7569L131.309 92.0923L131.309 92.0919L131.107 91.7569ZM128.004 87.2871L127.796 86.955L127.795 86.956L128.004 87.2871ZM131.686 83.373L131.344 83.1827L131.343 83.1852L131.686 83.373ZM131.732 72.5573L131.387 72.7414L131.389 72.7453L131.732 72.5573ZM128.143 68.6895L127.933 69.0202L127.935 69.0212L128.143 68.6895ZM118.855 68.1337L119.016 68.4904L119.02 68.4887L118.855 68.1337ZM115.52 70.496L115.237 70.2259L115.235 70.2282L115.52 70.496ZM113.297 73.9469L113.657 74.0989L113.658 74.0974L113.297 73.9469ZM113.806 83.2804L113.462 83.4657L113.463 83.4682L113.806 83.2804ZM117.466 87.2407L117.252 87.5688L117.254 87.5698L117.466 87.2407ZM122.776 93.4501C120.877 93.4199 118.974 93.0583 117.067 92.3621L116.799 93.0973C118.783 93.8215 120.771 94.201 122.763 94.2326L122.776 93.4501ZM117.067 92.3621C115.185 91.6749 113.459 90.5146 111.889 88.8697L111.323 89.41C112.965 91.131 114.79 92.364 116.799 93.0973L117.067 92.3621ZM111.891 88.871C110.334 87.2243 109.069 84.9856 108.109 82.1364L107.368 82.3863C108.353 85.3116 109.667 87.6587 111.322 89.4087L111.891 88.871ZM108.11 82.137C107.155 79.2876 106.671 75.6892 106.671 71.3298H105.888C105.888 75.7403 106.377 79.4296 107.367 82.3857L108.11 82.137ZM106.671 71.3298C106.671 67.1536 107.062 63.4645 107.841 60.259L107.08 60.0743C106.284 63.3535 105.888 67.1066 105.888 71.3298H106.671ZM107.841 60.2585C108.62 57.035 109.747 54.3399 111.213 52.1634L110.564 51.7262C109.034 53.9964 107.876 56.7825 107.08 60.0747L107.841 60.2585ZM111.214 52.1624C112.68 49.9697 114.442 48.3172 116.496 47.1928L116.12 46.5063C113.943 47.698 112.092 49.4423 110.563 51.7272L111.214 52.1624ZM116.495 47.1934C118.562 46.0696 120.898 45.5039 123.51 45.5039V44.7213C120.781 44.7213 118.315 45.3135 116.121 46.5058L116.495 47.1934ZM123.51 45.5039C126.113 45.5039 128.412 46.0255 130.418 47.0585L130.777 46.3627C128.645 45.265 126.22 44.7213 123.51 44.7213V45.5039ZM130.421 47.0601C132.449 48.0813 134.097 49.5053 135.372 51.3347L136.014 50.8873C134.664 48.9494 132.915 47.4398 130.774 46.3611L130.421 47.0601ZM135.372 51.3347C136.647 53.1658 137.476 55.2785 137.854 57.6798L138.627 57.5582C138.232 55.0496 137.363 52.8236 136.014 50.8873L135.372 51.3347ZM138.24 57.2277H132.589V58.0103H138.24V57.2277ZM132.969 57.5254C132.427 55.3255 131.371 53.4889 129.798 52.0286L129.266 52.6021C130.719 53.9519 131.701 55.6511 132.209 57.7126L132.969 57.5254ZM129.798 52.0286C128.198 50.5427 126.089 49.8165 123.51 49.8165V50.5991C125.935 50.5991 127.84 51.2779 129.266 52.6021L129.798 52.0286ZM123.51 49.8165C119.698 49.8165 116.683 51.486 114.499 54.786L115.152 55.2179C117.198 52.1256 119.974 50.5991 123.51 50.5991V49.8165ZM114.498 54.7871C112.341 58.0713 111.277 62.6425 111.261 68.4569L112.044 68.459C112.059 62.7242 113.111 58.3247 115.153 55.2168L114.498 54.7871ZM111.653 68.8492H112.023V68.0666H111.653V68.8492ZM112.35 68.6732C113.192 67.3949 114.19 66.3074 115.344 65.4084L114.863 64.791C113.639 65.7448 112.583 66.8961 111.696 68.2426L112.35 68.6732ZM115.344 65.408C116.515 64.4925 117.805 63.7874 119.217 63.2919L118.957 62.5534C117.466 63.077 116.1 63.8232 114.862 64.7915L115.344 65.408ZM119.217 63.2919C120.624 62.7978 122.116 62.5497 123.696 62.5497V61.7671C122.033 61.7671 120.453 62.0285 118.957 62.5534L119.217 63.2919ZM123.696 62.5497C126.344 62.5497 128.76 63.2109 130.951 64.5316L131.355 63.8613C129.038 62.4646 126.482 61.7671 123.696 61.7671V62.5497ZM130.953 64.5326C133.147 65.8398 134.906 67.6503 136.233 69.9722L136.913 69.5839C135.522 67.1502 133.668 65.2397 131.354 63.8603L130.953 64.5326ZM136.234 69.9731C137.554 72.2691 138.22 74.9101 138.22 77.9072H139.002C139.002 74.7901 138.309 72.0116 136.912 69.5829L136.234 69.9731ZM138.22 77.9072C138.22 80.7801 137.578 83.4024 136.298 85.7815L136.987 86.1523C138.332 83.6524 139.002 80.9016 139.002 77.9072H138.22ZM136.298 85.7806C135.019 88.1429 133.223 90.0218 130.905 91.422L131.309 92.0919C133.746 90.6202 135.641 88.6391 136.986 86.1532L136.298 85.7806ZM130.905 91.4216C128.614 92.7992 125.909 93.4804 122.773 93.4501L122.766 94.2326C126.022 94.2641 128.875 93.5557 131.309 92.0923L130.905 91.4216ZM122.769 89.1374C124.784 89.1374 126.601 88.6328 128.212 87.6181L127.795 86.956C126.318 87.8867 124.646 88.3548 122.769 88.3548V89.1374ZM128.211 87.6191C129.828 86.6102 131.102 85.2555 132.029 83.5608L131.343 83.1852C130.479 84.7638 129.298 86.0184 127.796 86.955L128.211 87.6191ZM132.028 83.5633C132.974 81.8643 133.444 79.9761 133.444 77.9072H132.661C132.661 79.8527 132.22 81.6084 131.344 83.1827L132.028 83.5633ZM133.444 77.9072C133.444 75.8854 132.989 74.0367 132.075 72.3692L131.389 72.7453C132.235 74.2894 132.661 76.0073 132.661 77.9072H133.444ZM132.078 72.3731C131.181 70.6927 129.938 69.3522 128.35 68.3579L127.935 69.0212C129.404 69.9414 130.554 71.1794 131.387 72.7414L132.078 72.3731ZM128.352 68.3588C126.771 67.3585 124.968 66.8623 122.955 66.8623V67.6449C124.833 67.6449 126.488 68.1059 127.933 69.0202L128.352 68.3588ZM122.955 66.8623C121.434 66.8623 120.011 67.1668 118.691 67.7786L119.02 68.4887C120.232 67.9271 121.542 67.6449 122.955 67.6449V66.8623ZM118.694 67.777C117.382 68.369 116.229 69.1858 115.237 70.2259L115.803 70.7661C116.726 69.799 117.796 69.0409 119.016 68.4904L118.694 67.777ZM115.235 70.2282C114.26 71.2668 113.494 72.457 112.936 73.7963L113.658 74.0974C114.181 72.8428 114.897 71.7324 115.806 70.7638L115.235 70.2282ZM112.936 73.7948C112.375 75.1255 112.095 76.5283 112.095 77.9999H112.878C112.878 76.6305 113.138 75.3313 113.657 74.0989L112.936 73.7948ZM112.095 77.9999C112.095 79.9473 112.551 81.7713 113.462 83.4657L114.151 83.095C113.302 81.5162 112.878 79.8198 112.878 77.9999H112.095ZM113.463 83.4682C114.389 85.1609 115.653 86.5295 117.252 87.5688L117.679 86.9126C116.19 85.9448 115.015 84.6732 114.15 83.0925L113.463 83.4682ZM117.254 87.5698C118.881 88.6167 120.723 89.1374 122.769 89.1374V88.3548C120.863 88.3548 119.17 87.8719 117.677 86.9117L117.254 87.5698Z" fill="black"/>
<path d="M408.496 491.66C410.442 491.691 412.387 492.062 414.333 492.772C416.278 493.482 418.054 494.679 419.659 496.362C421.265 498.06 422.554 500.353 423.527 503.24C424.5 506.143 424.986 509.787 424.986 514.172C424.986 518.372 424.592 522.093 423.805 525.335C423.018 528.593 421.875 531.334 420.377 533.557C418.88 535.796 417.073 537.494 414.958 538.652C412.827 539.81 410.426 540.389 407.755 540.389C405.099 540.389 402.737 539.856 400.668 538.791C398.584 537.741 396.885 536.274 395.573 534.391C394.261 532.507 393.411 530.338 393.025 527.883H398.676C399.201 530.013 400.22 531.781 401.734 533.186C403.247 534.591 405.254 535.294 407.755 535.294C411.43 535.294 414.325 533.696 416.44 530.5C418.54 527.304 419.598 522.818 419.613 517.044H419.243C418.378 518.356 417.351 519.476 416.162 520.402C414.958 521.344 413.63 522.07 412.179 522.579C410.727 523.089 409.191 523.343 407.57 523.343C404.852 523.343 402.367 522.664 400.112 521.305C397.858 519.962 396.052 518.101 394.693 515.724C393.334 513.361 392.655 510.652 392.655 507.594C392.655 504.661 393.311 501.974 394.623 499.535C395.936 497.111 397.781 495.181 400.159 493.745C402.521 492.324 405.3 491.629 408.496 491.66ZM408.496 496.756C406.551 496.756 404.806 497.242 403.262 498.215C401.703 499.187 400.475 500.492 399.58 502.129C398.669 503.765 398.213 505.587 398.213 507.594C398.213 509.555 398.653 511.339 399.533 512.944C400.398 514.566 401.595 515.855 403.123 516.812C404.636 517.769 406.366 518.248 408.311 518.248C409.778 518.248 411.144 517.955 412.41 517.368C413.676 516.797 414.788 516.009 415.745 515.006C416.687 514.002 417.428 512.852 417.969 511.555C418.509 510.273 418.779 508.922 418.779 507.502C418.779 505.618 418.339 503.858 417.459 502.221C416.564 500.585 415.344 499.265 413.8 498.261C412.24 497.257 410.473 496.756 408.496 496.756Z" fill="black"/>
<path d="M409.231 492.556C411.177 492.586 413.122 492.957 415.067 493.667C417.013 494.378 418.788 495.574 420.394 497.257C422 498.956 423.289 501.248 424.262 504.136C425.235 507.038 425.721 510.682 425.721 515.067C425.721 519.267 425.327 522.988 424.54 526.23C423.752 529.488 422.61 532.229 421.112 534.452C419.615 536.691 417.808 538.389 415.693 539.547C413.562 540.705 411.161 541.284 408.49 541.284C405.834 541.284 403.472 540.752 401.403 539.686C399.319 538.636 397.62 537.17 396.308 535.286C394.995 533.402 394.146 531.233 393.76 528.778H399.411C399.936 530.909 400.955 532.677 402.468 534.082C403.981 535.487 405.989 536.189 408.49 536.189C412.165 536.189 415.06 534.591 417.175 531.395C419.275 528.199 420.333 523.714 420.348 517.939H419.977C419.113 519.251 418.086 520.371 416.897 521.297C415.693 522.239 414.365 522.965 412.914 523.474C411.462 523.984 409.926 524.239 408.305 524.239C405.587 524.239 403.101 523.559 400.847 522.201C398.593 520.857 396.786 518.997 395.428 516.619C394.069 514.257 393.39 511.547 393.39 508.49C393.39 505.556 394.046 502.87 395.358 500.43C396.671 498.006 398.516 496.076 400.893 494.64C403.256 493.22 406.035 492.525 409.231 492.556ZM409.231 497.651C407.286 497.651 405.541 498.137 403.997 499.11C402.437 500.083 401.21 501.387 400.314 503.024C399.404 504.661 398.948 506.483 398.948 508.49C398.948 510.451 399.388 512.234 400.268 513.84C401.133 515.461 402.329 516.75 403.858 517.707C405.371 518.665 407.1 519.143 409.046 519.143C410.513 519.143 411.879 518.85 413.145 518.263C414.411 517.692 415.523 516.905 416.48 515.901C417.422 514.897 418.163 513.747 418.704 512.45C419.244 511.169 419.514 509.818 419.514 508.397C419.514 506.513 419.074 504.753 418.194 503.117C417.299 501.48 416.079 500.16 414.535 499.156C412.975 498.153 411.207 497.651 409.231 497.651Z" fill="black"/>
<path d="M409.231 492.556L409.237 492.164L409.235 492.164L409.231 492.556ZM415.067 493.667L415.202 493.3L415.067 493.667ZM420.394 497.257L420.679 496.988L420.677 496.987L420.394 497.257ZM424.262 504.136L424.633 504.011L424.633 504.011L424.262 504.136ZM424.54 526.23L424.16 526.138L424.16 526.138L424.54 526.23ZM421.112 534.452L420.788 534.234L420.787 534.235L421.112 534.452ZM415.693 539.547L415.88 539.891L415.881 539.891L415.693 539.547ZM401.403 539.686L401.582 539.338L401.579 539.337L401.403 539.686ZM396.308 535.286L395.987 535.51V535.51L396.308 535.286ZM393.76 528.778V528.387H393.303L393.374 528.839L393.76 528.778ZM399.411 528.778L399.791 528.684L399.718 528.387H399.411V528.778ZM402.468 534.082L402.735 533.795L402.468 534.082ZM417.175 531.395L417.501 531.611L417.502 531.61L417.175 531.395ZM420.348 517.939L420.739 517.94L420.74 517.548H420.348V517.939ZM419.977 517.939V517.548H419.767L419.651 517.724L419.977 517.939ZM416.897 521.297L416.657 520.989L416.656 520.989L416.897 521.297ZM412.914 523.474L413.043 523.844L412.914 523.474ZM400.847 522.201L401.049 521.865L401.047 521.864L400.847 522.201ZM395.428 516.619L395.767 516.425L395.767 516.424L395.428 516.619ZM395.358 500.43L395.014 500.244L395.014 500.245L395.358 500.43ZM400.893 494.64L400.692 494.305L400.691 494.305L400.893 494.64ZM403.997 499.11L404.204 499.442L404.206 499.441L403.997 499.11ZM400.314 503.024L400.656 503.214L400.658 503.212L400.314 503.024ZM400.268 513.84L400.613 513.656L400.611 513.652L400.268 513.84ZM403.858 517.707L404.067 517.377L404.066 517.376L403.858 517.707ZM413.145 518.263L412.984 517.907L412.981 517.908L413.145 518.263ZM416.48 515.901L416.763 516.171L416.766 516.169L416.48 515.901ZM418.704 512.45L418.343 512.298L418.342 512.3L418.704 512.45ZM418.194 503.117L418.539 502.931L418.537 502.929L418.194 503.117ZM414.535 499.156L414.748 498.828L414.747 498.827L414.535 499.156ZM409.225 492.947C411.124 492.977 413.026 493.339 414.933 494.035L415.202 493.3C413.218 492.575 411.229 492.196 409.237 492.164L409.225 492.947ZM414.933 494.035C416.816 494.722 418.542 495.882 420.111 497.527L420.677 496.987C419.035 495.266 417.21 494.033 415.202 493.3L414.933 494.035ZM420.11 497.526C421.667 499.173 422.931 501.411 423.891 504.261L424.633 504.011C423.647 501.085 422.333 498.738 420.679 496.988L420.11 497.526ZM423.891 504.26C424.846 507.109 425.33 510.708 425.33 515.067H426.112C426.112 510.657 425.624 506.967 424.633 504.011L423.891 504.26ZM425.33 515.067C425.33 519.243 424.938 522.932 424.16 526.138L424.92 526.323C425.717 523.043 426.112 519.29 426.112 515.067H425.33ZM424.16 526.138C423.38 529.362 422.254 532.057 420.788 534.234L421.437 534.671C422.966 532.401 424.125 529.614 424.92 526.322L424.16 526.138ZM420.787 534.235C419.32 536.427 417.559 538.08 415.505 539.204L415.881 539.891C418.057 538.699 419.909 536.955 421.437 534.67L420.787 534.235ZM415.506 539.204C413.438 540.327 411.103 540.893 408.49 540.893V541.676C411.22 541.676 413.686 541.083 415.88 539.891L415.506 539.204ZM408.49 540.893C405.888 540.893 403.588 540.371 401.582 539.338L401.224 540.034C403.356 541.132 405.781 541.676 408.49 541.676V540.893ZM401.579 539.337C399.552 538.316 397.903 536.892 396.629 535.062L395.987 535.51C397.337 537.448 399.086 538.957 401.227 540.036L401.579 539.337ZM396.629 535.062C395.353 533.231 394.524 531.119 394.147 528.717L393.374 528.839C393.768 531.347 394.638 533.573 395.987 535.51L396.629 535.062ZM393.76 529.169H399.411V528.387H393.76V529.169ZM399.031 528.872C399.573 531.072 400.629 532.908 402.202 534.368L402.735 533.795C401.281 532.445 400.299 530.746 399.791 528.684L399.031 528.872ZM402.202 534.368C403.802 535.854 405.912 536.58 408.49 536.58V535.798C406.065 535.798 404.161 535.119 402.735 533.795L402.202 534.368ZM408.49 536.58C412.303 536.58 415.317 534.911 417.501 531.611L416.849 531.179C414.802 534.271 412.027 535.798 408.49 535.798V536.58ZM417.502 531.61C419.66 528.326 420.724 523.754 420.739 517.94L419.957 517.938C419.941 523.673 418.89 528.072 416.848 531.18L417.502 531.61ZM420.348 517.548H419.977V518.33H420.348V517.548ZM419.651 517.724C418.808 519.002 417.81 520.09 416.657 520.989L417.138 521.606C418.362 520.652 419.417 519.501 420.304 518.154L419.651 517.724ZM416.656 520.989C415.485 521.904 414.195 522.61 412.784 523.105L413.043 523.844C414.535 523.32 415.9 522.574 417.138 521.606L416.656 520.989ZM412.784 523.105C411.376 523.599 409.884 523.847 408.305 523.847V524.63C409.968 524.63 411.548 524.368 413.043 523.844L412.784 523.105ZM408.305 523.847C405.656 523.847 403.24 523.186 401.049 521.865L400.645 522.536C402.962 523.932 405.518 524.63 408.305 524.63V523.847ZM401.047 521.864C398.854 520.557 397.094 518.747 395.767 516.425L395.088 516.813C396.479 519.247 398.332 521.157 400.647 522.537L401.047 521.864ZM395.767 516.424C394.446 514.128 393.781 511.487 393.781 508.49H392.998C392.998 511.607 393.692 514.385 395.089 516.814L395.767 516.424ZM393.781 508.49C393.781 505.617 394.423 502.995 395.703 500.615L395.014 500.245C393.669 502.745 392.998 505.495 392.998 508.49H393.781ZM395.702 500.616C396.981 498.254 398.777 496.375 401.096 494.975L400.691 494.305C398.254 495.777 396.36 497.758 395.014 500.244L395.702 500.616ZM401.095 494.975C403.386 493.598 406.092 492.917 409.227 492.947L409.235 492.164C405.978 492.133 403.125 492.841 400.692 494.305L401.095 494.975ZM409.231 497.26C407.217 497.26 405.399 497.764 403.788 498.779L404.206 499.441C405.683 498.51 407.354 498.042 409.231 498.042V497.26ZM403.79 498.778C402.172 499.787 400.898 501.141 399.971 502.836L400.658 503.212C401.522 501.633 402.703 500.379 404.204 499.442L403.79 498.778ZM399.973 502.834C399.027 504.533 398.557 506.421 398.557 508.49H399.339C399.339 506.544 399.78 504.789 400.656 503.214L399.973 502.834ZM398.557 508.49C398.557 510.512 399.011 512.36 399.925 514.028L400.611 513.652C399.765 512.108 399.339 510.39 399.339 508.49H398.557ZM399.923 514.024C400.819 515.704 402.063 517.045 403.65 518.039L404.066 517.376C402.596 516.456 401.447 515.218 400.613 513.656L399.923 514.024ZM403.649 518.038C405.23 519.038 407.033 519.535 409.046 519.535V518.752C407.168 518.752 405.512 518.291 404.067 517.377L403.649 518.038ZM409.046 519.535C410.566 519.535 411.989 519.23 413.31 518.618L412.981 517.908C411.769 518.47 410.459 518.752 409.046 518.752V519.535ZM413.306 518.62C414.618 518.028 415.771 517.211 416.763 516.171L416.197 515.631C415.275 516.598 414.204 517.356 412.984 517.907L413.306 518.62ZM416.766 516.169C417.74 515.13 418.507 513.94 419.065 512.601L418.342 512.3C417.82 513.554 417.104 514.665 416.195 515.633L416.766 516.169ZM419.064 512.602C419.625 511.271 419.905 509.869 419.905 508.397H419.123C419.123 509.767 418.863 511.066 418.343 512.298L419.064 512.602ZM419.905 508.397C419.905 506.45 419.45 504.626 418.539 502.931L417.849 503.302C418.698 504.881 419.123 506.577 419.123 508.397H419.905ZM418.537 502.929C417.611 501.236 416.347 499.868 414.748 498.828L414.322 499.484C415.811 500.452 416.986 501.724 417.851 503.304L418.537 502.929ZM414.747 498.827C413.12 497.78 411.277 497.26 409.231 497.26V498.042C411.138 498.042 412.831 498.525 414.323 499.485L414.747 498.827Z" fill="black"/>
<path d="M342.945 394.445H214.945V407.843H342.945V394.445Z" fill="black"/>
<path d="M340.127 390.436H212.127V403.834H340.127V390.436Z" fill="#FF9B99" stroke="black" stroke-width="3"/>
<path d="M139.384 99.7524H106.394V103.206H139.384V99.7524Z" fill="black"/>
<path d="M138.657 98.719H105.667V102.172H138.657V98.719Z" fill="black" stroke="black" stroke-width="0.773206"/>
<path d="M392.473 486.666H425.463V483.213H392.473V486.666Z" fill="black"/>
<path d="M393.198 487.699H426.189V484.246H393.198V487.699Z" fill="black" stroke="black" stroke-width="0.773206"/>
</svg>
