<svg width="527" height="587" viewBox="0 0 527 587" fill="none" xmlns="http://www.w3.org/2000/svg">
<path d="M442.51 0H84.1101C69.9716 0 58.51 11.4872 58.51 25.6573V560.771C58.51 574.941 69.9716 586.429 84.1101 586.429H442.51C456.648 586.429 468.11 574.941 468.11 560.771V25.6573C468.11 11.4872 456.648 0 442.51 0Z" fill="white"/>
<path d="M109.71 36.6519H416.91C431.048 36.6519 442.51 48.139 442.51 62.3091V524.12C442.51 538.29 431.048 549.777 416.91 549.777H109.71C95.5712 549.777 84.1099 538.29 84.1099 524.12V62.3091C84.1099 48.139 95.5712 36.6519 109.71 36.6519Z" fill="#FF9B99"/>
<path d="M100.57 456.318C156.113 511.986 274.001 484.089 363.88 394.01C453.758 303.93 481.593 185.778 426.05 130.111C370.506 74.4433 252.618 102.34 162.74 192.42C72.8609 282.499 45.0265 400.651 100.57 456.318Z" fill="white"/>
<path d="M225.933 371.587L307.254 210.72V209.3H213.504V189.768H329.981V210.365L249.015 371.587H225.933Z" fill="black"/>
<path d="M223.115 368.155L304.436 207.288V205.868H210.686V186.337H327.163V206.933L246.198 368.155H223.115Z" fill="#FF9B99"/>
<path d="M223.115 368.155L221.776 367.478L220.676 369.655H223.115V368.155ZM304.436 207.288L305.775 207.965L305.936 207.646V207.288H304.436ZM304.436 205.868H305.936V204.368H304.436V205.868ZM210.686 205.868H209.186V207.368H210.686V205.868ZM210.686 186.337V184.837H209.186V186.337H210.686ZM327.163 186.337H328.663V184.837H327.163V186.337ZM327.163 206.933L328.504 207.606L328.663 207.289V206.933H327.163ZM246.198 368.155V369.655H247.123L247.538 368.828L246.198 368.155ZM224.454 368.832L305.775 207.965L303.097 206.612L221.776 367.478L224.454 368.832ZM305.936 207.288V205.868H302.936V207.288H305.936ZM304.436 204.368H210.686V207.368H304.436V204.368ZM212.186 205.868V186.337H209.186V205.868H212.186ZM210.686 187.837H327.163V184.837H210.686V187.837ZM325.663 186.337V206.933H328.663V186.337H325.663ZM325.823 206.26L244.857 367.482L247.538 368.828L328.504 207.606L325.823 206.26ZM246.198 366.655H223.115V369.655H246.198V366.655Z" fill="black"/>
<path d="M109.238 94.0884L130.453 52.1223V51.7518H105.996V46.6566H136.382V52.0297L115.26 94.0884H109.238Z" fill="black"/>
<path d="M108.503 93.1929L129.717 51.2268V50.8563H105.26V45.7611H135.646V51.1342L114.524 93.1929H108.503Z" fill="black"/>
<path d="M108.503 93.1929L108.154 93.0163L107.866 93.5842H108.503V93.1929ZM129.717 51.2268L130.067 51.4034L130.109 51.3201V51.2268H129.717ZM129.717 50.8563H130.109V50.465H129.717V50.8563ZM105.26 50.8563H104.869V51.2476H105.26V50.8563ZM105.26 45.7611V45.3697H104.869V45.7611H105.26ZM135.646 45.7611H136.038V45.3697H135.646V45.7611ZM135.646 51.1342L135.996 51.3098L136.038 51.2269V51.1342H135.646ZM114.524 93.1929V93.5842H114.766L114.874 93.3685L114.524 93.1929ZM108.852 93.3694L130.067 51.4034L129.368 51.0503L108.154 93.0163L108.852 93.3694ZM130.109 51.2268V50.8563H129.326V51.2268H130.109ZM129.717 50.465H105.26V51.2476H129.717V50.465ZM105.652 50.8563V45.7611H104.869V50.8563H105.652ZM105.26 46.1524H135.646V45.3697H105.26V46.1524ZM135.255 45.7611V51.1342H136.038V45.7611H135.255ZM135.297 50.9586L114.175 93.0173L114.874 93.3685L135.996 51.3098L135.297 50.9586ZM114.524 92.8016H108.503V93.5842H114.524V92.8016Z" fill="black"/>
<path d="M422.763 492.309L401.548 534.275V534.645H426.006V539.741H395.619V534.368L416.741 492.309H422.763Z" fill="black"/>
<path d="M423.498 493.204L402.284 535.17V535.541H426.741V540.636H396.355V535.263L417.477 493.204H423.498Z" fill="black"/>
<path d="M423.498 493.204L423.848 493.381L424.135 492.813H423.498V493.204ZM402.284 535.17L401.935 534.994L401.893 535.077V535.17H402.284ZM402.284 535.541H401.893V535.932H402.284V535.541ZM426.741 535.541H427.132V535.149H426.741V535.541ZM426.741 540.636V541.027H427.132V540.636H426.741ZM396.355 540.636H395.964V541.027H396.355V540.636ZM396.355 535.263L396.005 535.087L395.964 535.17V535.263H396.355ZM417.477 493.204V492.813H417.235L417.127 493.028L417.477 493.204ZM423.149 493.028L401.935 534.994L402.633 535.347L423.848 493.381L423.149 493.028ZM401.893 535.17V535.541H402.675V535.17H401.893ZM402.284 535.932H426.741V535.149H402.284V535.932ZM426.35 535.541V540.636H427.132V535.541H426.35ZM426.741 540.245H396.355V541.027H426.741V540.245ZM396.746 540.636V535.263H395.964V540.636H396.746ZM396.705 535.438L417.827 493.38L417.127 493.028L396.005 535.087L396.705 535.438ZM417.477 493.595H423.498V492.813H417.477V493.595Z" fill="black"/>
</svg>
