<svg width="527" height="587" viewBox="0 0 527 587" fill="none" xmlns="http://www.w3.org/2000/svg">
<path d="M442.51 0H84.1101C69.9716 0 58.5103 11.4872 58.5103 25.6573V560.771C58.5103 574.941 69.9716 586.429 84.1101 586.429H442.51C456.649 586.429 468.11 574.941 468.11 560.771V25.6573C468.11 11.4872 456.649 0 442.51 0Z" fill="white"/>
<path d="M109.71 36.6519H416.91C431.048 36.6519 442.51 48.139 442.51 62.3091V524.12C442.51 538.29 431.048 549.777 416.91 549.777H109.71C95.5712 549.777 84.1099 538.29 84.1099 524.12V62.3091C84.1099 48.139 95.5712 36.6519 109.71 36.6519Z" fill="#FF9B99"/>
<path d="M100.57 456.319C156.113 511.986 274.001 484.089 363.88 394.01C453.759 303.93 481.593 185.778 426.05 130.111C370.506 74.4434 252.618 102.34 162.74 192.42C72.8609 282.499 45.0265 400.651 100.57 456.319Z" fill="white"/>
<path d="M223.407 268.181C220.533 268.181 217.599 270.5 216.829 273.38L187.839 381.816C187.069 384.696 188.764 387.015 191.638 387.015H264.263C267.136 387.015 270.071 384.696 270.841 381.816L299.829 273.38C300.599 270.5 298.906 268.181 296.032 268.181H223.407V268.181Z" fill="black"/>
<path d="M269.066 206.095C266.192 206.095 263.26 208.414 262.49 211.294L233.499 319.728C232.729 322.608 234.422 324.927 237.296 324.927H309.921C312.795 324.927 315.729 322.608 316.499 319.728L345.49 211.294C346.26 208.414 344.565 206.095 341.691 206.095H269.066Z" fill="black"/>
<path d="M290.032 262.169H217.407C214.542 262.169 211.597 264.496 210.83 267.368L181.84 375.802C181.072 378.673 182.772 381.001 185.637 381.001H258.262C261.127 381.001 264.072 378.673 264.84 375.802L293.83 267.368C294.598 264.496 292.897 262.169 290.032 262.169Z" fill="white" stroke="black" stroke-width="1.37669"/>
<path d="M220.609 269.595H282.859C285.724 269.595 287.425 271.923 286.657 274.794L261.638 368.374C260.87 371.246 257.926 373.574 255.061 373.574H192.81C189.945 373.574 188.245 371.246 189.013 368.374L214.032 274.794C214.799 271.923 217.744 269.595 220.609 269.595Z" fill="#FF9B99"/>
<path d="M335.692 200.082H263.066C260.201 200.082 257.257 202.409 256.489 205.281L227.499 313.715C226.731 316.586 228.431 318.914 231.296 318.914H303.922C306.787 318.914 309.731 316.586 310.499 313.715L339.489 205.281C340.257 202.409 338.557 200.082 335.692 200.082Z" fill="white" stroke="black" stroke-width="1.37669"/>
<path d="M266.268 207.508H328.519C331.384 207.508 333.084 209.836 332.316 212.707L307.297 306.288C306.53 309.159 303.585 311.487 300.72 311.487H238.47C235.605 311.487 233.904 309.159 234.672 306.288L259.691 212.707C260.458 209.836 263.403 207.508 266.268 207.508Z" fill="#FF9B99"/>
<path d="M106.504 84.8552V54.284H111.692V84.8552H106.504ZM93.8124 72.1635V66.9757H124.384V72.1635H93.8124ZM133.277 93.1929V89.0241L148.933 71.8856C150.771 69.8784 152.284 68.1337 153.473 66.6514C154.662 65.1537 155.542 63.7487 156.113 62.4363C156.7 61.1085 156.993 59.7189 156.993 58.2675C156.993 56.6 156.592 55.1563 155.789 53.9366C155.001 52.7168 153.92 51.7749 152.546 51.111C151.172 50.4471 149.628 50.1151 147.914 50.1151C146.092 50.1151 144.502 50.4934 143.143 51.25C141.8 51.9911 140.758 53.0333 140.017 54.3766C139.291 55.7199 138.928 57.2948 138.928 59.1012H133.462C133.462 56.322 134.103 53.8825 135.385 51.7827C136.666 49.6828 138.411 48.0462 140.619 46.8727C142.842 45.6993 145.336 45.1126 148.1 45.1126C150.879 45.1126 153.341 45.6993 155.488 46.8727C157.634 48.0462 159.317 49.6288 160.537 51.6205C161.756 53.6123 162.366 55.828 162.366 58.2675C162.366 60.0122 162.05 61.7183 161.417 63.3859C160.799 65.0379 159.718 66.883 158.174 68.9211C156.646 70.9438 154.523 73.4142 151.805 76.3323L141.152 87.7271V88.0977H163.2V93.1929H133.277Z" fill="black"/>
<path d="M106.504 84.8552H106.113V85.2466H106.504V84.8552ZM106.504 54.284V53.8926H106.113V54.284H106.504ZM111.692 54.284H112.083V53.8926H111.692V54.284ZM111.692 84.8552V85.2466H112.083V84.8552H111.692ZM93.8124 72.1635H93.4211V72.5548H93.8124V72.1635ZM93.8124 66.9757V66.5844H93.4211V66.9757H93.8124ZM124.384 66.9757H124.775V66.5844H124.384V66.9757ZM124.384 72.1635V72.5548H124.775V72.1635H124.384ZM106.895 84.8552V54.284H106.113V84.8552H106.895ZM106.504 54.6753H111.692V53.8926H106.504V54.6753ZM111.301 54.284V84.8552H112.083V54.284H111.301ZM111.692 84.4639H106.504V85.2466H111.692V84.4639ZM94.2037 72.1635V66.9757H93.4211V72.1635H94.2037ZM93.8124 67.367H124.384V66.5844H93.8124V67.367ZM123.992 66.9757V72.1635H124.775V66.9757H123.992ZM124.384 71.7722H93.8124V72.5548H124.384V71.7722ZM133.277 93.1929H132.886V93.5842H133.277V93.1929ZM133.277 89.0241L132.988 88.7601L132.886 88.8722V89.0241H133.277ZM148.933 71.8856L148.645 71.6214L148.644 71.6217L148.933 71.8856ZM153.473 66.6514L153.778 66.8963L153.779 66.8947L153.473 66.6514ZM156.113 62.4363L155.755 62.2781L155.754 62.2801L156.113 62.4363ZM155.789 53.9366L155.46 54.1488L155.462 54.1517L155.789 53.9366ZM152.546 51.111L152.717 50.7587L152.717 50.7587L152.546 51.111ZM143.143 51.25L143.332 51.5926L143.334 51.5919L143.143 51.25ZM140.017 54.3766L139.674 54.1876L139.672 54.1906L140.017 54.3766ZM138.928 59.1012V59.4926H139.319V59.1012H138.928ZM133.462 59.1012H133.071V59.4926H133.462V59.1012ZM135.385 51.7827L135.719 51.9865L135.719 51.9865L135.385 51.7827ZM140.619 46.8727L140.436 46.5267L140.435 46.5272L140.619 46.8727ZM155.488 46.8727L155.675 46.5294L155.675 46.5294L155.488 46.8727ZM160.537 51.6205L160.203 51.8249L160.537 51.6205ZM161.417 63.3859L161.051 63.247L161.05 63.2488L161.417 63.3859ZM158.174 68.9211L157.862 68.6848L157.862 68.6852L158.174 68.9211ZM151.805 76.3323L152.091 76.5996L152.092 76.599L151.805 76.3323ZM141.152 87.7271L140.866 87.4598L140.76 87.5727V87.7271H141.152ZM141.152 88.0977H140.76V88.489H141.152V88.0977ZM163.2 88.0977H163.591V87.7063H163.2V88.0977ZM163.2 93.1929V93.5842H163.591V93.1929H163.2ZM133.668 93.1929V89.0241H132.886V93.1929H133.668ZM133.566 89.288L149.222 72.1495L148.644 71.6217L132.988 88.7601L133.566 89.288ZM149.222 72.1498C151.063 70.1388 152.582 68.3873 153.778 66.8963L153.167 66.4066C151.986 67.88 150.479 69.618 148.645 71.6214L149.222 72.1498ZM153.779 66.8947C154.983 65.3787 155.883 63.9445 156.472 62.5925L155.754 62.2801C155.2 63.5529 154.341 64.9288 153.166 66.4081L153.779 66.8947ZM156.471 62.5945C157.08 61.2168 157.384 59.7733 157.384 58.2675H156.602C156.602 59.6644 156.32 61.0001 155.755 62.2781L156.471 62.5945ZM157.384 58.2675C157.384 56.5347 156.966 55.0138 156.116 53.7214L155.462 54.1517C156.217 55.2989 156.602 56.6653 156.602 58.2675H157.384ZM156.117 53.7243C155.289 52.441 154.152 51.4522 152.717 50.7587L152.376 51.4634C153.689 52.0977 154.714 52.9925 155.46 54.1488L156.117 53.7243ZM152.717 50.7587C151.283 50.0661 149.68 49.7238 147.914 49.7238V50.5065C149.576 50.5065 151.061 50.8281 152.376 51.4634L152.717 50.7587ZM147.914 49.7238C146.037 49.7238 144.379 50.114 142.953 50.9081L143.334 51.5919C144.625 50.8729 146.147 50.5065 147.914 50.5065V49.7238ZM142.954 50.9074C141.546 51.6842 140.451 52.7796 139.674 54.1876L140.359 54.5656C141.065 53.287 142.054 52.2981 143.332 51.5926L142.954 50.9074ZM139.672 54.1906C138.911 55.6006 138.537 57.2417 138.537 59.1012H139.319C139.319 57.3478 139.671 55.8391 140.361 54.5626L139.672 54.1906ZM138.928 58.7099H133.462V59.4926H138.928V58.7099ZM133.854 59.1012C133.854 56.3844 134.479 54.0173 135.719 51.9865L135.051 51.5788C133.727 53.7477 133.071 56.2597 133.071 59.1012H133.854ZM135.719 51.9865C136.963 49.9475 138.655 48.3594 140.803 47.2183L140.435 46.5272C138.166 47.733 136.369 49.4181 135.051 51.5788L135.719 51.9865ZM140.802 47.2188C142.963 46.0779 145.393 45.5039 148.1 45.5039V44.7213C145.279 44.7213 142.721 45.3206 140.436 46.5267L140.802 47.2188ZM148.1 45.5039C150.822 45.5039 153.219 46.0782 155.3 47.2161L155.675 46.5294C153.464 45.3204 150.935 44.7213 148.1 44.7213V45.5039ZM155.3 47.2161C157.389 48.3583 159.02 49.8942 160.203 51.8249L160.87 51.4162C159.613 49.3633 157.879 47.734 155.675 46.5294L155.3 47.2161ZM160.203 51.8249C161.383 53.7524 161.975 55.8967 161.975 58.2675H162.757C162.757 55.7592 162.129 53.4723 160.87 51.4162L160.203 51.8249ZM161.975 58.2675C161.975 59.9637 161.667 61.6228 161.051 63.247L161.782 63.5247C162.432 61.8139 162.757 60.0607 162.757 58.2675H161.975ZM161.05 63.2488C160.45 64.8533 159.393 66.6647 157.862 68.6848L158.486 69.1574C160.044 67.1014 161.148 65.2226 161.783 63.5229L161.05 63.2488ZM157.862 68.6852C156.345 70.6929 154.232 73.1524 151.519 76.0657L152.092 76.599C154.814 73.6759 156.947 71.1946 158.486 69.157L157.862 68.6852ZM151.519 76.0651L140.866 87.4598L141.437 87.9943L152.091 76.5996L151.519 76.0651ZM140.76 87.7271V88.0977H141.543V87.7271H140.76ZM141.152 88.489H163.2V87.7063H141.152V88.489ZM162.809 88.0977V93.1929H163.591V88.0977H162.809ZM163.2 92.8016H133.277V93.5842H163.2V92.8016Z" fill="black"/>
<path d="M420.116 501.573V532.145H414.928V501.573H420.116ZM432.808 514.265V519.453H402.236V514.265H432.808ZM393.343 493.236V497.405L377.687 514.543C375.849 516.55 374.336 518.295 373.147 519.777C371.959 521.275 371.078 522.68 370.507 523.992C369.92 525.32 369.627 526.71 369.627 528.161C369.627 529.829 370.029 531.272 370.831 532.492C371.619 533.712 372.7 534.654 374.074 535.318C375.448 535.982 376.992 536.314 378.706 536.314C380.528 536.314 382.118 535.935 383.477 535.179C384.82 534.438 385.862 533.395 386.603 532.052C387.329 530.709 387.692 529.134 387.692 527.327H393.158C393.158 530.107 392.517 532.546 391.235 534.646C389.954 536.746 388.209 538.383 386.001 539.556C383.778 540.729 381.284 541.316 378.521 541.316C375.741 541.316 373.279 540.729 371.132 539.556C368.986 538.383 367.303 536.8 366.084 534.808C364.864 532.816 364.254 530.601 364.254 528.161C364.254 526.416 364.57 524.71 365.204 523.043C365.821 521.391 366.902 519.546 368.446 517.508C369.974 515.485 372.097 513.015 374.815 510.096L385.469 498.702V498.331H363.42V493.236H393.343Z" fill="black"/>
<path d="M420.116 501.573H420.507V501.182H420.116V501.573ZM420.116 532.145V532.536H420.507V532.145H420.116ZM414.928 532.145H414.537V532.536H414.928V532.145ZM414.928 501.573V501.182H414.537V501.573H414.928ZM432.808 514.265H433.199V513.874H432.808V514.265ZM432.808 519.453V519.844H433.199V519.453H432.808ZM402.236 519.453H401.845V519.844H402.236V519.453ZM402.236 514.265V513.874H401.845V514.265H402.236ZM419.725 501.573V532.145H420.507V501.573H419.725ZM420.116 531.753H414.928V532.536H420.116V531.753ZM415.319 532.145V501.573H414.537V532.145H415.319ZM414.928 501.965H420.116V501.182H414.928V501.965ZM432.416 514.265V519.453H433.199V514.265H432.416ZM432.808 519.062H402.236V519.844H432.808V519.062ZM402.628 519.453V514.265H401.845V519.453H402.628ZM402.236 514.656H432.808V513.874H402.236V514.656ZM393.343 493.236H393.734V492.845H393.343V493.236ZM393.343 497.405L393.632 497.669L393.734 497.556V497.405H393.343ZM377.687 514.543L377.975 514.807L377.976 514.807L377.687 514.543ZM373.147 519.777L372.842 519.532L372.841 519.534L373.147 519.777ZM370.507 523.992L370.865 524.151L370.866 524.149L370.507 523.992ZM370.831 532.492L371.16 532.28L371.158 532.277L370.831 532.492ZM374.074 535.318L373.904 535.67L373.904 535.67L374.074 535.318ZM383.477 535.179L383.288 534.836L383.286 534.837L383.477 535.179ZM386.603 532.052L386.946 532.241L386.948 532.238L386.603 532.052ZM387.692 527.327V526.936H387.301V527.327H387.692ZM393.158 527.327H393.549V526.936H393.158V527.327ZM391.235 534.646L390.901 534.442L390.901 534.442L391.235 534.646ZM386.001 539.556L386.184 539.902L386.185 539.902L386.001 539.556ZM371.132 539.556L370.945 539.899L370.945 539.899L371.132 539.556ZM366.084 534.808L366.417 534.604L366.084 534.808ZM365.204 523.043L365.569 523.182L365.57 523.18L365.204 523.043ZM368.446 517.508L368.758 517.744L368.758 517.744L368.446 517.508ZM374.815 510.096L374.529 509.829L374.529 509.83L374.815 510.096ZM385.469 498.702L385.754 498.969L385.86 498.856V498.702H385.469ZM385.469 498.331H385.86V497.94H385.469V498.331ZM363.42 498.331H363.029V498.722H363.42V498.331ZM363.42 493.236V492.845H363.029V493.236H363.42ZM392.952 493.236V497.405H393.734V493.236H392.952ZM393.054 497.141L377.398 514.279L377.976 514.807L393.632 497.669L393.054 497.141ZM377.398 514.279C375.557 516.29 374.038 518.041 372.842 519.532L373.453 520.022C374.635 518.549 376.142 516.811 377.975 514.807L377.398 514.279ZM372.841 519.534C371.638 521.05 370.737 522.484 370.148 523.836L370.866 524.149C371.42 522.876 372.28 521.5 373.454 520.021L372.841 519.534ZM370.149 523.834C369.541 525.212 369.236 526.655 369.236 528.161H370.018C370.018 526.764 370.3 525.429 370.865 524.151L370.149 523.834ZM369.236 528.161C369.236 529.894 369.654 531.415 370.505 532.707L371.158 532.277C370.403 531.13 370.018 529.763 370.018 528.161H369.236ZM370.503 532.704C371.331 533.988 372.468 534.977 373.904 535.67L374.244 534.965C372.931 534.331 371.907 533.436 371.16 532.28L370.503 532.704ZM373.904 535.67C375.337 536.363 376.94 536.705 378.706 536.705V535.922C377.044 535.922 375.559 535.601 374.244 534.965L373.904 535.67ZM378.706 536.705C380.583 536.705 382.241 536.315 383.667 535.521L383.286 534.837C381.995 535.556 380.473 535.922 378.706 535.922V536.705ZM383.666 535.521C385.074 534.745 386.169 533.649 386.946 532.241L386.261 531.863C385.555 533.142 384.566 534.131 383.288 534.836L383.666 535.521ZM386.948 532.238C387.709 530.828 388.083 529.187 388.083 527.327H387.301C387.301 529.081 386.949 530.59 386.259 531.866L386.948 532.238ZM387.692 527.719H393.158V526.936H387.692V527.719ZM392.766 527.327C392.766 530.044 392.141 532.411 390.901 534.442L391.569 534.85C392.893 532.681 393.549 530.169 393.549 527.327H392.766ZM390.901 534.442C389.657 536.481 387.965 538.069 385.818 539.21L386.185 539.902C388.454 538.696 390.251 537.011 391.569 534.85L390.901 534.442ZM385.819 539.21C383.657 540.351 381.227 540.925 378.521 540.925V541.707C381.342 541.707 383.899 541.108 386.184 539.902L385.819 539.21ZM378.521 540.925C375.798 540.925 373.401 540.351 371.32 539.213L370.945 539.899C373.156 541.108 375.685 541.707 378.521 541.707V540.925ZM371.32 539.213C369.231 538.07 367.6 536.534 366.417 534.604L365.75 535.013C367.007 537.065 368.742 538.695 370.945 539.899L371.32 539.213ZM366.417 534.604C365.237 532.676 364.645 530.532 364.645 528.161H363.863C363.863 530.67 364.491 532.956 365.75 535.013L366.417 534.604ZM364.645 528.161C364.645 526.465 364.953 524.806 365.569 523.182L364.838 522.904C364.188 524.615 363.863 526.368 363.863 528.161H364.645ZM365.57 523.18C366.17 521.575 367.227 519.764 368.758 517.744L368.134 517.271C366.576 519.327 365.472 521.206 364.837 522.906L365.57 523.18ZM368.758 517.744C370.275 515.736 372.388 513.276 375.101 510.363L374.529 509.83C371.807 512.753 369.674 515.234 368.134 517.272L368.758 517.744ZM375.101 510.364L385.754 498.969L385.183 498.434L374.529 509.829L375.101 510.364ZM385.86 498.702V498.331H385.077V498.702H385.86ZM385.469 497.94H363.42V498.722H385.469V497.94ZM363.811 498.331V493.236H363.029V498.331H363.811ZM363.42 493.627H393.343V492.845H363.42V493.627Z" fill="black"/>
</svg>
