<svg width="527" height="587" viewBox="0 0 527 587" fill="none" xmlns="http://www.w3.org/2000/svg">
<path d="M442.509 0H84.1094C69.9709 0 58.5093 11.4871 58.5093 25.6572V560.771C58.5093 574.941 69.9709 586.429 84.1094 586.429H442.509C456.648 586.429 468.109 574.941 468.109 560.771V25.6572C468.109 11.4871 456.648 0 442.509 0Z" fill="white"/>
<path d="M416.909 36.6519H109.709C95.5707 36.6519 84.1094 48.139 84.1094 62.3091V524.12C84.1094 538.29 95.5707 549.777 109.709 549.777H416.909C431.048 549.777 442.509 538.29 442.509 524.12V62.3091C442.509 48.139 431.048 36.6519 416.909 36.6519Z" fill="#FF9B99"/>
<path d="M100.57 456.318C156.113 511.986 274.001 484.089 363.88 394.009C453.759 303.929 481.593 185.778 426.05 130.11C370.506 74.4429 252.618 102.339 162.74 192.419C72.8609 282.499 45.0265 400.651 100.57 456.318Z" fill="white"/>
<path d="M278.178 208.158L288.195 218.198L237.786 268.719L237.765 268.699C226.783 279.706 223.183 295.943 228.643 309.84C230.423 314.347 233.089 318.415 236.489 321.811L263.605 294.635L263.626 294.656L314.054 244.115L324.072 254.155L331.991 223.219L339.911 192.283L309.045 200.222L278.178 208.158V208.158Z" fill="black"/>
<path d="M122.475 55.0659L124.708 57.3038L113.471 68.5659V68.5608C111.023 71.0145 110.22 74.6341 111.437 77.7318C111.834 78.7365 112.428 79.6433 113.186 80.4005L119.231 74.3424V74.3474L130.472 63.081L132.705 65.3193L134.47 58.4232L136.236 51.5271L129.355 53.2966L122.475 55.0659V55.0659Z" fill="black"/>
<path d="M404.144 531.363L401.911 529.125L413.148 517.863V517.868C415.596 515.414 416.399 511.795 415.181 508.697C414.785 507.692 414.19 506.786 413.432 506.028L407.388 512.086V512.081L396.146 523.348L393.913 521.11L392.148 528.006L390.383 534.902L397.263 533.132L404.144 531.363V531.363Z" fill="black"/>
<path d="M256.441 386.372L246.424 376.332L296.833 325.811L296.854 325.831C307.836 314.824 311.437 298.587 305.976 284.69C304.196 280.183 301.53 276.115 298.13 272.719L271.014 299.895L270.993 299.874L220.565 350.415L210.547 340.375L202.628 371.311L194.708 402.247L225.574 394.308L256.441 386.372V386.372Z" fill="black"/>
<path d="M276.178 202.145L286.195 212.184L235.786 262.706L235.765 262.685C224.783 273.692 221.183 289.93 226.643 303.826C228.423 308.333 231.089 312.401 234.489 315.798L261.605 288.621L261.626 288.642L312.054 238.101L322.072 248.142L329.991 217.206L337.911 186.27L307.045 194.208L276.178 202.145V202.145Z" fill="#FF9B99" stroke="black" stroke-width="3"/>
<path d="M250.441 380.358L240.424 370.319L290.833 319.797L290.854 319.818C301.836 308.811 305.437 292.573 299.976 278.677C298.196 274.17 295.53 270.102 292.13 266.705L265.014 293.882L264.993 293.861L214.565 344.402L204.547 334.361L196.628 365.297L188.708 396.233L219.574 388.295L250.441 380.358V380.358Z" fill="#FF9B99" stroke="black" stroke-width="3"/>
<path d="M122.029 53.7255L124.262 55.9634L113.025 67.2255V67.2204C110.577 69.6741 109.774 73.2937 110.992 76.3915C111.388 77.3962 111.982 78.3029 112.74 79.0601L118.785 73.002V73.007L130.026 61.7407L132.259 63.9789L134.025 57.0828L135.79 50.1868L128.909 51.9563L122.029 53.7255V53.7255Z" fill="black" stroke="black" stroke-width="0.668745"/>
<path d="M117.629 94.7921L115.396 92.5542L126.633 81.2922V81.2972C129.081 78.8435 129.883 75.2239 128.666 72.1261C128.27 71.1215 127.675 70.2147 126.917 69.4575L120.873 75.5156V75.5106L109.632 86.7769L107.398 84.5387L105.633 91.4348L103.868 98.3309L110.748 96.5613L117.629 94.7921V94.7921Z" fill="black"/>
<path d="M116.292 93.4519L114.059 91.214L125.295 79.9519V79.9569C127.744 77.5032 128.546 73.8836 127.329 70.7859C126.932 69.7812 126.338 68.8744 125.58 68.1172L119.535 74.1753V74.1702L108.294 85.4367L106.061 83.1984L104.295 90.0945L102.53 96.9906L109.411 95.2211L116.291 93.4519H116.292Z" fill="black" stroke="black" stroke-width="0.668745"/>
<path d="M404.59 532.703L402.357 530.465L413.594 519.203V519.208C416.042 516.755 416.845 513.135 415.628 510.037C415.231 509.033 414.637 508.126 413.879 507.369L407.834 513.427V513.422L396.593 524.688L394.36 522.45L392.594 529.346L390.829 536.242L397.709 534.472L404.59 532.703V532.703Z" fill="black" stroke="black" stroke-width="0.668745"/>
<path d="M408.99 491.636L411.223 493.874L399.986 505.136V505.131C397.538 507.585 396.735 511.205 397.952 514.302C398.349 515.307 398.944 516.214 399.701 516.971L405.746 510.913V510.918L416.987 499.652L419.221 501.89L420.986 494.994L422.751 488.098L415.871 489.867L408.99 491.636V491.636Z" fill="black"/>
<path d="M410.328 492.977L412.561 495.215L401.324 506.477V506.472C398.876 508.926 398.073 512.545 399.29 515.643C399.687 516.648 400.281 517.554 401.039 518.312L407.084 512.254V512.259L418.325 500.992L420.558 503.23L422.324 496.334L424.089 489.438L417.209 491.208L410.328 492.977V492.977Z" fill="black" stroke="black" stroke-width="0.668745"/>
</svg>
