<svg width="527" height="587" viewBox="0 0 527 587" fill="none" xmlns="http://www.w3.org/2000/svg">
<path d="M442.51 0H84.1098C69.9713 0 58.5098 11.4871 58.5098 25.6572V560.771C58.5098 574.941 69.9713 586.429 84.1098 586.429H442.51C456.648 586.429 468.11 574.941 468.11 560.771V25.6572C468.11 11.4871 456.648 0 442.51 0Z" fill="white"/>
<path d="M416.91 36.6519H109.71C95.5714 36.6519 84.1099 48.139 84.1099 62.3091V524.12C84.1099 538.29 95.5714 549.777 109.71 549.777H416.91C431.048 549.777 442.51 538.29 442.51 524.12V62.3091C442.51 48.139 431.048 36.6519 416.91 36.6519Z" fill="#7DF6ED"/>
<path d="M100.57 456.318C156.113 511.986 274.001 484.089 363.88 394.009C453.759 303.93 481.593 185.778 426.05 130.111C370.507 74.4431 252.619 102.34 162.74 192.42C72.8613 282.499 45.0269 400.651 100.57 456.318Z" fill="white"/>
<path d="M266.061 204.341C254.295 204.341 242.643 206.711 231.772 211.316C220.902 215.92 211.024 222.669 202.704 231.178C194.383 239.686 187.783 249.788 183.28 260.904C178.777 272.021 176.46 283.937 176.459 295.97C176.459 308.003 178.777 319.918 183.28 331.035C187.783 342.152 194.383 352.254 202.703 360.762C211.023 369.271 220.901 376.021 231.772 380.625C242.643 385.23 254.294 387.6 266.061 387.6C277.828 387.6 289.479 385.23 300.35 380.625C311.22 376.02 321.098 369.27 329.418 360.762C337.738 352.253 344.338 342.152 348.84 331.035C353.343 319.918 355.661 308.003 355.661 295.97C355.66 271.668 346.22 248.362 329.417 231.179C312.614 213.995 289.824 204.341 266.061 204.341V204.341ZM266.061 228.691C268.254 228.691 270.445 228.803 272.627 229.027C274.81 229.251 276.981 229.586 279.131 230.031C281.281 230.477 283.407 231.032 285.502 231.695C287.598 232.358 289.66 233.128 291.68 234.001C293.701 234.874 295.677 235.851 297.602 236.926C298.97 237.716 300.309 238.555 301.618 239.443L210.069 331.199C209.127 329.666 208.246 328.094 207.428 326.489C206.434 324.49 205.537 322.441 204.743 320.35C203.948 318.259 203.255 316.129 202.668 313.967C202.081 311.806 201.6 309.616 201.227 307.405C200.855 305.195 200.591 302.967 200.436 300.73C200.326 299.146 200.27 297.558 200.27 295.97C200.271 293.727 200.381 291.485 200.6 289.253C200.819 287.022 201.147 284.802 201.583 282.604C202.018 280.405 202.561 278.23 203.209 276.087C203.857 273.945 204.61 271.836 205.463 269.771C206.318 267.704 207.273 265.683 208.325 263.714C209.376 261.745 210.524 259.832 211.762 257.98C213 256.129 214.328 254.342 215.741 252.627C217.154 250.912 218.651 249.27 220.225 247.708C221.798 246.144 223.447 244.663 225.165 243.268C226.883 241.874 228.668 240.569 230.514 239.357C232.36 238.145 234.264 237.027 236.219 236.01C238.174 234.992 240.177 234.076 242.221 233.263C244.265 232.45 246.348 231.742 248.461 231.141C250.575 230.542 252.716 230.05 254.877 229.669C257.039 229.288 259.218 229.018 261.407 228.859C262.956 228.747 264.508 228.69 266.061 228.691V228.691ZM320.346 258.08C320.711 258.588 321.069 259.101 321.42 259.619C322.605 261.506 323.697 263.453 324.692 265.452C325.687 267.451 326.584 269.5 327.379 271.591C328.174 273.681 328.865 275.811 329.452 277.972C330.039 280.134 330.52 282.325 330.893 284.536C331.266 286.746 331.531 288.974 331.686 291.211C331.796 292.795 331.85 294.382 331.85 295.97C331.85 298.213 331.741 300.455 331.522 302.688C331.303 304.92 330.975 307.139 330.54 309.337C330.104 311.536 329.561 313.711 328.913 315.854C328.264 317.997 327.511 320.105 326.657 322.171C325.802 324.236 324.847 326.257 323.795 328.225C322.744 330.194 321.598 332.107 320.36 333.959C319.121 335.81 317.793 337.597 316.379 339.312C314.966 341.028 313.47 342.671 311.897 344.234C310.323 345.797 308.674 347.278 306.956 348.673C305.237 350.067 303.452 351.373 301.606 352.584C299.761 353.796 297.857 354.914 295.903 355.931C293.948 356.949 291.944 357.865 289.899 358.678C287.855 359.49 285.772 360.198 283.659 360.798C281.545 361.398 279.404 361.89 277.243 362.272C275.081 362.653 272.902 362.924 270.713 363.082C269.165 363.194 267.613 363.251 266.061 363.251C263.867 363.25 261.675 363.138 259.493 362.914C257.31 362.69 255.14 362.355 252.991 361.91C250.841 361.464 248.714 360.909 246.618 360.246C244.522 359.583 242.46 358.813 240.44 357.94C238.42 357.066 236.444 356.089 234.52 355.013C232.595 353.939 230.723 352.766 228.913 351.5C228.577 351.243 228.243 350.984 227.913 350.721L320.346 258.08V258.08Z" fill="black"/>
<path d="M262.061 200.332C250.295 200.332 238.643 202.702 227.772 207.307C216.902 211.911 207.024 218.66 198.704 227.169C190.383 235.677 183.783 245.778 179.28 256.895C174.777 268.012 172.46 279.928 172.459 291.961C172.459 303.994 174.777 315.909 179.28 327.026C183.783 338.143 190.383 348.245 198.703 356.753C207.023 365.262 216.901 372.012 227.772 376.616C238.643 381.221 250.294 383.591 262.061 383.591C273.828 383.591 285.479 381.221 296.35 376.616C307.22 372.011 317.098 365.261 325.418 356.753C333.738 348.244 340.338 338.143 344.84 327.026C349.343 315.909 351.661 303.994 351.661 291.961C351.66 267.659 342.22 244.353 325.417 227.17C308.614 209.986 285.824 200.332 262.061 200.332V200.332ZM262.061 224.681C264.254 224.682 266.445 224.794 268.627 225.018C270.81 225.242 272.981 225.577 275.131 226.022C277.281 226.468 279.407 227.023 281.502 227.686C283.598 228.349 285.66 229.119 287.68 229.992C289.701 230.865 291.677 231.841 293.602 232.917C294.97 233.706 296.309 234.546 297.618 235.434L206.069 327.19C205.127 325.657 204.246 324.085 203.428 322.48C202.434 320.481 201.537 318.432 200.743 316.341C199.948 314.25 199.255 312.12 198.668 309.958C198.081 307.796 197.6 305.607 197.227 303.396C196.855 301.186 196.591 298.958 196.436 296.721C196.326 295.137 196.27 293.549 196.27 291.961C196.271 289.718 196.381 287.476 196.6 285.244C196.819 283.012 197.147 280.793 197.583 278.595C198.018 276.396 198.561 274.221 199.209 272.078C199.857 269.936 200.61 267.827 201.463 265.761C202.318 263.695 203.273 261.674 204.325 259.705C205.376 257.736 206.524 255.823 207.762 253.971C209 252.12 210.328 250.333 211.741 248.618C213.154 246.903 214.651 245.261 216.225 243.699C217.798 242.135 219.447 240.654 221.165 239.259C222.883 237.865 224.668 236.56 226.514 235.348C228.36 234.136 230.264 233.018 232.219 232.001C234.174 230.983 236.177 230.067 238.221 229.254C240.265 228.441 242.348 227.733 244.461 227.132C246.575 226.533 248.716 226.041 250.877 225.66C253.039 225.279 255.218 225.009 257.407 224.85C258.956 224.738 260.508 224.681 262.061 224.681V224.681ZM316.346 254.071C316.711 254.579 317.069 255.092 317.42 255.61C318.605 257.497 319.697 259.444 320.692 261.443C321.687 263.442 322.584 265.491 323.379 267.582C324.174 269.672 324.865 271.802 325.452 273.963C326.039 276.125 326.52 278.316 326.893 280.527C327.266 282.737 327.531 284.965 327.686 287.202C327.796 288.786 327.85 290.373 327.85 291.961C327.85 294.204 327.741 296.446 327.522 298.679C327.303 300.911 326.975 303.13 326.54 305.328C326.104 307.527 325.561 309.702 324.913 311.845C324.264 313.988 323.511 316.096 322.657 318.162C321.802 320.227 320.847 322.248 319.795 324.216C318.744 326.185 317.598 328.098 316.36 329.95C315.121 331.801 313.793 333.588 312.379 335.303C310.966 337.019 309.47 338.662 307.897 340.225C306.323 341.788 304.674 343.269 302.956 344.664C301.237 346.058 299.452 347.363 297.606 348.575C295.761 349.787 293.857 350.905 291.903 351.922C289.948 352.94 287.944 353.856 285.899 354.669C283.855 355.481 281.772 356.189 279.659 356.789C277.545 357.389 275.404 357.881 273.243 358.263C271.081 358.644 268.902 358.915 266.713 359.073C265.165 359.185 263.613 359.242 262.061 359.242C259.867 359.241 257.675 359.129 255.493 358.905C253.31 358.681 251.14 358.346 248.991 357.901C246.841 357.455 244.714 356.9 242.618 356.237C240.522 355.574 238.46 354.804 236.44 353.931C234.42 353.057 232.444 352.08 230.52 351.004C228.595 349.93 226.723 348.757 224.913 347.491C224.577 347.234 224.243 346.975 223.913 346.712L316.346 254.071V254.071Z" fill="#7DF6ED" stroke="black" stroke-width="3"/>
<path d="M119.832 52.321C116.959 52.321 114.113 52.8998 111.458 54.0244C108.803 55.149 106.391 56.7973 104.359 58.8753C102.327 60.9534 100.715 63.4203 99.6151 66.1354C98.5153 68.8505 97.9493 71.7605 97.9492 74.6993C97.9492 77.6381 98.5152 80.5482 99.6149 83.2633C100.715 85.9785 102.327 88.4455 104.359 90.5236C106.391 92.6017 108.803 94.25 111.458 95.3746C114.113 96.4993 116.959 97.0781 119.832 97.078C122.706 97.078 125.552 96.4992 128.207 95.3745C130.862 94.2499 133.274 92.6015 135.306 90.5234C137.338 88.4454 138.95 85.9783 140.05 83.2632C141.149 80.5481 141.715 77.6381 141.715 74.6993C141.715 68.7642 139.41 63.0722 135.306 58.8755C131.202 54.6787 125.636 52.3211 119.832 52.321V52.321ZM119.832 58.2678C120.368 58.2678 120.903 58.2953 121.436 58.35C121.969 58.4046 122.499 58.4864 123.025 58.5952C123.55 58.7041 124.069 58.8397 124.581 59.0016C125.092 59.1635 125.596 59.3515 126.089 59.5648C126.583 59.7781 127.066 60.0165 127.536 60.279C127.87 60.4719 128.197 60.677 128.516 60.8938L106.158 83.3032C105.928 82.9288 105.712 82.5451 105.513 82.1529C105.27 81.6647 105.051 81.1643 104.857 80.6537C104.663 80.143 104.494 79.6226 104.35 79.0947C104.207 78.5668 104.089 78.032 103.998 77.4922C103.907 76.9524 103.843 76.4083 103.805 75.8619C103.778 75.475 103.765 75.0872 103.764 74.6992C103.765 74.1514 103.791 73.604 103.845 73.059C103.899 72.5139 103.979 71.9718 104.085 71.4349C104.191 70.898 104.324 70.3668 104.482 69.8434C104.641 69.3201 104.824 68.8052 105.033 68.3007C105.241 67.796 105.475 67.3023 105.732 66.8215C105.988 66.3407 106.269 65.8734 106.571 65.4212C106.874 64.9691 107.198 64.5327 107.543 64.1137C107.888 63.6948 108.254 63.2938 108.638 62.9122C109.022 62.5305 109.425 62.1686 109.844 61.828C110.264 61.4875 110.7 61.1688 111.151 60.8728C111.602 60.5767 112.067 60.3039 112.544 60.0553C113.022 59.8069 113.511 59.583 114.01 59.3845C114.509 59.1859 115.018 59.0129 115.534 58.8663C116.05 58.7198 116.573 58.5999 117.101 58.5068C117.629 58.4137 118.161 58.3476 118.696 58.3089C119.074 58.2815 119.453 58.2678 119.832 58.2678V58.2678ZM133.09 65.4456C133.18 65.5696 133.267 65.6949 133.353 65.8214C133.642 66.2824 133.909 66.7579 134.152 67.2461C134.395 67.7343 134.614 68.2347 134.808 68.7453C135.002 69.2559 135.171 69.7761 135.314 70.3039C135.458 70.8319 135.575 71.3669 135.666 71.9069C135.757 72.4466 135.822 72.9907 135.86 73.5371C135.887 73.9239 135.9 74.3115 135.9 74.6993C135.9 75.2472 135.873 75.7948 135.82 76.34C135.766 76.8851 135.686 77.4272 135.58 77.9641C135.474 78.501 135.341 79.0322 135.183 79.5556C135.024 80.0789 134.84 80.5938 134.632 81.0983C134.423 81.6028 134.19 82.0964 133.933 82.577C133.676 83.0578 133.396 83.5252 133.094 83.9773C132.791 84.4295 132.467 84.8659 132.122 85.2849C131.777 85.7039 131.411 86.105 131.027 86.4868C130.643 86.8685 130.24 87.2304 129.82 87.571C129.4 87.9115 128.964 88.2303 128.514 88.5262C128.063 88.8223 127.598 89.0951 127.121 89.3437C126.643 89.5922 126.154 89.816 125.654 90.0145C125.155 90.2129 124.646 90.3857 124.13 90.5322C123.614 90.6789 123.091 90.799 122.563 90.8922C122.035 90.9853 121.503 91.0514 120.969 91.0901C120.591 91.1175 120.212 91.1312 119.832 91.1312C119.297 91.1312 118.761 91.1037 118.228 91.0489C117.695 90.9943 117.165 90.9125 116.64 90.8037C116.115 90.6949 115.596 90.5593 115.084 90.3973C114.572 90.2355 114.069 90.0475 113.575 89.8341C113.082 89.6207 112.599 89.3821 112.129 89.1194C111.659 88.8569 111.202 88.5705 110.76 88.2613C110.678 88.1987 110.596 88.1352 110.516 88.071L133.09 65.4456V65.4456Z" fill="black"/>
<path d="M118.856 51.3418C115.982 51.3417 113.137 51.9205 110.482 53.0451C107.827 54.1697 105.414 55.818 103.382 57.896C101.35 59.974 99.7383 62.441 98.6385 65.1561C97.5388 67.8712 96.9727 70.7812 96.9727 73.72C96.9726 76.6589 97.5386 79.5689 98.6384 82.2841C99.7381 84.9992 101.35 87.4662 103.382 89.5443C105.414 91.6224 107.827 93.2708 110.482 94.3954C113.137 95.52 115.982 96.0988 118.856 96.0988C121.73 96.0988 124.575 95.5199 127.23 94.3953C129.885 93.2706 132.297 91.6222 134.329 89.5442C136.361 87.4661 137.973 84.9991 139.073 82.284C140.173 79.5688 140.739 76.6588 140.739 73.72C140.739 67.7849 138.433 62.0929 134.329 57.8962C130.226 53.6995 124.66 51.3418 118.856 51.3418V51.3418ZM118.856 57.2885C119.392 57.2886 119.927 57.316 120.46 57.3708C120.993 57.4254 121.523 57.5072 122.048 57.616C122.573 57.7248 123.092 57.8605 123.604 58.0224C124.116 58.1843 124.619 58.3722 125.113 58.5856C125.606 58.7988 126.089 59.0372 126.559 59.2998C126.893 59.4927 127.22 59.6977 127.54 59.9146L105.181 82.324C104.951 81.9496 104.736 81.5658 104.536 81.1737C104.293 80.6854 104.074 80.185 103.88 79.6744C103.686 79.1637 103.517 78.6434 103.374 78.1154C103.23 77.5876 103.113 77.0528 103.022 76.513C102.931 75.9732 102.866 75.429 102.828 74.8827C102.801 74.4957 102.788 74.1079 102.788 73.72C102.788 73.1722 102.815 72.6248 102.868 72.0797C102.922 71.5346 103.002 70.9926 103.108 70.4557C103.215 69.9187 103.347 69.3876 103.506 68.8642C103.664 68.3409 103.848 67.826 104.056 67.3214C104.265 66.8168 104.498 66.3231 104.755 65.8422C105.012 65.3615 105.292 64.8941 105.595 64.442C105.897 63.9898 106.221 63.5534 106.566 63.1344C106.912 62.7155 107.277 62.3146 107.661 61.9331C108.046 61.5513 108.448 61.1894 108.868 60.8487C109.288 60.5083 109.724 60.1895 110.174 59.8935C110.625 59.5974 111.09 59.3246 111.568 59.076C112.045 58.8276 112.534 58.6037 113.034 58.4053C113.533 58.2067 114.041 58.0338 114.558 57.8871C115.074 57.7406 115.597 57.6206 116.125 57.5276C116.653 57.4345 117.185 57.3684 117.719 57.3296C118.098 57.3022 118.477 57.2885 118.856 57.2885H118.856ZM132.114 64.4664C132.203 64.5904 132.291 64.7156 132.376 64.8421C132.666 65.3031 132.932 65.7786 133.175 66.2668C133.418 66.7551 133.637 67.2555 133.832 67.7661C134.026 68.2766 134.195 68.7968 134.338 69.3246C134.481 69.8526 134.599 70.3876 134.69 70.9276C134.781 71.4674 134.845 72.0115 134.883 72.5578C134.91 72.9446 134.924 73.3323 134.924 73.72C134.924 74.268 134.897 74.8156 134.843 75.3608C134.79 75.9059 134.71 76.4479 134.603 76.9848C134.497 77.5218 134.364 78.0529 134.206 78.5763C134.048 79.0997 133.864 79.6146 133.655 80.1191C133.446 80.6236 133.213 81.1171 132.956 81.5978C132.7 82.0786 132.42 82.5459 132.117 82.9981C131.815 83.4502 131.49 83.8866 131.145 84.3056C130.8 84.7247 130.435 85.1258 130.05 85.5075C129.666 85.8893 129.263 86.2512 128.844 86.5918C128.424 86.9323 127.988 87.2511 127.537 87.547C127.086 87.843 126.621 88.1159 126.144 88.3645C125.667 88.6129 125.177 88.8368 124.678 89.0352C124.179 89.2337 123.67 89.4065 123.154 89.553C122.638 89.6996 122.115 89.8197 121.587 89.9129C121.059 90.006 120.527 90.0721 119.992 90.1109C119.614 90.1383 119.235 90.152 118.856 90.152C118.32 90.1519 117.785 90.1245 117.252 90.0697C116.719 90.0151 116.189 89.9332 115.664 89.8245C115.139 89.7156 114.619 89.58 114.107 89.4181C113.596 89.2562 113.092 89.0682 112.599 88.8549C112.105 88.6414 111.623 88.4029 111.153 88.1402C110.683 87.8776 110.225 87.5913 109.783 87.282C109.701 87.2194 109.62 87.156 109.539 87.0917L132.114 64.4663V64.4664Z" fill="black" stroke="black" stroke-width="0.733"/>
<path d="M406.787 534.108C409.661 534.108 412.506 533.529 415.161 532.405C417.816 531.28 420.229 529.632 422.261 527.554C424.293 525.476 425.905 523.009 427.005 520.294C428.104 517.579 428.67 514.669 428.67 511.73C428.67 508.791 428.104 505.881 427.005 503.166C425.905 500.451 424.293 497.984 422.261 495.906C420.229 493.827 417.817 492.179 415.161 491.054C412.506 489.93 409.661 489.351 406.787 489.351C403.913 489.351 401.068 489.93 398.413 491.055C395.758 492.179 393.346 493.828 391.314 495.906C389.282 497.984 387.67 500.451 386.57 503.166C385.47 505.881 384.904 508.791 384.904 511.73C384.904 517.665 387.21 523.357 391.314 527.554C395.418 531.75 400.983 534.108 406.787 534.108V534.108ZM406.787 528.161C406.252 528.161 405.716 528.134 405.183 528.079C404.65 528.024 404.12 527.943 403.595 527.834C403.07 527.725 402.551 527.589 402.039 527.427C401.527 527.266 401.024 527.078 400.53 526.864C400.037 526.651 399.554 526.413 399.084 526.15C398.75 525.957 398.423 525.752 398.103 525.535L420.462 503.126C420.692 503.5 420.907 503.884 421.107 504.276C421.35 504.764 421.569 505.265 421.763 505.775C421.957 506.286 422.126 506.806 422.269 507.334C422.413 507.862 422.53 508.397 422.621 508.937C422.712 509.477 422.777 510.021 422.815 510.567C422.842 510.954 422.855 511.342 422.855 511.73C422.855 512.278 422.828 512.825 422.775 513.37C422.721 513.915 422.641 514.457 422.535 514.994C422.428 515.531 422.296 516.062 422.137 516.586C421.979 517.109 421.795 517.624 421.587 518.128C421.378 518.633 421.145 519.127 420.888 519.608C420.631 520.088 420.351 520.556 420.048 521.008C419.746 521.46 419.422 521.896 419.077 522.315C418.731 522.734 418.366 523.135 417.982 523.517C417.597 523.899 417.195 524.26 416.775 524.601C416.356 524.942 415.919 525.26 415.469 525.556C415.018 525.852 414.553 526.125 414.075 526.374C413.598 526.622 413.109 526.846 412.609 527.045C412.11 527.243 411.602 527.416 411.085 527.563C410.569 527.709 410.046 527.829 409.518 527.922C408.99 528.015 408.458 528.081 407.924 528.12C407.545 528.148 407.166 528.161 406.787 528.161L406.787 528.161ZM393.529 520.983C393.44 520.859 393.352 520.734 393.267 520.608C392.977 520.147 392.711 519.671 392.468 519.183C392.225 518.695 392.006 518.194 391.811 517.684C391.617 517.173 391.448 516.653 391.305 516.125C391.162 515.597 391.044 515.062 390.953 514.522C390.862 513.982 390.798 513.438 390.76 512.892C390.733 512.505 390.719 512.118 390.72 511.73C390.719 511.182 390.746 510.634 390.8 510.089C390.853 509.544 390.933 509.002 391.04 508.465C391.146 507.928 391.279 507.397 391.437 506.874C391.595 506.35 391.779 505.835 391.988 505.331C392.197 504.826 392.43 504.333 392.687 503.852C392.943 503.371 393.223 502.904 393.526 502.452C393.828 502 394.153 501.563 394.498 501.144C394.843 500.725 395.208 500.324 395.593 499.942C395.977 499.561 396.38 499.199 396.799 498.858C397.219 498.518 397.655 498.199 398.106 497.903C398.557 497.607 399.021 497.334 399.499 497.085C399.976 496.837 400.466 496.613 400.965 496.415C401.464 496.216 401.973 496.043 402.489 495.897C403.005 495.75 403.528 495.63 404.056 495.537C404.584 495.444 405.116 495.378 405.651 495.339C406.029 495.312 406.408 495.298 406.787 495.298C407.323 495.298 407.858 495.325 408.391 495.38C408.924 495.435 409.454 495.517 409.979 495.625C410.504 495.734 411.024 495.87 411.536 496.032C412.047 496.194 412.551 496.382 413.044 496.595C413.538 496.808 414.02 497.047 414.49 497.31C414.96 497.572 415.418 497.859 415.86 498.168C415.942 498.23 416.023 498.294 416.104 498.358L393.529 520.983H393.529Z" fill="black"/>
<path d="M407.764 535.087C410.637 535.087 413.483 534.508 416.138 533.384C418.793 532.259 421.205 530.611 423.237 528.533C425.269 526.455 426.881 523.988 427.981 521.273C429.081 518.558 429.647 515.648 429.647 512.709C429.647 509.77 429.081 506.86 427.981 504.145C426.881 501.43 425.27 498.963 423.238 496.885C421.205 494.806 418.793 493.158 416.138 492.033C413.483 490.909 410.637 490.33 407.764 490.33C404.89 490.33 402.044 490.909 399.389 492.034C396.734 493.158 394.322 494.807 392.29 496.885C390.258 498.963 388.646 501.43 387.547 504.145C386.447 506.86 385.881 509.77 385.881 512.709C385.881 518.644 388.186 524.336 392.29 528.533C396.394 532.729 401.96 535.087 407.764 535.087V535.087ZM407.764 529.14C407.228 529.14 406.693 529.113 406.16 529.058C405.627 529.003 405.097 528.922 404.572 528.813C404.047 528.704 403.527 528.568 403.016 528.406C402.504 528.245 402 528.057 401.507 527.843C401.013 527.63 400.531 527.392 400.06 527.129C399.726 526.936 399.399 526.731 399.08 526.514L421.439 504.105C421.669 504.479 421.884 504.863 422.083 505.255C422.326 505.743 422.545 506.244 422.739 506.754C422.934 507.265 423.103 507.785 423.246 508.313C423.389 508.841 423.507 509.376 423.598 509.916C423.689 510.456 423.753 511 423.791 511.546C423.818 511.933 423.832 512.321 423.832 512.709C423.832 513.257 423.805 513.804 423.751 514.349C423.698 514.894 423.618 515.436 423.511 515.973C423.405 516.51 423.272 517.041 423.114 517.565C422.956 518.088 422.772 518.603 422.563 519.107C422.355 519.612 422.121 520.106 421.865 520.587C421.608 521.067 421.327 521.535 421.025 521.987C420.723 522.439 420.398 522.875 420.053 523.294C419.708 523.713 419.342 524.114 418.958 524.496C418.574 524.878 418.171 525.239 417.752 525.58C417.332 525.921 416.896 526.239 416.445 526.535C415.994 526.831 415.529 527.104 415.052 527.353C414.574 527.601 414.085 527.825 413.586 528.024C413.087 528.222 412.578 528.395 412.062 528.542C411.546 528.688 411.023 528.808 410.495 528.901C409.967 528.994 409.435 529.06 408.9 529.099C408.522 529.127 408.143 529.14 407.764 529.14H407.764ZM394.506 521.962C394.416 521.838 394.329 521.713 394.243 521.587C393.954 521.126 393.687 520.65 393.444 520.162C393.201 519.674 392.982 519.173 392.788 518.663C392.594 518.152 392.425 517.632 392.282 517.104C392.138 516.576 392.021 516.041 391.93 515.501C391.839 514.961 391.774 514.417 391.736 513.871C391.709 513.484 391.696 513.097 391.696 512.709C391.696 512.161 391.723 511.613 391.776 511.068C391.83 510.523 391.91 509.981 392.016 509.444C392.123 508.907 392.255 508.376 392.413 507.853C392.572 507.329 392.756 506.814 392.964 506.31C393.173 505.805 393.406 505.312 393.663 504.831C393.92 504.35 394.2 503.883 394.502 503.431C394.805 502.979 395.129 502.542 395.474 502.123C395.819 501.704 396.185 501.303 396.569 500.921C396.953 500.54 397.356 500.178 397.776 499.837C398.196 499.497 398.632 499.178 399.082 498.882C399.533 498.586 399.998 498.313 400.475 498.064C400.953 497.816 401.442 497.592 401.942 497.394C402.441 497.195 402.95 497.022 403.466 496.876C403.982 496.729 404.505 496.609 405.033 496.516C405.561 496.423 406.093 496.357 406.627 496.318C407.006 496.291 407.384 496.277 407.764 496.277C408.299 496.277 408.835 496.304 409.368 496.359C409.901 496.414 410.431 496.496 410.956 496.604C411.481 496.713 412 496.849 412.512 497.011C413.024 497.173 413.528 497.361 414.021 497.574C414.514 497.787 414.997 498.026 415.467 498.289C415.937 498.551 416.394 498.838 416.836 499.147C416.918 499.209 417 499.273 417.081 499.337L394.506 521.963L394.506 521.962Z" fill="black" stroke="black" stroke-width="0.733"/>
</svg>
