<svg width="527" height="587" viewBox="0 0 527 587" fill="none" xmlns="http://www.w3.org/2000/svg">
<path d="M442.51 0H84.1097C69.9712 0 58.5098 11.4872 58.5098 25.6573V560.771C58.5098 574.941 69.9712 586.429 84.1097 586.429H442.51C456.648 586.429 468.11 574.941 468.11 560.771V25.6573C468.11 11.4872 456.648 0 442.51 0Z" fill="white"/>
<path d="M109.709 36.6519H416.91C431.048 36.6519 442.51 48.139 442.51 62.3091V524.12C442.51 538.29 431.048 549.777 416.91 549.777H109.709C95.571 549.777 84.1095 538.29 84.1095 524.12V62.3091C84.1095 48.139 95.571 36.6519 109.709 36.6519Z" fill="#7DF6ED"/>
<path d="M100.57 456.318C156.113 511.986 274.001 484.089 363.88 394.009C453.759 303.929 481.593 185.778 426.05 130.11C370.507 74.4429 252.619 102.34 162.74 192.419C72.8613 282.499 45.0268 400.651 100.57 456.318Z" fill="white"/>
<path d="M215.99 334.299V316.189L295.89 189.768H309.03V217.822H300.152L239.782 313.348V314.768H347.382V334.299H215.99ZM301.572 371.586V328.795V320.361V189.768H322.524V371.586H301.572Z" fill="black"/>
<path d="M213.172 330.868V312.757L293.073 186.336H306.212V214.39H297.334L236.965 309.916V311.336H344.564V330.868H213.172ZM298.755 368.155V325.363V316.929V186.336H319.707V368.155H298.755Z" fill="#7DF6ED"/>
<path d="M213.172 330.868H211.672V332.368H213.172V330.868ZM213.172 312.757L211.904 311.955L211.672 312.323V312.757H213.172ZM293.073 186.336V184.836H292.247L291.805 185.535L293.073 186.336ZM306.212 186.336H307.712V184.836H306.212V186.336ZM306.212 214.39V215.89H307.712V214.39H306.212ZM297.334 214.39V212.89H296.508L296.066 213.589L297.334 214.39ZM236.965 309.916L235.697 309.115L235.465 309.482V309.916H236.965ZM236.965 311.336H235.465V312.836H236.965V311.336ZM344.564 311.336H346.064V309.836H344.564V311.336ZM344.564 330.868V332.368H346.064V330.868H344.564ZM298.755 368.155H297.255V369.655H298.755V368.155ZM298.755 186.336V184.836H297.255V186.336H298.755ZM319.707 186.336H321.207V184.836H319.707V186.336ZM319.707 368.155V369.655H321.207V368.155H319.707ZM214.672 330.868V312.757H211.672V330.868H214.672ZM214.44 313.558L294.341 187.138L291.805 185.535L211.904 311.955L214.44 313.558ZM293.073 187.836H306.212V184.836H293.073V187.836ZM304.712 186.336V214.39H307.712V186.336H304.712ZM306.212 212.89H297.334V215.89H306.212V212.89ZM296.066 213.589L235.697 309.115L238.233 310.717L298.602 215.192L296.066 213.589ZM235.465 309.916V311.336H238.465V309.916H235.465ZM236.965 312.836H344.564V309.836H236.965V312.836ZM343.064 311.336V330.868H346.064V311.336H343.064ZM344.564 329.368H213.172V332.368H344.564V329.368ZM300.255 368.155V325.363H297.255V368.155H300.255ZM300.255 325.363V316.929H297.255V325.363H300.255ZM300.255 316.929V186.336H297.255V316.929H300.255ZM298.755 187.836H319.707V184.836H298.755V187.836ZM318.207 186.336V368.155H321.207V186.336H318.207ZM319.707 366.655H298.755V369.655H319.707V366.655Z" fill="black"/>
<path d="M106.644 84.3609V79.6363L127.489 46.6563H130.916V53.9749H128.6L112.851 78.8951V79.2657H140.921V84.3609H106.644ZM128.971 94.0881V82.925V80.7248V46.6563H134.437V94.0881H128.971Z" fill="black"/>
<path d="M105.91 83.4656V78.741L126.754 45.7611H130.181V53.0796H127.865L112.116 77.9999V78.3704H140.186V83.4656H105.91ZM128.236 93.1929V82.0297V79.8295V45.7611H133.702V93.1929H128.236Z" fill="black"/>
<path d="M105.91 83.4656H105.518V83.857H105.91V83.4656ZM105.91 78.741L105.579 78.5319L105.518 78.6277V78.741H105.91ZM126.754 45.7611V45.3697H126.538L126.423 45.552L126.754 45.7611ZM130.181 45.7611H130.573V45.3697H130.181V45.7611ZM130.181 53.0796V53.4709H130.573V53.0796H130.181ZM127.865 53.0796V52.6883H127.65L127.535 52.8706L127.865 53.0796ZM112.116 77.9999L111.786 77.7908L111.725 77.8866V77.9999H112.116ZM112.116 78.3704H111.725V78.7617H112.116V78.3704ZM140.186 78.3704H140.578V77.9791H140.186V78.3704ZM140.186 83.4656V83.857H140.578V83.4656H140.186ZM128.236 93.1929H127.845V93.5842H128.236V93.1929ZM128.236 45.7611V45.3697H127.845V45.7611H128.236ZM133.702 45.7611H134.093V45.3697H133.702V45.7611ZM133.702 93.1929V93.5842H134.093V93.1929H133.702ZM106.301 83.4656V78.741H105.518V83.4656H106.301ZM106.24 78.9501L127.084 45.9701L126.423 45.552L105.579 78.5319L106.24 78.9501ZM126.754 46.1524H130.181V45.3697H126.754V46.1524ZM129.79 45.7611V53.0796H130.573V45.7611H129.79ZM130.181 52.6883H127.865V53.4709H130.181V52.6883ZM127.535 52.8706L111.786 77.7908L112.447 78.2089L128.196 53.2887L127.535 52.8706ZM111.725 77.9999V78.3704H112.508V77.9999H111.725ZM112.116 78.7617H140.186V77.9791H112.116V78.7617ZM139.795 78.3704V83.4656H140.578V78.3704H139.795ZM140.186 83.0743H105.91V83.857H140.186V83.0743ZM128.627 93.1929V82.0297H127.845V93.1929H128.627ZM128.627 82.0297V79.8295H127.845V82.0297H128.627ZM128.627 79.8295V45.7611H127.845V79.8295H128.627ZM128.236 46.1524H133.702V45.3697H128.236V46.1524ZM133.31 45.7611V93.1929H134.093V45.7611H133.31ZM133.702 92.8016H128.236V93.5842H133.702V92.8016Z" fill="black"/>
<path d="M425.358 502.036V506.761L404.513 539.741H401.086V532.422H403.402L419.151 507.502V507.131H391.081V502.036H425.358ZM403.031 492.309V503.472V505.672V539.741H397.565V492.309H403.031Z" fill="black"/>
<path d="M426.092 502.931V507.656L405.248 540.636H401.821V533.317H404.137L419.885 508.397V508.026H391.815V502.931H426.092ZM403.766 493.204V504.367V506.567V540.636H398.3V493.204H403.766Z" fill="black"/>
<path d="M426.092 502.931H426.484V502.54H426.092V502.931ZM426.092 507.656L426.423 507.865L426.484 507.769V507.656H426.092ZM405.248 540.636V541.027H405.464L405.579 540.845L405.248 540.636ZM401.821 540.636H401.429V541.027H401.821V540.636ZM401.821 533.317V532.926H401.429V533.317H401.821ZM404.137 533.317V533.708H404.352L404.467 533.526L404.137 533.317ZM419.885 508.397L420.216 508.606L420.277 508.51V508.397H419.885ZM419.885 508.026H420.277V507.635H419.885V508.026ZM391.815 508.026H391.424V508.418H391.815V508.026ZM391.815 502.931V502.54H391.424V502.931H391.815ZM403.766 493.204H404.157V492.813H403.766V493.204ZM403.766 540.636V541.027H404.157V540.636H403.766ZM398.3 540.636H397.909V541.027H398.3V540.636ZM398.3 493.204V492.813H397.909V493.204H398.3ZM425.701 502.931V507.656H426.484V502.931H425.701ZM425.762 507.447L404.918 540.427L405.579 540.845L426.423 507.865L425.762 507.447ZM405.248 540.244H401.821V541.027H405.248V540.244ZM402.212 540.636V533.317H401.429V540.636H402.212ZM401.821 533.708H404.137V532.926H401.821V533.708ZM404.467 533.526L420.216 508.606L419.555 508.188L403.806 533.108L404.467 533.526ZM420.277 508.397V508.026H419.494V508.397H420.277ZM419.885 507.635H391.815V508.418H419.885V507.635ZM392.207 508.026V502.931H391.424V508.026H392.207ZM391.815 503.322H426.092V502.54H391.815V503.322ZM403.375 493.204V504.367H404.157V493.204H403.375ZM403.375 504.367V506.567H404.157V504.367H403.375ZM403.375 506.567V540.636H404.157V506.567H403.375ZM403.766 540.244H398.3V541.027H403.766V540.244ZM398.692 540.636V493.204H397.909V540.636H398.692ZM398.3 493.595H403.766V492.813H398.3V493.595Z" fill="black"/>
</svg>
