<svg width="527" height="587" viewBox="0 0 527 587" fill="none" xmlns="http://www.w3.org/2000/svg">
<path d="M442.51 0H84.1101C69.9716 0 58.51 11.4872 58.51 25.6573V560.771C58.51 574.941 69.9716 586.429 84.1101 586.429H442.51C456.648 586.429 468.11 574.941 468.11 560.771V25.6573C468.11 11.4872 456.648 0 442.51 0Z" fill="white"/>
<path d="M109.71 36.6519H416.91C431.048 36.6519 442.51 48.139 442.51 62.3091V524.12C442.51 538.29 431.048 549.777 416.91 549.777H109.71C95.5715 549.777 84.1101 538.29 84.1101 524.12V62.3091C84.1101 48.139 95.5715 36.6519 109.71 36.6519Z" fill="#7DF6ED"/>
<path d="M100.57 456.318C156.113 511.986 274.001 484.089 363.88 394.01C453.759 303.93 481.593 185.778 426.05 130.111C370.506 74.4433 252.619 102.34 162.74 192.42C72.8611 282.499 45.0267 400.651 100.57 456.318Z" fill="white"/>
<path d="M280.621 374.072C273.164 373.954 265.706 372.533 258.249 369.811C250.792 367.088 243.985 362.501 237.83 356.05C231.675 349.54 226.733 340.751 223.004 329.683C219.275 318.556 217.411 304.588 217.411 287.78C217.411 271.681 218.92 257.417 221.939 244.988C224.957 232.5 229.337 221.995 235.078 213.472C240.819 204.89 247.744 198.38 255.852 193.941C264.02 189.502 273.223 187.282 283.462 187.282C293.642 187.282 302.697 189.324 310.628 193.408C318.618 197.433 325.129 203.055 330.16 210.276C335.19 217.497 338.446 225.812 339.925 235.223H318.263C316.251 227.055 312.345 220.278 306.545 214.893C300.744 209.507 293.05 206.814 283.462 206.814C269.376 206.814 258.279 212.939 250.17 225.191C242.121 237.442 238.067 254.636 238.008 276.771H239.428C242.742 271.74 246.678 267.449 251.236 263.898C255.852 260.288 260.942 257.506 266.505 255.553C272.069 253.6 277.958 252.623 284.172 252.623C294.589 252.623 304.118 255.228 312.759 260.436C321.4 265.585 328.325 272.717 333.533 281.831C338.742 290.887 341.346 301.274 341.346 312.993C341.346 324.238 338.83 334.536 333.8 343.888C328.769 353.18 321.696 360.578 312.581 366.082C303.526 371.527 292.873 374.191 280.621 374.072ZM280.621 354.541C288.079 354.541 294.767 352.677 300.685 348.948C306.663 345.219 311.368 340.218 314.801 333.944C318.293 327.671 320.039 320.687 320.039 312.993C320.039 305.476 318.352 298.64 314.978 292.485C311.664 286.27 307.077 281.328 301.218 277.659C295.418 273.989 288.789 272.155 281.331 272.155C275.709 272.155 270.471 273.279 265.618 275.528C260.764 277.718 256.503 280.737 252.834 284.584C249.223 288.431 246.382 292.84 244.311 297.812C242.239 302.724 241.204 307.903 241.204 313.348C241.204 320.568 242.89 327.316 246.264 333.589C249.697 339.863 254.372 344.923 260.291 348.77C266.269 352.617 273.045 354.541 280.621 354.541Z" fill="black"/>
<path d="M277.803 370.641C270.346 370.522 262.888 369.102 255.431 366.379C247.973 363.657 241.167 359.07 235.012 352.619C228.856 346.108 223.914 337.319 220.186 326.251C216.457 315.124 214.593 301.157 214.593 284.348C214.593 268.249 216.102 253.986 219.12 241.557C222.139 229.069 226.519 218.563 232.26 210.04C238.001 201.459 244.925 194.948 253.034 190.509C261.201 186.07 270.405 183.851 280.644 183.851C290.824 183.851 299.879 185.893 307.81 189.977C315.8 194.001 322.31 199.624 327.341 206.844C332.372 214.065 335.627 222.381 337.107 231.791H315.445C313.433 223.624 309.526 216.847 303.726 211.461C297.926 206.075 290.232 203.382 280.644 203.382C266.558 203.382 255.46 209.508 247.352 221.759C239.303 234.011 235.248 251.204 235.189 273.339H236.61C239.924 268.309 243.86 264.018 248.417 260.467C253.034 256.856 258.124 254.075 263.687 252.121C269.251 250.168 275.14 249.192 281.354 249.192C291.771 249.192 301.3 251.796 309.941 257.004C318.582 262.153 325.506 269.285 330.715 278.4C335.923 287.455 338.527 297.842 338.527 309.561C338.527 320.806 336.012 331.105 330.981 340.456C325.95 349.748 318.878 357.146 309.763 362.651C300.708 368.096 290.054 370.759 277.803 370.641ZM277.803 351.109C285.26 351.109 291.948 349.245 297.867 345.516C303.845 341.788 308.55 336.786 311.983 330.513C315.475 324.239 317.221 317.255 317.221 309.561C317.221 302.044 315.534 295.209 312.16 289.053C308.846 282.839 304.259 277.897 298.399 274.227C292.599 270.558 285.971 268.723 278.513 268.723C272.89 268.723 267.653 269.847 262.799 272.097C257.946 274.286 253.685 277.305 250.015 281.152C246.405 284.999 243.564 289.408 241.493 294.38C239.421 299.292 238.385 304.471 238.385 309.916C238.385 317.137 240.072 323.884 243.446 330.158C246.878 336.431 251.554 341.492 257.473 345.339C263.45 349.186 270.227 351.109 277.803 351.109Z" fill="#7DF6ED"/>
<path d="M277.803 370.641L277.779 372.14L277.788 372.141L277.803 370.641ZM255.431 366.379L254.916 367.788L255.431 366.379ZM235.012 352.619L233.922 353.649L233.926 353.654L235.012 352.619ZM220.186 326.251L218.763 326.728L218.764 326.73L220.186 326.251ZM219.12 241.557L220.578 241.911L220.578 241.909L219.12 241.557ZM232.26 210.04L233.504 210.878L233.506 210.874L232.26 210.04ZM253.034 190.509L252.317 189.191L252.313 189.193L253.034 190.509ZM307.81 189.977L307.123 191.31L307.135 191.316L307.81 189.977ZM327.341 206.844L328.572 205.987V205.987L327.341 206.844ZM337.107 231.791V233.291H338.861L338.589 231.558L337.107 231.791ZM315.445 231.791L313.988 232.15L314.27 233.291H315.445V231.791ZM303.726 211.461L302.706 212.56L303.726 211.461ZM247.352 221.759L246.101 220.931L246.098 220.936L247.352 221.759ZM235.189 273.339L233.689 273.335L233.685 274.839H235.189V273.339ZM236.61 273.339V274.839H237.418L237.862 274.165L236.61 273.339ZM248.417 260.467L249.339 261.65L249.341 261.648L248.417 260.467ZM263.687 252.121L263.19 250.706L263.687 252.121ZM309.941 257.004L309.166 258.289L309.173 258.293L309.941 257.004ZM330.715 278.4L329.412 279.144L329.415 279.148L330.715 278.4ZM330.981 340.456L332.3 341.17L332.302 341.167L330.981 340.456ZM309.763 362.651L310.536 363.936L310.539 363.935L309.763 362.651ZM297.867 345.516L297.073 344.244L297.067 344.247L297.867 345.516ZM311.983 330.513L310.672 329.783L310.667 329.793L311.983 330.513ZM312.16 289.053L310.837 289.759L310.841 289.767L310.845 289.774L312.16 289.053ZM298.399 274.227L297.598 275.495L297.603 275.499L298.399 274.227ZM262.799 272.097L263.416 273.464L263.423 273.461L263.43 273.458L262.799 272.097ZM250.015 281.152L248.93 280.117L248.921 280.125L250.015 281.152ZM241.493 294.38L242.875 294.963L242.877 294.957L241.493 294.38ZM243.446 330.158L242.125 330.868L242.13 330.878L243.446 330.158ZM257.473 345.339L256.655 346.596L256.661 346.6L257.473 345.339ZM277.827 369.141C270.547 369.025 263.255 367.639 255.945 364.97L254.916 367.788C262.521 370.565 270.144 372.019 277.779 372.14L277.827 369.141ZM255.945 364.97C248.73 362.336 242.113 357.888 236.097 351.583L233.926 353.654C240.221 360.251 247.217 364.977 254.916 367.788L255.945 364.97ZM236.102 351.588C230.133 345.276 225.287 336.694 221.607 325.772L218.764 326.73C222.542 337.944 227.579 346.941 233.922 353.649L236.102 351.588ZM221.608 325.775C217.948 314.852 216.093 301.059 216.093 284.348H213.093C213.093 301.255 214.966 315.397 218.763 326.728L221.608 325.775ZM216.093 284.348C216.093 268.34 217.594 254.199 220.578 241.911L217.663 241.203C214.61 253.773 213.093 268.159 213.093 284.348H216.093ZM220.578 241.909C223.565 229.553 227.884 219.222 233.504 210.878L231.015 209.202C225.153 217.905 220.713 228.585 217.662 241.204L220.578 241.909ZM233.506 210.874C239.129 202.469 245.881 196.135 253.754 191.825L252.313 189.193C243.97 193.761 236.872 200.448 231.013 209.206L233.506 210.874ZM253.75 191.827C261.676 187.519 270.629 185.351 280.644 185.351V182.351C270.18 182.351 260.727 184.621 252.317 189.191L253.75 191.827ZM280.644 185.351C290.619 185.351 299.433 187.35 307.123 191.31L308.497 188.643C300.325 184.435 291.029 182.351 280.644 182.351V185.351ZM307.135 191.316C314.907 195.231 321.225 200.689 326.111 207.702L328.572 205.987C323.396 198.558 316.693 192.772 308.485 188.637L307.135 191.316ZM326.111 207.702C331.001 214.721 334.178 222.819 335.625 232.024L338.589 231.558C337.077 221.942 333.743 213.409 328.572 205.987L326.111 207.702ZM337.107 230.291H315.445V233.291H337.107V230.291ZM316.901 231.432C314.824 222.999 310.775 215.959 304.747 210.362L302.706 212.56C308.278 217.734 312.042 224.248 313.988 232.15L316.901 231.432ZM304.747 210.362C298.613 204.666 290.526 201.882 280.644 201.882V204.882C289.938 204.882 297.239 207.484 302.706 212.56L304.747 210.362ZM280.644 201.882C266.029 201.882 254.473 208.282 246.101 220.931L248.603 222.587C256.448 210.734 267.086 204.882 280.644 204.882V201.882ZM246.098 220.936C237.827 233.525 233.749 251.047 233.689 273.335L236.689 273.343C236.748 251.361 240.778 234.496 248.606 222.583L246.098 220.936ZM235.189 274.839H236.61V271.839H235.189V274.839ZM237.862 274.165C241.091 269.265 244.916 265.096 249.339 261.65L247.495 259.283C242.804 262.939 238.758 267.353 235.357 272.514L237.862 274.165ZM249.341 261.648C253.828 258.139 258.774 255.436 264.184 253.537L263.19 250.706C257.474 252.713 252.239 255.573 247.493 259.285L249.341 261.648ZM264.184 253.537C269.579 251.643 275.3 250.692 281.354 250.692V247.692C274.98 247.692 268.922 248.694 263.19 250.706L264.184 253.537ZM281.354 250.692C291.507 250.692 300.767 253.226 309.166 258.289L310.715 255.72C301.832 250.366 292.034 247.692 281.354 247.692V250.692ZM309.173 258.293C317.582 263.304 324.327 270.244 329.412 279.144L332.017 277.656C326.686 268.327 319.582 261.003 310.709 255.716L309.173 258.293ZM329.415 279.148C334.477 287.949 337.027 298.072 337.027 309.561H340.027C340.027 297.612 337.37 286.962 332.015 277.652L329.415 279.148ZM337.027 309.561C337.027 320.573 334.566 330.625 329.66 339.745L332.302 341.167C337.457 331.584 340.027 321.039 340.027 309.561H337.027ZM329.662 339.742C324.76 348.797 317.875 355.999 308.988 361.367L310.539 363.935C319.88 358.293 327.141 350.699 332.3 341.17L329.662 339.742ZM308.99 361.365C300.208 366.646 289.837 369.257 277.817 369.141L277.788 372.141C290.272 372.261 301.207 369.546 310.536 363.936L308.99 361.365ZM277.803 352.609C285.524 352.609 292.492 350.675 298.666 346.785L297.067 344.247C291.404 347.815 284.997 349.609 277.803 349.609V352.609ZM298.661 346.789C304.86 342.922 309.744 337.729 313.298 331.233L310.667 329.793C307.356 335.844 302.829 340.653 297.073 344.244L298.661 346.789ZM313.293 331.242C316.918 324.73 318.721 317.492 318.721 309.561H315.721C315.721 317.019 314.031 323.749 310.672 329.783L313.293 331.242ZM318.721 309.561C318.721 301.811 316.979 294.724 313.476 288.332L310.845 289.774C314.089 295.693 315.721 302.278 315.721 309.561H318.721ZM313.484 288.347C310.048 281.906 305.282 276.767 299.196 272.956L297.603 275.499C303.236 279.026 307.643 283.771 310.837 289.759L313.484 288.347ZM299.201 272.96C293.141 269.125 286.229 267.223 278.513 267.223V270.223C285.712 270.223 292.058 271.99 297.598 275.495L299.201 272.96ZM278.513 267.223C272.684 267.223 267.23 268.39 262.169 270.736L263.43 273.458C268.076 271.305 273.097 270.223 278.513 270.223V267.223ZM262.182 270.729C257.153 272.998 252.733 276.13 248.93 280.117L251.101 282.187C254.637 278.48 258.739 275.574 263.416 273.464L262.182 270.729ZM248.921 280.125C245.185 284.106 242.247 288.669 240.108 293.803L242.877 294.957C244.881 290.148 247.624 285.892 251.109 282.178L248.921 280.125ZM240.11 293.797C237.959 298.898 236.885 304.275 236.885 309.916H239.885C239.885 304.667 240.883 299.687 242.875 294.963L240.11 293.797ZM236.885 309.916C236.885 317.381 238.632 324.373 242.125 330.868L244.767 329.447C241.512 323.395 239.885 316.892 239.885 309.916H236.885ZM242.13 330.878C245.68 337.366 250.526 342.612 256.655 346.596L258.29 344.081C252.582 340.371 248.077 335.497 244.762 329.438L242.13 330.878ZM256.661 346.6C262.897 350.613 269.959 352.609 277.803 352.609V349.609C270.495 349.609 264.004 347.758 258.284 344.077L256.661 346.6Z" fill="black"/>
<path d="M123.506 94.7369C121.56 94.706 119.615 94.3354 117.669 93.6252C115.724 92.9149 113.948 91.7183 112.343 90.0354C110.737 88.337 109.448 86.0441 108.475 83.1568C107.502 80.2541 107.016 76.6102 107.016 72.2253C107.016 68.0256 107.409 64.3045 108.197 61.0621C108.984 57.8043 110.127 55.0637 111.625 52.8403C113.122 50.6015 114.929 48.9031 117.044 47.7451C119.175 46.5871 121.576 46.0081 124.247 46.0081C126.903 46.0081 129.265 46.5408 131.334 47.6061C133.418 48.656 135.117 50.1228 136.429 52.0065C137.741 53.8902 138.591 56.0595 138.977 58.5145H133.326C132.801 56.3838 131.782 54.6159 130.268 53.2109C128.755 51.8058 126.748 51.1033 124.247 51.1033C120.572 51.1033 117.677 52.7013 115.562 55.8974C113.462 59.0935 112.404 63.5788 112.389 69.3534H112.759C113.624 68.041 114.651 66.9216 115.84 65.9952C117.044 65.0534 118.372 64.3277 119.823 63.8182C121.275 63.3086 122.811 63.0539 124.432 63.0539C127.15 63.0539 129.635 63.7332 131.89 65.092C134.144 66.4353 135.95 68.2958 137.309 70.6735C138.668 73.0359 139.347 75.7456 139.347 78.8027C139.347 81.7363 138.691 84.4229 137.379 86.8624C136.066 89.2865 134.221 91.2165 131.843 92.6525C129.481 94.0729 126.702 94.7677 123.506 94.7369ZM123.506 89.6416C125.451 89.6416 127.196 89.1553 128.74 88.1826C130.299 87.2098 131.527 85.9052 132.422 84.2685C133.333 82.6319 133.789 80.8099 133.789 78.8027C133.789 76.8418 133.349 75.0585 132.469 73.4528C131.604 71.8316 130.407 70.5423 128.879 69.585C127.366 68.6277 125.636 68.1491 123.691 68.1491C122.224 68.1491 120.858 68.4425 119.592 69.0292C118.326 69.6005 117.214 70.3879 116.257 71.3915C115.315 72.3951 114.574 73.5454 114.033 74.8424C113.493 76.1239 113.223 77.4749 113.223 78.8954C113.223 80.7791 113.663 82.5392 114.543 84.1759C115.438 85.8125 116.658 87.1326 118.202 88.1362C119.761 89.1398 121.529 89.6416 123.506 89.6416Z" fill="black"/>
<path d="M122.77 93.8414C120.825 93.8105 118.879 93.4399 116.934 92.7297C114.989 92.0194 113.213 90.8228 111.607 89.1399C110.001 87.4415 108.712 85.1486 107.739 82.2613C106.767 79.3586 106.28 75.7147 106.28 71.3298C106.28 67.1301 106.674 63.409 107.462 60.1666C108.249 56.9088 109.392 54.1682 110.889 51.9448C112.387 49.706 114.193 48.0076 116.309 46.8496C118.439 45.6916 120.84 45.1126 123.511 45.1126C126.167 45.1126 128.529 45.6453 130.598 46.7106C132.683 47.7605 134.381 49.2273 135.694 51.111C137.006 52.9947 137.855 55.164 138.241 57.619H132.59C132.065 55.4883 131.046 53.7204 129.533 52.3154C128.02 50.9103 126.013 50.2078 123.511 50.2078C119.837 50.2078 116.942 51.8058 114.826 55.0019C112.727 58.198 111.669 62.6833 111.654 68.4579H112.024C112.889 67.1455 113.915 66.0261 115.104 65.0997C116.309 64.1579 117.637 63.4322 119.088 62.9227C120.539 62.4131 122.076 62.1584 123.697 62.1584C126.414 62.1584 128.9 62.8377 131.154 64.1965C133.409 65.5397 135.215 67.4003 136.574 69.778C137.932 72.1404 138.612 74.8501 138.612 77.9072C138.612 80.8408 137.956 83.5274 136.643 85.9669C135.331 88.391 133.486 90.321 131.108 91.7569C128.746 93.1774 125.966 93.8722 122.77 93.8414ZM122.77 88.7461C124.716 88.7461 126.461 88.2598 128.005 87.2871C129.564 86.3143 130.791 85.0096 131.687 83.373C132.598 81.7364 133.053 79.9144 133.053 77.9072C133.053 75.9463 132.613 74.163 131.733 72.5573C130.869 70.936 129.672 69.6468 128.143 68.6895C126.63 67.7322 124.901 67.2536 122.956 67.2536C121.489 67.2536 120.122 67.547 118.856 68.1337C117.59 68.705 116.479 69.4924 115.521 70.496C114.579 71.4996 113.838 72.6499 113.298 73.9469C112.757 75.2284 112.487 76.5794 112.487 77.9999C112.487 79.8836 112.927 81.6437 113.807 83.2804C114.703 84.917 115.923 86.2371 117.467 87.2407C119.026 88.2443 120.794 88.7461 122.77 88.7461Z" fill="black"/>
<path d="M122.77 93.8414L122.764 94.2326L122.767 94.2326L122.77 93.8414ZM116.934 92.7297L116.8 93.0973L116.934 92.7297ZM111.607 89.1399L111.323 89.4087L111.324 89.41L111.607 89.1399ZM107.739 82.2613L107.368 82.3857L107.369 82.3863L107.739 82.2613ZM107.462 60.1666L107.842 60.259L107.842 60.2585L107.462 60.1666ZM110.889 51.9448L111.214 52.1634L111.214 52.1624L110.889 51.9448ZM116.309 46.8496L116.122 46.5058L116.121 46.5063L116.309 46.8496ZM130.598 46.7106L130.419 47.0585L130.422 47.0601L130.598 46.7106ZM135.694 51.111L136.015 50.8873V50.8873L135.694 51.111ZM138.241 57.619V58.0103H138.699L138.628 57.5582L138.241 57.619ZM132.59 57.619L132.21 57.7126L132.284 58.0103H132.59V57.619ZM129.533 52.3154L129.267 52.6021L129.533 52.3154ZM114.826 55.0019L114.5 54.786L114.499 54.7871L114.826 55.0019ZM111.654 68.4579L111.262 68.4569L111.261 68.8492H111.654V68.4579ZM112.024 68.4579V68.8492H112.235L112.351 68.6732L112.024 68.4579ZM115.104 65.0997L115.345 65.4084L115.345 65.408L115.104 65.0997ZM119.088 62.9227L118.958 62.5534L119.088 62.9227ZM131.154 64.1965L130.952 64.5316L130.954 64.5326L131.154 64.1965ZM136.574 69.778L136.234 69.9722L136.235 69.9731L136.574 69.778ZM136.643 85.9669L136.987 86.1532L136.988 86.1523L136.643 85.9669ZM131.108 91.7569L131.31 92.0923L131.31 92.0919L131.108 91.7569ZM128.005 87.2871L127.797 86.955L127.796 86.956L128.005 87.2871ZM131.687 83.373L131.345 83.1827L131.344 83.1852L131.687 83.373ZM131.733 72.5573L131.388 72.7414L131.39 72.7453L131.733 72.5573ZM128.143 68.6895L127.934 69.0202L127.936 69.0212L128.143 68.6895ZM118.856 68.1337L119.017 68.4904L119.021 68.4887L118.856 68.1337ZM115.521 70.496L115.238 70.2259L115.236 70.2282L115.521 70.496ZM113.298 73.9469L113.658 74.0989L113.659 74.0974L113.298 73.9469ZM113.807 83.2804L113.463 83.4657L113.464 83.4682L113.807 83.2804ZM117.467 87.2407L117.253 87.5688L117.255 87.5698L117.467 87.2407ZM122.777 93.4501C120.878 93.4199 118.975 93.0583 117.068 92.3621L116.8 93.0973C118.784 93.8215 120.772 94.201 122.764 94.2326L122.777 93.4501ZM117.068 92.3621C115.186 91.6749 113.46 90.5146 111.89 88.8697L111.324 89.41C112.966 91.131 114.791 92.364 116.8 93.0973L117.068 92.3621ZM111.892 88.871C110.335 87.2243 109.07 84.9856 108.11 82.1364L107.369 82.3863C108.354 85.3116 109.668 87.6587 111.323 89.4087L111.892 88.871ZM108.111 82.137C107.156 79.2876 106.672 75.6892 106.672 71.3298H105.889C105.889 75.7403 106.378 79.4296 107.368 82.3857L108.111 82.137ZM106.672 71.3298C106.672 67.1536 107.063 63.4645 107.842 60.259L107.081 60.0743C106.285 63.3535 105.889 67.1066 105.889 71.3298H106.672ZM107.842 60.2585C108.621 57.035 109.748 54.3399 111.214 52.1634L110.565 51.7262C109.035 53.9964 107.877 56.7825 107.081 60.0747L107.842 60.2585ZM111.214 52.1624C112.681 49.9697 114.443 48.3172 116.497 47.1928L116.121 46.5063C113.944 47.698 112.093 49.4423 110.564 51.7272L111.214 52.1624ZM116.496 47.1934C118.563 46.0696 120.899 45.5039 123.511 45.5039V44.7213C120.782 44.7213 118.316 45.3135 116.122 46.5058L116.496 47.1934ZM123.511 45.5039C126.114 45.5039 128.413 46.0255 130.419 47.0585L130.778 46.3627C128.646 45.265 126.221 44.7213 123.511 44.7213V45.5039ZM130.422 47.0601C132.45 48.0813 134.098 49.5053 135.373 51.3347L136.015 50.8873C134.665 48.9494 132.916 47.4398 130.774 46.3611L130.422 47.0601ZM135.373 51.3347C136.648 53.1658 137.477 55.2785 137.855 57.6798L138.628 57.5582C138.233 55.0496 137.364 52.8236 136.015 50.8873L135.373 51.3347ZM138.241 57.2277H132.59V58.0103H138.241V57.2277ZM132.97 57.5254C132.428 55.3255 131.372 53.4889 129.799 52.0286L129.267 52.6021C130.72 53.9519 131.702 55.6511 132.21 57.7126L132.97 57.5254ZM129.799 52.0286C128.199 50.5427 126.09 49.8165 123.511 49.8165V50.5991C125.936 50.5991 127.841 51.2779 129.267 52.6021L129.799 52.0286ZM123.511 49.8165C119.699 49.8165 116.684 51.486 114.5 54.786L115.153 55.2179C117.199 52.1256 119.975 50.5991 123.511 50.5991V49.8165ZM114.499 54.7871C112.342 58.0713 111.278 62.6425 111.262 68.4569L112.045 68.459C112.06 62.7242 113.112 58.3247 115.153 55.2168L114.499 54.7871ZM111.654 68.8492H112.024V68.0666H111.654V68.8492ZM112.351 68.6732C113.193 67.3949 114.191 66.3074 115.345 65.4084L114.864 64.791C113.64 65.7448 112.584 66.8961 111.697 68.2426L112.351 68.6732ZM115.345 65.408C116.516 64.4925 117.806 63.7874 119.218 63.2919L118.958 62.5534C117.467 63.077 116.101 63.8232 114.863 64.7915L115.345 65.408ZM119.218 63.2919C120.625 62.7978 122.117 62.5497 123.697 62.5497V61.7671C122.034 61.7671 120.454 62.0285 118.958 62.5534L119.218 63.2919ZM123.697 62.5497C126.345 62.5497 128.761 63.2109 130.952 64.5316L131.356 63.8613C129.039 62.4646 126.483 61.7671 123.697 61.7671V62.5497ZM130.954 64.5326C133.148 65.8398 134.907 67.6503 136.234 69.9722L136.914 69.5839C135.523 67.1502 133.669 65.2397 131.355 63.8603L130.954 64.5326ZM136.235 69.9731C137.555 72.2691 138.221 74.9101 138.221 77.9072H139.003C139.003 74.7901 138.31 72.0116 136.913 69.5829L136.235 69.9731ZM138.221 77.9072C138.221 80.7801 137.579 83.4024 136.299 85.7815L136.988 86.1523C138.333 83.6524 139.003 80.9016 139.003 77.9072H138.221ZM136.299 85.7806C135.02 88.1429 133.224 90.0218 130.906 91.422L131.31 92.0919C133.747 90.6202 135.641 88.6391 136.987 86.1532L136.299 85.7806ZM130.906 91.4216C128.615 92.7992 125.91 93.4804 122.774 93.4501L122.767 94.2326C126.023 94.2641 128.876 93.5557 131.31 92.0923L130.906 91.4216ZM122.77 89.1374C124.785 89.1374 126.602 88.6328 128.213 87.6181L127.796 86.956C126.319 87.8867 124.647 88.3548 122.77 88.3548V89.1374ZM128.212 87.6191C129.829 86.6102 131.103 85.2555 132.03 83.5608L131.344 83.1852C130.48 84.7638 129.299 86.0184 127.797 86.955L128.212 87.6191ZM132.029 83.5633C132.975 81.8643 133.445 79.9761 133.445 77.9072H132.662C132.662 79.8527 132.221 81.6084 131.345 83.1827L132.029 83.5633ZM133.445 77.9072C133.445 75.8854 132.99 74.0367 132.076 72.3692L131.39 72.7453C132.236 74.2894 132.662 76.0073 132.662 77.9072H133.445ZM132.079 72.3731C131.182 70.6927 129.939 69.3522 128.351 68.3579L127.936 69.0212C129.405 69.9414 130.555 71.1794 131.388 72.7414L132.079 72.3731ZM128.353 68.3588C126.772 67.3585 124.968 66.8623 122.956 66.8623V67.6449C124.834 67.6449 126.489 68.1059 127.934 69.0202L128.353 68.3588ZM122.956 66.8623C121.435 66.8623 120.012 67.1668 118.692 67.7786L119.021 68.4887C120.233 67.9271 121.543 67.6449 122.956 67.6449V66.8623ZM118.695 67.777C117.383 68.369 116.23 69.1858 115.238 70.2259L115.804 70.7661C116.727 69.799 117.797 69.0409 119.017 68.4904L118.695 67.777ZM115.236 70.2282C114.261 71.2668 113.495 72.457 112.937 73.7963L113.659 74.0974C114.182 72.8428 114.898 71.7324 115.807 70.7638L115.236 70.2282ZM112.937 73.7948C112.376 75.1255 112.096 76.5283 112.096 77.9999H112.879C112.879 76.6305 113.139 75.3313 113.658 74.0989L112.937 73.7948ZM112.096 77.9999C112.096 79.9473 112.552 81.7713 113.463 83.4657L114.152 83.095C113.303 81.5162 112.879 79.8198 112.879 77.9999H112.096ZM113.464 83.4682C114.39 85.1609 115.654 86.5295 117.253 87.5688L117.68 86.9126C116.191 85.9448 115.016 84.6732 114.151 83.0925L113.464 83.4682ZM117.255 87.5698C118.882 88.6167 120.724 89.1374 122.77 89.1374V88.3548C120.864 88.3548 119.171 87.8719 117.678 86.9117L117.255 87.5698Z" fill="black"/>
<path d="M408.497 491.661C410.442 491.691 412.388 492.062 414.333 492.772C416.279 493.483 418.054 494.679 419.66 496.362C421.266 498.06 422.555 500.353 423.528 503.241C424.5 506.143 424.987 509.787 424.987 514.172C424.987 518.372 424.593 522.093 423.806 525.335C423.018 528.593 421.876 531.334 420.378 533.557C418.88 535.796 417.074 537.494 414.958 538.652C412.828 539.81 410.427 540.389 407.756 540.389C405.1 540.389 402.738 539.857 400.669 538.791C398.584 537.741 396.886 536.275 395.573 534.391C394.261 532.507 393.412 530.338 393.026 527.883H398.677C399.202 530.014 400.221 531.782 401.734 533.187C403.247 534.592 405.254 535.294 407.756 535.294C411.43 535.294 414.325 533.696 416.441 530.5C418.54 527.304 419.598 522.819 419.614 517.044H419.243C418.378 518.356 417.352 519.476 416.163 520.402C414.958 521.344 413.631 522.07 412.179 522.579C410.728 523.089 409.192 523.344 407.57 523.344C404.853 523.344 402.367 522.664 400.113 521.305C397.859 519.962 396.052 518.102 394.693 515.724C393.335 513.362 392.655 510.652 392.655 507.595C392.655 504.661 393.311 501.975 394.624 499.535C395.936 497.111 397.781 495.181 400.159 493.745C402.521 492.325 405.301 491.63 408.497 491.661ZM408.497 496.756C406.551 496.756 404.807 497.242 403.263 498.215C401.703 499.188 400.476 500.492 399.58 502.129C398.669 503.766 398.214 505.588 398.214 507.595C398.214 509.556 398.654 511.339 399.534 512.945C400.398 514.566 401.595 515.855 403.124 516.812C404.637 517.77 406.366 518.248 408.311 518.248C409.778 518.248 411.145 517.955 412.411 517.368C413.677 516.797 414.789 516.01 415.746 515.006C416.688 514.002 417.429 512.852 417.969 511.555C418.51 510.274 418.78 508.923 418.78 507.502C418.78 505.618 418.34 503.858 417.46 502.222C416.564 500.585 415.344 499.265 413.8 498.261C412.241 497.258 410.473 496.756 408.497 496.756Z" fill="black"/>
<path d="M409.232 492.555C411.178 492.586 413.123 492.957 415.068 493.667C417.014 494.377 418.789 495.574 420.395 497.257C422.001 498.955 423.29 501.248 424.263 504.135C425.236 507.038 425.722 510.682 425.722 515.067C425.722 519.266 425.328 522.987 424.541 526.23C423.753 529.488 422.611 532.228 421.113 534.452C419.616 536.691 417.809 538.389 415.694 539.547C413.563 540.705 411.162 541.284 408.491 541.284C405.835 541.284 403.473 540.751 401.404 539.686C399.32 538.636 397.621 537.169 396.309 535.285C394.996 533.402 394.147 531.232 393.761 528.777H399.412C399.937 530.908 400.956 532.676 402.469 534.081C403.982 535.486 405.99 536.189 408.491 536.189C412.166 536.189 415.061 534.591 417.176 531.395C419.276 528.198 420.333 523.713 420.349 517.939H419.978C419.114 519.251 418.087 520.37 416.898 521.297C415.694 522.239 414.366 522.964 412.915 523.474C411.463 523.983 409.927 524.238 408.306 524.238C405.588 524.238 403.102 523.559 400.848 522.2C398.594 520.857 396.787 518.996 395.429 516.618C394.07 514.256 393.391 511.546 393.391 508.489C393.391 505.556 394.047 502.869 395.359 500.43C396.672 498.005 398.517 496.075 400.894 494.64C403.257 493.219 406.036 492.524 409.232 492.555ZM409.232 497.65C407.287 497.65 405.542 498.137 403.998 499.109C402.438 500.082 401.211 501.387 400.315 503.023C399.404 504.66 398.949 506.482 398.949 508.489C398.949 510.45 399.389 512.233 400.269 513.839C401.134 515.46 402.33 516.75 403.859 517.707C405.372 518.664 407.101 519.143 409.047 519.143C410.514 519.143 411.88 518.85 413.146 518.263C414.412 517.692 415.524 516.904 416.481 515.9C417.423 514.897 418.164 513.747 418.705 512.45C419.245 511.168 419.515 509.817 419.515 508.397C419.515 506.513 419.075 504.753 418.195 503.116C417.3 501.479 416.08 500.159 414.536 499.156C412.976 498.152 411.208 497.65 409.232 497.65Z" fill="black"/>
<path d="M409.232 492.555L409.238 492.164L409.236 492.164L409.232 492.555ZM415.068 493.667L415.203 493.299L415.068 493.667ZM420.395 497.257L420.68 496.988L420.678 496.986L420.395 497.257ZM424.263 504.135L424.634 504.011L424.634 504.01L424.263 504.135ZM424.541 526.23L424.161 526.138L424.161 526.138L424.541 526.23ZM421.113 534.452L420.789 534.233L420.788 534.234L421.113 534.452ZM415.694 539.547L415.881 539.891L415.882 539.89L415.694 539.547ZM401.404 539.686L401.583 539.338L401.58 539.336L401.404 539.686ZM396.309 535.285L395.988 535.509V535.509L396.309 535.285ZM393.761 528.777V528.386H393.304L393.375 528.838L393.761 528.777ZM399.412 528.777L399.792 528.684L399.719 528.386H399.412V528.777ZM402.469 534.081L402.736 533.794L402.469 534.081ZM417.176 531.395L417.502 531.611L417.503 531.609L417.176 531.395ZM420.349 517.939L420.74 517.94L420.741 517.547H420.349V517.939ZM419.978 517.939V517.547H419.768L419.652 517.723L419.978 517.939ZM416.898 521.297L416.658 520.988L416.657 520.989L416.898 521.297ZM412.915 523.474L413.044 523.843L412.915 523.474ZM400.848 522.2L401.05 521.865L401.048 521.864L400.848 522.2ZM395.429 516.618L395.768 516.424L395.768 516.423L395.429 516.618ZM395.359 500.43L395.015 500.243L395.015 500.244L395.359 500.43ZM400.894 494.64L400.693 494.304L400.692 494.305L400.894 494.64ZM403.998 499.109L404.205 499.441L404.206 499.441L403.998 499.109ZM400.315 503.023L400.657 503.214L400.659 503.211L400.315 503.023ZM400.269 513.839L400.614 513.655L400.612 513.651L400.269 513.839ZM403.859 517.707L404.068 517.376L404.067 517.375L403.859 517.707ZM413.146 518.263L412.985 517.906L412.982 517.908L413.146 518.263ZM416.481 515.9L416.764 516.171L416.767 516.168L416.481 515.9ZM418.705 512.45L418.344 512.298L418.343 512.299L418.705 512.45ZM418.195 503.116L418.54 502.931L418.538 502.928L418.195 503.116ZM414.536 499.156L414.749 498.828L414.748 498.827L414.536 499.156ZM409.226 492.946C411.125 492.977 413.027 493.338 414.934 494.034L415.203 493.299C413.219 492.575 411.23 492.195 409.238 492.164L409.226 492.946ZM414.934 494.034C416.817 494.722 418.543 495.882 420.112 497.527L420.678 496.986C419.036 495.265 417.211 494.033 415.203 493.299L414.934 494.034ZM420.111 497.525C421.668 499.172 422.932 501.411 423.892 504.26L424.634 504.01C423.648 501.085 422.334 498.738 420.68 496.988L420.111 497.525ZM423.892 504.26C424.847 507.109 425.331 510.707 425.331 515.067H426.113C426.113 510.656 425.625 506.967 424.634 504.011L423.892 504.26ZM425.331 515.067C425.331 519.243 424.939 522.932 424.161 526.138L424.921 526.322C425.718 523.043 426.113 519.29 426.113 515.067H425.331ZM424.161 526.138C423.381 529.361 422.255 532.057 420.789 534.233L421.438 534.67C422.967 532.4 424.126 529.614 424.921 526.322L424.161 526.138ZM420.788 534.234C419.321 536.427 417.56 538.079 415.506 539.204L415.882 539.89C418.058 538.699 419.91 536.954 421.438 534.669L420.788 534.234ZM415.507 539.203C413.439 540.327 411.104 540.893 408.491 540.893V541.675C411.221 541.675 413.687 541.083 415.881 539.891L415.507 539.203ZM408.491 540.893C405.889 540.893 403.589 540.371 401.583 539.338L401.225 540.034C403.357 541.131 405.782 541.675 408.491 541.675V540.893ZM401.58 539.336C399.553 538.315 397.904 536.891 396.63 535.062L395.988 535.509C397.338 537.447 399.087 538.957 401.228 540.035L401.58 539.336ZM396.63 535.062C395.354 533.231 394.525 531.118 394.148 528.717L393.375 528.838C393.769 531.347 394.639 533.573 395.988 535.509L396.63 535.062ZM393.761 529.169H399.412V528.386H393.761V529.169ZM399.032 528.871C399.574 531.071 400.63 532.908 402.203 534.368L402.736 533.794C401.282 532.445 400.3 530.745 399.792 528.684L399.032 528.871ZM402.203 534.368C403.803 535.854 405.913 536.58 408.491 536.58V535.797C406.066 535.797 404.162 535.119 402.736 533.794L402.203 534.368ZM408.491 536.58C412.304 536.58 415.318 534.91 417.502 531.611L416.85 531.179C414.803 534.271 412.028 535.797 408.491 535.797V536.58ZM417.503 531.609C419.661 528.325 420.725 523.754 420.74 517.94L419.958 517.938C419.942 523.672 418.891 528.072 416.849 531.18L417.503 531.609ZM420.349 517.547H419.978V518.33H420.349V517.547ZM419.652 517.723C418.809 519.002 417.811 520.089 416.658 520.988L417.139 521.605C418.363 520.652 419.418 519.5 420.305 518.154L419.652 517.723ZM416.657 520.989C415.486 521.904 414.196 522.609 412.785 523.105L413.044 523.843C414.535 523.319 415.901 522.573 417.139 521.605L416.657 520.989ZM412.785 523.105C411.377 523.599 409.885 523.847 408.306 523.847V524.629C409.969 524.629 411.549 524.368 413.044 523.843L412.785 523.105ZM408.306 523.847C405.657 523.847 403.241 523.186 401.05 521.865L400.646 522.535C402.963 523.932 405.519 524.629 408.306 524.629V523.847ZM401.048 521.864C398.855 520.557 397.095 518.746 395.768 516.424L395.089 516.813C396.48 519.246 398.333 521.157 400.648 522.536L401.048 521.864ZM395.768 516.423C394.447 514.127 393.782 511.486 393.782 508.489H392.999C392.999 511.606 393.693 514.385 395.089 516.814L395.768 516.423ZM393.782 508.489C393.782 505.616 394.424 502.994 395.704 500.615L395.015 500.244C393.67 502.744 392.999 505.495 392.999 508.489H393.782ZM395.703 500.616C396.982 498.254 398.778 496.375 401.097 494.975L400.692 494.305C398.255 495.776 396.361 497.757 395.015 500.243L395.703 500.616ZM401.096 494.975C403.387 493.597 406.093 492.916 409.228 492.946L409.236 492.164C405.979 492.132 403.126 492.841 400.693 494.304L401.096 494.975ZM409.232 497.259C407.218 497.259 405.4 497.764 403.789 498.778L404.206 499.441C405.684 498.51 407.355 498.042 409.232 498.042V497.259ZM403.791 498.777C402.173 499.786 400.899 501.141 399.972 502.836L400.659 503.211C401.523 501.633 402.703 500.378 404.205 499.441L403.791 498.777ZM399.974 502.833C399.028 504.532 398.558 506.42 398.558 508.489H399.34C399.34 506.544 399.781 504.788 400.657 503.214L399.974 502.833ZM398.558 508.489C398.558 510.511 399.012 512.36 399.926 514.027L400.612 513.651C399.766 512.107 399.34 510.389 399.34 508.489H398.558ZM399.924 514.023C400.82 515.704 402.064 517.044 403.651 518.039L404.067 517.375C402.597 516.455 401.448 515.217 400.614 513.655L399.924 514.023ZM403.65 518.038C405.231 519.038 407.034 519.534 409.047 519.534V518.752C407.169 518.752 405.513 518.291 404.068 517.376L403.65 518.038ZM409.047 519.534C410.567 519.534 411.99 519.23 413.311 518.618L412.982 517.908C411.77 518.469 410.46 518.752 409.047 518.752V519.534ZM413.307 518.619C414.619 518.028 415.772 517.211 416.764 516.171L416.198 515.63C415.276 516.597 414.205 517.356 412.985 517.906L413.307 518.619ZM416.767 516.168C417.741 515.13 418.508 513.94 419.066 512.6L418.343 512.299C417.821 513.554 417.105 514.664 416.196 515.633L416.767 516.168ZM419.065 512.602C419.626 511.271 419.906 509.868 419.906 508.397H419.124C419.124 509.766 418.864 511.065 418.344 512.298L419.065 512.602ZM419.906 508.397C419.906 506.449 419.451 504.625 418.54 502.931L417.85 503.301C418.699 504.88 419.124 506.577 419.124 508.397H419.906ZM418.538 502.928C417.612 501.236 416.348 499.867 414.749 498.828L414.322 499.484C415.811 500.452 416.987 501.723 417.852 503.304L418.538 502.928ZM414.748 498.827C413.121 497.78 411.278 497.259 409.232 497.259V498.042C411.138 498.042 412.832 498.525 414.324 499.485L414.748 498.827Z" fill="black"/>
<path d="M342.946 394.445H214.946V407.843H342.946V394.445Z" fill="black"/>
<path d="M340.127 390.436H212.127V403.834H340.127V390.436Z" fill="#7DF6ED" stroke="black" stroke-width="3"/>
<path d="M139.385 99.7524H106.395V103.206H139.385V99.7524Z" fill="black"/>
<path d="M138.658 98.7188H105.668V102.172H138.658V98.7188Z" fill="black" stroke="black" stroke-width="0.773206"/>
<path d="M392.474 486.666H425.464V483.213H392.474V486.666Z" fill="black"/>
<path d="M393.199 487.699H426.19V484.246H393.199V487.699Z" fill="black" stroke="black" stroke-width="0.773206"/>
</svg>
