<svg width="527" height="587" viewBox="0 0 527 587" fill="none" xmlns="http://www.w3.org/2000/svg">
<path d="M442.51 0H84.1099C69.9714 0 58.5098 11.4872 58.5098 25.6573V560.771C58.5098 574.941 69.9714 586.429 84.1099 586.429H442.51C456.648 586.429 468.11 574.941 468.11 560.771V25.6573C468.11 11.4872 456.648 0 442.51 0Z" fill="white"/>
<path d="M109.709 36.6519H416.909C431.047 36.6519 442.509 48.139 442.509 62.3091V524.12C442.509 538.29 431.047 549.777 416.909 549.777H109.709C95.5703 549.777 84.1089 538.29 84.1089 524.12V62.3091C84.1089 48.139 95.5703 36.6519 109.709 36.6519Z" fill="#7DF6ED"/>
<path d="M100.57 456.318C156.113 511.986 274.001 484.089 363.88 394.009C453.759 303.929 481.593 185.778 426.05 130.11C370.506 74.4429 252.618 102.339 162.74 192.419C72.8609 282.499 45.0265 400.651 100.57 456.318Z" fill="white"/>
<path d="M225.933 371.586L307.254 210.72V209.299H213.504V189.768H329.981V210.365L249.015 371.586H225.933Z" fill="black"/>
<path d="M223.115 368.155L304.436 207.288V205.868H210.686V186.337H327.163V206.933L246.198 368.155H223.115Z" fill="#7DF6ED"/>
<path d="M223.115 368.155L221.776 367.478L220.676 369.655H223.115V368.155ZM304.436 207.288L305.775 207.965L305.936 207.646V207.288H304.436ZM304.436 205.868H305.936V204.368H304.436V205.868ZM210.686 205.868H209.186V207.368H210.686V205.868ZM210.686 186.337V184.837H209.186V186.337H210.686ZM327.163 186.337H328.663V184.837H327.163V186.337ZM327.163 206.933L328.504 207.606L328.663 207.289V206.933H327.163ZM246.198 368.155V369.655H247.123L247.538 368.828L246.198 368.155ZM224.454 368.832L305.775 207.965L303.097 206.612L221.776 367.478L224.454 368.832ZM305.936 207.288V205.868H302.936V207.288H305.936ZM304.436 204.368H210.686V207.368H304.436V204.368ZM212.186 205.868V186.337H209.186V205.868H212.186ZM210.686 187.837H327.163V184.837H210.686V187.837ZM325.663 186.337V206.933H328.663V186.337H325.663ZM325.823 206.26L244.857 367.482L247.538 368.828L328.504 207.606L325.823 206.26ZM246.198 366.655H223.115V369.655H246.198V366.655Z" fill="black"/>
<path d="M109.238 94.0884L130.453 52.1223V51.7518H105.995V46.6566H136.381V52.0297L115.26 94.0884H109.238Z" fill="black"/>
<path d="M108.503 93.1929L129.717 51.2268V50.8563H105.26V45.7611H135.646V51.1342L114.524 93.1929H108.503Z" fill="black"/>
<path d="M108.503 93.1929L108.153 93.0163L107.866 93.5842H108.503V93.1929ZM129.717 51.2268L130.066 51.4034L130.108 51.3201V51.2268H129.717ZM129.717 50.8563H130.108V50.465H129.717V50.8563ZM105.26 50.8563H104.869V51.2476H105.26V50.8563ZM105.26 45.7611V45.3697H104.869V45.7611H105.26ZM135.646 45.7611H136.037V45.3697H135.646V45.7611ZM135.646 51.1342L135.996 51.3098L136.037 51.2269V51.1342H135.646ZM114.524 93.1929V93.5842H114.766L114.874 93.3685L114.524 93.1929ZM108.852 93.3694L130.066 51.4034L129.368 51.0503L108.153 93.0163L108.852 93.3694ZM130.108 51.2268V50.8563H129.326V51.2268H130.108ZM129.717 50.465H105.26V51.2476H129.717V50.465ZM105.651 50.8563V45.7611H104.869V50.8563H105.651ZM105.26 46.1524H135.646V45.3697H105.26V46.1524ZM135.255 45.7611V51.1342H136.037V45.7611H135.255ZM135.296 50.9586L114.174 93.0173L114.874 93.3685L135.996 51.3098L135.296 50.9586ZM114.524 92.8016H108.503V93.5842H114.524V92.8016Z" fill="black"/>
<path d="M422.763 492.309L401.548 534.275V534.646H426.006V539.741H395.619V534.368L416.741 492.309H422.763Z" fill="black"/>
<path d="M423.497 493.204L402.283 535.17V535.54H426.74V540.635H396.354V535.262L417.476 493.204H423.497Z" fill="black"/>
<path d="M423.497 493.204L423.847 493.38L424.134 492.812H423.497V493.204ZM402.283 535.17L401.934 534.993L401.892 535.076V535.17H402.283ZM402.283 535.54H401.892V535.932H402.283V535.54ZM426.74 535.54H427.131V535.149H426.74V535.54ZM426.74 540.635V541.027H427.131V540.635H426.74ZM396.354 540.635H395.963V541.027H396.354V540.635ZM396.354 535.262L396.004 535.087L395.963 535.17V535.262H396.354ZM417.476 493.204V492.812H417.234L417.126 493.028L417.476 493.204ZM423.148 493.027L401.934 534.993L402.632 535.346L423.847 493.38L423.148 493.027ZM401.892 535.17V535.54H402.674V535.17H401.892ZM402.283 535.932H426.74V535.149H402.283V535.932ZM426.349 535.54V540.635H427.131V535.54H426.349ZM426.74 540.244H396.354V541.027H426.74V540.244ZM396.745 540.635V535.262H395.963V540.635H396.745ZM396.704 535.438L417.826 493.379L417.126 493.028L396.004 535.087L396.704 535.438ZM417.476 493.595H423.497V492.812H417.476V493.595Z" fill="black"/>
</svg>
