<svg width="527" height="587" viewBox="0 0 527 587" fill="none" xmlns="http://www.w3.org/2000/svg">
<path d="M442.51 0H84.1099C69.9714 0 58.5098 11.4872 58.5098 25.6573V560.771C58.5098 574.941 69.9714 586.429 84.1099 586.429H442.51C456.648 586.429 468.11 574.941 468.11 560.771V25.6573C468.11 11.4872 456.648 0 442.51 0Z" fill="white"/>
<path d="M109.71 36.6519H416.91C431.048 36.6519 442.51 48.139 442.51 62.3091V524.12C442.51 538.29 431.048 549.777 416.91 549.777H109.71C95.5712 549.777 84.1099 538.29 84.1099 524.12V62.3091C84.1099 48.139 95.5712 36.6519 109.71 36.6519Z" fill="#7DF6ED"/>
<path d="M100.57 456.318C156.113 511.986 274.001 484.089 363.88 394.01C453.758 303.93 481.593 185.778 426.049 130.111C370.506 74.4433 252.618 102.34 162.74 192.42C72.8609 282.499 45.0264 400.651 100.57 456.318Z" fill="white"/>
<path d="M278.489 374.072C266.297 374.072 255.525 371.912 246.174 367.591C236.882 363.212 229.632 357.204 224.423 349.569C219.215 341.875 216.64 333.116 216.7 323.291C216.64 315.597 218.15 308.495 221.227 301.984C224.305 295.415 228.507 289.94 233.834 285.56C239.22 281.121 245.227 278.31 251.856 277.126V276.061C243.156 273.812 236.231 268.929 231.082 261.412C225.933 253.837 223.388 245.225 223.447 235.578C223.388 226.345 225.725 218.089 230.46 210.809C235.195 203.529 241.705 197.788 249.991 193.586C258.337 189.384 267.836 187.282 278.489 187.282C289.024 187.282 298.435 189.384 306.721 193.586C315.007 197.788 321.517 203.529 326.252 210.809C331.046 218.089 333.473 226.345 333.532 235.578C333.473 245.225 330.839 253.837 325.631 261.412C320.482 268.929 313.646 273.812 305.123 276.061V277.126C311.692 278.31 317.611 281.121 322.879 285.56C328.146 289.94 332.348 295.415 335.485 301.984C338.622 308.495 340.22 315.597 340.279 323.291C340.22 333.116 337.557 341.875 332.289 349.569C327.081 357.204 319.83 363.212 310.538 367.591C301.305 371.912 290.622 374.072 278.489 374.072ZM278.489 354.541C286.716 354.541 293.818 353.209 299.796 350.546C305.774 347.883 310.39 344.124 313.646 339.271C316.901 334.418 318.558 328.736 318.617 322.226C318.558 315.36 316.782 309.294 313.29 304.026C309.799 298.759 305.034 294.616 298.997 291.597C293.019 288.579 286.183 287.069 278.489 287.069C270.736 287.069 263.811 288.579 257.715 291.597C251.678 294.616 246.914 298.759 243.422 304.026C239.989 309.294 238.302 315.36 238.362 322.226C238.302 328.736 239.871 334.418 243.067 339.271C246.322 344.124 250.968 347.883 257.005 350.546C263.042 353.209 270.203 354.541 278.489 354.541ZM278.489 268.248C285 268.248 290.77 266.946 295.801 264.342C300.891 261.738 304.886 258.098 307.786 253.422C310.686 248.747 312.166 243.272 312.225 236.998C312.166 230.843 310.716 225.487 307.875 220.929C305.034 216.313 301.098 212.762 296.067 210.276C291.037 207.731 285.177 206.459 278.489 206.459C271.683 206.459 265.735 207.731 260.645 210.276C255.555 212.762 251.619 216.313 248.837 220.929C246.056 225.487 244.694 230.843 244.754 236.998C244.694 243.272 246.085 248.747 248.926 253.422C251.826 258.098 255.821 261.738 260.911 264.342C266.001 266.946 271.861 268.248 278.489 268.248Z" fill="black"/>
<path d="M275.672 370.641C263.48 370.641 252.708 368.48 243.357 364.16C234.064 359.78 226.814 353.773 221.606 346.138C216.398 338.444 213.823 329.684 213.882 319.859C213.823 312.165 215.332 305.063 218.41 298.553C221.488 291.983 225.69 286.508 231.016 282.129C236.402 277.69 242.41 274.878 249.038 273.695V272.629C240.338 270.38 233.413 265.497 228.264 257.981C223.115 250.405 220.57 241.794 220.629 232.146C220.57 222.913 222.908 214.657 227.643 207.377C232.378 200.097 238.888 194.356 247.174 190.154C255.519 185.952 265.019 183.851 275.672 183.851C286.207 183.851 295.618 185.952 303.903 190.154C312.189 194.356 318.7 200.097 323.435 207.377C328.229 214.657 330.655 222.913 330.715 232.146C330.655 241.794 328.022 250.405 322.813 257.981C317.664 265.497 310.828 270.38 302.305 272.629V273.695C308.875 274.878 314.794 277.69 320.061 282.129C325.329 286.508 329.531 291.983 332.668 298.553C335.805 305.063 337.403 312.165 337.462 319.859C337.403 329.684 334.739 338.444 329.472 346.138C324.263 353.773 317.013 359.78 307.721 364.16C298.488 368.48 287.805 370.641 275.672 370.641ZM275.672 351.109C283.899 351.109 291.001 349.778 296.979 347.114C302.957 344.451 307.573 340.693 310.828 335.839C314.083 330.986 315.741 325.304 315.8 318.794C315.741 311.928 313.965 305.862 310.473 300.594C306.981 295.327 302.217 291.184 296.18 288.165C290.202 285.147 283.366 283.638 275.672 283.638C267.919 283.638 260.994 285.147 254.898 288.165C248.861 291.184 244.096 295.327 240.604 300.594C237.172 305.862 235.485 311.928 235.544 318.794C235.485 325.304 237.053 330.986 240.249 335.839C243.505 340.693 248.151 344.451 254.188 347.114C260.225 349.778 267.386 351.109 275.672 351.109ZM275.672 264.817C282.182 264.817 287.953 263.515 292.984 260.91C298.074 258.306 302.069 254.666 304.969 249.991C307.869 245.315 309.349 239.84 309.408 233.567C309.349 227.411 307.899 222.055 305.058 217.498C302.217 212.881 298.281 209.33 293.25 206.844C288.219 204.299 282.36 203.027 275.672 203.027C268.866 203.027 262.917 204.299 257.828 206.844C252.738 209.33 248.802 212.881 246.02 217.498C243.238 222.055 241.877 227.411 241.936 233.567C241.877 239.84 243.268 245.315 246.109 249.991C249.009 254.666 253.004 258.306 258.094 260.91C263.184 263.515 269.043 264.817 275.672 264.817Z" fill="#7DF6ED"/>
<path d="M243.357 364.16L242.717 365.517L242.727 365.521L243.357 364.16ZM221.606 346.138L220.364 346.979L220.367 346.983L221.606 346.138ZM213.882 319.859L215.382 319.868L215.382 319.858L215.382 319.848L213.882 319.859ZM218.41 298.553L219.766 299.194L219.768 299.189L218.41 298.553ZM231.016 282.129L231.969 283.287L231.97 283.286L231.016 282.129ZM249.038 273.695L249.302 275.171L250.538 274.95V273.695H249.038ZM249.038 272.629H250.538V271.468L249.414 271.177L249.038 272.629ZM228.264 257.981L227.024 258.824L227.027 258.829L228.264 257.981ZM220.629 232.146L222.129 232.155L222.129 232.146L222.129 232.137L220.629 232.146ZM227.643 207.377L228.9 208.195L227.643 207.377ZM247.174 190.154L246.499 188.814L246.496 188.816L247.174 190.154ZM323.435 207.377L322.177 208.195L322.182 208.202L323.435 207.377ZM330.715 232.146L332.215 232.155L332.215 232.146L332.215 232.137L330.715 232.146ZM322.813 257.981L321.577 257.131L321.576 257.133L322.813 257.981ZM302.305 272.629L301.923 271.179L300.805 271.474V272.629H302.305ZM302.305 273.695H300.805V274.948L302.04 275.171L302.305 273.695ZM320.061 282.129L319.095 283.276L319.102 283.282L320.061 282.129ZM332.668 298.553L331.314 299.199L331.316 299.204L332.668 298.553ZM337.462 319.859L338.962 319.868L338.962 319.858L338.962 319.848L337.462 319.859ZM329.472 346.138L328.234 345.29L328.233 345.292L329.472 346.138ZM307.721 364.16L308.357 365.518L308.361 365.517L307.721 364.16ZM296.979 347.114L296.368 345.744L296.979 347.114ZM310.828 335.839L309.582 335.004H309.582L310.828 335.839ZM315.8 318.794L317.3 318.808L317.3 318.794L317.3 318.781L315.8 318.794ZM310.473 300.594L309.223 301.423L310.473 300.594ZM296.18 288.165L295.504 289.504L295.509 289.507L296.18 288.165ZM254.898 288.165L254.232 286.821L254.227 286.824L254.898 288.165ZM240.604 300.594L239.354 299.766L239.348 299.775L240.604 300.594ZM235.544 318.794L237.044 318.808L237.044 318.794L237.044 318.781L235.544 318.794ZM240.249 335.839L238.997 336.664L239.004 336.675L240.249 335.839ZM254.188 347.114L254.793 345.742L254.188 347.114ZM292.984 260.91L292.301 259.575L292.294 259.578L292.984 260.91ZM304.969 249.991L306.244 250.781L304.969 249.991ZM309.408 233.567L310.908 233.581L310.908 233.567L310.908 233.552L309.408 233.567ZM305.058 217.498L303.78 218.284L303.785 218.291L305.058 217.498ZM293.25 206.844L292.573 208.183L292.586 208.189L293.25 206.844ZM257.828 206.844L258.486 208.192L258.498 208.186L257.828 206.844ZM246.02 217.498L247.3 218.279L247.305 218.272L246.02 217.498ZM241.936 233.567L243.436 233.581L243.436 233.567L243.436 233.552L241.936 233.567ZM246.109 249.991L244.827 250.77L244.834 250.781L246.109 249.991ZM275.672 369.141C263.658 369.141 253.107 367.012 243.986 362.798L242.727 365.521C252.309 369.948 263.302 372.141 275.672 372.141V369.141ZM243.996 362.803C234.918 358.524 227.886 352.683 222.845 345.292L220.367 346.983C225.742 354.863 233.211 361.036 242.717 365.517L243.996 362.803ZM222.848 345.297C217.82 337.868 215.325 329.409 215.382 319.868L212.382 319.85C212.321 329.96 214.976 339.019 220.364 346.979L222.848 345.297ZM215.382 319.848C215.325 312.363 216.791 305.486 219.766 299.194L217.054 297.911C213.873 304.64 212.321 311.967 212.382 319.871L215.382 319.848ZM219.768 299.189C222.756 292.811 226.824 287.518 231.969 283.287L230.064 280.97C224.556 285.499 220.219 291.155 217.052 297.916L219.768 299.189ZM231.97 283.286C237.165 279.005 242.937 276.308 249.302 275.171L248.775 272.218C241.883 273.449 235.64 276.374 230.062 280.971L231.97 283.286ZM250.538 273.695V272.629H247.538V273.695H250.538ZM249.414 271.177C241.07 269.02 234.449 264.355 229.502 257.133L227.027 258.829C232.378 266.64 239.606 271.74 248.663 274.081L249.414 271.177ZM229.505 257.138C224.536 249.827 222.072 241.516 222.129 232.155L219.129 232.137C219.068 242.071 221.694 250.983 227.024 258.824L229.505 257.138ZM222.129 232.137C222.072 223.178 224.336 215.213 228.9 208.195L226.385 206.559C221.48 214.101 219.068 222.649 219.129 232.156L222.129 232.137ZM228.9 208.195C233.481 201.152 239.785 195.583 247.853 191.492L246.496 188.816C237.991 193.129 231.274 199.043 226.385 206.559L228.9 208.195ZM247.849 191.494C255.957 187.411 265.22 185.351 275.672 185.351V182.351C264.817 182.351 255.082 184.493 246.499 188.814L247.849 191.494ZM275.672 185.351C286.003 185.351 295.176 187.41 303.225 191.492L304.582 188.816C296.059 184.494 286.411 182.351 275.672 182.351V185.351ZM303.225 191.492C311.293 195.583 317.596 201.152 322.177 208.195L324.692 206.559C319.803 199.043 313.086 193.129 304.582 188.816L303.225 191.492ZM322.182 208.202C326.807 215.225 329.157 223.195 329.215 232.156L332.215 232.137C332.154 222.632 329.651 214.089 324.688 206.552L322.182 208.202ZM329.215 232.137C329.157 241.5 326.607 249.815 321.577 257.131L324.049 258.831C329.437 250.995 332.154 242.087 332.215 232.155L329.215 232.137ZM321.576 257.133C316.623 264.364 310.085 269.025 301.923 271.179L302.688 274.08C311.572 271.735 318.706 266.631 324.051 258.829L321.576 257.133ZM300.805 272.629V273.695H303.805V272.629H300.805ZM302.04 275.171C308.342 276.306 314.021 279 319.095 283.276L321.028 280.981C315.566 276.379 309.408 273.45 302.571 272.218L302.04 275.171ZM319.102 283.282C324.193 287.514 328.265 292.812 331.314 299.199L334.021 297.906C330.797 291.154 326.465 285.502 321.02 280.975L319.102 283.282ZM331.316 299.204C334.351 305.502 335.904 312.384 335.962 319.871L338.962 319.848C338.901 311.947 337.258 304.624 334.019 297.901L331.316 299.204ZM335.962 319.85C335.904 329.393 333.323 337.857 328.234 345.29L330.709 346.985C336.155 339.03 338.901 329.976 338.962 319.868L335.962 319.85ZM328.233 345.292C323.191 352.683 316.159 358.524 307.081 362.803L308.361 365.517C317.867 361.036 325.335 354.863 330.711 346.983L328.233 345.292ZM307.085 362.801C298.086 367.013 287.627 369.141 275.672 369.141V372.141C287.983 372.141 298.89 369.948 308.357 365.518L307.085 362.801ZM275.672 352.609C284.057 352.609 291.377 351.252 297.589 348.484L296.368 345.744C290.625 348.303 283.741 349.609 275.672 349.609V352.609ZM297.589 348.484C303.793 345.72 308.643 341.79 312.074 336.675L309.582 335.004C306.503 339.595 302.12 343.181 296.368 345.744L297.589 348.484ZM312.074 336.675C315.511 331.551 317.238 325.576 317.3 318.808L314.3 318.78C314.243 325.032 312.656 330.421 309.582 335.004L312.074 336.675ZM317.3 318.781C317.238 311.651 315.39 305.296 311.723 299.766L309.223 301.423C312.54 306.428 314.243 312.206 314.3 318.807L317.3 318.781ZM311.723 299.766C308.077 294.265 303.106 289.951 296.851 286.824L295.509 289.507C301.328 292.416 305.886 296.389 309.223 301.423L311.723 299.766ZM296.856 286.826C290.639 283.687 283.566 282.138 275.672 282.138V285.138C283.166 285.138 289.765 286.607 295.504 289.504L296.856 286.826ZM275.672 282.138C267.72 282.138 260.562 283.687 254.232 286.821L255.563 289.51C261.425 286.607 268.117 285.138 275.672 285.138V282.138ZM254.227 286.824C247.972 289.951 243.001 294.265 239.354 299.766L241.855 301.423C245.192 296.389 249.75 292.416 255.569 289.507L254.227 286.824ZM239.348 299.775C235.739 305.313 233.983 311.675 234.044 318.807L237.044 318.781C236.987 312.182 238.604 306.411 241.861 301.413L239.348 299.775ZM234.044 318.78C233.983 325.551 235.617 331.533 238.997 336.664L241.502 335.014C238.489 330.439 236.987 325.057 237.044 318.808L234.044 318.78ZM239.004 336.675C242.437 341.794 247.32 345.724 253.582 348.487L254.793 345.742C248.982 343.178 244.572 339.592 241.495 335.004L239.004 336.675ZM253.582 348.487C259.852 351.253 267.229 352.609 275.672 352.609V349.609C267.543 349.609 260.597 348.303 254.793 345.742L253.582 348.487ZM275.672 266.317C282.386 266.317 288.4 264.973 293.673 262.243L292.294 259.578C287.506 262.057 281.978 263.317 275.672 263.317V266.317ZM293.667 262.246C298.99 259.522 303.194 255.698 306.244 250.781L303.694 249.2C300.944 253.634 297.157 257.09 292.301 259.575L293.667 262.246ZM306.244 250.781C309.308 245.841 310.846 240.09 310.908 233.581L307.908 233.553C307.851 239.591 306.43 244.789 303.694 249.2L306.244 250.781ZM310.908 233.552C310.846 227.162 309.338 221.528 306.331 216.704L303.785 218.291C306.459 222.582 307.851 227.66 307.908 233.581L310.908 233.552ZM306.335 216.712C303.341 211.846 299.189 208.106 293.915 205.5L292.586 208.189C297.373 210.555 301.092 213.916 303.78 218.284L306.335 216.712ZM293.927 205.506C288.651 202.837 282.552 201.527 275.672 201.527V204.527C282.168 204.527 287.788 205.762 292.573 208.183L293.927 205.506ZM275.672 201.527C268.678 201.527 262.492 202.835 257.157 205.503L258.498 208.186C263.343 205.764 269.053 204.527 275.672 204.527V201.527ZM257.169 205.497C251.833 208.102 247.674 211.847 244.735 216.724L247.305 218.272C249.929 213.916 253.642 210.558 258.486 208.192L257.169 205.497ZM244.74 216.716C241.79 221.548 240.375 227.189 240.436 233.581L243.436 233.552C243.379 227.634 244.686 222.562 247.3 218.279L244.74 216.716ZM240.436 233.553C240.375 240.064 241.82 245.822 244.827 250.77L247.391 249.212C244.715 244.808 243.379 239.617 243.436 233.581L240.436 233.553ZM244.834 250.781C247.884 255.698 252.088 259.522 257.411 262.246L258.777 259.575C253.92 257.09 250.134 253.634 247.383 249.2L244.834 250.781ZM257.411 262.246C262.743 264.974 268.844 266.317 275.672 266.317V263.317C269.243 263.317 263.624 262.055 258.777 259.575L257.411 262.246Z" fill="black"/>
<path d="M122.949 94.7369C119.768 94.7369 116.958 94.1733 114.518 93.0462C112.094 91.9036 110.203 90.3364 108.844 88.3447C107.485 86.3375 106.814 84.0523 106.829 81.4893C106.814 79.4821 107.208 77.6293 108.01 75.9309C108.813 74.217 109.91 72.7888 111.299 71.6463C112.704 70.4883 114.271 69.7549 116.001 69.4461V69.1681C113.731 68.5814 111.924 67.3076 110.581 65.3467C109.238 63.3704 108.574 61.1239 108.589 58.6072C108.574 56.1985 109.184 54.0446 110.419 52.1455C111.654 50.2464 113.353 48.7487 115.514 47.6524C117.691 46.5562 120.169 46.0081 122.949 46.0081C125.697 46.0081 128.152 46.5562 130.314 47.6524C132.475 48.7487 134.174 50.2464 135.409 52.1455C136.659 54.0446 137.292 56.1985 137.308 58.6072C137.292 61.1239 136.605 63.3704 135.247 65.3467C133.903 67.3076 132.12 68.5814 129.897 69.1681V69.4461C131.611 69.7549 133.155 70.4883 134.529 71.6463C135.903 72.7888 136.999 74.217 137.817 75.9309C138.636 77.6293 139.053 79.4821 139.068 81.4893C139.053 84.0523 138.358 86.3375 136.984 88.3447C135.625 90.3364 133.734 91.9036 131.309 93.0462C128.901 94.1733 126.114 94.7369 122.949 94.7369ZM122.949 89.6416C125.095 89.6416 126.948 89.2942 128.507 88.5994C130.067 87.9046 131.271 86.9242 132.12 85.6581C132.969 84.392 133.402 82.9098 133.417 81.2114C133.402 79.4203 132.938 77.8377 132.027 76.4636C131.116 75.0894 129.874 74.0086 128.299 73.2212C126.739 72.4337 124.956 72.04 122.949 72.04C120.926 72.04 119.12 72.4337 117.529 73.2212C115.954 74.0086 114.711 75.0894 113.8 76.4636C112.905 77.8377 112.465 79.4203 112.48 81.2114C112.465 82.9098 112.874 84.392 113.708 85.6581C114.557 86.9242 115.769 87.9046 117.344 88.5994C118.919 89.2942 120.787 89.6416 122.949 89.6416ZM122.949 67.1301C124.647 67.1301 126.152 66.7904 127.465 66.111C128.793 65.4317 129.835 64.4821 130.591 63.2623C131.348 62.0426 131.734 60.6144 131.749 58.9777C131.734 57.3719 131.356 55.9746 130.615 54.7857C129.874 53.5814 128.847 52.655 127.534 52.0065C126.222 51.3426 124.693 51.0107 122.949 51.0107C121.173 51.0107 119.621 51.3426 118.293 52.0065C116.966 52.655 115.939 53.5814 115.213 54.7857C114.487 55.9746 114.132 57.3719 114.148 58.9777C114.132 60.6144 114.495 62.0426 115.236 63.2623C115.993 64.4821 117.035 65.4317 118.363 66.111C119.691 66.7904 121.219 67.1301 122.949 67.1301Z" fill="black"/>
<path d="M122.214 93.8414C119.034 93.8414 116.224 93.2778 113.784 92.1507C111.36 91.0081 109.469 89.4409 108.11 87.4492C106.751 85.442 106.079 83.1568 106.095 80.5938C106.079 78.5866 106.473 76.7338 107.276 75.0354C108.079 73.3215 109.175 71.8933 110.565 70.7508C111.97 69.5928 113.537 68.8594 115.266 68.5506V68.2726C112.997 67.6859 111.19 66.4121 109.847 64.4512C108.504 62.4749 107.84 60.2284 107.855 57.7116C107.84 55.303 108.449 53.1491 109.685 51.25C110.92 49.3509 112.618 47.8532 114.78 46.7569C116.957 45.6607 119.435 45.1126 122.214 45.1126C124.963 45.1126 127.418 45.6607 129.579 46.7569C131.741 47.8532 133.439 49.3509 134.674 51.25C135.925 53.1491 136.558 55.303 136.574 57.7116C136.558 60.2284 135.871 62.4749 134.512 64.4512C133.169 66.4121 131.386 67.6859 129.162 68.2726V68.5506C130.876 68.8594 132.42 69.5928 133.794 70.7508C135.168 71.8933 136.265 73.3215 137.083 75.0354C137.901 76.7338 138.318 78.5866 138.334 80.5938C138.318 83.1568 137.623 85.442 136.249 87.4492C134.891 89.4409 132.999 91.0081 130.575 92.1507C128.166 93.2778 125.379 93.8414 122.214 93.8414ZM122.214 88.7461C124.36 88.7461 126.213 88.3987 127.773 87.7039C129.332 87.0091 130.536 86.0287 131.386 84.7626C132.235 83.4965 132.667 82.0143 132.683 80.3159C132.667 78.5248 132.204 76.9422 131.293 75.5681C130.382 74.1939 129.139 73.1131 127.564 72.3256C126.005 71.5382 124.221 71.1445 122.214 71.1445C120.192 71.1445 118.385 71.5382 116.795 72.3256C115.22 73.1131 113.977 74.1939 113.066 75.5681C112.171 76.9422 111.73 78.5248 111.746 80.3159C111.73 82.0143 112.14 83.4965 112.973 84.7626C113.823 86.0287 115.035 87.0091 116.61 87.7039C118.184 88.3987 120.053 88.7461 122.214 88.7461ZM122.214 66.2346C123.913 66.2346 125.418 65.8949 126.73 65.2155C128.058 64.5361 129.101 63.5866 129.857 62.3668C130.614 61.1471 131 59.7189 131.015 58.0822C131 56.4764 130.621 55.0791 129.88 53.8902C129.139 52.6859 128.112 51.7595 126.8 51.111C125.488 50.4471 123.959 50.1151 122.214 50.1151C120.439 50.1151 118.887 50.4471 117.559 51.111C116.231 51.7595 115.204 52.6859 114.479 53.8902C113.753 55.0791 113.398 56.4764 113.413 58.0822C113.398 59.7189 113.761 61.1471 114.502 62.3668C115.259 63.5866 116.301 64.5361 117.629 65.2155C118.956 65.8949 120.485 66.2346 122.214 66.2346Z" fill="black"/>
<path d="M113.784 92.1507L113.617 92.5046L113.62 92.5059L113.784 92.1507ZM108.11 87.4492L107.786 87.6685L107.787 87.6697L108.11 87.4492ZM106.095 80.5938L106.486 80.5961L106.486 80.5908L106.095 80.5938ZM107.276 75.0354L107.63 75.2026L107.63 75.2014L107.276 75.0354ZM110.565 70.7508L110.813 71.053L110.814 71.0527L110.565 70.7508ZM115.266 68.5506L115.335 68.9358L115.658 68.8782V68.5506H115.266ZM115.266 68.2726H115.658V67.9696L115.364 67.8938L115.266 68.2726ZM109.847 64.4512L109.523 64.6712L109.524 64.6724L109.847 64.4512ZM107.855 57.7116L108.246 57.714L108.246 57.7091L107.855 57.7116ZM109.685 51.25L110.013 51.4633H110.013L109.685 51.25ZM114.78 46.7569L114.604 46.4074L114.603 46.4079L114.78 46.7569ZM134.674 51.25L134.346 51.4633L134.348 51.4652L134.674 51.25ZM136.574 57.7116L136.965 57.714L136.965 57.7091L136.574 57.7116ZM134.512 64.4512L134.19 64.2295L134.189 64.2301L134.512 64.4512ZM129.162 68.2726L129.062 67.8943L128.771 67.9712V68.2726H129.162ZM129.162 68.5506H128.771V68.8777L129.093 68.9357L129.162 68.5506ZM133.794 70.7508L133.542 71.05L133.544 71.0517L133.794 70.7508ZM137.083 75.0354L136.73 75.204L136.731 75.2052L137.083 75.0354ZM138.334 80.5938L138.725 80.5961L138.725 80.5908L138.334 80.5938ZM136.249 87.4492L135.926 87.2281L135.926 87.2287L136.249 87.4492ZM130.575 92.1507L130.741 92.5051L130.742 92.5046L130.575 92.1507ZM127.773 87.7039L127.613 87.3465L127.773 87.7039ZM131.386 84.7626L131.061 84.5446L131.386 84.7626ZM132.683 80.3159L133.074 80.3194L133.074 80.3125L132.683 80.3159ZM131.293 75.5681L130.967 75.7843L131.293 75.5681ZM127.564 72.3256L127.388 72.675L127.389 72.6756L127.564 72.3256ZM116.795 72.3256L116.621 71.975L116.62 71.9757L116.795 72.3256ZM113.066 75.5681L112.74 75.3518L112.738 75.3544L113.066 75.5681ZM111.746 80.3159L112.137 80.3194L112.137 80.3125L111.746 80.3159ZM112.973 84.7626L112.647 84.9778L112.648 84.9806L112.973 84.7626ZM116.61 87.7039L116.767 87.3459L116.61 87.7039ZM126.73 65.2155L126.552 64.8671L126.551 64.868L126.73 65.2155ZM129.857 62.3668L130.19 62.5731L129.857 62.3668ZM131.015 58.0822L131.406 58.0859L131.406 58.0784L131.015 58.0822ZM129.88 53.8902L129.547 54.0953L129.548 54.0972L129.88 53.8902ZM126.8 51.111L126.623 51.4602L126.627 51.4618L126.8 51.111ZM117.559 51.111L117.731 51.4627L117.734 51.461L117.559 51.111ZM114.479 53.8902L114.813 54.0941L114.814 54.0922L114.479 53.8902ZM113.413 58.0822L113.805 58.0859L113.805 58.0784L113.413 58.0822ZM114.502 62.3668L114.168 62.57L114.169 62.5731L114.502 62.3668ZM122.214 93.45C119.08 93.45 116.328 92.8948 113.948 91.7954L113.62 92.5059C116.119 93.6608 118.987 94.2327 122.214 94.2327V93.45ZM113.951 91.7967C111.583 90.6805 109.748 89.1565 108.433 87.2287L107.787 87.6697C109.189 89.7253 111.137 91.3357 113.617 92.5046L113.951 91.7967ZM108.434 87.2298C107.122 85.2919 106.471 83.085 106.486 80.5961L105.704 80.5914C105.688 83.2287 106.38 85.592 107.786 87.6685L108.434 87.2298ZM106.486 80.5908C106.471 78.6383 106.854 76.8442 107.63 75.2026L106.922 74.8681C106.093 76.6233 105.688 78.5349 105.704 80.5968L106.486 80.5908ZM107.63 75.2014C108.41 73.5375 109.471 72.1567 110.813 71.053L110.316 70.4485C108.879 71.63 107.748 73.1056 106.922 74.8694L107.63 75.2014ZM110.814 71.0527C112.169 69.9359 113.674 69.2323 115.335 68.9358L115.197 68.1653C113.4 68.4864 111.771 69.2497 110.316 70.4488L110.814 71.0527ZM115.658 68.5506V68.2726H114.875V68.5506H115.658ZM115.364 67.8938C113.187 67.3311 111.46 66.1141 110.17 64.2301L109.524 64.6724C110.92 66.7101 112.806 68.0407 115.168 68.6515L115.364 67.8938ZM110.17 64.2313C108.874 62.3241 108.231 60.156 108.246 57.714L107.464 57.7092C107.448 60.3008 108.133 62.6257 109.523 64.6712L110.17 64.2313ZM108.246 57.7091C108.231 55.372 108.822 53.2941 110.013 51.4633L109.357 51.0366C108.077 53.0041 107.448 55.234 107.464 57.7142L108.246 57.7091ZM110.013 51.4633C111.208 49.626 112.852 48.1733 114.957 47.1059L114.603 46.4079C112.384 47.5331 110.632 49.0758 109.357 51.0366L110.013 51.4633ZM114.956 47.1064C117.071 46.0413 119.488 45.5039 122.214 45.5039V44.7213C119.383 44.7213 116.843 45.2801 114.604 46.4074L114.956 47.1064ZM122.214 45.5039C124.909 45.5039 127.302 46.041 129.402 47.1059L129.756 46.4079C127.533 45.2804 125.016 44.7213 122.214 44.7213V45.5039ZM129.402 47.1059C131.507 48.1733 133.151 49.626 134.346 51.4633L135.002 51.0366C133.727 49.0758 131.975 47.5331 129.756 46.4079L129.402 47.1059ZM134.348 51.4652C135.554 53.2973 136.167 55.3764 136.182 57.7142L136.965 57.7091C136.949 55.2296 136.296 53.0009 135.001 51.0348L134.348 51.4652ZM136.182 57.7092C136.167 60.1517 135.502 62.3211 134.19 64.2295L134.835 64.6729C136.24 62.6287 136.949 60.305 136.965 57.714L136.182 57.7092ZM134.189 64.2301C132.897 66.1164 131.192 67.3324 129.062 67.8943L129.262 68.651C131.58 68.0395 133.441 66.7079 134.835 64.6724L134.189 64.2301ZM128.771 68.2726V68.5506H129.554V68.2726H128.771ZM129.093 68.9357C130.737 69.2319 132.219 69.9346 133.542 71.05L134.046 70.4515C132.622 69.2509 131.015 68.4868 129.232 68.1655L129.093 68.9357ZM133.544 71.0517C134.872 72.1558 135.934 73.5379 136.73 75.204L137.436 74.8668C136.595 73.1052 135.465 71.6308 134.044 70.4499L133.544 71.0517ZM136.731 75.2052C137.522 76.8482 137.927 78.6436 137.942 80.5968L138.725 80.5908C138.709 78.5296 138.281 76.6193 137.436 74.8655L136.731 75.2052ZM137.942 80.5914C137.927 83.0808 137.254 85.2889 135.926 87.2281L136.572 87.6702C137.993 85.595 138.709 83.2329 138.725 80.5961L137.942 80.5914ZM135.926 87.2287C134.611 89.1565 132.776 90.6805 130.408 91.7967L130.742 92.5046C133.222 91.3357 135.17 89.7253 136.573 87.6697L135.926 87.2287ZM130.409 91.7962C128.061 92.8949 125.333 93.45 122.214 93.45V94.2327C125.426 94.2327 128.271 93.6607 130.741 92.5051L130.409 91.7962ZM122.214 89.1374C124.402 89.1374 126.311 88.7835 127.932 88.0614L127.613 87.3465C126.115 88.014 124.319 88.3548 122.214 88.3548V89.1374ZM127.932 88.0614C129.55 87.3403 130.816 86.315 131.711 84.9806L131.061 84.5446C130.257 85.7424 129.114 86.678 127.613 87.3465L127.932 88.0614ZM131.711 84.9806C132.607 83.6439 133.058 82.0852 133.074 80.3194L132.291 80.3123C132.276 81.9433 131.863 83.3491 131.061 84.5446L131.711 84.9806ZM133.074 80.3125C133.058 78.4525 132.576 76.7946 131.619 75.3518L130.967 75.7843C131.832 77.0898 132.276 78.5971 132.291 80.3192L133.074 80.3125ZM131.619 75.3518C130.668 73.9167 129.371 72.7915 127.739 71.9757L127.389 72.6756C128.907 73.4346 130.096 74.471 130.967 75.7843L131.619 75.3518ZM127.741 71.9763C126.119 71.1574 124.274 70.7532 122.214 70.7532V71.5358C124.169 71.5358 125.891 71.919 127.388 72.675L127.741 71.9763ZM122.214 70.7532C120.14 70.7532 118.273 71.1573 116.621 71.975L116.968 72.6763C118.498 71.9191 120.243 71.5358 122.214 71.5358V70.7532ZM116.62 71.9757C114.988 72.7915 113.691 73.9167 112.74 75.3518L113.392 75.7843C114.263 74.471 115.452 73.4346 116.97 72.6756L116.62 71.9757ZM112.738 75.3544C111.797 76.799 111.339 78.4586 111.355 80.3192L112.137 80.3125C112.122 78.5911 112.544 77.0854 113.394 75.7817L112.738 75.3544ZM111.355 80.3123C111.339 82.0787 111.765 83.6392 112.647 84.9778L113.3 84.5474C112.514 83.3539 112.122 81.9498 112.137 80.3194L111.355 80.3123ZM112.648 84.9806C113.544 86.3159 114.818 87.3412 116.452 88.062L116.767 87.3459C115.251 86.6771 114.101 85.7415 113.298 84.5446L112.648 84.9806ZM116.452 88.062C118.087 88.7836 120.012 89.1374 122.214 89.1374V88.3548C120.094 88.3548 118.282 88.0139 116.767 87.3459L116.452 88.062ZM122.214 66.6259C123.966 66.6259 125.535 66.2752 126.91 65.563L126.551 64.868C125.302 65.5146 123.859 65.8432 122.214 65.8432V66.6259ZM126.909 65.5639C128.297 64.8534 129.394 63.8558 130.19 62.5731L129.525 62.1606C128.807 63.3174 127.819 64.2189 126.552 64.8671L126.909 65.5639ZM130.19 62.5731C130.989 61.2843 131.39 59.7839 131.406 58.0859L130.624 58.0785C130.609 59.6538 130.238 61.0098 129.525 62.1606L130.19 62.5731ZM131.406 58.0784C131.39 56.4115 130.997 54.9416 130.212 53.6832L129.548 54.0972C130.246 55.2166 130.609 56.5414 130.624 58.086L131.406 58.0784ZM130.214 53.6852C129.432 52.4159 128.349 51.4401 126.973 50.7602L126.627 51.4618C127.876 52.079 128.846 52.9559 129.547 54.0953L130.214 53.6852ZM126.977 50.7619C125.6 50.0655 124.009 49.7238 122.214 49.7238V50.5065C123.909 50.5065 125.375 50.8287 126.623 51.4602L126.977 50.7619ZM122.214 49.7238C120.39 49.7238 118.776 50.0651 117.384 50.761L117.734 51.461C118.998 50.8291 120.488 50.5065 122.214 50.5065V49.7238ZM117.387 50.7594C115.995 51.4392 114.91 52.416 114.144 53.6883L114.814 54.0922C115.499 52.9558 116.467 52.0798 117.731 51.4626L117.387 50.7594ZM114.145 53.6864C113.375 54.9468 113.006 56.4184 113.022 58.086L113.805 58.0784C113.79 56.5345 114.131 55.2114 114.813 54.0941L114.145 53.6864ZM113.022 58.0785C113.006 59.7771 113.383 61.2792 114.168 62.57L114.836 62.1636C114.138 61.0149 113.79 59.6606 113.805 58.0859L113.022 58.0785ZM114.169 62.5731C114.965 63.8558 116.062 64.8534 117.45 65.5639L117.807 64.8671C116.54 64.2189 115.552 63.3174 114.835 62.1606L114.169 62.5731ZM117.45 65.5639C118.842 66.2757 120.433 66.6259 122.214 66.6259V65.8432C120.537 65.8432 119.071 65.5141 117.807 64.8671L117.45 65.5639Z" fill="black"/>
<path d="M409.052 491.661C412.233 491.661 415.043 492.224 417.483 493.351C419.907 494.494 421.798 496.061 423.157 498.053C424.516 500.06 425.187 502.345 425.172 504.908C425.187 506.915 424.793 508.768 423.991 510.467C423.188 512.18 422.091 513.609 420.702 514.751C419.297 515.909 417.73 516.643 416 516.951V517.229C418.27 517.816 420.077 519.09 421.42 521.051C422.763 523.027 423.427 525.274 423.412 527.79C423.427 530.199 422.817 532.353 421.582 534.252C420.347 536.151 418.648 537.649 416.487 538.745C414.31 539.841 411.832 540.389 409.052 540.389C406.304 540.389 403.849 539.841 401.687 538.745C399.526 537.649 397.827 536.151 396.592 534.252C395.342 532.353 394.709 530.199 394.693 527.79C394.709 525.274 395.396 523.027 396.754 521.051C398.098 519.09 399.881 517.816 402.104 517.229V516.951C400.39 516.643 398.846 515.909 397.472 514.751C396.098 513.609 395.002 512.18 394.184 510.467C393.365 508.768 392.948 506.915 392.933 504.908C392.948 502.345 393.643 500.06 395.017 498.053C396.376 496.061 398.267 494.494 400.692 493.351C403.1 492.224 405.887 491.661 409.052 491.661ZM409.052 496.756C406.906 496.756 405.053 497.103 403.494 497.798C401.934 498.493 400.73 499.473 399.881 500.739C399.032 502.005 398.599 503.488 398.584 505.186C398.599 506.977 399.063 508.56 399.974 509.934C400.885 511.308 402.127 512.389 403.702 513.176C405.262 513.964 407.045 514.357 409.052 514.357C411.075 514.357 412.881 513.964 414.472 513.176C416.047 512.389 417.29 511.308 418.201 509.934C419.096 508.56 419.536 506.977 419.521 505.186C419.536 503.488 419.127 502.005 418.293 500.739C417.444 499.473 416.232 498.493 414.657 497.798C413.082 497.103 411.214 496.756 409.052 496.756ZM409.052 519.267C407.354 519.267 405.849 519.607 404.536 520.286C403.208 520.966 402.166 521.915 401.41 523.135C400.653 524.355 400.267 525.783 400.252 527.42C400.267 529.026 400.645 530.423 401.386 531.612C402.127 532.816 403.154 533.742 404.467 534.391C405.779 535.055 407.308 535.387 409.052 535.387C410.828 535.387 412.38 535.055 413.708 534.391C415.035 533.742 416.062 532.816 416.788 531.612C417.513 530.423 417.869 529.026 417.853 527.42C417.869 525.783 417.506 524.355 416.765 523.135C416.008 521.915 414.966 520.966 413.638 520.286C412.31 519.607 410.782 519.267 409.052 519.267Z" fill="black"/>
<path d="M409.788 492.555C412.968 492.555 415.778 493.119 418.218 494.246C420.642 495.388 422.533 496.956 423.892 498.947C425.251 500.955 425.923 503.24 425.907 505.803C425.923 507.81 425.529 509.663 424.726 511.361C423.923 513.075 422.827 514.503 421.437 515.646C420.032 516.804 418.465 517.537 416.736 517.846V518.124C419.005 518.711 420.812 519.984 422.155 521.945C423.498 523.922 424.162 526.168 424.147 528.685C424.162 531.093 423.552 533.247 422.317 535.146C421.082 537.046 419.384 538.543 417.222 539.64C415.045 540.736 412.567 541.284 409.788 541.284C407.039 541.284 404.584 540.736 402.423 539.64C400.261 538.543 398.563 537.046 397.328 535.146C396.077 533.247 395.444 531.093 395.428 528.685C395.444 526.168 396.131 523.922 397.49 521.945C398.833 519.984 400.616 518.711 402.84 518.124V517.846C401.126 517.537 399.582 516.804 398.208 515.646C396.833 514.503 395.737 513.075 394.919 511.361C394.101 509.663 393.684 507.81 393.668 505.803C393.684 503.24 394.379 500.955 395.753 498.947C397.111 496.956 399.003 495.388 401.427 494.246C403.836 493.119 406.622 492.555 409.788 492.555ZM409.788 497.65C407.642 497.65 405.789 497.998 404.229 498.693C402.67 499.387 401.466 500.368 400.616 501.634C399.767 502.9 399.335 504.382 399.319 506.081C399.335 507.872 399.798 509.454 400.709 510.828C401.62 512.203 402.863 513.283 404.438 514.071C405.997 514.858 407.78 515.252 409.788 515.252C411.81 515.252 413.617 514.858 415.207 514.071C416.782 513.283 418.025 512.203 418.936 510.828C419.831 509.454 420.271 507.872 420.256 506.081C420.271 504.382 419.862 502.9 419.029 501.634C418.179 500.368 416.967 499.387 415.392 498.693C413.818 497.998 411.949 497.65 409.788 497.65ZM409.788 520.162C408.089 520.162 406.584 520.502 405.271 521.181C403.944 521.86 402.901 522.81 402.145 524.03C401.388 525.249 401.002 526.678 400.987 528.314C401.002 529.92 401.381 531.317 402.122 532.506C402.863 533.711 403.89 534.637 405.202 535.285C406.514 535.949 408.043 536.281 409.788 536.281C411.563 536.281 413.115 535.949 414.443 535.285C415.771 534.637 416.797 533.711 417.523 532.506C418.249 531.317 418.604 529.92 418.589 528.314C418.604 526.678 418.241 525.249 417.5 524.03C416.743 522.81 415.701 521.86 414.373 521.181C413.046 520.502 411.517 520.162 409.788 520.162Z" fill="black"/>
<path d="M418.218 494.246L418.385 493.892L418.382 493.891L418.218 494.246ZM423.892 498.947L424.216 498.728L424.215 498.727L423.892 498.947ZM425.907 505.803L425.516 505.8L425.516 505.806L425.907 505.803ZM424.726 511.361L424.372 511.194L424.372 511.195L424.726 511.361ZM421.437 515.646L421.189 515.343L421.188 515.344L421.437 515.646ZM416.736 517.846L416.667 517.461L416.344 517.518V517.846H416.736ZM416.736 518.124H416.344V518.427L416.638 518.503L416.736 518.124ZM422.155 521.945L422.479 521.725L422.478 521.724L422.155 521.945ZM424.147 528.685L423.756 528.682L423.756 528.687L424.147 528.685ZM422.317 535.146L421.989 534.933H421.989L422.317 535.146ZM417.222 539.64L417.398 539.989L417.399 539.989L417.222 539.64ZM397.328 535.146L397.656 534.933L397.654 534.931L397.328 535.146ZM395.428 528.685L395.037 528.682L395.037 528.687L395.428 528.685ZM397.49 521.945L397.812 522.167L397.813 522.166L397.49 521.945ZM402.84 518.124L402.94 518.502L403.231 518.425V518.124H402.84ZM402.84 517.846H403.231V517.519L402.909 517.461L402.84 517.846ZM398.208 515.646L398.46 515.346L398.458 515.345L398.208 515.646ZM394.919 511.361L395.272 511.192L395.271 511.191L394.919 511.361ZM393.668 505.803L393.277 505.8L393.277 505.806L393.668 505.803ZM395.753 498.947L396.076 499.168L396.076 499.168L395.753 498.947ZM401.427 494.246L401.261 493.891L401.26 493.892L401.427 494.246ZM404.229 498.693L404.389 499.05L404.229 498.693ZM400.616 501.634L400.941 501.852L400.616 501.634ZM399.319 506.081L398.928 506.077L398.928 506.084L399.319 506.081ZM400.709 510.828L401.035 510.612L400.709 510.828ZM404.438 514.071L404.614 513.722L404.613 513.721L404.438 514.071ZM415.207 514.071L415.381 514.422L415.382 514.421L415.207 514.071ZM418.936 510.828L419.262 511.045L419.264 511.042L418.936 510.828ZM420.256 506.081L419.865 506.077L419.865 506.084L420.256 506.081ZM419.029 501.634L419.355 501.419L419.354 501.416L419.029 501.634ZM415.392 498.693L415.234 499.051L415.392 498.693ZM405.271 521.181L405.45 521.529L405.451 521.528L405.271 521.181ZM402.145 524.03L401.812 523.823L402.145 524.03ZM400.987 528.314L400.595 528.311L400.596 528.318L400.987 528.314ZM402.122 532.506L402.455 532.301L402.454 532.299L402.122 532.506ZM405.202 535.285L405.379 534.936L405.375 534.935L405.202 535.285ZM414.443 535.285L414.271 534.934L414.268 534.935L414.443 535.285ZM417.523 532.506L417.189 532.302L417.188 532.304L417.523 532.506ZM418.589 528.314L418.197 528.311L418.197 528.318L418.589 528.314ZM417.5 524.03L417.834 523.826L417.833 523.823L417.5 524.03ZM409.788 492.946C412.922 492.946 415.674 493.502 418.054 494.601L418.382 493.891C415.883 492.736 413.015 492.164 409.788 492.164V492.946ZM418.051 494.6C420.419 495.716 422.254 497.24 423.569 499.168L424.215 498.727C422.813 496.671 420.865 495.061 418.385 493.892L418.051 494.6ZM423.568 499.167C424.88 501.105 425.531 503.311 425.516 505.8L426.298 505.805C426.314 503.168 425.622 500.804 424.216 498.728L423.568 499.167ZM425.516 505.806C425.531 507.758 425.148 509.552 424.372 511.194L425.08 511.528C425.909 509.773 426.314 507.862 426.298 505.8L425.516 505.806ZM424.372 511.195C423.592 512.859 422.531 514.24 421.189 515.343L421.686 515.948C423.123 514.767 424.254 513.291 425.08 511.527L424.372 511.195ZM421.188 515.344C419.833 516.461 418.328 517.164 416.667 517.461L416.804 518.231C418.602 517.91 420.231 517.147 421.686 515.948L421.188 515.344ZM416.344 517.846V518.124H417.127V517.846H416.344ZM416.638 518.503C418.815 519.065 420.542 520.282 421.832 522.166L422.478 521.724C421.082 519.686 419.196 518.356 416.834 517.745L416.638 518.503ZM421.832 522.165C423.128 524.072 423.771 526.241 423.756 528.682L424.538 528.687C424.554 526.096 423.869 523.771 422.479 521.725L421.832 522.165ZM423.756 528.687C423.771 531.024 423.18 533.102 421.989 534.933L422.645 535.36C423.925 533.392 424.554 531.162 424.538 528.682L423.756 528.687ZM421.989 534.933C420.794 536.771 419.15 538.223 417.045 539.291L417.399 539.989C419.618 538.863 421.37 537.321 422.645 535.36L421.989 534.933ZM417.046 539.29C414.931 540.355 412.514 540.893 409.788 540.893V541.675C412.619 541.675 415.159 541.116 417.398 539.989L417.046 539.29ZM409.788 540.893C407.093 540.893 404.7 540.355 402.6 539.291L402.246 539.989C404.469 541.116 406.986 541.675 409.788 541.675V540.893ZM402.6 539.291C400.495 538.223 398.851 536.771 397.656 534.933L397 535.36C398.275 537.321 400.027 538.863 402.246 539.989L402.6 539.291ZM397.654 534.931C396.448 533.099 395.835 531.02 395.82 528.682L395.037 528.687C395.053 531.167 395.706 533.396 397.001 535.362L397.654 534.931ZM395.82 528.687C395.835 526.245 396.5 524.075 397.812 522.167L397.167 521.724C395.762 523.768 395.053 526.091 395.037 528.682L395.82 528.687ZM397.813 522.166C399.105 520.28 400.81 519.064 402.94 518.502L402.74 517.745C400.422 518.357 398.561 519.689 397.167 521.724L397.813 522.166ZM403.231 518.124V517.846H402.448V518.124H403.231ZM402.909 517.461C401.265 517.165 399.783 516.462 398.46 515.346L397.955 515.945C399.38 517.146 400.987 517.91 402.77 518.231L402.909 517.461ZM398.458 515.345C397.13 514.241 396.068 512.859 395.272 511.192L394.566 511.53C395.407 513.291 396.537 514.766 397.957 515.947L398.458 515.345ZM395.271 511.191C394.48 509.548 394.075 507.753 394.06 505.8L393.277 505.806C393.293 507.867 393.721 509.777 394.566 511.531L395.271 511.191ZM394.06 505.805C394.075 503.316 394.748 501.108 396.076 499.168L395.43 498.726C394.009 500.801 393.293 503.164 393.277 505.8L394.06 505.805ZM396.076 499.168C397.391 497.24 399.226 495.716 401.594 494.6L401.26 493.892C398.78 495.061 396.832 496.671 395.429 498.727L396.076 499.168ZM401.593 494.6C403.941 493.502 406.669 492.946 409.788 492.946V492.164C406.576 492.164 403.731 492.736 401.261 493.891L401.593 494.6ZM409.788 497.259C407.6 497.259 405.691 497.613 404.07 498.335L404.389 499.05C405.887 498.382 407.683 498.042 409.788 498.042V497.259ZM404.07 498.335C402.452 499.056 401.186 500.082 400.291 501.416L400.941 501.852C401.745 500.654 402.888 499.719 404.389 499.05L404.07 498.335ZM400.291 501.416C399.395 502.753 398.944 504.311 398.928 506.077L399.711 506.084C399.725 504.453 400.139 503.047 400.941 501.852L400.291 501.416ZM398.928 506.084C398.944 507.944 399.426 509.602 400.383 511.045L401.035 510.612C400.17 509.307 399.725 507.799 399.711 506.077L398.928 506.084ZM400.383 511.045C401.334 512.48 402.631 513.605 404.263 514.421L404.613 513.721C403.095 512.962 401.906 511.925 401.035 510.612L400.383 511.045ZM404.261 514.42C405.883 515.239 407.728 515.643 409.788 515.643V514.861C407.833 514.861 406.111 514.478 404.614 513.722L404.261 514.42ZM409.788 515.643C411.862 515.643 413.729 515.239 415.381 514.422L415.034 513.72C413.504 514.477 411.759 514.861 409.788 514.861V515.643ZM415.382 514.421C417.014 513.605 418.311 512.48 419.262 511.045L418.61 510.612C417.739 511.925 416.55 512.962 415.032 513.721L415.382 514.421ZM419.264 511.042C420.205 509.597 420.663 507.938 420.647 506.077L419.865 506.084C419.88 507.805 419.458 509.311 418.608 510.615L419.264 511.042ZM420.647 506.084C420.663 504.318 420.237 502.757 419.355 501.419L418.702 501.849C419.488 503.043 419.88 504.447 419.865 506.077L420.647 506.084ZM419.354 501.416C418.458 500.081 417.184 499.055 415.55 498.335L415.234 499.051C416.751 499.719 417.901 500.655 418.704 501.852L419.354 501.416ZM415.55 498.335C413.915 497.613 411.99 497.259 409.788 497.259V498.042C411.908 498.042 413.72 498.383 415.234 499.051L415.55 498.335ZM409.788 519.771C408.036 519.771 406.467 520.121 405.092 520.833L405.451 521.528C406.7 520.882 408.142 520.553 409.788 520.553V519.771ZM405.093 520.833C403.705 521.543 402.608 522.541 401.812 523.823L402.477 524.236C403.195 523.079 404.183 522.178 405.45 521.529L405.093 520.833ZM401.812 523.823C401.013 525.112 400.612 526.613 400.596 528.311L401.378 528.318C401.393 526.743 401.764 525.387 402.477 524.236L401.812 523.823ZM400.596 528.318C400.612 529.985 401.005 531.455 401.79 532.713L402.454 532.299C401.756 531.18 401.393 529.855 401.378 528.311L400.596 528.318ZM401.788 532.711C402.57 533.981 403.653 534.956 405.029 535.636L405.375 534.935C404.126 534.318 403.156 533.441 402.455 532.301L401.788 532.711ZM405.025 535.635C406.402 536.331 407.993 536.673 409.788 536.673V535.89C408.093 535.89 406.627 535.568 405.379 534.936L405.025 535.635ZM409.788 536.673C411.612 536.673 413.226 536.331 414.618 535.635L414.268 534.935C413.004 535.567 411.514 535.89 409.788 535.89V536.673ZM414.615 535.637C416.007 534.957 417.092 533.981 417.858 532.708L417.188 532.304C416.503 533.441 415.535 534.317 414.271 534.934L414.615 535.637ZM417.857 532.71C418.627 531.45 418.996 529.978 418.98 528.311L418.197 528.318C418.212 529.862 417.871 531.185 417.189 532.302L417.857 532.71ZM418.98 528.318C418.996 526.619 418.619 525.117 417.834 523.826L417.166 524.233C417.864 525.382 418.212 526.736 418.197 528.311L418.98 528.318ZM417.833 523.823C417.037 522.541 415.94 521.543 414.552 520.833L414.195 521.529C415.462 522.178 416.45 523.079 417.167 524.236L417.833 523.823ZM414.552 520.833C413.16 520.121 411.569 519.771 409.788 519.771V520.553C411.465 520.553 412.931 520.882 414.195 521.529L414.552 520.833Z" fill="black"/>
</svg>
