<svg width="527" height="587" viewBox="0 0 527 587" fill="none" xmlns="http://www.w3.org/2000/svg">
<path d="M442.51 0H84.1096C69.9711 0 58.5098 11.4872 58.5098 25.6573V560.771C58.5098 574.941 69.9711 586.429 84.1096 586.429H442.51C456.648 586.429 468.11 574.941 468.11 560.771V25.6573C468.11 11.4872 456.648 0 442.51 0Z" fill="white"/>
<path d="M109.71 36.6519H416.91C431.048 36.6519 442.51 48.139 442.51 62.3091V524.12C442.51 538.29 431.048 549.777 416.91 549.777H109.71C95.5712 549.777 84.1096 538.29 84.1096 524.12V62.3091C84.1096 48.139 95.5712 36.6519 109.71 36.6519Z" fill="#7DF6ED"/>
<path d="M100.57 456.319C156.113 511.986 274.001 484.089 363.88 394.01C453.758 303.93 481.593 185.778 426.05 130.111C370.506 74.4434 252.618 102.34 162.74 192.42C72.8609 282.499 45.0265 400.651 100.57 456.319Z" fill="white"/>
<path d="M122.857 46.0081C124.802 46.0235 126.748 46.3941 128.693 47.1198C130.639 47.8454 132.414 49.0498 134.02 50.7327C135.626 52.4003 136.915 54.6777 137.888 57.5649C138.861 60.4522 139.347 64.0729 139.347 68.427C139.347 72.6422 138.946 76.3864 138.143 79.6597C137.355 82.9175 136.213 85.6658 134.715 87.9046C133.233 90.1434 131.426 91.8419 129.295 92.9999C127.18 94.1579 124.787 94.7369 122.116 94.7369C119.46 94.7369 117.09 94.2119 115.006 93.162C112.937 92.0966 111.238 90.6221 109.911 88.7384C108.598 86.8393 107.757 84.6391 107.386 82.1378H113.037C113.547 84.3148 114.558 86.1136 116.071 87.5341C117.6 88.9391 119.615 89.6416 122.116 89.6416C125.775 89.6416 128.662 88.0436 130.778 84.8475C132.908 81.6514 133.974 77.1352 133.974 71.2989H133.603C132.739 72.5958 131.712 73.7152 130.523 74.6571C129.334 75.5989 128.014 76.3246 126.563 76.8341C125.111 77.3437 123.567 77.5984 121.931 77.5984C119.213 77.5984 116.72 76.9268 114.45 75.5835C112.196 74.2248 110.389 72.3642 109.03 70.0019C107.687 67.6241 107.015 64.9067 107.015 61.8496C107.015 58.9468 107.664 56.2911 108.961 53.8825C110.273 51.4584 112.111 49.5284 114.473 48.0925C116.851 46.6566 119.645 45.9618 122.857 46.0081ZM122.857 51.1033C120.912 51.1033 119.159 51.5897 117.6 52.5624C116.056 53.5197 114.828 54.8166 113.917 56.4533C113.022 58.0745 112.574 59.8732 112.574 61.8496C112.574 63.8259 113.006 65.6247 113.871 67.2459C114.751 68.8516 115.948 70.1331 117.461 71.0904C118.989 72.0323 120.726 72.5032 122.672 72.5032C124.139 72.5032 125.505 72.2176 126.771 71.6463C128.037 71.0596 129.141 70.2644 130.083 69.2608C131.04 68.2417 131.789 67.0915 132.329 65.8099C132.87 64.513 133.14 63.162 133.14 61.7569C133.14 59.9041 132.692 58.1671 131.797 56.5459C130.917 54.9247 129.697 53.6123 128.137 52.6087C126.593 51.6051 124.833 51.1033 122.857 51.1033Z" fill="black"/>
<path d="M122.122 45.1126C124.067 45.128 126.013 45.4986 127.958 46.2243C129.903 46.9499 131.679 48.1543 133.285 49.8372C134.891 51.5047 136.18 53.7822 137.153 56.6694C138.125 59.5567 138.612 63.1774 138.612 67.5315C138.612 71.7466 138.21 75.4909 137.407 78.7641C136.62 82.022 135.477 84.7703 133.98 87.0091C132.497 89.2479 130.691 90.9463 128.56 92.1043C126.445 93.2624 124.052 93.8414 121.381 93.8414C118.725 93.8414 116.355 93.3164 114.27 92.2665C112.201 91.2011 110.503 89.7266 109.175 87.8429C107.863 85.9438 107.021 83.7436 106.651 81.2423H112.302C112.811 83.4193 113.823 85.2181 115.336 86.6386C116.864 88.0436 118.879 88.7461 121.381 88.7461C125.04 88.7461 127.927 87.1481 130.042 83.952C132.173 80.7559 133.238 76.2397 133.238 70.4034H132.868C132.003 71.7003 130.976 72.8197 129.788 73.7616C128.599 74.7034 127.279 75.4291 125.827 75.9386C124.376 76.4481 122.832 76.7029 121.195 76.7029C118.478 76.7029 115.984 76.0313 113.715 74.688C111.46 73.3293 109.654 71.4687 108.295 69.1064C106.952 66.7286 106.28 64.0112 106.28 60.9541C106.28 58.0513 106.929 55.3956 108.226 52.987C109.538 50.5629 111.375 48.6329 113.738 47.197C116.115 45.7611 118.91 45.0663 122.122 45.1126ZM122.122 50.2078C120.176 50.2078 118.424 50.6941 116.864 51.6669C115.32 52.6242 114.093 53.9211 113.182 55.5578C112.286 57.179 111.839 58.9777 111.839 60.9541C111.839 62.9304 112.271 64.7291 113.136 66.3504C114.016 67.9561 115.212 69.2376 116.725 70.1949C118.254 71.1368 119.991 71.6077 121.936 71.6077C123.403 71.6077 124.77 71.322 126.036 70.7508C127.302 70.164 128.406 69.3689 129.348 68.3653C130.305 67.3462 131.054 66.196 131.594 64.9144C132.134 63.6175 132.405 62.2665 132.405 60.8614C132.405 59.0086 131.957 57.2716 131.061 55.6504C130.181 54.0292 128.962 52.7168 127.402 51.7132C125.858 50.7096 124.098 50.2078 122.122 50.2078Z" fill="black"/>
<path d="M122.122 45.1126L122.116 45.5038L122.119 45.5039L122.122 45.1126ZM127.958 46.2243L128.095 45.8576L128.095 45.8576L127.958 46.2243ZM133.285 49.8372L133.002 50.1074L133.003 50.1087L133.285 49.8372ZM137.153 56.6694L136.782 56.7944L137.153 56.6694ZM137.407 78.7641L137.027 78.6709L137.027 78.6722L137.407 78.7641ZM133.98 87.0091L133.654 86.7916L133.653 86.7931L133.98 87.0091ZM128.56 92.1043L128.373 91.7605L128.372 91.7611L128.56 92.1043ZM114.27 92.2665L114.091 92.6144L114.094 92.6159L114.27 92.2665ZM109.175 87.8429L108.853 88.0654L108.855 88.0684L109.175 87.8429ZM106.651 81.2423V80.851H106.197L106.264 81.2996L106.651 81.2423ZM112.302 81.2423L112.683 81.1531L112.612 80.851H112.302V81.2423ZM115.336 86.6386L115.068 86.9239L115.071 86.9267L115.336 86.6386ZM130.042 83.952L129.717 83.7349L129.716 83.736L130.042 83.952ZM133.238 70.4034H133.63V70.0121H133.238V70.4034ZM132.868 70.4034V70.0121H132.658L132.542 70.1863L132.868 70.4034ZM113.715 74.688L113.513 75.0231L113.515 75.0247L113.715 74.688ZM108.295 69.1064L107.954 69.2989L107.956 69.3015L108.295 69.1064ZM108.226 52.987L107.881 52.8007L107.881 52.8015L108.226 52.987ZM113.738 47.197L113.535 46.862L113.534 46.8626L113.738 47.197ZM116.864 51.6669L117.07 51.9994L117.071 51.9989L116.864 51.6669ZM113.182 55.5578L112.84 55.3674L112.839 55.3686L113.182 55.5578ZM113.136 66.3504L112.79 66.5345L112.792 66.5384L113.136 66.3504ZM116.725 70.1949L116.516 70.5256L116.52 70.5281L116.725 70.1949ZM126.036 70.7508L126.197 71.1075L126.2 71.1058L126.036 70.7508ZM129.348 68.3653L129.062 68.0974L129.062 68.0975L129.348 68.3653ZM131.594 64.9144L131.955 65.0665L131.955 65.0649L131.594 64.9144ZM131.061 55.6504L130.717 55.8371L130.719 55.8396L131.061 55.6504ZM127.402 51.7132L127.189 52.0413L127.19 52.0422L127.402 51.7132ZM122.119 45.5039C124.015 45.5189 125.916 45.8801 127.821 46.5909L128.095 45.8576C126.109 45.1171 124.119 44.7371 122.125 44.7213L122.119 45.5039ZM127.821 46.5909C129.705 47.2935 131.432 48.462 133.002 50.1074L133.568 49.5671C131.926 47.8465 130.102 46.6064 128.095 45.8576L127.821 46.5909ZM133.003 50.1087C134.558 51.7235 135.822 53.9453 136.782 56.7944L137.523 56.5445C136.538 53.619 135.223 51.286 133.567 49.5658L133.003 50.1087ZM136.782 56.7944C137.736 59.6282 138.22 63.2032 138.22 67.5315H139.003C139.003 63.1516 138.514 59.4853 137.523 56.5445L136.782 56.7944ZM138.22 67.5315C138.22 71.7227 137.821 75.4346 137.027 78.6709L137.787 78.8574C138.599 75.5471 139.003 71.7706 139.003 67.5315H138.22ZM137.027 78.6722C136.248 81.8958 135.121 84.5991 133.654 86.7916L134.305 87.2267C135.834 84.9415 136.992 82.1482 137.788 78.8561L137.027 78.6722ZM133.653 86.7931C132.203 88.9844 130.442 90.6363 128.373 91.7605L128.747 92.4482C130.94 91.2564 132.792 89.5115 134.306 87.2252L133.653 86.7931ZM128.372 91.7611C126.321 92.8843 123.993 93.45 121.381 93.45V94.2327C124.11 94.2327 126.569 93.6404 128.748 92.4476L128.372 91.7611ZM121.381 93.45C118.777 93.45 116.469 92.9358 114.446 91.917L114.094 92.6159C116.24 93.697 118.672 94.2327 121.381 94.2327V93.45ZM114.45 91.9186C112.436 90.8818 110.786 89.449 109.495 87.6174L108.855 88.0684C110.22 90.0041 111.967 91.5204 114.091 92.6144L114.45 91.9186ZM109.497 87.6204C108.222 85.7752 107.4 83.6327 107.038 81.1849L106.264 81.2996C106.642 83.8545 107.504 86.1124 108.853 88.0654L109.497 87.6204ZM106.651 81.6336H112.302V80.851H106.651V81.6336ZM111.921 81.3315C112.446 83.5775 113.494 85.4465 115.068 86.9239L115.604 86.3533C114.151 84.9897 113.176 83.2611 112.683 81.1531L111.921 81.3315ZM115.071 86.9267C116.686 88.4112 118.802 89.1374 121.381 89.1374V88.3548C118.956 88.3548 117.043 87.6761 115.601 86.3505L115.071 86.9267ZM121.381 89.1374C125.178 89.1374 128.185 87.4673 130.369 84.168L129.716 83.736C127.669 86.8288 124.901 88.3548 121.381 88.3548V89.1374ZM130.368 84.1691C132.558 80.8833 133.63 76.2795 133.63 70.4034H132.847C132.847 76.1999 131.788 80.6285 129.717 83.7349L130.368 84.1691ZM133.238 70.0121H132.868V70.7947H133.238V70.0121ZM132.542 70.1863C131.7 71.4502 130.701 72.5391 129.545 73.4548L130.031 74.0683C131.252 73.1004 132.307 71.9505 133.193 70.6204L132.542 70.1863ZM129.545 73.4548C128.39 74.3693 127.109 75.0741 125.698 75.5694L125.957 76.3078C127.449 75.7841 128.807 75.0375 130.031 74.0683L129.545 73.4548ZM125.698 75.5694C124.291 76.0634 122.791 76.3116 121.195 76.3116V77.0942C122.873 77.0942 124.461 76.8329 125.957 76.3078L125.698 75.5694ZM121.195 76.3116C118.546 76.3116 116.121 75.6577 113.914 74.3512L113.515 75.0247C115.847 76.4048 118.41 77.0942 121.195 77.0942V76.3116ZM113.917 74.3528C111.721 73.0296 109.961 71.2182 108.634 68.9113L107.956 69.3015C109.346 71.7193 111.199 73.6289 113.513 75.0231L113.917 74.3528ZM108.636 68.9139C107.329 66.6016 106.671 63.952 106.671 60.9541H105.889C105.889 64.0704 106.574 66.8556 107.954 69.2989L108.636 68.9139ZM106.671 60.9541C106.671 58.112 107.306 55.5207 108.57 53.1725L107.881 52.8015C106.552 55.2706 105.889 57.9907 105.889 60.9541H106.671ZM108.57 53.1733C109.849 50.8104 111.638 48.9314 113.941 47.5314L113.534 46.8626C111.113 48.3344 109.227 50.3155 107.881 52.8007L108.57 53.1733ZM113.94 47.5319C116.246 46.1395 118.966 45.4584 122.116 45.5038L122.127 44.7213C118.854 44.6741 115.985 45.3826 113.535 46.862L113.94 47.5319ZM122.122 49.8165C120.107 49.8165 118.282 50.3211 116.657 51.3349L117.071 51.9989C118.565 51.0672 120.245 50.5991 122.122 50.5991V49.8165ZM116.658 51.3343C115.056 52.3278 113.782 53.6745 112.84 55.3674L113.524 55.7481C114.403 54.1677 115.585 52.9205 117.07 51.9994L116.658 51.3343ZM112.839 55.3686C111.91 57.0516 111.447 58.9161 111.447 60.9541H112.23C112.23 59.0393 112.663 57.3064 113.524 55.747L112.839 55.3686ZM111.447 60.9541C111.447 62.9896 111.893 64.8524 112.79 66.5345L113.481 66.1662C112.649 64.6059 112.23 62.8711 112.23 60.9541H111.447ZM112.792 66.5384C113.704 68.2009 114.946 69.5321 116.516 70.5256L116.935 69.8642C115.479 68.9432 114.328 67.7113 113.479 66.1623L112.792 66.5384ZM116.52 70.5281C118.115 71.5111 119.925 71.999 121.936 71.999V71.2164C120.057 71.2164 118.392 70.7624 116.931 69.8618L116.52 70.5281ZM121.936 71.999C123.455 71.999 124.877 71.7028 126.197 71.1074L125.875 70.3941C124.662 70.9413 123.351 71.2164 121.936 71.2164V71.999ZM126.2 71.1058C127.511 70.4983 128.656 69.6737 129.633 68.6331L129.062 68.0975C128.155 69.064 127.092 69.8298 125.871 70.3957L126.2 71.1058ZM129.633 68.6332C130.622 67.5805 131.396 66.391 131.955 65.0665L131.234 64.7624C130.711 66.0009 129.988 67.112 129.062 68.0974L129.633 68.6332ZM131.955 65.0649C132.516 63.7203 132.796 62.3181 132.796 60.8614H132.013C132.013 62.2148 131.753 63.5146 131.233 64.7639L131.955 65.0649ZM132.796 60.8614C132.796 58.9425 132.331 57.1404 131.404 55.4612L130.719 55.8396C131.582 57.4029 132.013 59.0748 132.013 60.8614H132.796ZM131.405 55.4637C130.494 53.7844 129.228 52.4231 127.614 51.3841L127.19 52.0422C128.695 53.0105 129.869 54.274 130.718 55.8371L131.405 55.4637ZM127.615 51.3851C126.003 50.3372 124.168 49.8165 122.122 49.8165V50.5991C124.028 50.5991 125.713 51.082 127.189 52.0413L127.615 51.3851Z" fill="black"/>
<path d="M409.146 540.389C407.201 540.374 405.255 540.003 403.31 539.278C401.364 538.552 399.589 537.348 397.983 535.665C396.377 533.997 395.088 531.72 394.115 528.833C393.142 525.945 392.656 522.325 392.656 517.97C392.656 513.755 393.057 510.011 393.86 506.738C394.648 503.48 395.79 500.732 397.288 498.493C398.77 496.254 400.577 494.556 402.707 493.398C404.823 492.24 407.216 491.661 409.887 491.661C412.543 491.661 414.913 492.186 416.997 493.235C419.066 494.301 420.765 495.775 422.092 497.659C423.405 499.558 424.246 501.758 424.617 504.26H418.966C418.456 502.083 417.445 500.284 415.932 498.863C414.403 497.458 412.388 496.756 409.887 496.756C406.228 496.756 403.34 498.354 401.225 501.55C399.094 504.746 398.029 509.262 398.029 515.099H398.4C399.264 513.802 400.291 512.682 401.48 511.74C402.669 510.799 403.989 510.073 405.44 509.563C406.892 509.054 408.436 508.799 410.072 508.799C412.79 508.799 415.283 509.471 417.553 510.814C419.807 512.173 421.614 514.033 422.973 516.396C424.316 518.773 424.987 521.491 424.987 524.548C424.987 527.451 424.339 530.106 423.042 532.515C421.73 534.939 419.892 536.869 417.53 538.305C415.152 539.741 412.357 540.436 409.146 540.389ZM409.146 535.294C411.091 535.294 412.844 534.808 414.403 533.835C415.947 532.878 417.175 531.581 418.086 529.944C418.981 528.323 419.429 526.524 419.429 524.548C419.429 522.572 418.997 520.773 418.132 519.152C417.252 517.546 416.055 516.264 414.542 515.307C413.014 514.365 411.277 513.894 409.331 513.894C407.864 513.894 406.498 514.18 405.232 514.751C403.966 515.338 402.862 516.133 401.92 517.137C400.963 518.156 400.214 519.306 399.673 520.588C399.133 521.884 398.863 523.235 398.863 524.641C398.863 526.493 399.311 528.23 400.206 529.852C401.086 531.473 402.306 532.785 403.865 533.789C405.409 534.792 407.17 535.294 409.146 535.294Z" fill="black"/>
<path d="M409.88 541.284C407.935 541.268 405.989 540.898 404.044 540.172C402.099 539.447 400.323 538.242 398.717 536.559C397.111 534.892 395.822 532.614 394.849 529.727C393.877 526.84 393.39 523.219 393.39 518.865C393.39 514.65 393.792 510.906 394.595 507.632C395.382 504.374 396.525 501.626 398.022 499.387C399.505 497.149 401.311 495.45 403.442 494.292C405.557 493.134 407.95 492.555 410.621 492.555C413.277 492.555 415.647 493.08 417.732 494.13C419.801 495.195 421.499 496.67 422.827 498.554C424.139 500.453 424.981 502.653 425.351 505.154H419.7C419.191 502.977 418.179 501.178 416.666 499.758C415.138 498.353 413.123 497.65 410.621 497.65C406.962 497.65 404.075 499.248 401.96 502.444C399.829 505.641 398.763 510.157 398.763 515.993H399.134C399.999 514.696 401.025 513.577 402.214 512.635C403.403 511.693 404.723 510.967 406.175 510.458C407.626 509.948 409.17 509.694 410.807 509.694C413.524 509.694 416.018 510.365 418.287 511.709C420.542 513.067 422.348 514.928 423.707 517.29C425.05 519.668 425.722 522.385 425.722 525.442C425.722 528.345 425.073 531.001 423.776 533.409C422.464 535.834 420.627 537.764 418.264 539.2C415.887 540.635 413.092 541.33 409.88 541.284ZM409.88 536.189C411.826 536.189 413.578 535.702 415.138 534.73C416.682 533.772 417.909 532.475 418.82 530.839C419.716 529.218 420.163 527.419 420.163 525.442C420.163 523.466 419.731 521.667 418.866 520.046C417.986 518.44 416.79 517.159 415.277 516.202C413.748 515.26 412.011 514.789 410.066 514.789C408.599 514.789 407.232 515.074 405.966 515.646C404.7 516.232 403.596 517.028 402.654 518.031C401.697 519.05 400.948 520.201 400.408 521.482C399.867 522.779 399.597 524.13 399.597 525.535C399.597 527.388 400.045 529.125 400.941 530.746C401.821 532.367 403.04 533.68 404.6 534.683C406.144 535.687 407.904 536.189 409.88 536.189Z" fill="black"/>
<path d="M409.88 541.284L409.886 540.893L409.883 540.893L409.88 541.284ZM404.044 540.172L403.907 540.539L403.907 540.539L404.044 540.172ZM398.717 536.559L399 536.289L398.999 536.288L398.717 536.559ZM394.849 529.727L395.22 529.602L394.849 529.727ZM394.595 507.632L394.975 507.726L394.975 507.724L394.595 507.632ZM398.022 499.387L398.348 499.605L398.349 499.603L398.022 499.387ZM403.442 494.292L403.629 494.636L403.63 494.635L403.442 494.292ZM417.732 494.13L417.911 493.782L417.908 493.781L417.732 494.13ZM422.827 498.554L423.149 498.331L423.147 498.328L422.827 498.554ZM425.351 505.154V505.546H425.805L425.738 505.097L425.351 505.154ZM419.7 505.154L419.319 505.243L419.39 505.546H419.7V505.154ZM416.666 499.758L416.934 499.473L416.931 499.47L416.666 499.758ZM401.96 502.444L402.285 502.662L402.286 502.66L401.96 502.444ZM398.763 515.993H398.372V516.384H398.763V515.993ZM399.134 515.993V516.384H399.343L399.46 516.21L399.134 515.993ZM418.287 511.709L418.489 511.373L418.487 511.372L418.287 511.709ZM423.707 517.29L424.048 517.098L424.046 517.095L423.707 517.29ZM423.776 533.409L424.12 533.596L424.121 533.595L423.776 533.409ZM418.264 539.2L418.467 539.534L418.468 539.534L418.264 539.2ZM415.138 534.73L414.931 534.397L414.931 534.398L415.138 534.73ZM418.82 530.839L419.162 531.029L419.163 531.028L418.82 530.839ZM418.866 520.046L419.212 519.862L419.21 519.858L418.866 520.046ZM415.277 516.202L415.486 515.871L415.482 515.868L415.277 516.202ZM405.966 515.646L405.805 515.289L405.802 515.291L405.966 515.646ZM402.654 518.031L402.94 518.299L402.94 518.299L402.654 518.031ZM400.408 521.482L400.047 521.33L400.047 521.332L400.408 521.482ZM400.941 530.746L401.284 530.559L401.283 530.557L400.941 530.746ZM404.6 534.683L404.813 534.355L404.812 534.354L404.6 534.683ZM409.883 540.893C407.987 540.878 406.086 540.516 404.181 539.806L403.907 540.539C405.893 541.279 407.883 541.659 409.877 541.675L409.883 540.893ZM404.181 539.806C402.297 539.103 400.57 537.934 399 536.289L398.434 536.829C400.076 538.55 401.9 539.79 403.907 540.539L404.181 539.806ZM398.999 536.288C397.444 534.673 396.18 532.451 395.22 529.602L394.479 529.852C395.464 532.777 396.779 535.111 398.435 536.831L398.999 536.288ZM395.22 529.602C394.266 526.768 393.782 523.193 393.782 518.865H392.999C392.999 523.245 393.488 526.911 394.479 529.852L395.22 529.602ZM393.782 518.865C393.782 514.674 394.181 510.962 394.975 507.726L394.215 507.539C393.403 510.849 392.999 514.626 392.999 518.865H393.782ZM394.975 507.724C395.754 504.501 396.881 501.797 398.348 499.605L397.697 499.17C396.168 501.455 395.01 504.248 394.214 507.54L394.975 507.724ZM398.349 499.603C399.799 497.412 401.56 495.76 403.629 494.636L403.255 493.948C401.062 495.14 399.21 496.885 397.696 499.171L398.349 499.603ZM403.63 494.635C405.681 493.512 408.009 492.946 410.621 492.946V492.164C407.892 492.164 405.433 492.756 403.254 493.949L403.63 494.635ZM410.621 492.946C413.224 492.946 415.533 493.461 417.556 494.479L417.908 493.781C415.762 492.7 413.33 492.164 410.621 492.164V492.946ZM417.552 494.478C419.566 495.515 421.216 496.947 422.507 498.779L423.147 498.328C421.782 496.392 420.035 494.876 417.911 493.782L417.552 494.478ZM422.505 498.776C423.78 500.621 424.602 502.764 424.964 505.212L425.738 505.097C425.36 502.542 424.498 500.284 423.149 498.331L422.505 498.776ZM425.351 504.763H419.7V505.546H425.351V504.763ZM420.081 505.065C419.556 502.819 418.508 500.95 416.934 499.473L416.398 500.043C417.851 501.407 418.826 503.135 419.319 505.243L420.081 505.065ZM416.931 499.47C415.316 497.985 413.2 497.259 410.621 497.259V498.042C413.046 498.042 414.959 498.72 416.401 500.046L416.931 499.47ZM410.621 497.259C406.824 497.259 403.817 498.929 401.633 502.229L402.286 502.66C404.333 499.568 407.101 498.042 410.621 498.042V497.259ZM401.634 502.227C399.444 505.513 398.372 510.117 398.372 515.993H399.155C399.155 510.197 400.214 505.768 402.285 502.662L401.634 502.227ZM398.763 516.384H399.134V515.602H398.763V516.384ZM399.46 516.21C400.302 514.946 401.301 513.857 402.457 512.942L401.971 512.328C400.75 513.296 399.695 514.446 398.808 515.776L399.46 516.21ZM402.457 512.942C403.612 512.027 404.893 511.322 406.304 510.827L406.045 510.089C404.553 510.612 403.195 511.359 401.971 512.328L402.457 512.942ZM406.304 510.827C407.711 510.333 409.211 510.085 410.807 510.085V509.302C409.129 509.302 407.541 509.564 406.045 510.089L406.304 510.827ZM410.807 510.085C413.456 510.085 415.881 510.739 418.088 512.045L418.487 511.372C416.155 509.992 413.592 509.302 410.807 509.302V510.085ZM418.085 512.044C420.281 513.367 422.041 515.178 423.368 517.485L424.046 517.095C422.655 514.677 420.803 512.768 418.489 511.373L418.085 512.044ZM423.366 517.483C424.672 519.795 425.331 522.445 425.331 525.442H426.113C426.113 522.326 425.428 519.541 424.048 517.098L423.366 517.483ZM425.331 525.442C425.331 528.284 424.696 530.876 423.432 533.224L424.121 533.595C425.45 531.126 426.113 528.406 426.113 525.442H425.331ZM423.432 533.223C422.153 535.586 420.364 537.465 418.061 538.865L418.468 539.534C420.889 538.062 422.775 536.081 424.12 533.596L423.432 533.223ZM418.062 538.865C415.756 540.257 413.036 540.938 409.886 540.893L409.875 541.675C413.148 541.722 416.017 541.014 418.467 539.534L418.062 538.865ZM409.88 536.58C411.895 536.58 413.719 536.075 415.345 535.062L414.931 534.398C413.437 535.329 411.757 535.797 409.88 535.797V536.58ZM415.344 535.062C416.946 534.069 418.22 532.722 419.162 531.029L418.478 530.648C417.599 532.229 416.417 533.476 414.931 534.397L415.344 535.062ZM419.163 531.028C420.092 529.345 420.555 527.48 420.555 525.442H419.772C419.772 527.357 419.339 529.09 418.478 530.65L419.163 531.028ZM420.555 525.442C420.555 523.407 420.109 521.544 419.212 519.862L418.521 520.23C419.353 521.791 419.772 523.525 419.772 525.442H420.555ZM419.21 519.858C418.298 518.196 417.056 516.864 415.486 515.871L415.067 516.532C416.523 517.453 417.674 518.685 418.523 520.234L419.21 519.858ZM415.482 515.868C413.886 514.885 412.077 514.397 410.066 514.397V515.18C411.945 515.18 413.61 515.634 415.071 516.535L415.482 515.868ZM410.066 514.397C408.546 514.397 407.125 514.694 405.805 515.289L406.127 516.002C407.34 515.455 408.651 515.18 410.066 515.18V514.397ZM405.802 515.291C404.491 515.898 403.346 516.723 402.369 517.763L402.94 518.299C403.847 517.332 404.91 516.567 406.131 516.001L405.802 515.291ZM402.369 517.763C401.38 518.816 400.606 520.005 400.047 521.33L400.768 521.634C401.291 520.396 402.014 519.285 402.94 518.299L402.369 517.763ZM400.047 521.332C399.486 522.676 399.206 524.078 399.206 525.535H399.989C399.989 524.182 400.249 522.882 400.769 521.633L400.047 521.332ZM399.206 525.535C399.206 527.454 399.67 529.256 400.598 530.935L401.283 530.557C400.42 528.994 399.989 527.322 399.989 525.535H399.206ZM400.597 530.933C401.508 532.612 402.774 533.973 404.388 535.012L404.812 534.354C403.307 533.386 402.133 532.122 401.284 530.559L400.597 530.933ZM404.387 535.011C405.999 536.059 407.834 536.58 409.88 536.58V535.797C407.974 535.797 406.289 535.314 404.813 534.355L404.387 535.011Z" fill="black"/>
<path d="M340.931 394.445H212.931V407.843H340.931V394.445Z" fill="black"/>
<path d="M338.772 390.436H210.772V403.834H338.772V390.436Z" fill="#7DF6ED" stroke="black" stroke-width="3"/>
<path d="M278.135 187.282C285.593 187.342 293.05 188.762 300.507 191.544C307.965 194.326 314.771 198.942 320.926 205.393C327.082 211.785 332.024 220.515 335.752 231.583C339.481 242.651 341.345 256.53 341.345 273.22C341.345 289.378 339.807 303.73 336.729 316.277C333.71 328.766 329.331 339.301 323.59 347.883C317.908 356.465 310.983 362.975 302.816 367.414C294.707 371.853 285.533 374.072 275.294 374.072C265.114 374.072 256.029 372.06 248.039 368.035C240.108 363.951 233.598 358.299 228.508 351.079C223.477 343.799 220.252 335.365 218.831 325.777H240.493C242.446 334.122 246.323 341.017 252.123 346.462C257.983 351.848 265.706 354.541 275.294 354.541C289.321 354.541 300.389 348.415 308.497 336.164C316.665 323.912 320.749 306.601 320.749 284.228H319.328C316.014 289.2 312.078 293.491 307.521 297.101C302.964 300.712 297.903 303.493 292.34 305.447C286.776 307.4 280.858 308.376 274.584 308.376C264.167 308.376 254.609 305.802 245.909 300.652C237.268 295.444 230.343 288.312 225.134 279.257C219.985 270.142 217.411 259.726 217.411 248.007C217.411 236.88 219.897 226.7 224.868 217.467C229.899 208.175 236.942 200.777 245.997 195.273C255.112 189.768 265.825 187.105 278.135 187.282ZM278.135 206.814C270.678 206.814 263.96 208.678 257.983 212.407C252.064 216.076 247.359 221.048 243.867 227.322C240.434 233.536 238.718 240.431 238.718 248.007C238.718 255.583 240.375 262.478 243.689 268.692C247.063 274.848 251.65 279.76 257.45 283.429C263.309 287.04 269.968 288.845 277.425 288.845C283.048 288.845 288.286 287.75 293.139 285.56C297.992 283.311 302.224 280.263 305.834 276.416C309.504 272.51 312.374 268.1 314.446 263.188C316.517 258.216 317.553 253.038 317.553 247.652C317.553 240.549 315.836 233.891 312.404 227.677C309.03 221.462 304.354 216.431 298.377 212.584C292.458 208.737 285.711 206.814 278.135 206.814Z" fill="black"/>
<path d="M275.318 183.851C282.775 183.91 290.233 185.33 297.69 188.112C305.147 190.894 311.954 195.51 318.109 201.962C324.264 208.354 329.206 217.084 332.935 228.151C336.664 239.219 338.528 253.098 338.528 269.788C338.528 285.946 336.989 300.298 333.912 312.846C330.893 325.334 326.513 335.869 320.772 344.451C315.091 353.033 308.166 359.543 299.998 363.982C291.89 368.421 282.716 370.641 272.477 370.641C262.297 370.641 253.212 368.628 245.222 364.604C237.291 360.52 230.781 354.868 225.691 347.647C220.66 340.367 217.434 331.933 216.014 322.345H237.676C239.629 330.69 243.506 337.585 249.306 343.03C255.165 348.416 262.889 351.109 272.477 351.109C286.504 351.109 297.572 344.984 305.68 332.732C313.848 320.481 317.931 303.169 317.931 280.797H316.511C313.197 285.768 309.261 290.059 304.703 293.67C300.146 297.28 295.086 300.062 289.522 302.015C283.959 303.968 278.04 304.945 271.767 304.945C261.35 304.945 251.792 302.37 243.091 297.221C234.45 292.012 227.525 284.881 222.317 275.825C217.168 266.711 214.593 256.294 214.593 244.575C214.593 233.448 217.079 223.268 222.051 214.035C227.082 204.743 234.125 197.345 243.18 191.841C252.295 186.337 263.007 183.673 275.318 183.851ZM275.318 203.382C267.86 203.382 261.143 205.246 255.165 208.975C249.247 212.645 244.541 217.616 241.049 223.89C237.617 230.104 235.9 236.999 235.9 244.575C235.9 252.151 237.557 259.046 240.872 265.261C244.245 271.416 248.832 276.328 254.632 279.998C260.492 283.608 267.15 285.413 274.608 285.413C280.23 285.413 285.468 284.318 290.321 282.129C295.175 279.879 299.406 276.831 303.017 272.984C306.686 269.078 309.557 264.669 311.628 259.756C313.7 254.785 314.735 249.606 314.735 244.22C314.735 237.118 313.019 230.459 309.586 224.245C306.213 218.03 301.537 213 295.559 209.153C289.641 205.306 282.894 203.382 275.318 203.382Z" fill="#7DF6ED"/>
<path d="M275.318 183.851L275.296 185.351L275.306 185.351L275.318 183.851ZM297.69 188.112L298.214 186.707L297.69 188.112ZM318.109 201.962L317.024 202.997L317.029 203.002L318.109 201.962ZM332.935 228.151L331.514 228.63V228.63L332.935 228.151ZM333.912 312.846L332.455 312.488L332.454 312.493L333.912 312.846ZM320.772 344.451L319.526 343.617L319.522 343.623L320.772 344.451ZM299.998 363.982L299.282 362.664L299.278 362.666L299.998 363.982ZM245.222 364.604L244.535 365.937L244.547 365.943L245.222 364.604ZM225.691 347.647L224.457 348.5L224.465 348.511L225.691 347.647ZM216.014 322.345V320.845H214.275L214.53 322.565L216.014 322.345ZM237.676 322.345L239.136 322.003L238.865 320.845H237.676V322.345ZM249.306 343.03L248.279 344.124L248.285 344.13L248.291 344.135L249.306 343.03ZM305.68 332.732L304.432 331.9L304.429 331.904L305.68 332.732ZM317.931 280.797H319.431V279.297H317.931V280.797ZM316.511 280.797V279.297H315.708L315.263 279.965L316.511 280.797ZM243.091 297.221L242.317 298.506L242.327 298.512L243.091 297.221ZM222.317 275.825L221.011 276.563L221.017 276.573L222.317 275.825ZM222.051 214.035L220.732 213.321L220.73 213.324L222.051 214.035ZM243.18 191.841L242.405 190.557L242.401 190.559L243.18 191.841ZM255.165 208.975L255.956 210.25L255.959 210.248L255.165 208.975ZM241.049 223.89L239.739 223.16L239.736 223.165L241.049 223.89ZM240.872 265.261L239.548 265.966L239.552 265.974L239.556 265.982L240.872 265.261ZM254.632 279.998L253.83 281.265L253.838 281.27L253.846 281.275L254.632 279.998ZM290.321 282.129L290.938 283.496L290.945 283.493L290.952 283.489L290.321 282.129ZM303.017 272.984L301.923 271.957L301.923 271.958L303.017 272.984ZM311.628 259.756L313.01 260.339L313.013 260.333L311.628 259.756ZM309.586 224.245L308.268 224.961L308.273 224.97L309.586 224.245ZM295.559 209.153L294.742 210.41L294.748 210.414L295.559 209.153ZM275.306 185.351C282.577 185.408 289.861 186.793 297.166 189.518L298.214 186.707C290.604 183.868 282.974 182.412 275.33 182.351L275.306 185.351ZM297.166 189.518C304.386 192.211 311.006 196.69 317.024 202.997L319.194 200.926C312.901 194.331 305.909 189.577 298.214 186.707L297.166 189.518ZM317.029 203.002C322.99 209.192 327.834 217.709 331.514 228.63L334.357 227.672C330.578 216.458 325.539 207.515 319.19 200.921L317.029 203.002ZM331.514 228.63C335.173 239.493 337.028 253.197 337.028 269.788H340.028C340.028 252.999 338.154 238.945 334.357 227.672L331.514 228.63ZM337.028 269.788C337.028 285.854 335.498 300.083 332.455 312.489L335.368 313.203C338.481 300.514 340.028 286.038 340.028 269.788H337.028ZM332.454 312.493C329.467 324.85 325.148 335.213 319.526 343.617L322.019 345.285C327.879 336.525 332.319 325.818 335.37 313.198L332.454 312.493ZM319.522 343.623C313.96 352.023 307.212 358.355 299.282 362.664L300.714 365.3C309.12 360.732 316.221 354.043 322.023 345.279L319.522 343.623ZM299.278 362.666C291.413 366.972 282.492 369.141 272.477 369.141V372.141C282.94 372.141 292.366 369.87 300.719 365.298L299.278 362.666ZM272.477 369.141C262.499 369.141 253.65 367.169 245.897 363.264L244.547 365.943C252.774 370.087 262.095 372.141 272.477 372.141V369.141ZM245.909 363.27C238.191 359.296 231.866 353.804 226.917 346.783L224.465 348.511C229.695 355.931 236.392 361.744 244.535 365.937L245.909 363.27ZM226.925 346.794C222.037 339.721 218.888 331.508 217.498 322.125L214.53 322.565C215.981 332.358 219.283 341.013 224.457 348.5L226.925 346.794ZM216.014 323.845H237.676V320.845H216.014V323.845ZM236.215 322.687C238.23 331.297 242.247 338.461 248.279 344.124L250.332 341.937C244.765 336.71 241.028 330.084 239.136 322.003L236.215 322.687ZM248.291 344.135C254.481 349.825 262.594 352.609 272.477 352.609V349.609C263.184 349.609 255.849 347.007 250.321 341.926L248.291 344.135ZM272.477 352.609C287.035 352.609 298.56 346.207 306.931 333.56L304.429 331.904C296.583 343.76 285.973 349.609 272.477 349.609V352.609ZM306.928 333.564C315.325 320.969 319.431 303.322 319.431 280.797H316.431C316.431 303.016 312.371 319.992 304.432 331.9L306.928 333.564ZM317.931 279.297H316.511V282.297H317.931V279.297ZM315.263 279.965C312.033 284.81 308.203 288.984 303.772 292.494L305.635 294.845C310.318 291.135 314.36 286.727 317.759 281.629L315.263 279.965ZM303.772 292.494C299.347 295.999 294.434 298.701 289.026 300.6L290.019 303.43C295.738 301.423 300.945 298.561 305.635 294.845L303.772 292.494ZM289.026 300.6C283.632 302.493 277.882 303.445 271.767 303.445V306.445C278.199 306.445 284.286 305.443 290.019 303.43L289.026 300.6ZM271.767 303.445C261.61 303.445 252.317 300.938 243.855 295.93L242.327 298.512C251.266 303.802 261.09 306.445 271.767 306.445V303.445ZM243.866 295.936C235.45 290.864 228.703 283.92 223.617 275.077L221.017 276.573C226.347 285.841 233.45 293.161 242.317 298.506L243.866 295.936ZM223.623 275.087C218.616 266.224 216.093 256.067 216.093 244.575H213.093C213.093 256.521 215.72 267.197 221.011 276.563L223.623 275.087ZM216.093 244.575C216.093 233.681 218.525 223.748 223.371 214.747L220.73 213.324C215.634 222.789 213.093 233.216 213.093 244.575H216.093ZM223.37 214.75C228.274 205.692 235.13 198.489 243.959 193.123L242.401 190.559C233.119 196.201 225.889 203.795 220.732 213.321L223.37 214.75ZM243.955 193.125C252.794 187.787 263.222 185.176 275.296 185.351L275.339 182.351C262.793 182.17 251.795 184.886 242.405 190.557L243.955 193.125ZM275.318 201.882C267.597 201.882 260.601 203.816 254.371 207.702L255.959 210.248C261.684 206.676 268.124 204.882 275.318 204.882V201.882ZM254.375 207.7C248.232 211.509 243.351 216.671 239.739 223.16L242.36 224.619C245.732 218.562 250.261 213.781 255.956 210.25L254.375 207.7ZM239.736 223.165C236.173 229.616 234.4 236.763 234.4 244.575H237.4C237.4 237.236 239.06 230.593 242.362 224.615L239.736 223.165ZM234.4 244.575C234.4 252.378 236.109 259.518 239.548 265.966L242.195 264.555C239.005 258.574 237.4 251.924 237.4 244.575H234.4ZM239.556 265.982C243.049 272.354 247.811 277.457 253.83 281.265L255.434 278.73C249.854 275.2 245.442 270.477 242.187 264.54L239.556 265.982ZM253.846 281.275C259.961 285.043 266.896 286.913 274.608 286.913V283.913C267.404 283.913 261.022 282.173 255.419 278.721L253.846 281.275ZM274.608 286.913C280.431 286.913 285.88 285.778 290.938 283.496L289.704 280.761C285.056 282.859 280.03 283.913 274.608 283.913V286.913ZM290.952 283.489C295.977 281.161 300.367 278 304.11 274.011L301.923 271.958C298.446 275.663 294.372 278.598 289.691 280.768L290.952 283.489ZM304.11 274.011C307.901 269.976 310.869 265.416 313.01 260.339L310.246 259.174C308.244 263.921 305.472 268.18 301.923 271.957L304.11 274.011ZM313.013 260.333C315.16 255.179 316.235 249.804 316.235 244.22H313.235C313.235 249.408 312.239 254.391 310.244 259.179L313.013 260.333ZM316.235 244.22C316.235 236.864 314.455 229.956 310.899 223.52L308.273 224.97C311.583 230.963 313.235 237.371 313.235 244.22H316.235ZM310.905 223.529C307.41 217.092 302.56 211.874 296.371 207.891L294.748 210.414C300.514 214.125 305.015 218.969 308.268 224.961L310.905 223.529ZM296.377 207.895C290.197 203.878 283.162 201.882 275.318 201.882V204.882C282.626 204.882 289.085 206.733 294.742 210.41L296.377 207.895Z" fill="black"/>
<path d="M392.972 486.666H425.962V483.213H392.972V486.666Z" fill="black"/>
<path d="M393.697 487.699H426.688V484.246H393.697V487.699Z" fill="black" stroke="black" stroke-width="0.773206"/>
<path d="M139.031 99.7524H106.041V103.206H139.031V99.7524Z" fill="black"/>
<path d="M138.305 98.7188H105.314V102.172H138.305V98.7188Z" fill="black" stroke="black" stroke-width="0.773206"/>
</svg>
